<svg xmlns="http://www.w3.org/2000/svg" width="509.02" height="419.76" viewBox="0 0 509.02 419.76">
  <g id="Grupo_60891" data-name="Grupo 60891" transform="translate(-137.474 -77.989)">
    <g id="Grupo_60838" data-name="Grupo 60838" transform="translate(137.474 85.864)">
      <g id="Grupo_60831" data-name="Grupo 60831" transform="translate(56.878 37.528)">
        <path id="Trazado_105364" data-name="Trazado 105364" d="M283.015,171.346V159.479a2.1,2.1,0,0,0-2.1-2.1H277.86a1.927,1.927,0,0,1-1.886-1.48,41.977,41.977,0,0,0-5.286-12.828,1.958,1.958,0,0,1,.256-2.429l2.148-2.148a2.1,2.1,0,0,0,0-2.973l-8.39-8.39a2.1,2.1,0,0,0-2.972,0l-2.145,2.145a1.957,1.957,0,0,1-2.429.255,42.013,42.013,0,0,0-12.832-5.292,1.926,1.926,0,0,1-1.478-1.885v-3.045a2.1,2.1,0,0,0-2.1-2.1H228.877a2.1,2.1,0,0,0-2.1,2.1v3.044a1.927,1.927,0,0,1-1.48,1.886,41.988,41.988,0,0,0-12.833,5.291,1.957,1.957,0,0,1-2.429-.256l-2.143-2.143a2.1,2.1,0,0,0-2.972,0l-8.39,8.39a2.1,2.1,0,0,0,0,2.973l2.145,2.145a1.955,1.955,0,0,1,.255,2.428,42.056,42.056,0,0,0-5.287,12.832,1.926,1.926,0,0,1-1.885,1.48h-3.051a2.1,2.1,0,0,0-2.1,2.1v11.866a2.1,2.1,0,0,0,2.1,2.1h3.052a1.927,1.927,0,0,1,1.885,1.478,42.032,42.032,0,0,0,5.288,12.828,1.957,1.957,0,0,1-.255,2.429l-2.148,2.149a2.1,2.1,0,0,0,0,2.972l8.39,8.391a2.1,2.1,0,0,0,2.972,0l2.15-2.151a1.958,1.958,0,0,1,2.429-.255A42.017,42.017,0,0,0,225.3,206.57a1.927,1.927,0,0,1,1.48,1.886v3.06a2.1,2.1,0,0,0,2.1,2.1h11.865a2.1,2.1,0,0,0,2.1-2.1v-3.061a1.928,1.928,0,0,1,1.48-1.886,42,42,0,0,0,12.825-5.281,1.956,1.956,0,0,1,2.428.255l2.152,2.152a2.1,2.1,0,0,0,2.972,0l8.39-8.391a2.1,2.1,0,0,0,0-2.972l-2.15-2.15a1.958,1.958,0,0,1-.256-2.429,41.97,41.97,0,0,0,5.287-12.826,1.927,1.927,0,0,1,1.885-1.48h3.056A2.1,2.1,0,0,0,283.015,171.346Zm-48.208,27.523A33.452,33.452,0,1,1,268.245,165.4,33.447,33.447,0,0,1,234.807,198.869Z" transform="translate(-186.604 -117.207)" fill="none" stroke="#dee3fc" stroke-miterlimit="10" stroke-width="0.79"/>
        <path id="Trazado_105365" data-name="Trazado 105365" d="M325.974,203.693v-8.087a1.432,1.432,0,0,0-1.432-1.432H322.46a1.313,1.313,0,0,1-1.285-1.008,28.624,28.624,0,0,0-3.6-8.742,1.333,1.333,0,0,1,.174-1.656l1.463-1.463a1.433,1.433,0,0,0,0-2.026l-5.718-5.718a1.432,1.432,0,0,0-2.025,0l-1.462,1.462a1.336,1.336,0,0,1-1.655.174,28.6,28.6,0,0,0-8.744-3.606,1.314,1.314,0,0,1-1.008-1.285v-2.075a1.432,1.432,0,0,0-1.432-1.432h-8.087a1.432,1.432,0,0,0-1.432,1.432v2.075a1.314,1.314,0,0,1-1.008,1.285,28.631,28.631,0,0,0-8.746,3.605,1.336,1.336,0,0,1-1.655-.174l-1.46-1.46a1.432,1.432,0,0,0-2.026,0l-5.717,5.718a1.433,1.433,0,0,0,0,2.026l1.462,1.462a1.334,1.334,0,0,1,.174,1.654,28.617,28.617,0,0,0-3.6,8.745,1.313,1.313,0,0,1-1.285,1.007H261.7a1.432,1.432,0,0,0-1.432,1.432v8.087a1.433,1.433,0,0,0,1.432,1.433h2.08a1.312,1.312,0,0,1,1.284,1.007,28.668,28.668,0,0,0,3.6,8.743,1.333,1.333,0,0,1-.174,1.656l-1.463,1.463a1.433,1.433,0,0,0,0,2.026l5.717,5.718a1.433,1.433,0,0,0,2.026,0l1.466-1.466a1.332,1.332,0,0,1,1.654-.174,28.653,28.653,0,0,0,8.742,3.6,1.313,1.313,0,0,1,1.008,1.285v2.086a1.432,1.432,0,0,0,1.432,1.432h8.087a1.432,1.432,0,0,0,1.432-1.432v-2.087a1.312,1.312,0,0,1,1.008-1.284,28.66,28.66,0,0,0,8.741-3.6,1.334,1.334,0,0,1,1.654.174l1.467,1.467a1.432,1.432,0,0,0,2.025,0l5.718-5.718a1.433,1.433,0,0,0,0-2.026l-1.466-1.464a1.336,1.336,0,0,1-.174-1.656,28.63,28.63,0,0,0,3.6-8.742,1.313,1.313,0,0,1,1.285-1.007h2.083A1.433,1.433,0,0,0,325.974,203.693Zm-32.853,17.472a21.512,21.512,0,1,1,21.5-21.52A21.508,21.508,0,0,1,293.121,221.165Z" transform="translate(-174.987 -109.386)" fill="#fff"/>
      </g>
      <g id="Grupo_60832" data-name="Grupo 60832" transform="translate(11.633)">
        <circle id="Elipse_1656" data-name="Elipse 1656" cx="2.459" cy="2.459" r="2.459" transform="translate(417.883 44.905)" fill="#a4afff"/>
        <path id="Trazado_105366" data-name="Trazado 105366" d="M199.416,97.745a2.459,2.459,0,1,1-2.459-2.459A2.459,2.459,0,0,1,199.416,97.745Z" transform="translate(-140.114 -83.136)" fill="#ffca28"/>
        <circle id="Elipse_1659" data-name="Elipse 1659" cx="3.92" cy="3.92" r="3.92" transform="translate(122.966)" fill="#ffca28"/>
        <path id="Trazado_105369" data-name="Trazado 105369" d="M492.179,242.951a5.245,5.245,0,1,1-5.246-5.246A5.245,5.245,0,0,1,492.179,242.951Z" transform="translate(-94.824 -60.677)" fill="#ffca28"/>
      </g>
      <g id="Grupo_60833" data-name="Grupo 60833" transform="translate(0 30.984)">
        <rect id="Rectángulo_7732" data-name="Rectángulo 7732" width="8.134" height="8.134" rx="0.664" fill="#fff"/>
        <rect id="Rectángulo_7733" data-name="Rectángulo 7733" width="8.134" height="8.134" rx="0.664" transform="translate(10.88)" fill="#fff"/>
        <rect id="Rectángulo_7734" data-name="Rectángulo 7734" width="8.134" height="8.134" rx="0.664" transform="translate(21.76)" fill="#fff"/>
      </g>
      <g id="Grupo_60837" data-name="Grupo 60837" transform="translate(51.07 312.169)">
        <g id="Grupo_60836" data-name="Grupo 60836">
          <rect id="Rectángulo_7738" data-name="Rectángulo 7738" width="8.134" height="8.134" rx="0.664" fill="#fff"/>
          <rect id="Rectángulo_7739" data-name="Rectángulo 7739" width="8.134" height="8.134" rx="0.664" transform="translate(10.88)" fill="#fff"/>
          <rect id="Rectángulo_7740" data-name="Rectángulo 7740" width="8.134" height="8.134" rx="0.664" transform="translate(21.76)" fill="#fff"/>
        </g>
      </g>
    </g>
    <g id="Grupo_60847" data-name="Grupo 60847" transform="translate(309.422 77.989)">
      <g id="Grupo_60839" data-name="Grupo 60839">
        <rect id="Rectángulo_7741" data-name="Rectángulo 7741" width="206.07" height="398.086" rx="21.349" fill="#009baf"/>
        <rect id="Rectángulo_7742" data-name="Rectángulo 7742" width="198.353" height="388.943" rx="18.7" transform="translate(3.858 3.485)" fill="#fff"/>
        <path id="Trazado_105371" data-name="Trazado 105371" d="M477.821,101.111V446.355a14.661,14.661,0,0,1-14.661,14.661H311.494a14.661,14.661,0,0,1-14.661-14.661V101.111a14.662,14.662,0,0,1,14.661-14.662h25.291A3.708,3.708,0,0,1,340.1,88.5l2.686,5.361a7.244,7.244,0,0,0,6.5,4.023H425.37a7.244,7.244,0,0,0,6.5-4.023l2.686-5.361a3.708,3.708,0,0,1,3.316-2.048H463.16A14.662,14.662,0,0,1,477.821,101.111Z" transform="translate(-284.292 -76.655)" fill="#a9ebf4"/>
        <path id="Trazado_105372" data-name="Trazado 105372" d="M411.28,91.61H350a2.58,2.58,0,0,1-2.579-2.581h0A2.58,2.58,0,0,1,350,86.449H411.28a2.581,2.581,0,0,1,2.581,2.581h0A2.581,2.581,0,0,1,411.28,91.61Z" transform="translate(-276.314 -76.655)" fill="#dee3fc"/>
      </g>
      <rect id="Rectángulo_7743" data-name="Rectángulo 7743" width="155.768" height="67.552" rx="8.379" transform="translate(23.386 304.825)" fill="none" stroke="#698bd1" stroke-linecap="round" stroke-linejoin="round" stroke-width="1" stroke-dasharray="2.837"/>
      <rect id="Rectángulo_7744" data-name="Rectángulo 7744" width="81.642" height="47.428" rx="6.044" transform="translate(87.897 159.183)" fill="none" stroke="#4dd0e1" stroke-linecap="round" stroke-linejoin="round" stroke-width="1" stroke-dasharray="2.837"/>
      <g id="Grupo_60843" data-name="Grupo 60843" transform="translate(23.386 211.871)">
        <rect id="Rectángulo_7745" data-name="Rectángulo 7745" width="156.387" height="75.601" rx="7.201" transform="translate(5.67 6.116)" fill="#f2fdff"/>
        <path id="Trazado_105373" data-name="Trazado 105373" d="M461.968,269.324v58.962a8.315,8.315,0,0,1-8.324,8.312H314.524a8.315,8.315,0,0,1-8.324-8.312V269.324A8.325,8.325,0,0,1,314.524,261H453.645A8.325,8.325,0,0,1,461.968,269.324Z" transform="translate(-306.2 -261)" fill="#b8eef5"/>
        <rect id="Rectángulo_7746" data-name="Rectángulo 7746" width="52.24" height="52.24" rx="4.861" transform="translate(7.197 17.213)" fill="#fff"/>
        <g id="Grupo_60840" data-name="Grupo 60840" transform="translate(64.512 20.269)">
          <path id="Trazado_105374" data-name="Trazado 105374" d="M399.8,282.062H363.7a1.777,1.777,0,0,1-1.777-1.777h0a1.777,1.777,0,0,1,1.777-1.777h36.1a1.778,1.778,0,0,1,1.778,1.777h0A1.778,1.778,0,0,1,399.8,282.062Z" transform="translate(-361.924 -278.508)" fill="#4dd0e1"/>
          <path id="Trazado_105375" data-name="Trazado 105375" d="M383.348,288.192H363.7a1.777,1.777,0,0,1-1.777-1.777h0a1.778,1.778,0,0,1,1.777-1.778h19.647a1.778,1.778,0,0,1,1.777,1.778h0A1.777,1.777,0,0,1,383.348,288.192Z" transform="translate(-361.924 -277.541)" fill="#4dd0e1"/>
          <path id="Trazado_105376" data-name="Trazado 105376" d="M440.082,288.192H386.918a1.777,1.777,0,0,1-1.777-1.777h0a1.778,1.778,0,0,1,1.777-1.778h53.164a1.778,1.778,0,0,1,1.777,1.778h0A1.778,1.778,0,0,1,440.082,288.192Z" transform="translate(-358.263 -277.541)" fill="#4dd0e1"/>
          <path id="Trazado_105377" data-name="Trazado 105377" d="M394.1,294.321H363.7a1.777,1.777,0,0,1-1.777-1.777h0a1.777,1.777,0,0,1,1.777-1.777h30.4a1.777,1.777,0,0,1,1.777,1.777h0A1.778,1.778,0,0,1,394.1,294.321Z" transform="translate(-361.924 -276.575)" fill="#4dd0e1"/>
          <path id="Trazado_105378" data-name="Trazado 105378" d="M414.85,294.321H395.74a1.777,1.777,0,0,1-1.777-1.777h0a1.777,1.777,0,0,1,1.777-1.777h19.11a1.777,1.777,0,0,1,1.777,1.777h0A1.778,1.778,0,0,1,414.85,294.321Z" transform="translate(-356.871 -276.575)" fill="#4dd0e1"/>
          <path id="Trazado_105379" data-name="Trazado 105379" d="M435.237,294.321h-17.6a1.778,1.778,0,0,1-1.777-1.777h0a1.777,1.777,0,0,1,1.777-1.777h17.6a1.777,1.777,0,0,1,1.777,1.777h0A1.778,1.778,0,0,1,435.237,294.321Z" transform="translate(-353.418 -276.575)" fill="#4dd0e1"/>
          <path id="Trazado_105380" data-name="Trazado 105380" d="M443.743,300.45H363.7a1.777,1.777,0,0,1-1.777-1.777h0A1.777,1.777,0,0,1,363.7,296.9h80.042a1.777,1.777,0,0,1,1.777,1.777h0A1.777,1.777,0,0,1,443.743,300.45Z" transform="translate(-361.924 -275.608)" fill="#4dd0e1"/>
          <path id="Trazado_105381" data-name="Trazado 105381" d="M407.754,306.579H363.7a1.777,1.777,0,0,1-1.777-1.777h0a1.777,1.777,0,0,1,1.777-1.777h44.053a1.777,1.777,0,0,1,1.777,1.777h0A1.777,1.777,0,0,1,407.754,306.579Z" transform="translate(-361.924 -274.642)" fill="#4dd0e1"/>
          <path id="Trazado_105382" data-name="Trazado 105382" d="M436.775,306.579H407.887a1.777,1.777,0,0,1-1.777-1.777h0a1.777,1.777,0,0,1,1.777-1.777h28.888a1.777,1.777,0,0,1,1.777,1.777h0A1.777,1.777,0,0,1,436.775,306.579Z" transform="translate(-354.956 -274.642)" fill="#4dd0e1"/>
          <path id="Trazado_105383" data-name="Trazado 105383" d="M389.584,312.708H363.7a1.777,1.777,0,0,1-1.777-1.777h0a1.777,1.777,0,0,1,1.777-1.777h25.883a1.777,1.777,0,0,1,1.777,1.777h0A1.777,1.777,0,0,1,389.584,312.708Z" transform="translate(-361.924 -273.675)" fill="#4dd0e1"/>
          <path id="Trazado_105384" data-name="Trazado 105384" d="M417.992,312.708H392.109a1.777,1.777,0,0,1-1.777-1.777h0a1.777,1.777,0,0,1,1.777-1.777h25.883a1.777,1.777,0,0,1,1.777,1.777h0A1.777,1.777,0,0,1,417.992,312.708Z" transform="translate(-357.444 -273.675)" fill="#4dd0e1"/>
          <path id="Trazado_105385" data-name="Trazado 105385" d="M434.886,312.708H419.867a1.777,1.777,0,0,1-1.777-1.777h0a1.777,1.777,0,0,1,1.777-1.777h15.019a1.778,1.778,0,0,1,1.777,1.777h0A1.777,1.777,0,0,1,434.886,312.708Z" transform="translate(-353.067 -273.675)" fill="#4dd0e1"/>
          <path id="Trazado_105386" data-name="Trazado 105386" d="M399.8,318.838H363.7a1.778,1.778,0,0,1-1.777-1.778h0a1.777,1.777,0,0,1,1.777-1.777h36.1a1.778,1.778,0,0,1,1.778,1.777h0A1.779,1.779,0,0,1,399.8,318.838Z" transform="translate(-361.924 -272.709)" fill="#4dd0e1"/>
          <path id="Trazado_105387" data-name="Trazado 105387" d="M437.757,282.062h-36.1a1.777,1.777,0,0,1-1.777-1.777h0a1.777,1.777,0,0,1,1.777-1.777h36.1a1.777,1.777,0,0,1,1.777,1.777h0A1.777,1.777,0,0,1,437.757,282.062Z" transform="translate(-355.938 -278.508)" fill="#4dd0e1"/>
        </g>
        <g id="Grupo_60842" data-name="Grupo 60842">
          <path id="Trazado_105388" data-name="Trazado 105388" d="M461.968,269.324V271.8H306.2v-2.477A8.325,8.325,0,0,1,314.524,261H453.645A8.325,8.325,0,0,1,461.968,269.324Z" transform="translate(-306.2 -261)" fill="#4dd0e1"/>
          <g id="Grupo_60841" data-name="Grupo 60841" transform="translate(122.548 3.666)">
            <path id="Trazado_105389" data-name="Trazado 105389" d="M415.915,266.1a1.93,1.93,0,1,1-1.93-1.929A1.93,1.93,0,0,1,415.915,266.1Z" transform="translate(-412.055 -264.167)" fill="#fff"/>
            <path id="Trazado_105390" data-name="Trazado 105390" d="M424.443,266.1a1.93,1.93,0,1,1-1.93-1.929A1.93,1.93,0,0,1,424.443,266.1Z" transform="translate(-410.71 -264.167)" fill="#fff"/>
            <path id="Trazado_105391" data-name="Trazado 105391" d="M432.971,266.1a1.93,1.93,0,1,1-1.93-1.929A1.93,1.93,0,0,1,432.971,266.1Z" transform="translate(-409.365 -264.167)" fill="#fff"/>
          </g>
        </g>
      </g>
      <g id="Grupo_60845" data-name="Grupo 60845" transform="translate(32.504 159.226)">
        <rect id="Rectángulo_7747" data-name="Rectángulo 7747" width="47.385" height="47.385" rx="7.151" fill="none" stroke="#4dd0e1" stroke-miterlimit="10" stroke-width="0.896"/>
        <g id="Grupo_60844" data-name="Grupo 60844" transform="translate(9.474 16.839)">
          <path id="Trazado_105392" data-name="Trazado 105392" d="M329.087,230.071,322.26,236.9l6.881,6.881" transform="translate(-322.26 -230.071)" fill="none" stroke="#4dd0e1" stroke-linecap="round" stroke-linejoin="round" stroke-width="1.672"/>
          <path id="Trazado_105393" data-name="Trazado 105393" d="M340.934,230.071l6.827,6.827-6.881,6.881" transform="translate(-319.324 -230.071)" fill="none" stroke="#4dd0e1" stroke-linecap="round" stroke-linejoin="round" stroke-width="1.672"/>
          <line id="Línea_109" data-name="Línea 109" x1="6.393" y2="13.708" transform="translate(11.022)" fill="none" stroke="#4dd0e1" stroke-linecap="round" stroke-linejoin="round" stroke-width="1.672"/>
        </g>
      </g>
      <g id="Grupo_60846" data-name="Grupo 60846" transform="translate(23.386 34.095)">
        <rect id="Rectángulo_7748" data-name="Rectángulo 7748" width="155.768" height="115.342" rx="8.18" fill="#4dd0e1"/>
        <circle id="Elipse_1660" data-name="Elipse 1660" cx="22.575" cy="22.575" r="22.575" transform="translate(101.646 7.884)" fill="#f0f4ff"/>
        <path id="Trazado_105394" data-name="Trazado 105394" d="M397.762,219.236H315.67a9.474,9.474,0,0,1-9.47-9.47V194.589l35.923-62.226a4.879,4.879,0,0,1,8.451,0L377.7,179.342l20.144,34.893A4.787,4.787,0,0,1,397.762,219.236Z" transform="translate(-306.2 -103.895)" fill="#fff"/>
        <path id="Trazado_105395" data-name="Trazado 105395" d="M426.564,215.732h-78.5L371.1,175.838l12.411-21.5a4.39,4.39,0,0,1,7.606,0Z" transform="translate(-299.599 -100.39)" fill="#f0f4ff"/>
      </g>
    </g>
    <g id="Grupo_60857" data-name="Grupo 60857" transform="translate(489.456 232.842)">
      <g id="Grupo_60849" data-name="Grupo 60849" transform="translate(65.506 173.715)">
        <rect id="Rectángulo_7749" data-name="Rectángulo 7749" width="60.52" height="90.952" fill="#ffca28"/>
        <rect id="Rectángulo_7750" data-name="Rectángulo 7750" width="23.173" height="90.952" transform="translate(83.693 90.952) rotate(180)" fill="#ffe493"/>
        <g id="Grupo_60848" data-name="Grupo 60848" transform="translate(63.838 3.493)">
          <rect id="Rectángulo_7751" data-name="Rectángulo 7751" width="17.014" height="2.903" fill="#ffa726"/>
          <rect id="Rectángulo_7752" data-name="Rectángulo 7752" width="17.014" height="2.903" transform="translate(0 6.236)" fill="#ffa726"/>
          <rect id="Rectángulo_7753" data-name="Rectángulo 7753" width="17.014" height="2.903" transform="translate(0 12.471)" fill="#ffa726"/>
          <rect id="Rectángulo_7754" data-name="Rectángulo 7754" width="17.014" height="2.903" transform="translate(0 18.707)" fill="#ffa726"/>
          <rect id="Rectángulo_7755" data-name="Rectángulo 7755" width="17.014" height="2.903" transform="translate(0 24.943)" fill="#ffa726"/>
          <rect id="Rectángulo_7756" data-name="Rectángulo 7756" width="17.014" height="2.903" transform="translate(0 31.178)" fill="#ffa726"/>
          <rect id="Rectángulo_7757" data-name="Rectángulo 7757" width="17.014" height="2.903" transform="translate(0 37.414)" fill="#ffa726"/>
          <rect id="Rectángulo_7758" data-name="Rectángulo 7758" width="17.014" height="2.903" transform="translate(0 43.65)" fill="#ffa726"/>
          <rect id="Rectángulo_7759" data-name="Rectángulo 7759" width="17.014" height="2.903" transform="translate(0 49.885)" fill="#ffa726"/>
          <rect id="Rectángulo_7760" data-name="Rectángulo 7760" width="17.014" height="2.903" transform="translate(0 56.121)" fill="#ffa726"/>
          <rect id="Rectángulo_7761" data-name="Rectángulo 7761" width="17.014" height="2.903" transform="translate(0 62.357)" fill="#ffa726"/>
          <rect id="Rectángulo_7762" data-name="Rectángulo 7762" width="17.014" height="2.903" transform="translate(0 68.592)" fill="#ffa726"/>
          <rect id="Rectángulo_7763" data-name="Rectángulo 7763" width="17.014" height="2.903" transform="translate(0 74.828)" fill="#ffa726"/>
          <rect id="Rectángulo_7764" data-name="Rectángulo 7764" width="17.014" height="2.903" transform="translate(0 81.064)" fill="#ffa726"/>
        </g>
      </g>
      <g id="Grupo_60856" data-name="Grupo 60856">
        <path id="Trazado_105396" data-name="Trazado 105396" d="M489.605,442.033h30.758s1.719-5.477-2.006-12.262c0,0-2.475,1.985-9.891.643a32.984,32.984,0,0,1-5.232,3.656C501.085,435.108,488.777,437.525,489.605,442.033Z" transform="translate(-433.931 -177.366)" fill="#281616"/>
        <path id="Trazado_105397" data-name="Trazado 105397" d="M491.548,366.3c1.987,11.854,11.153,51.958,15.094,75.649,7.2.614,10.661-.213,12.494-.636-.359-8.261-1.07-28.022-.986-36.689.137-14.646.824-33.96-5.623-44.559l-21.679,1.706c.132,1.144.252,2.076.358,2.741C491.31,365.15,491.429,365.739,491.548,366.3Z" transform="translate(-433.729 -188.359)" fill="#002c54"/>
        <path id="Trazado_105398" data-name="Trazado 105398" d="M441.549,442.033h30.759s1.719-5.477-2.006-12.262c0,0-2.476,1.985-9.891.643a33.014,33.014,0,0,1-5.233,3.656C453.029,435.108,440.721,437.525,441.549,442.033Z" transform="translate(-441.509 -177.366)" fill="#281616"/>
        <path id="Trazado_105399" data-name="Trazado 105399" d="M457.066,442.224a35.287,35.287,0,0,0,12.15,1.087c1.636-9.523,4.219-30.476,6.543-40.3,3.607-15.267,7.138-36.261,4.685-43.752l-21.325-5.355C459.048,354.582,457.313,418.837,457.066,442.224Z" transform="translate(-439.056 -189.33)" fill="#052635"/>
        <path id="Trazado_105400" data-name="Trazado 105400" d="M541.667,336.018h0c-.428-4.214-.922-7.292-.922-7.292l-23.825,5.831-20.239,4.611c-7.5,1.672-16.567,3.684-24.558,5.49-8.966,2.038-14.919,8.848-12.955,17.827l2.247,10.89c12.541-.171,71.505-5.823,76.548-8.37C543.663,362.128,545.377,351.954,541.667,336.018Z" transform="translate(-438.784 -193.301)" fill="#052635"/>
        <path id="Trazado_105401" data-name="Trazado 105401" d="M572.389,336.215h0a32.916,32.916,0,0,0-2.483-8.736l-22.264,7.275L527.4,339.365c-7.5,1.672-16.568,3.684-24.558,5.49-8.966,2.038-14.919,8.848-12.956,17.827l2.248,10.891c12.54-.171,64.958-2,76.548-8.37C574.28,362.127,576.1,352.151,572.389,336.215Z" transform="translate(-433.939 -193.498)" fill="#002c54"/>
        <g id="Grupo_60850" data-name="Grupo 60850" transform="translate(36.738 106.45)">
          <path id="Trazado_105402" data-name="Trazado 105402" d="M508.268,305.819s10.582-4.78,13.494.014c1.594,2.624.492,7.5-3.118,9.546s-24,10.673-43.254,15.483a46.734,46.734,0,0,0-2.147-5.492,101.351,101.351,0,0,0,17.221-9.611,109.773,109.773,0,0,1,17.8-9.94Z" transform="translate(-473.243 -303.698)" fill="#e5918f"/>
        </g>
        <path id="Trazado_105403" data-name="Trazado 105403" d="M507.017,276.985l-9.069,36.226s.937,9.157,10.185,4.663,15.379-33.356,15.379-33.356Z" transform="translate(-432.609 -201.461)" fill="#e5918f"/>
        <path id="Trazado_105404" data-name="Trazado 105404" d="M521.7,300.087c-1.122-.271-2.193-.568-3.225-.878q-1.587-.465-3.019-.968a50.882,50.882,0,0,1-13.275-6.5c2.709-11.778,5.974-19.687,8.876-24.9a3.671,3.671,0,0,0,.22-.387l.232-.387a22.651,22.651,0,0,1,6.31-6.566c.258-.181.5-.348.761-.529l1.071,18.913.181,1.947Z" transform="translate(-431.943 -204.302)" fill="#fff"/>
        <path id="Trazado_105405" data-name="Trazado 105405" d="M519.887,297.563c-1.122-.271-2.193-.568-3.225-.878q-1.587-.465-3.019-.968c1.809-12.74,3.445-20.746,3.445-20.746l.928,2.335Z" transform="translate(-430.134 -201.778)" fill="#c7e5f2"/>
        <path id="Trazado_105406" data-name="Trazado 105406" d="M573.4,268.353c-.22,5.6-1.2,14.592-2.051,23.622-.271,2.864-.529,5.741-.749,8.515-.154,1.728-2.76,10.954-2.864,12.605-.464,7.9-4.334,13.8-.67,25.828a18.927,18.927,0,0,1,1.1,5.548c0,.825-1.071,1.69-1.5,1.923-1.536.89-4.554,1.508-8.219,1.961h-.013a213.2,213.2,0,0,1-22.81,1.044c-7.883,0-19.713-1.251-21.21-3.238-1.367-1.819-.1-4.464.542-8.116,2.9-16.475,1.871-25.066,1.69-36.962,0-.3-.013-.594-.013-.9-.3-18.346-1.51-34.047-.658-39.71.258-.181.5-.348.761-.529,1.251-.852,2.477-1.613,3.664-2.284.1-.051.233-.129.361-.206.361-.206.735-.4,1.084-.594a4.178,4.178,0,0,1,.413-.206,89.913,89.913,0,0,1,8.8-3.471c.284-.09.542-.181.762-.245,2.1-.128,4.385-.154,6.85-.089,2.142.064,5.419.347,8.979.813h.013a92.784,92.784,0,0,1,11.921,2.231s.039.014.065.027a24.54,24.54,0,0,1,9.38,6.566A31.776,31.776,0,0,1,573.4,268.353Z" transform="translate(-430.109 -205.273)" fill="#fff"/>
        <path id="Trazado_105407" data-name="Trazado 105407" d="M561.218,335.159a18.926,18.926,0,0,1,1.1,5.548c0,.825-1.071,1.69-1.5,1.923-1.536.89-4.554,1.508-8.219,1.961,1.51-.182,4.114-2.576,4.116-4.735,0-1.513-1.961-11.728-1.419-18.321s1.613-17.055-.426-25.442-3.973-19.417-3.973-19.417l11.495,6.942s1.484,2.077,3.11,4.593c-.271,2.864-.529,5.741-.749,8.515C564.6,298.454,557.554,323.135,561.218,335.159Z" transform="translate(-424.259 -201.509)" fill="#c7e5f2"/>
        <g id="Grupo_60854" data-name="Grupo 60854" transform="translate(80.988)">
          <path id="Trazado_105408" data-name="Trazado 105408" d="M516.13,224.354s.995,12.023,4.98,12.831,3.008-4.3,3.008-4.3l-.557-5.709Z" transform="translate(-510.729 -209.761)" fill="#002c54"/>
          <path id="Trazado_105409" data-name="Trazado 105409" d="M532.723,266.094c-7.805-.93-4.89-8.515-3.819-10.257.284-.09,1.625-.5,1.729-.567a.043.043,0,0,1,.026-.013,2.139,2.139,0,0,0,.606-.9c.762-2,.413-5.986.388-6.245v-.735c.128-.477.258-.93.361-1.355l4.1-3.225,8.682-6.826s-2.308,11.418-.452,18.617a2.713,2.713,0,0,0,1.148,1.73c0,.013.013,0,.013,0a2.1,2.1,0,0,0,.865.309C548.5,257.63,545.534,267.616,532.723,266.094Z" transform="translate(-508.94 -207.929)" fill="#e5918f"/>
          <path id="Trazado_105410" data-name="Trazado 105410" d="M539.087,242.236s-.073,7.62-8.344,11.123c.769-1.988.414-5.977.39-6.233l3.465-2.721Z" transform="translate(-508.425 -206.941)" fill="#cc6362"/>
          <path id="Trazado_105411" data-name="Trazado 105411" d="M517.776,227.457s1.8,24.945,8.54,27.065a17.517,17.517,0,0,0,14.742-7.48c1.776-2.388,4.018-2.924,4.751-5.808,1.19-4.684,2.869-13.323.727-18.529C543.487,215.291,518.065,209.4,517.776,227.457Z" transform="translate(-510.47 -211.153)" fill="#e5918f"/>
          <path id="Trazado_105412" data-name="Trazado 105412" d="M547.635,219.184c-.11-4.531-4.7-6.224-4.7-6.224-4.566-2.137-14.055-1.216-23.837.967-2.293.512-5.171-.9-6.774.215-1.936,1.343-.008,7.479-.008,7.479,3.774,11.428,17.659,7.711,21.832,6.3.992,2.943.865,7.033,3.339,9.142,1.409,1.2,3.86,1.236,6.35.822.307.582,1.459,1.1,1.693,1.9.785,2.672.673,6.848.648,10.072l1.177-.575C547.512,248.406,559.691,219.558,547.635,219.184Z" transform="translate(-511.465 -211.748)" fill="#002c54"/>
          <g id="Grupo_60851" data-name="Grupo 60851" transform="translate(8.306 19.897)">
            <path id="Trazado_105413" data-name="Trazado 105413" d="M524.549,233.537c.352,2.071-.669,3.972-2.282,4.246s-3.2-1.182-3.558-3.253.669-3.973,2.282-4.248S524.2,231.465,524.549,233.537Z" transform="translate(-518.64 -228.728)" fill="none" stroke="#fff" stroke-miterlimit="10" stroke-width="0.501"/>
            <path id="Trazado_105414" data-name="Trazado 105414" d="M531.579,232.223c.353,2.071-.668,3.973-2.281,4.248s-3.206-1.182-3.558-3.254.669-3.973,2.281-4.248S531.227,230.152,531.579,232.223Z" transform="translate(-517.531 -228.935)" fill="none" stroke="#fff" stroke-miterlimit="10" stroke-width="0.501"/>
            <path id="Trazado_105415" data-name="Trazado 105415" d="M523.744,233.15s.357-.58,2.231-.417" transform="translate(-517.835 -228.341)" fill="none" stroke="#fff" stroke-miterlimit="10" stroke-width="0.501"/>
            <line id="Línea_110" data-name="Línea 110" y1="1.112" x2="6.957" transform="translate(14.118 2.673)" fill="none" stroke="#fff" stroke-miterlimit="10" stroke-width="0.501"/>
          </g>
          <g id="Grupo_60852" data-name="Grupo 60852" transform="translate(27.904 20.897)">
            <path id="Trazado_105416" data-name="Trazado 105416" d="M537.557,240.3c4.792,1.835,6.287-9.957,1.738-10.481-3.45-.4-3.591,4.418-3.591,4.418S534.821,239.255,537.557,240.3Z" transform="translate(-535.568 -229.799)" fill="#e5918f"/>
          </g>
          <g id="Grupo_60853" data-name="Grupo 60853" transform="translate(29.851 22.699)" opacity="0.5">
            <path id="Trazado_105417" data-name="Trazado 105417" d="M538.872,231.355s-2.831,1.5-1.014,6.1" transform="translate(-537.25 -231.355)" fill="none" stroke="#cc6362" stroke-miterlimit="10" stroke-width="0.724"/>
            <path id="Trazado_105418" data-name="Trazado 105418" d="M539.614,233.289a2.5,2.5,0,0,0-2.327,1.727" transform="translate(-537.244 -231.05)" fill="none" stroke="#cc6362" stroke-miterlimit="10" stroke-width="0.724"/>
          </g>
        </g>
        <path id="Trazado_105419" data-name="Trazado 105419" d="M580.412,314.854v.012c-2.106,2.443-10.1,4.223-13.941.844-1.209-1.077-2.572-3.913-3.912-7.432a230.1,230.1,0,0,1-6.636-22.462l17.882-9.138s2.3,10.315,4.282,20.117c0,0,.017.1.054.273.645,3.14,1.246,6.228,1.717,8.878a1.235,1.235,0,0,1,.035.211A37.558,37.558,0,0,1,580.412,314.854Z" transform="translate(-423.467 -201.509)" fill="#e5918f"/>
        <path id="Trazado_105420" data-name="Trazado 105420" d="M550.089,276.361c1.727,7.18,7.155,20.788,7.155,20.788a28.323,28.323,0,0,0,13.124-1.587,24.181,24.181,0,0,0,8.36-5.43s-3.6-10.116-6.83-17.385c-2.9-6.525-4.641-8.961-5.9-10.254a28.418,28.418,0,0,0-7.1-5.28Z" transform="translate(-424.387 -204.579)" fill="#fff"/>
        <path id="Trazado_105421" data-name="Trazado 105421" d="M572.177,281.323l-10.493-4.528-8.268-21.3s1.515.461,3.511,1.266h.009c.038.019.124.047.269.105a1.1,1.1,0,0,1,.153.067c1.784.835,8.7,4.911,13.487,19.721l.115.374c.508,1.708.882,3.079,1.084,3.789.02.067.039.134.058.211C572.129,281.121,572.149,281.227,572.177,281.323Z" transform="translate(-423.862 -204.85)" fill="#fff"/>
        <g id="Grupo_60855" data-name="Grupo 60855" transform="translate(89.837 95.021)">
          <path id="Trazado_105422" data-name="Trazado 105422" d="M584.567,312.15v.012c-.154,1.309-.515,2.251-1.162,2.584-.1.066-1.571.94-1.674,1.006a89.263,89.263,0,0,1-11.084,5.732,401.563,401.563,0,0,1-38.707,13.907,45.631,45.631,0,0,0-2.367-5.4,101.4,101.4,0,0,0,16.8-10.315c8.341-6.366,20.339-14.1,20.339-14.1l3.03-3.563s10.769-9.912,12.5-7.919c0,0,.017.1.054.273.257,1.034,1.111,4.837,1.717,8.878a1.235,1.235,0,0,1,.035.211A37.555,37.555,0,0,1,584.567,312.15Z" transform="translate(-517.459 -293.826)" fill="#e5918f"/>
          <path id="Trazado_105423" data-name="Trazado 105423" d="M532.461,324.74a6.662,6.662,0,0,1-4.251.817c-1.187-.249-1.666-.735-2.543-.889a19.764,19.764,0,0,1-4.373-1.011c-1.156-.567-1.608-.631-1.567.531s2.323,2.166,2.943,2.488a5.865,5.865,0,0,1,1.479,1.482c.085.13-3.805,2.165-4.851,1.752a3.028,3.028,0,0,0-.134,1.46c.177.522.977.706,1.04.969s-.184.8-.01,1.217.887.418,1.175,1.1-.029.689.181,1.395,1.114.835,1.285,1.2.081.791.46,1.042,3.877-.872,5.154-1.418,4.689-5.46,8.464-7.134Z" transform="translate(-519.109 -289.184)" fill="#e5918f"/>
        </g>
        <path id="Trazado_105424" data-name="Trazado 105424" d="M549.787,343.84h-27.2v-2.662h27.2a1.33,1.33,0,0,1,1.331,1.33h0A1.332,1.332,0,0,1,549.787,343.84Z" transform="translate(-428.724 -191.337)" fill="#4dd0e1"/>
        <path id="Trazado_105425" data-name="Trazado 105425" d="M544.793,350.8H476.682a1.815,1.815,0,0,1-1.749-1.33l-13.941-50.183a1.744,1.744,0,0,1,1.68-2.21h65.865a3.417,3.417,0,0,1,3.291,2.5l13.89,50A.961.961,0,0,1,544.793,350.8Z" transform="translate(-438.447 -198.293)" fill="#4dd0e1"/>
        <path id="Trazado_105426" data-name="Trazado 105426" d="M542.663,350.8h-68.11a1.817,1.817,0,0,1-1.75-1.33l-13.94-50.183a1.744,1.744,0,0,1,1.68-2.21h65.864a3.417,3.417,0,0,1,3.292,2.5l13.89,50A.961.961,0,0,1,542.663,350.8Z" transform="translate(-438.783 -198.293)" fill="#1565c0"/>
      </g>
    </g>
    <g id="Grupo_60858" data-name="Grupo 60858" transform="translate(191.677 297.893)">
      <path id="Trazado_105427" data-name="Trazado 105427" d="M298.064,318.359l7.89-8.089a21.159,21.159,0,0,1,.7-4.368c.43-.761,1.54-3.578,2.092-3.885a2.858,2.858,0,0,1,1.659,0,7.6,7.6,0,0,1,1.587-.369,4.654,4.654,0,0,1,1.411.449s1.18-.08,1.671-.08a1.048,1.048,0,0,1,.649.138,34.843,34.843,0,0,1,2.824-2.926c.922-.736,2.33-2.094,2.748-2.089.394,0,.567.7.28,1.434a8.173,8.173,0,0,1-1.534,1.926l-3.595,5.447a7.725,7.725,0,0,0,.941-.45c.328-.2,2.52-2.253,2.653-2.335s1.115-.736,1.689-.081-3.764,5.85-4.461,6.547a37.992,37.992,0,0,1-4.683,2.715s-4.209,7.573-4.619,8.063S298.064,318.359,298.064,318.359Z" transform="translate(-166.352 -263.333)" fill="#e49191"/>
      <path id="Trazado_105428" data-name="Trazado 105428" d="M308.47,285.036s-4.407,25.53-8.555,26.122c0,0-16.561.668-20.249-19.423-3.2-17.422,9.633-21.137,15.635-19.8S309.759,274.13,308.47,285.036Z" transform="translate(-169.333 -267.347)" fill="#e49191"/>
      <path id="Trazado_105429" data-name="Trazado 105429" d="M294.067,304.144s-2.32,3.127-3.133,10.7a24.586,24.586,0,0,1-13.256-2.288,93.824,93.824,0,0,0,3.847-22.286" transform="translate(-169.567 -264.416)" fill="#e49191"/>
      <path id="Trazado_105430" data-name="Trazado 105430" d="M289.632,268.247c-9.05,2-8.326,7.637-8.326,7.637-4.236,1.049-5.147,2.8-5.112,10.618s2.865,17.212,4.426,17.976,10.408.8,11.146.533,3.834-7.443,3.113-8.7.036-6.226,2.1-6.414,1.657,3.005,1.657,3.005l1.694-.372,1.308-3.207c11.959.712,15.049-12.916,15.049-12.916C313.809,274.53,298.683,266.248,289.632,268.247Z" transform="translate(-169.802 -267.938)" fill="#002c54"/>
      <path id="Trazado_105431" data-name="Trazado 105431" d="M201.722,417.5l9.15,1.322-3.031,10.686-9.91-2.5s-4.032-5.466,2.055-9.508A3.333,3.333,0,0,1,201.722,417.5Z" transform="translate(-182.35 -244.37)" fill="#e5918f"/>
      <path id="Trazado_105432" data-name="Trazado 105432" d="M268.846,399.434,255.359,358.6s-4.088-1.456-6.181,0c0,0-14.05,7.555-12.552,29.1,1.13,16.24,4.559,33.855,5.948,40.918l-35.982-1.331a12.26,12.26,0,0,0-1.568,12.145s45.215,12.16,51.584,13.283c5.176.915,10.842,1.618,13.577-.726C275.005,447.856,268.846,399.434,268.846,399.434Z" transform="translate(-181.177 -253.743)"/>
      <path id="Trazado_105433" data-name="Trazado 105433" d="M238.523,417.5l9.15,1.322-3.031,10.686-9.91-2.5s-4.032-5.466,2.055-9.508A3.333,3.333,0,0,1,238.523,417.5Z" transform="translate(-176.546 -244.37)" fill="#e5918f"/>
      <path id="Trazado_105434" data-name="Trazado 105434" d="M237.147,423.48c-.2,2.1,1.636,4,1.3,4.522s-6.488,10.844-6.488,10.844,4.644,2.022,3.894,4.943h-11.76a9.762,9.762,0,0,1-3-6.741,34.114,34.114,0,0,1,2.9-8.613c2.1-4.045,6.865-13.177,6.865-13.177a6.658,6.658,0,0,1,3.92.075,23.776,23.776,0,0,1,5.689,2.545S237.652,418.282,237.147,423.48Z" transform="translate(-178.49 -244.743)" fill="#a9ebf4"/>
      <path id="Trazado_105435" data-name="Trazado 105435" d="M328.376,443.317c-2.9-10.834-30.222-57.085-39.464-69.573C269.931,365.5,249.7,358.509,249.7,358.509c-8.367,2-12.488,18.858-7.743,30.1,3.255,7.711,23.909,27.118,36.557,38.543l-35.1-.042s-4.135,6.18-.388,12.049c0,0,58.372,13.273,63.493,14.022s16.609,0,16.609,0S330.82,452.438,328.376,443.317Z" transform="translate(-175.517 -253.655)" fill="#002c54"/>
      <path id="Trazado_105436" data-name="Trazado 105436" d="M200.346,423.48c-.2,2.1,1.636,4,1.3,4.522s-6.489,10.844-6.489,10.844,4.645,2.022,3.9,4.943h-11.76a9.757,9.757,0,0,1-3-6.741,34.115,34.115,0,0,1,2.9-8.613c2.1-4.045,6.865-13.177,6.865-13.177a6.656,6.656,0,0,1,3.92.075,23.8,23.8,0,0,1,5.689,2.545S200.851,418.282,200.346,423.48Z" transform="translate(-184.294 -244.743)" fill="#a9ebf4"/>
      <path id="Trazado_105437" data-name="Trazado 105437" d="M360.212,308.679l-18.825,33.114L327.9,328.354l-11.159,16.611,3.24,1.556-1.166.97s26.018,12.671,29.136,9.876S365.6,312.444,365.6,312.444Z" transform="translate(-163.406 -261.513)" fill="#e49191"/>
      <path id="Trazado_105438" data-name="Trazado 105438" d="M342.445,331.282s-3.554,14.992-10.662,22.1l-18.187-6.923s-8.44,14.193-16.694,25.076c-3.172,4.2-4.226,10.118-7.953,10.894-.232-.081-.452-.15-.683-.208-10.107-3.033-25.018.185-37.324-4.388-13.591-5.059-10.952-7.907-10.952-7.907a175.567,175.567,0,0,0,12.92-30.586A187.533,187.533,0,0,0,257.4,320.9a21.235,21.235,0,0,1,17.875-17.1c.1-.012.2-.035.3-.046,10.3-1.308,37.278,1.875,42.522,4.121S342.445,331.282,342.445,331.282Z" transform="translate(-175.543 -262.338)" fill="#ffca28"/>
      <path id="Trazado_105439" data-name="Trazado 105439" d="M306.9,340.928S298.458,355.121,290.2,366c-3.172,4.2-4.226,10.118-7.953,10.894,1.632-.579,4.341-9.169,5.3-11.1s2.512-3.855,5.846-10.6,7.833-16.67,7.833-16.67Z" transform="translate(-168.846 -256.807)" fill="#ffa726"/>
      <path id="Trazado_105440" data-name="Trazado 105440" d="M273.26,417.8a58.9,58.9,0,0,1,18.143,2.607" transform="translate(-170.264 -244.306)" fill="none" stroke="#000" stroke-miterlimit="10" stroke-width="1.065"/>
      <path id="Trazado_105441" data-name="Trazado 105441" d="M368.509,298.958a17.619,17.619,0,0,0-3.165,2.283l1.073-2.055a20.213,20.213,0,0,0,1.93-2.123c.512-.752.242-1.505-.161-1.545a15.767,15.767,0,0,0-2.965,2.12l.216-.413a20.225,20.225,0,0,0,1.93-2.123c.511-.753.242-1.5-.161-1.546s-3.669,2.7-3.669,2.7l-1.591,2.129,1.2-2.328a10.048,10.048,0,0,0,1.054-1.614c.42-.842.117-1.1-.117-1.38s-2.432,1.357-2.994,2.011a33.941,33.941,0,0,0-2.479,3.684l-1.837,3.8c-.118-1.1-.3-2.986-.432-4.186-.188-1.731-1.754-2.141-1.808-1.3s-.927,4.982-.729,7.226.573,3.719.713,4.982-1.169,3.787-1.169,3.787,5.239,3.253,6.106,2.28a40.913,40.913,0,0,0,3.6-4.593,24.459,24.459,0,0,0,2.05-4.631l1.637-3.5a20.232,20.232,0,0,0,1.93-2.123C369.181,299.75,368.912,299,368.509,298.958Z" transform="translate(-157.634 -263.981)" fill="#e49191"/>
    </g>
    <g id="Grupo_60862" data-name="Grupo 60862" transform="translate(210.709 291.054)">
      <path id="Trazado_105448" data-name="Trazado 105448" d="M207.862,262.031h61.432a7.128,7.128,0,0,1,7.128,7.128v14.513a7.129,7.129,0,0,1-6.228,7.072,1.028,1.028,0,0,0-.9,1.021v7.944a.472.472,0,0,1-.857.274l-6.257-8.75a1.035,1.035,0,0,0-.843-.433H207.862a7.129,7.129,0,0,1-7.129-7.129V269.159A7.129,7.129,0,0,1,207.862,262.031Z" transform="translate(-200.733 -262.031)" fill="none" stroke="#fff" stroke-miterlimit="10" stroke-width="0.896"/>
      <g id="Grupo_60861" data-name="Grupo 60861" transform="translate(11.859 12.016)">
        <path id="Trazado_105449" data-name="Trazado 105449" d="M251.814,274.758a2.347,2.347,0,1,0,2.348-2.348A2.348,2.348,0,0,0,251.814,274.758Z" transform="translate(-204.537 -272.41)" fill="none" stroke="#fff" stroke-miterlimit="10" stroke-width="0.896"/>
        <path id="Trazado_105450" data-name="Trazado 105450" d="M241.6,274.758a2.347,2.347,0,1,0,2.347-2.348A2.347,2.347,0,0,0,241.6,274.758Z" transform="translate(-206.147 -272.41)" fill="none" stroke="#fff" stroke-miterlimit="10" stroke-width="0.896"/>
        <path id="Trazado_105451" data-name="Trazado 105451" d="M231.4,274.758a2.347,2.347,0,1,0,2.348-2.348A2.348,2.348,0,0,0,231.4,274.758Z" transform="translate(-207.757 -272.41)" fill="none" stroke="#fff" stroke-miterlimit="10" stroke-width="0.896"/>
        <path id="Trazado_105452" data-name="Trazado 105452" d="M221.186,274.758a2.347,2.347,0,1,0,2.347-2.348A2.347,2.347,0,0,0,221.186,274.758Z" transform="translate(-209.367 -272.41)" fill="none" stroke="#fff" stroke-miterlimit="10" stroke-width="0.896"/>
        <path id="Trazado_105453" data-name="Trazado 105453" d="M210.977,274.758a2.347,2.347,0,1,0,2.347-2.348A2.347,2.347,0,0,0,210.977,274.758Z" transform="translate(-210.977 -272.41)" fill="none" stroke="#fff" stroke-miterlimit="10" stroke-width="0.896"/>
      </g>
    </g>
    <g id="Grupo_60864" data-name="Grupo 60864" transform="translate(465.693 171.588)">
      <path id="Trazado_105454" data-name="Trazado 105454" d="M544.133,181.2H432.165a11.181,11.181,0,0,1-11.181-11.181h0a11.181,11.181,0,0,1,11.181-11.181H544.133a11.181,11.181,0,0,1,11.181,11.181h0A11.181,11.181,0,0,1,544.133,181.2Z" transform="translate(-420.984 -158.838)" fill="#fff" stroke="#4dd0e1" stroke-miterlimit="10" stroke-width="0.896"/>
      <g id="Grupo_60863" data-name="Grupo 60863" transform="translate(109.617 4.464)">
        <path id="Trazado_105455" data-name="Trazado 105455" d="M527.561,168.641a5.946,5.946,0,1,1-5.946-5.947A5.946,5.946,0,0,1,527.561,168.641Z" transform="translate(-515.669 -162.694)" fill="none" stroke="#4dd0e1" stroke-miterlimit="10" stroke-width="1.672"/>
        <line id="Línea_111" data-name="Línea 111" x2="3.283" y2="3.283" transform="translate(10.15 10.151)" fill="none" stroke="#4dd0e1" stroke-linecap="round" stroke-miterlimit="10" stroke-width="1.672"/>
      </g>
    </g>
  </g>
</svg>
