<svg xmlns="http://www.w3.org/2000/svg" width="200" height="188" viewBox="0 0 200 188">
  <g id="Grupo_92528" data-name="Grupo 92528" transform="translate(-266 -444)">
    <g id="Grupo_92527" data-name="Grupo 92527">
      <g id="Right" transform="translate(265.972 443.967)">
        <g id="Grupo_92526" data-name="Grupo 92526">
          <rect id="BG" width="200" height="188" rx="5" transform="translate(0.028 0.033)" fill="#fff" opacity="0.949"/>
        </g>
      </g>
      <g id="Grupo_60926" data-name="Grupo 60926" transform="translate(252.316 -490.842)">
        <circle id="Elipse_1664" data-name="Elipse 1664" cx="4" cy="4" r="4" transform="translate(60.684 1058.684)" fill="#ff826e"/>
        <ellipse id="Elipse_1665" data-name="Elipse 1665" cx="4.5" cy="4" rx="4.5" ry="4" transform="translate(157.684 990.684)" fill="#ff826e"/>
        <path id="Trazado_105549" data-name="Trazado 105549" d="M33.859,54.51V68.974H21.115l-1.444-5.756c-.212-.085-.425-.149-.637-.255l-5.055,3.058L4.952,57,8.011,51.94c-.106-.212-.17-.425-.255-.637L2,49.859V37.115l5.756-1.444c.085-.212.149-.425.255-.637L4.952,29.979l9.027-9.027,5.055,3.058c.212-.106.425-.17.637-.255L21.115,18H33.859V32.464a12.744,12.744,0,1,0,0,22.046Z" transform="translate(43.124 981.107)" fill="#ffc729"/>
        <path id="Trazado_105550" data-name="Trazado 105550" d="M89.214,54v8.5a8.493,8.493,0,0,1-8.5,8.5H25.5A8.493,8.493,0,0,1,17,62.5V54Z" transform="translate(59.983 1021.568)" fill="#aab2bd"/>
        <path id="Trazado_105551" data-name="Trazado 105551" d="M89.214,10.5v8.5H17V10.5A8.493,8.493,0,0,1,25.5,2H80.718A8.493,8.493,0,0,1,89.214,10.5Z" transform="translate(59.983 963.124)" fill="#aab2bd"/>
        <path id="Trazado_105552" data-name="Trazado 105552" d="M17,10H89.214v93.453H17Z" transform="translate(59.983 972.115)" fill="#69d6f4"/>
        <path id="Trazado_105553" data-name="Trazado 105553" d="M21,14H76.222V90.461H21Z" transform="translate(64.479 976.611)" fill="#ffeaa7"/>
        <path id="Trazado_105554" data-name="Trazado 105554" d="M25,18H63.231V43.487H25Z" transform="translate(68.974 981.107)" fill="#ff826e"/>
        <ellipse id="Elipse_1666" data-name="Elipse 1666" cx="28" cy="27.5" rx="28" ry="27.5" transform="translate(116.684 1003.684)" fill="#e6e9ed"/>
        <path id="Trazado_105555" data-name="Trazado 105555" d="M64.487,70.4a28.479,28.479,0,0,1-8.5,0A27.534,27.534,0,0,1,39,60.74V58.233a8.515,8.515,0,0,1,6.436-8.241l10.556-2.634V44.067a8.489,8.489,0,0,1-4.248-7.328v-3.8a8.784,8.784,0,0,1,7.731-8.9,8.486,8.486,0,0,1,9.26,8.453v4.248a8.489,8.489,0,0,1-4.248,7.328v3.292l10.556,2.634a8.515,8.515,0,0,1,6.436,8.241V60.74A27.534,27.534,0,0,1,64.487,70.4Z" transform="translate(84.709 987.855)" fill="#b4dd7f"/>
        <path id="Trazado_105556" data-name="Trazado 105556" d="M132.684,68.966a29.773,29.773,0,0,0-23.363-29.03V11.62A10.632,10.632,0,0,0,98.7,1H43.479a10.632,10.632,0,0,0-10.62,10.62V34.983H20.58L19.3,40.114l-4.532-2.721L3.409,48.746l2.721,4.537L1,54.563V70.625l5.131,1.281L3.409,76.442,14.765,87.8,19.3,85.076l1.283,5.129H32.859v31.859a10.632,10.632,0,0,0,10.62,10.62H98.7a10.632,10.632,0,0,0,10.62-10.62V98a29.773,29.773,0,0,0,23.363-29.03Zm-4.248,0a25.3,25.3,0,0,1-2.772,11.5,10.6,10.6,0,0,0-7.4-6.671l-8.948-2.239v-.508a10.631,10.631,0,0,0,4.248-8.451V58.348a10.62,10.62,0,0,0-11.563-10.579,10.925,10.925,0,0,0-9.677,11.017v3.808a10.631,10.631,0,0,0,4.248,8.451v.508l-8.948,2.239a10.6,10.6,0,0,0-7.4,6.671,25.475,25.475,0,1,1,48.2-11.5ZM96.577,39.936a29.491,29.491,0,0,0-4.248,1.289V34.983H49.85V64.718h23.7A29.447,29.447,0,0,0,96.577,98v4.953H45.6V30.735H96.577ZM74.467,60.47H54.1V39.231H88.081v4.023A29.838,29.838,0,0,0,74.467,60.47ZM43.479,5.248H98.7a6.38,6.38,0,0,1,6.372,6.372v6.372H37.107V11.62A6.38,6.38,0,0,1,43.479,5.248ZM32.859,72.3a10.62,10.62,0,1,1,0-19.421ZM23.9,85.957l-1.034-4.14-.431-1.136L20.007,79.7l-4.583,2.753L8.759,75.781,11.511,71.2,10.449,68.6l-5.2-1.3V57.881l5.2-1.3,1.068-2.591L8.759,49.406l6.665-6.667,4.583,2.753L22.6,44.439l1.3-5.208h8.961v9.144a14.868,14.868,0,1,0,0,28.439v9.144Zm74.8,42.479H43.479a6.38,6.38,0,0,1-6.372-6.372v-6.372h67.966v6.372A6.38,6.38,0,0,1,98.7,128.436Zm6.372-16.991H37.107V22.239h67.966v17.1c-.705-.051-1.406-.108-2.124-.108s-1.419.057-2.124.108V26.487H41.355V107.2h59.47v-8.6c.705.051,1.406.108,2.124.108s1.419-.057,2.124-.108Zm-2.124-16.991a25.415,25.415,0,0,1-19.115-8.685V84.094a6.367,6.367,0,0,1,4.826-6.183l12.166-3.039V68.69l-1.056-.614a6.3,6.3,0,0,1-3.192-5.482V58.786a6.656,6.656,0,0,1,5.8-6.786,6.371,6.371,0,0,1,6.947,6.346v4.248a6.3,6.3,0,0,1-3.192,5.482l-1.056.614v6.183l12.166,3.039a6.367,6.367,0,0,1,4.826,6.183v1.674A25.415,25.415,0,0,1,102.949,94.453Z" transform="translate(42 962)"/>
        <path id="Trazado_105557" data-name="Trazado 105557" d="M38,5h4.248V9.248H38Z" transform="translate(83.585 966.496)"/>
        <path id="Trazado_105558" data-name="Trazado 105558" d="M28,5H44.991V9.248H28Z" transform="translate(72.346 966.496)"/>
        <path id="Trazado_105559" data-name="Trazado 105559" d="M30,57H46.991v4.248H30Z" transform="translate(74.594 1024.94)"/>
        <path id="Trazado_105560" data-name="Trazado 105560" d="M44,57h4.248v4.248H44Z" transform="translate(90.329 1024.94)"/>
        <path id="Trazado_105561" data-name="Trazado 105561" d="M22,57h4.248v4.248H22Z" transform="translate(65.603 1024.94)"/>
        <path id="Trazado_105562" data-name="Trazado 105562" d="M24,33H43.115v4.248H24Z" transform="translate(67.85 997.966)"/>
        <path id="Trazado_105563" data-name="Trazado 105563" d="M24,37H43.115v4.248H24Z" transform="translate(67.85 1002.461)"/>
        <path id="Trazado_105564" data-name="Trazado 105564" d="M24,41H43.115v4.248H24Z" transform="translate(67.85 1006.957)"/>
        <path id="Trazado_105565" data-name="Trazado 105565" d="M24,45H43.115v4.248H24Z" transform="translate(67.85 1011.453)"/>
        <path id="Trazado_105566" data-name="Trazado 105566" d="M60.372,34.735A6.356,6.356,0,0,0,62.5,22.382V5H58.248V22.382a6.356,6.356,0,0,0,2.124,12.353Zm0-8.5a2.124,2.124,0,1,1-2.124,2.124A2.126,2.126,0,0,1,60.372,26.239Z" transform="translate(101.568 966.496)"/>
        <path id="Trazado_105567" data-name="Trazado 105567" d="M56,1h4.248V5.248H56Z" transform="translate(103.816 962)"/>
        <path id="Trazado_105568" data-name="Trazado 105568" d="M14.372,45a6.356,6.356,0,0,0-2.124,12.353V74.735H16.5V57.353A6.356,6.356,0,0,0,14.372,45Zm0,8.5A2.124,2.124,0,1,1,16.5,51.372,2.126,2.126,0,0,1,14.372,53.5Z" transform="translate(49.868 1011.453)"/>
        <path id="Trazado_105569" data-name="Trazado 105569" d="M10,61h4.248v4.248H10Z" transform="translate(52.115 1029.436)"/>
      </g>
    </g>
  </g>
</svg>
