<svg xmlns="http://www.w3.org/2000/svg" width="806" height="601" viewBox="0 0 806 601">
  <g id="Grupo_60940" data-name="Grupo 60940" transform="translate(-602 -769)">
    <rect id="Rectángulo_7773" data-name="Rectángulo 7773" width="806" height="601" transform="translate(602 769)" fill="#dbfbff"/>
    <g id="Grupo_60939" data-name="Grupo 60939" transform="translate(400.114 684.67)">
      <g id="Grupo_60927" data-name="Grupo 60927" transform="translate(334.242 368.498)">
        <path id="Trazado_105570" data-name="Trazado 105570" d="M535.628,359H511.38a96.754,96.754,0,0,0-5.651-15.141l16.949-16.948a5.283,5.283,0,0,0,0-7.47l-35.6-35.6a5.28,5.28,0,0,0-7.47,0l-15.647,15.645a97.054,97.054,0,0,0-16.2-7.061V270.31a5.283,5.283,0,0,0-5.282-5.282H392.131a5.281,5.281,0,0,0-5.28,5.282v22.074a97.007,97.007,0,0,0-16.037,6.928L354.762,283.26a5.283,5.283,0,0,0-7.47,0l-35.6,35.6a5.28,5.28,0,0,0,0,7.47l17.251,17.251a96.949,96.949,0,0,0-5.507,14.6H298.158a5.283,5.283,0,0,0-5.282,5.282v50.346a5.282,5.282,0,0,0,5.282,5.282H325.74a97.126,97.126,0,0,0,5.441,12.016l-20.072,20.072a5.28,5.28,0,0,0,0,7.47l35.6,35.6a5.284,5.284,0,0,0,7.47,0l21-21a96.736,96.736,0,0,0,10.851,4.464V507.78a5.28,5.28,0,0,0,5.28,5.28h50.348a5.281,5.281,0,0,0,5.282-5.28v-29.5a97.015,97.015,0,0,0,11.206-4.327l20.882,20.88a5.28,5.28,0,0,0,7.47,0l35.6-35.6a5.28,5.28,0,0,0,0-7.47l-19.315-19.315a97.163,97.163,0,0,0,5.829-12.534h27.019a5.282,5.282,0,0,0,5.282-5.282V364.283A5.283,5.283,0,0,0,535.628,359ZM425.337,464.022A74.559,74.559,0,1,1,493.6,395.759,74.573,74.573,0,0,1,425.337,464.022Z" transform="translate(-292.876 -265.028)" fill="none" stroke="#cecece" stroke-miterlimit="10" stroke-width="1.155"/>
      </g>
      <path id="Trazado_105571" data-name="Trazado 105571" d="M809.471,235.308c-38.624,27.175-56.758,69.7-73.647,112.1-13.853,34.774-28.3,68.977-59.559,91.576-52.224,37.752-124.84,31.761-184.514,22.929C269.781,429.057,232.393,615.918,231.712,622.541h776.175v-400.6C942.976,199.74,867.549,194.445,809.471,235.308Z" transform="translate(0 62.789)" fill="#ffca28"/>
      <ellipse id="Elipse_1667" data-name="Elipse 1667" cx="143.747" cy="29.487" rx="143.747" ry="29.487" transform="translate(450.567 583.025)" fill="#ffa726"/>
      <ellipse id="Elipse_1668" data-name="Elipse 1668" cx="187.333" cy="29.487" rx="187.333" ry="29.487" transform="translate(627.487 562.42)" fill="#ffa726"/>
      <g id="Grupo_60928" data-name="Grupo 60928" transform="translate(666.061 112.038)">
        <path id="Trazado_105572" data-name="Trazado 105572" d="M733.572,206.011H709.324a96.594,96.594,0,0,0-5.649-15.14l16.948-16.948a5.284,5.284,0,0,0,0-7.47l-35.6-35.6a5.281,5.281,0,0,0-7.468,0L661.906,146.5a97.065,97.065,0,0,0-16.2-7.061V117.32a5.283,5.283,0,0,0-5.282-5.282H590.076a5.283,5.283,0,0,0-5.282,5.282v22.074a97.048,97.048,0,0,0-16.036,6.928L552.705,130.27a5.283,5.283,0,0,0-7.47,0l-35.6,35.6a5.283,5.283,0,0,0,0,7.47l17.251,17.251a96.939,96.939,0,0,0-5.505,14.6H496.1a5.283,5.283,0,0,0-5.282,5.282v50.348a5.281,5.281,0,0,0,5.282,5.28h27.58a97.358,97.358,0,0,0,5.441,12.016l-20.072,20.072a5.284,5.284,0,0,0,0,7.47l35.6,35.6a5.283,5.283,0,0,0,7.47,0l21-21a97.042,97.042,0,0,0,10.849,4.464V354.79a5.281,5.281,0,0,0,5.282,5.28H639.6a5.28,5.28,0,0,0,5.282-5.28v-29.5a97.157,97.157,0,0,0,11.208-4.327l20.88,20.88a5.28,5.28,0,0,0,7.47,0l35.6-35.6a5.281,5.281,0,0,0,0-7.468l-19.314-19.315a97.056,97.056,0,0,0,5.828-12.534h27.017a5.28,5.28,0,0,0,5.282-5.28V211.293A5.281,5.281,0,0,0,733.572,206.011ZM623.28,311.032a74.559,74.559,0,1,1,68.263-68.263A74.57,74.57,0,0,1,623.28,311.032Z" transform="translate(-490.821 -112.038)" fill="none" stroke="#4dd0e1" stroke-miterlimit="10" stroke-width="1.155"/>
      </g>
      <g id="Grupo_60929" data-name="Grupo 60929" transform="translate(845.638 198.335)">
        <rect id="Rectángulo_7774" data-name="Rectángulo 7774" width="7.46" height="377.287" transform="translate(0 9.618) rotate(-7.626)" fill="#01183a"/>
        <rect id="Rectángulo_7775" data-name="Rectángulo 7775" width="7.46" height="377.287" transform="translate(64.438 0.99) rotate(-7.626)" fill="#01183a"/>
        <rect id="Rectángulo_7776" data-name="Rectángulo 7776" width="62.703" height="4.618" transform="matrix(0.991, -0.133, 0.133, 0.991, 9.158, 33.84)" fill="#01183a"/>
        <rect id="Rectángulo_7777" data-name="Rectángulo 7777" width="62.704" height="4.618" transform="translate(14.249 71.869) rotate(-7.626)" fill="#01183a"/>
        <rect id="Rectángulo_7778" data-name="Rectángulo 7778" width="62.703" height="4.618" transform="matrix(0.991, -0.133, 0.133, 0.991, 19.341, 109.898)" fill="#01183a"/>
        <rect id="Rectángulo_7779" data-name="Rectángulo 7779" width="62.704" height="4.618" transform="translate(24.432 147.926) rotate(-7.626)" fill="#01183a"/>
        <rect id="Rectángulo_7780" data-name="Rectángulo 7780" width="62.704" height="4.618" transform="translate(29.524 185.955) rotate(-7.626)" fill="#01183a"/>
        <rect id="Rectángulo_7781" data-name="Rectángulo 7781" width="62.703" height="4.618" transform="matrix(0.991, -0.133, 0.133, 0.991, 34.616, 223.984)" fill="#01183a"/>
        <rect id="Rectángulo_7782" data-name="Rectángulo 7782" width="62.704" height="4.618" transform="matrix(0.991, -0.133, 0.133, 0.991, 39.707, 262.013)" fill="#01183a"/>
        <rect id="Rectángulo_7783" data-name="Rectángulo 7783" width="62.703" height="4.618" transform="matrix(0.991, -0.133, 0.133, 0.991, 44.799, 300.042)" fill="#01183a"/>
        <rect id="Rectángulo_7784" data-name="Rectángulo 7784" width="62.703" height="4.618" transform="matrix(0.991, -0.133, 0.133, 0.991, 49.89, 338.071)" fill="#01183a"/>
      </g>
      <g id="Grupo_60930" data-name="Grupo 60930" transform="translate(470.184 227.855)">
        <rect id="Rectángulo_7785" data-name="Rectángulo 7785" width="7.461" height="377.287" transform="matrix(1, 0.021, -0.021, 1, 7.757, 0)" fill="#12263f"/>
        <rect id="Rectángulo_7786" data-name="Rectángulo 7786" width="7.461" height="377.287" transform="translate(72.752 1.336) rotate(1.177)" fill="#12263f"/>
        <rect id="Rectángulo_7787" data-name="Rectángulo 7787" width="62.704" height="4.618" transform="translate(13.098 25.339) rotate(1.178)" fill="#12263f"/>
        <rect id="Rectángulo_7788" data-name="Rectángulo 7788" width="62.703" height="4.618" transform="translate(12.309 63.699) rotate(1.178)" fill="#12263f"/>
        <rect id="Rectángulo_7789" data-name="Rectángulo 7789" width="62.704" height="4.618" transform="matrix(1, 0.021, -0.021, 1, 11.521, 102.059)" fill="#12263f"/>
        <rect id="Rectángulo_7790" data-name="Rectángulo 7790" width="62.704" height="4.618" transform="translate(10.732 140.419) rotate(1.178)" fill="#12263f"/>
        <rect id="Rectángulo_7791" data-name="Rectángulo 7791" width="62.704" height="4.618" transform="matrix(1, 0.021, -0.021, 1, 9.943, 178.779)" fill="#12263f"/>
        <rect id="Rectángulo_7792" data-name="Rectángulo 7792" width="62.704" height="4.618" transform="matrix(1, 0.021, -0.021, 1, 9.155, 217.139)" fill="#12263f"/>
        <rect id="Rectángulo_7793" data-name="Rectángulo 7793" width="62.703" height="4.618" transform="translate(8.366 255.499) rotate(1.178)" fill="#12263f"/>
        <rect id="Rectángulo_7794" data-name="Rectángulo 7794" width="62.704" height="4.618" transform="translate(7.578 293.859) rotate(1.178)" fill="#12263f"/>
        <rect id="Rectángulo_7795" data-name="Rectángulo 7795" width="62.704" height="4.618" transform="translate(6.789 332.219) rotate(1.178)" fill="#12263f"/>
      </g>
      <g id="Grupo_60932" data-name="Grupo 60932" transform="translate(551.413 243.277)">
        <rect id="Rectángulo_7796" data-name="Rectángulo 7796" width="332.536" height="254.451" transform="translate(27.796)" fill="#4dd0e1"/>
        <rect id="Rectángulo_7797" data-name="Rectángulo 7797" width="308.976" height="226.178" transform="translate(39.576 14.136)" fill="#4e6c84"/>
        <path id="Trazado_105573" data-name="Trazado 105573" d="M446.037,351.214v47.814H755.014V237.074a153.694,153.694,0,0,1-32.36,24.486C636.448,313.94,541.909,355.481,446.037,351.214Z" transform="translate(-406.462 -158.713)" fill="#37576d"/>
        <rect id="Rectángulo_7798" data-name="Rectángulo 7798" width="308.976" height="10.141" transform="translate(39.576 14.136)" fill="#37576d"/>
        <g id="Grupo_60931" data-name="Grupo 60931" transform="translate(0 254.507)">
          <path id="Trazado_105574" data-name="Trazado 105574" d="M850.693,428.15l-428.264-.17,27.7-85.827h332.74Z" transform="translate(-422.429 -342.153)" fill="#f8feff"/>
          <path id="Trazado_105575" data-name="Trazado 105575" d="M850.693,415.917,806.785,360.24C691.151,420.053,555.411,400.252,428.4,397.251l-5.969,18.5Z" transform="translate(-422.428 -329.92)" fill="#dbfbff"/>
          <path id="Trazado_105576" data-name="Trazado 105576" d="M490.776,352.819l-30.931,0,1.561-4.842h30.266Z" transform="translate(-397.123 -338.215)" fill="#6d6d91" opacity="0.58"/>
          <path id="Trazado_105577" data-name="Trazado 105577" d="M514.7,352.821l-30.945,0,.7-4.843h30.279Z" transform="translate(-380.954 -338.215)" fill="#6d6d91" opacity="0.58"/>
          <path id="Trazado_105578" data-name="Trazado 105578" d="M538.694,352.823l-30.958,0-.162-4.844h30.292Z" transform="translate(-364.844 -338.214)" fill="#505050"/>
          <path id="Trazado_105579" data-name="Trazado 105579" d="M562.983,352.825l-30.971,0-1.025-4.845h30.3Z" transform="translate(-349.009 -338.214)" fill="#505050"/>
          <path id="Trazado_105580" data-name="Trazado 105580" d="M587.284,352.827l-30.985,0-1.889-4.846h30.318Z" transform="translate(-333.167 -338.213)" fill="#505050"/>
          <path id="Trazado_105581" data-name="Trazado 105581" d="M611.6,352.828l-31,0-2.753-4.847h30.331Z" transform="translate(-317.319 -338.212)" fill="#505050"/>
          <path id="Trazado_105582" data-name="Trazado 105582" d="M635.917,352.831l-31.012,0-3.618-4.848h30.344Z" transform="translate(-301.464 -338.212)" fill="#59595a"/>
          <path id="Trazado_105583" data-name="Trazado 105583" d="M490.2,360.341l-32.372,0,2.567-7.96,31.28,0Z" transform="translate(-398.489 -335.238)" fill="#6d6d91" opacity="0.58"/>
          <path id="Trazado_105584" data-name="Trazado 105584" d="M515.235,360.345l-32.387,0L484,352.379l31.293,0Z" transform="translate(-381.567 -335.237)" fill="#6d6d91" opacity="0.58"/>
          <path id="Trazado_105585" data-name="Trazado 105585" d="M540.39,360.349l-32.4,0-.267-7.964,31.307,0Z" transform="translate(-364.744 -335.236)" fill="#505050"/>
          <path id="Trazado_105586" data-name="Trazado 105586" d="M566.021,360.353l-32.417,0-1.685-7.966,31.321,0Z" transform="translate(-348.379 -335.234)" fill="#505050"/>
          <path id="Trazado_105587" data-name="Trazado 105587" d="M591.665,360.357l-32.432,0-3.105-7.968,31.335,0Z" transform="translate(-332.006 -335.233)" fill="#505050"/>
          <path id="Trazado_105588" data-name="Trazado 105588" d="M617.32,360.361l-32.447,0-4.526-7.97,31.349,0Z" transform="translate(-315.626 -335.232)" fill="#505050"/>
          <path id="Trazado_105589" data-name="Trazado 105589" d="M642.987,360.364l-32.461,0-5.949-7.972,31.362,0Z" transform="translate(-299.239 -335.23)" fill="#59595a"/>
          <path id="Trazado_105590" data-name="Trazado 105590" d="M489.555,367.636l-33.977-.006,2.823-8.754,32.775,0Z" transform="translate(-400.009 -330.843)" fill="#6d6d91" opacity="0.58"/>
          <path id="Trazado_105591" data-name="Trazado 105591" d="M515.833,367.642l-33.993-.006,1.265-8.756,32.79,0Z" transform="translate(-382.248 -330.841)" fill="#6d6d91" opacity="0.58"/>
          <path id="Trazado_105592" data-name="Trazado 105592" d="M542.242,367.648l-34.01-.006-.293-8.759,32.806,0Z" transform="translate(-364.597 -330.839)" fill="#505050"/>
          <path id="Trazado_105593" data-name="Trazado 105593" d="M569.174,367.653l-34.026-.006-1.854-8.761,32.821,0Z" transform="translate(-347.448 -330.836)" fill="#505050"/>
          <path id="Trazado_105594" data-name="Trazado 105594" d="M596.12,367.659l-34.042-.006-3.416-8.763,32.836,0Z" transform="translate(-330.291 -330.834)" fill="#505050"/>
          <path id="Trazado_105595" data-name="Trazado 105595" d="M623.079,367.665l-34.059-.006-4.979-8.766,32.851,0Z" transform="translate(-313.127 -330.831)" fill="#59595a"/>
          <path id="Trazado_105596" data-name="Trazado 105596" d="M650.052,367.671l-34.075-.006-6.543-8.768,32.866,0Z" transform="translate(-295.954 -330.829)" fill="#59595a"/>
          <path id="Trazado_105597" data-name="Trazado 105597" d="M488.863,375.489l-35.7-.009,3.111-9.648,34.376.007Z" transform="translate(-401.643 -326.139)" fill="#6d6d91" opacity="0.58"/>
          <path id="Trazado_105598" data-name="Trazado 105598" d="M516.476,375.5l-35.719-.009,1.395-9.651,34.393.007Z" transform="translate(-382.98 -326.135)" fill="#6d6d91" opacity="0.58"/>
          <path id="Trazado_105599" data-name="Trazado 105599" d="M637.862,375.529l-129.73-.033-.3-9.653,124.91.025Z" transform="translate(-364.67 -326.131)" fill="#505050"/>
          <path id="Trazado_105600" data-name="Trazado 105600" d="M626.919,396.17l-112.826.016,4.225-20.707,95.6.047Z" transform="translate(-360.435 -319.614)" fill="#505050"/>
          <path id="Trazado_105601" data-name="Trazado 105601" d="M629.276,375.529l-35.791-.009L588,365.859l34.46.007Z" transform="translate(-310.451 -326.121)" fill="#59595a"/>
          <path id="Trazado_105602" data-name="Trazado 105602" d="M657.654,375.537l-35.809-.009-7.212-9.665,34.476.007Z" transform="translate(-292.438 -326.117)" fill="#59595a"/>
        </g>
        <path id="Trazado_105603" data-name="Trazado 105603" d="M850.6,405.467H422.43V393.35l428.276.179Z" transform="translate(-422.428 -53.021)" fill="#5b5b87"/>
      </g>
      <circle id="Elipse_1669" data-name="Elipse 1669" cx="10.658" cy="10.658" r="10.658" transform="translate(374.289 625.893)" fill="#fff"/>
      <circle id="Elipse_1670" data-name="Elipse 1670" cx="3.316" cy="3.316" r="3.316" transform="translate(400.815 597.472)" fill="#fff"/>
      <circle id="Elipse_1671" data-name="Elipse 1671" cx="19.392" cy="19.392" r="19.392" transform="translate(330.947 548.002)" fill="#ffa726"/>
      <path id="Trazado_105608" data-name="Trazado 105608" d="M351.439,370.545a9.527,9.527,0,1,1-9.527-9.527A9.528,9.528,0,0,1,351.439,370.545Z" transform="translate(68.087 168.389)" fill="#ffa726"/>
      <path id="Trazado_105609" data-name="Trazado 105609" d="M356.7,266.471a9.526,9.526,0,1,1-9.525-9.526A9.525,9.525,0,0,1,356.7,266.471Z" transform="translate(71.644 98.003)" fill="#4dd0e1"/>
      <path id="Trazado_105610" data-name="Trazado 105610" d="M313.094,336.861a6.165,6.165,0,1,1-6.164-6.165A6.163,6.163,0,0,1,313.094,336.861Z" transform="translate(46.702 147.882)" fill="#ffa726"/>
      <rect id="Rectángulo_7804" data-name="Rectángulo 7804" width="115.104" height="8.526" transform="translate(693.787 284.369)" fill="#ffca28"/>
      <rect id="Rectángulo_7805" data-name="Rectángulo 7805" width="87.276" height="8.526" transform="translate(600.946 284.369)" fill="#fff"/>
      <rect id="Rectángulo_7806" data-name="Rectángulo 7806" width="79.342" height="8.526" transform="translate(813.155 284.369)" fill="#fff"/>
      <rect id="Rectángulo_7807" data-name="Rectángulo 7807" width="115.105" height="8.526" transform="translate(892.496 307.58) rotate(180)" fill="#ffca28"/>
      <rect id="Rectángulo_7808" data-name="Rectángulo 7808" width="79.342" height="8.526" transform="translate(773.129 307.58) rotate(180)" fill="#fff"/>
      <rect id="Rectángulo_7809" data-name="Rectángulo 7809" width="115.104" height="8.526" transform="translate(693.787 372.237)" fill="#ffca28"/>
      <rect id="Rectángulo_7810" data-name="Rectángulo 7810" width="79.342" height="8.526" transform="translate(813.155 372.237)" fill="#fff"/>
      <rect id="Rectángulo_7811" data-name="Rectángulo 7811" width="59.092" height="8.526" transform="translate(833.405 356.724)" fill="#fff"/>
      <rect id="Rectángulo_7812" data-name="Rectángulo 7812" width="59.092" height="8.526" transform="translate(768.747 356.724)" fill="#a9ebf4"/>
      <rect id="Rectángulo_7813" data-name="Rectángulo 7813" width="59.092" height="8.526" transform="translate(703.971 356.724)" fill="#fff"/>
      <rect id="Rectángulo_7814" data-name="Rectángulo 7814" width="115.104" height="8.526" transform="translate(693.787 336.474)" fill="#fff"/>
      <rect id="Rectángulo_7815" data-name="Rectángulo 7815" width="79.342" height="8.526" transform="translate(813.155 336.474)" fill="#a9ebf4"/>
      <rect id="Rectángulo_7816" data-name="Rectángulo 7816" width="59.092" height="8.526" transform="translate(833.405 320.961)" fill="#fff"/>
      <rect id="Rectángulo_7817" data-name="Rectángulo 7817" width="59.092" height="8.526" transform="translate(768.747 320.961)" fill="#ffca28"/>
      <rect id="Rectángulo_7818" data-name="Rectángulo 7818" width="59.092" height="8.526" transform="translate(703.971 320.961)" fill="#a9ebf4"/>
      <rect id="Rectángulo_7819" data-name="Rectángulo 7819" width="115.105" height="8.526" transform="translate(892.496 395.447) rotate(180)" fill="#a9ebf4"/>
      <rect id="Rectángulo_7820" data-name="Rectángulo 7820" width="79.342" height="8.526" transform="translate(773.129 395.447) rotate(180)" fill="#ffca28"/>
      <g id="Grupo_60935" data-name="Grupo 60935" transform="translate(551.575 586.563)">
        <path id="Trazado_105611" data-name="Trazado 105611" d="M446.544,399.969a4.855,4.855,0,1,0,4.855-4.855A4.856,4.856,0,0,0,446.544,399.969Z" transform="translate(-406.281 -395.114)" fill="#4e6c84"/>
        <path id="Trazado_105612" data-name="Trazado 105612" d="M422.525,399.969a4.855,4.855,0,1,0,4.856-4.855A4.856,4.856,0,0,0,422.525,399.969Z" transform="translate(-422.525 -395.114)" fill="#4e6c84"/>
        <path id="Trazado_105613" data-name="Trazado 105613" d="M467.6,399.969a4.855,4.855,0,1,0,4.855-4.855A4.855,4.855,0,0,0,467.6,399.969Z" transform="translate(-392.043 -395.114)" fill="#4e6c84"/>
      </g>
      <g id="Grupo_60936" data-name="Grupo 60936" transform="translate(414.311 409.422)">
        <path id="Trazado_105614" data-name="Trazado 105614" d="M359.32,293.218a3.776,3.776,0,1,0,3.777-3.777A3.776,3.776,0,0,0,359.32,293.218Z" transform="translate(-328.008 -289.441)" fill="#fff"/>
        <path id="Trazado_105615" data-name="Trazado 105615" d="M340.641,293.218a3.776,3.776,0,1,0,3.775-3.777A3.775,3.775,0,0,0,340.641,293.218Z" transform="translate(-340.641 -289.441)" fill="#fff"/>
        <circle id="Elipse_1672" data-name="Elipse 1672" cx="3.776" cy="3.776" r="3.776" transform="translate(58.757 0.001)" fill="#fff"/>
      </g>
      <g id="Grupo_60937" data-name="Grupo 60937" transform="translate(711.42 434.811)">
        <path id="Trazado_105616" data-name="Trazado 105616" d="M536.56,308.364a3.776,3.776,0,1,0,3.775-3.777A3.775,3.775,0,0,0,536.56,308.364Z" transform="translate(-505.246 -304.587)" fill="#fff"/>
        <path id="Trazado_105617" data-name="Trazado 105617" d="M517.88,308.364a3.776,3.776,0,1,0,3.777-3.777A3.776,3.776,0,0,0,517.88,308.364Z" transform="translate(-517.88 -304.587)" fill="#fff"/>
        <path id="Trazado_105618" data-name="Trazado 105618" d="M552.932,308.364a3.776,3.776,0,1,0,3.775-3.777A3.775,3.775,0,0,0,552.932,308.364Z" transform="translate(-494.174 -304.587)" fill="#fff"/>
      </g>
      <g id="Grupo_60938" data-name="Grupo 60938" transform="translate(406.614 484.78)">
        <path id="Trazado_105619" data-name="Trazado 105619" d="M354.728,338.171A3.776,3.776,0,1,0,358.5,334.4,3.777,3.777,0,0,0,354.728,338.171Z" transform="translate(-323.416 -334.396)" fill="#fff"/>
        <path id="Trazado_105620" data-name="Trazado 105620" d="M336.049,338.171a3.776,3.776,0,1,0,3.775-3.775A3.776,3.776,0,0,0,336.049,338.171Z" transform="translate(-336.049 -334.396)" fill="#fff"/>
        <circle id="Elipse_1673" data-name="Elipse 1673" cx="3.776" cy="3.776" r="3.776" transform="translate(58.757)" fill="#fff"/>
      </g>
      <rect id="Rectángulo_7823" data-name="Rectángulo 7823" width="31.263" height="2.368" transform="translate(631.628 322.249)" fill="#fff"/>
      <rect id="Rectángulo_7824" data-name="Rectángulo 7824" width="31.263" height="2.368" transform="translate(631.628 329.117)" fill="#fff"/>
      <rect id="Rectángulo_7825" data-name="Rectángulo 7825" width="31.263" height="2.368" transform="translate(631.628 335.985)" fill="#fff"/>
      <path id="Trazado_105621" data-name="Trazado 105621" d="M383.01,308.214l16.071,10.129-7.968-20.123Z" transform="translate(102.325 125.918)" fill="#4dd0e1"/>
      <path id="Trazado_105622" data-name="Trazado 105622" d="M518.476,325.535l-16.071,10.129,7.968-20.122Z" transform="translate(183.074 137.633)" fill="#4dd0e1"/>
      <path id="Trazado_105623" data-name="Trazado 105623" d="M390.29,347.036,403.513,333.4l-21.332,3.651Z" transform="translate(101.764 149.708)" fill="#ffa726"/>
    </g>
  </g>
</svg>
