<svg xmlns="http://www.w3.org/2000/svg" width="188" height="188" viewBox="0 0 188 188">
  <g id="Grupo_60956" data-name="Grupo 60956" transform="translate(-1067 -2193)">
    <g id="Right" transform="translate(1066.972 2192.967)">
      <rect id="BG" width="188" height="188" rx="5" transform="translate(0.028 0.033)" fill="#ffca28" opacity="0.949"/>
    </g>
    <g id="App" transform="translate(1100.383 2211.094)">
      <g id="Grupo_60944" data-name="Grupo 60944" transform="translate(36.901 36.901)">
        <path id="Trazado_105635" data-name="Trazado 105635" d="M56.788,17.255H23.671a6.416,6.416,0,0,0-6.416,6.416V56.788A6.416,6.416,0,0,0,23.671,63.2H56.788A6.416,6.416,0,0,0,63.2,56.788V23.671a6.416,6.416,0,0,0-6.416-6.416Z" transform="translate(-17.255 -17.255)" fill="#fff"/>
        <path id="Trazado_105636" data-name="Trazado 105636" d="M48.93,63.336H82.047a6.416,6.416,0,0,0,6.416-6.416v-33.1A6.416,6.416,0,0,0,82.047,17.4H48.93a6.416,6.416,0,0,0-6.416,6.416v33.1a6.416,6.416,0,0,0,6.416,6.416Z" transform="translate(11.504 -17.09)" fill="#fff"/>
        <path id="Trazado_105637" data-name="Trazado 105637" d="M56.788,42.375H23.671a6.416,6.416,0,0,0-6.416,6.416V81.908a6.416,6.416,0,0,0,6.416,6.416H56.788A6.416,6.416,0,0,0,63.2,81.908V48.791a6.416,6.416,0,0,0-6.416-6.416Z" transform="translate(-17.255 11.345)" fill="#fff"/>
        <path id="Trazado_105638" data-name="Trazado 105638" d="M82.047,42.514H48.93a6.416,6.416,0,0,0-6.416,6.416V82.047a6.416,6.416,0,0,0,6.416,6.416H82.047a6.416,6.416,0,0,0,6.416-6.416V48.93A6.416,6.416,0,0,0,82.047,42.514Z" transform="translate(11.504 11.504)" fill="#fff"/>
      </g>
      <path id="Trazado_105639" data-name="Trazado 105639" d="M56.819,0H6.416A6.416,6.416,0,0,0,0,6.416V97.3a6.416,6.416,0,0,0,6.416,6.416h50.4A6.416,6.416,0,0,0,63.235,97.3V6.416A6.416,6.416,0,0,0,56.819,0ZM4.277,20.851H58.958V82.869H4.277ZM6.416,4.277h50.4a2.139,2.139,0,0,1,2.139,2.139V16.574H4.277V6.416A2.139,2.139,0,0,1,6.416,4.277Zm50.4,95.165H6.416A2.139,2.139,0,0,1,4.277,97.3V87.146H58.958V97.3A2.139,2.139,0,0,1,56.819,99.443Z" transform="translate(0)" fill="#12263f"/>
      <path id="Trazado_105640" data-name="Trazado 105640" d="M11.072,8.152H31.815a2.139,2.139,0,0,0,0-4.277H11.072a2.139,2.139,0,1,0,0,4.277Z" transform="translate(10.171 4.412)" fill="#151a6a"/>
      <path id="Trazado_105641" data-name="Trazado 105641" d="M6.378,33.04H21.394A2.139,2.139,0,0,0,23.533,30.9V15.883a2.139,2.139,0,0,0-2.139-2.139H6.378a2.139,2.139,0,0,0-2.139,2.139V30.9A2.139,2.139,0,0,0,6.378,33.04ZM8.516,18.021h10.74V28.763H8.516Z" transform="translate(4.826 15.648)" fill="#12263f"/>
      <path id="Trazado_105642" data-name="Trazado 105642" d="M21.4,25.733H6.378a2.139,2.139,0,0,0-2.139,2.139V42.888a2.139,2.139,0,0,0,2.139,2.139H21.4a2.139,2.139,0,0,0,2.139-2.139V27.872A2.139,2.139,0,0,0,21.4,25.733ZM19.258,40.75H8.516V30.01H19.258Z" transform="translate(4.826 29.298)" fill="#12263f"/>
    </g>
  </g>
</svg>
