<svg xmlns="http://www.w3.org/2000/svg" width="188" height="188" viewBox="0 0 188 188">
  <g id="Grupo_92526" data-name="Grupo 92526" transform="translate(-1063 -2571)">
    <g id="Right" transform="translate(1062.972 2570.967)">
      <rect id="BG" width="188" height="188" rx="5" transform="translate(0.028 0.033)" fill="#ffca28" opacity="0.949"/>
    </g>
    <g id="hombre" transform="translate(1026.19 2594.956)">
      <path id="Trazado_105643" data-name="Trazado 105643" d="M124.583,60.175v4.914a1,1,0,0,1-1,1H87.033a1,1,0,0,1-1-1V60.175a9.335,9.335,0,0,1,9.336-9.334,5.183,5.183,0,0,0,4.351-2.361,5.883,5.883,0,0,0,.832-3.669l.019-.046a12.393,12.393,0,0,1-7.654-11.453v-.392a3.087,3.087,0,0,1-3.129-3.072v-5.2c-.04-1.811.043-8.2,4.656-12.645,5.365-5.171,13.866-4.748,20.024-1.981a.251.251,0,0,1-.009.461l-1.606.661a.251.251,0,0,0,.069.481l.78.084a12.634,12.634,0,0,1,9.352,5.8.269.269,0,0,1-.033.309,7.573,7.573,0,0,0-2.068,5.2v6.83a3.072,3.072,0,0,1-3.072,3.072H117.7v.392a12.393,12.393,0,0,1-7.654,11.453l.019.046a5.881,5.881,0,0,0,.832,3.669,5.183,5.183,0,0,0,4.351,2.361,9.335,9.335,0,0,1,9.336,9.334Z" transform="translate(-6.998 -7.005)" fill="#ffdfba"/>
      <path id="Trazado_105644" data-name="Trazado 105644" d="M124.583,343.067v4.914a1,1,0,0,1-1,1H87.033a1,1,0,0,1-1-1v-4.914a9.335,9.335,0,0,1,9.335-9.334,5.182,5.182,0,0,0,4.351-2.361,8.592,8.592,0,0,0,11.177,0,5.182,5.182,0,0,0,4.351,2.361A9.335,9.335,0,0,1,124.583,343.067Z" transform="translate(-6.998 -289.897)" fill="#ffca28"/>
      <path id="Trazado_105645" data-name="Trazado 105645" d="M149.261,17.51a.266.266,0,0,1-.032.308,7.577,7.577,0,0,0-2.067,5.2v6.83a3.077,3.077,0,0,1-3.254,3.072V25.191a6.008,6.008,0,0,0-6.008-6.008H125.132a6.008,6.008,0,0,0-6.008,6.008v7.731A3.087,3.087,0,0,1,116,29.851v-5.2c-.04-1.811.043-8.2,4.656-12.645,5.364-5.171,13.866-4.747,20.024-1.981a.251.251,0,0,1-.008.46l-1.606.661a.25.25,0,0,0,.069.48l.78.084A12.628,12.628,0,0,1,149.261,17.51Z" transform="translate(-33.206 -7.005)" fill="#42434d"/>
      <path id="Trazado_105646" data-name="Trazado 105646" d="M165.815,111.424a12.394,12.394,0,1,1-24.783-.392V103.3a6.008,6.008,0,0,1,6.008-6.008h12.767a6.008,6.008,0,0,1,6.008,6.008Z" transform="translate(-55.114 -85.115)" fill="#ffebd2"/>
      <path id="Trazado_105647" data-name="Trazado 105647" d="M150.618,133.119a1.979,1.979,0,0,1-1.8,3.505,12.393,12.393,0,0,1-7.786-11.507v-8.123a5.981,5.981,0,0,1,1.054-3.4,1.48,1.48,0,0,1,2.7.9v8.123A12.3,12.3,0,0,0,150.618,133.119Z" transform="translate(-55.114 -98.809)" fill="#fff3e4"/>
      <path id="Trazado_105648" data-name="Trazado 105648" d="M210.7,303.795a12.425,12.425,0,0,1-9.8,0,7.756,7.756,0,0,0,.141-2.055l.019-.046a12.417,12.417,0,0,0,9.475,0l.019.046A7.754,7.754,0,0,0,210.7,303.795Z" transform="translate(-107.49 -263.931)" fill="#ffd6a6"/>
      <path id="Trazado_105649" data-name="Trazado 105649" d="M100.41,336.757a5.091,5.091,0,0,1-1.491.23,9.36,9.36,0,0,0-9.383,9.3v.941a1.752,1.752,0,0,1-1.752,1.752h-.751a1,1,0,0,1-1-1v-4.914a9.335,9.335,0,0,1,9.335-9.334,5.182,5.182,0,0,0,4.351-2.361,8.663,8.663,0,0,0,1.191.854A2.5,2.5,0,0,1,100.41,336.757Z" transform="translate(-6.997 -289.897)" fill="#ffa726"/>
      <path id="Trazado_105650" data-name="Trazado 105650" d="M267.09,336.757a5.091,5.091,0,0,0,1.491.23,9.36,9.36,0,0,1,9.383,9.3v.941a1.752,1.752,0,0,0,1.752,1.752h.751a1,1,0,0,0,1-1v-4.914a9.335,9.335,0,0,0-9.335-9.334,5.182,5.182,0,0,1-4.351-2.361,8.664,8.664,0,0,1-1.191.854A2.5,2.5,0,0,0,267.09,336.757Z" transform="translate(-163.884 -289.897)" fill="#ffa726"/>
      <path id="Trazado_105651" data-name="Trazado 105651" d="M140.668,10.482c-1.472.606-1.681.739-2.191.66-8.22-1.274-15.432,2.127-17.881,10.112h0a5.978,5.978,0,0,0-1.469,3.935v4.7A1.565,1.565,0,1,1,116,29.85v-5.2c-.04-1.811.043-8.2,4.656-12.645,5.365-5.171,13.866-4.748,20.024-1.981A.251.251,0,0,1,140.668,10.482Z" transform="translate(-33.207 -7.005)" fill="#4d4e59"/>
      <path id="Trazado_105652" data-name="Trazado 105652" d="M118.586,53.171v5.915a1,1,0,1,1-2,0V53.171a8.328,8.328,0,0,0-8.333-8.332,6.148,6.148,0,0,1-5.289-2.97,1,1,0,1,1,1.71-1.042,4.16,4.16,0,0,0,3.579,2.009,10.329,10.329,0,0,1,10.335,10.335ZM101.113,43.134a1,1,0,0,1-.765,1.192A9.584,9.584,0,0,1,92.9,42.868a6.072,6.072,0,0,1-4.53,1.971,8.328,8.328,0,0,0-8.333,8.332v5.915a1,1,0,1,1-2,0V53.171A10.329,10.329,0,0,1,88.368,42.836a4.175,4.175,0,0,0,4.184-4.173V38.4a13.414,13.414,0,0,1-7.625-11.6,4.086,4.086,0,0,1-3.139-3.958V17.655c-.055-2.541.323-8.9,4.963-13.377,5.729-5.523,14.918-5.172,21.674-1.92a1,1,0,0,1,.212,1.668,13.515,13.515,0,0,1,8.27,5.95,1.106,1.106,0,0,1,.23.787,1.013,1.013,0,0,1-.287.635,6.538,6.538,0,0,0-1.892,4.618v6.83a1,1,0,1,1-2,0v-6.83a8.523,8.523,0,0,1,1.945-5.443A11.567,11.567,0,0,0,106.6,5.7l-1.76-.188a1,1,0,0,1-.275-1.922l.8-.33C94.938-.375,83.79,3.663,83.79,17.644v5.2a2.067,2.067,0,0,0,1.126,1.832V18.186a7.017,7.017,0,0,1,7.009-7.009h12.767a7.017,7.017,0,0,1,7.009,7.009v8.2A13.411,13.411,0,0,1,94.533,39.158a6.122,6.122,0,0,1-.524,2.045,7.583,7.583,0,0,0,5.912,1.166,1,1,0,0,1,1.192.765ZM98.31,37.7a11.4,11.4,0,0,0,11.39-11.39V18.186a5.012,5.012,0,0,0-5.007-5.006H91.926a5.012,5.012,0,0,0-5.007,5.007v8.122A11.4,11.4,0,0,0,98.31,37.7Zm10.138,17.257h-3a1,1,0,0,0,0,2h3a1,1,0,1,0,0-2Z" transform="translate(0 0)"/>
    </g>
    <g id="hombre-2" data-name="hombre" transform="translate(1091.19 2594.957)">
      <path id="Trazado_105643-2" data-name="Trazado 105643" d="M124.583,60.175v4.914a1,1,0,0,1-1,1H87.033a1,1,0,0,1-1-1V60.175a9.335,9.335,0,0,1,9.336-9.334,5.183,5.183,0,0,0,4.351-2.361,5.883,5.883,0,0,0,.832-3.669l.019-.046a12.393,12.393,0,0,1-7.654-11.453v-.392a3.087,3.087,0,0,1-3.129-3.072v-5.2c-.04-1.811.043-8.2,4.656-12.645,5.365-5.171,13.866-4.748,20.024-1.981a.251.251,0,0,1-.009.461l-1.606.661a.251.251,0,0,0,.069.481l.78.084a12.634,12.634,0,0,1,9.352,5.8.269.269,0,0,1-.033.309,7.573,7.573,0,0,0-2.068,5.2v6.83a3.072,3.072,0,0,1-3.072,3.072H117.7v.392a12.393,12.393,0,0,1-7.654,11.453l.019.046a5.881,5.881,0,0,0,.832,3.669,5.183,5.183,0,0,0,4.351,2.361,9.335,9.335,0,0,1,9.336,9.334Z" transform="translate(-6.998 -7.005)" fill="#ffdfba"/>
      <path id="Trazado_105644-2" data-name="Trazado 105644" d="M124.583,343.067v4.914a1,1,0,0,1-1,1H87.033a1,1,0,0,1-1-1v-4.914a9.335,9.335,0,0,1,9.335-9.334,5.182,5.182,0,0,0,4.351-2.361,8.592,8.592,0,0,0,11.177,0,5.182,5.182,0,0,0,4.351,2.361A9.335,9.335,0,0,1,124.583,343.067Z" transform="translate(-6.998 -289.897)" fill="#039be5"/>
      <path id="Trazado_105645-2" data-name="Trazado 105645" d="M149.261,17.51a.266.266,0,0,1-.032.308,7.577,7.577,0,0,0-2.067,5.2v6.83a3.077,3.077,0,0,1-3.254,3.072V25.191a6.008,6.008,0,0,0-6.008-6.008H125.132a6.008,6.008,0,0,0-6.008,6.008v7.731A3.087,3.087,0,0,1,116,29.851v-5.2c-.04-1.811.043-8.2,4.656-12.645,5.364-5.171,13.866-4.747,20.024-1.981a.251.251,0,0,1-.008.46l-1.606.661a.25.25,0,0,0,.069.48l.78.084A12.628,12.628,0,0,1,149.261,17.51Z" transform="translate(-33.206 -7.005)" fill="#42434d"/>
      <path id="Trazado_105646-2" data-name="Trazado 105646" d="M165.815,111.424a12.394,12.394,0,1,1-24.783-.392V103.3a6.008,6.008,0,0,1,6.008-6.008h12.767a6.008,6.008,0,0,1,6.008,6.008Z" transform="translate(-55.114 -85.115)" fill="#ffebd2"/>
      <path id="Trazado_105647-2" data-name="Trazado 105647" d="M150.618,133.119a1.979,1.979,0,0,1-1.8,3.505,12.393,12.393,0,0,1-7.786-11.507v-8.123a5.981,5.981,0,0,1,1.054-3.4,1.48,1.48,0,0,1,2.7.9v8.123A12.3,12.3,0,0,0,150.618,133.119Z" transform="translate(-55.114 -98.809)" fill="#fff3e4"/>
      <path id="Trazado_105648-2" data-name="Trazado 105648" d="M210.7,303.795a12.425,12.425,0,0,1-9.8,0,7.756,7.756,0,0,0,.141-2.055l.019-.046a12.417,12.417,0,0,0,9.475,0l.019.046A7.754,7.754,0,0,0,210.7,303.795Z" transform="translate(-107.49 -263.931)" fill="#ffd6a6"/>
      <path id="Trazado_105649-2" data-name="Trazado 105649" d="M100.41,336.757a5.091,5.091,0,0,1-1.491.23,9.36,9.36,0,0,0-9.383,9.3v.941a1.752,1.752,0,0,1-1.752,1.752h-.751a1,1,0,0,1-1-1v-4.914a9.335,9.335,0,0,1,9.335-9.334,5.182,5.182,0,0,0,4.351-2.361,8.663,8.663,0,0,0,1.191.854A2.5,2.5,0,0,1,100.41,336.757Z" transform="translate(-6.997 -289.897)" fill="#4dd0e1"/>
      <path id="Trazado_105650-2" data-name="Trazado 105650" d="M267.09,336.757a5.091,5.091,0,0,0,1.491.23,9.36,9.36,0,0,1,9.383,9.3v.941a1.752,1.752,0,0,0,1.752,1.752h.751a1,1,0,0,0,1-1v-4.914a9.335,9.335,0,0,0-9.335-9.334,5.182,5.182,0,0,1-4.351-2.361,8.664,8.664,0,0,1-1.191.854A2.5,2.5,0,0,0,267.09,336.757Z" transform="translate(-163.884 -289.897)" fill="#4dd0e1"/>
      <path id="Trazado_105651-2" data-name="Trazado 105651" d="M140.668,10.482c-1.472.606-1.681.739-2.191.66-8.22-1.274-15.432,2.127-17.881,10.112h0a5.978,5.978,0,0,0-1.469,3.935v4.7A1.565,1.565,0,1,1,116,29.85v-5.2c-.04-1.811.043-8.2,4.656-12.645,5.365-5.171,13.866-4.748,20.024-1.981A.251.251,0,0,1,140.668,10.482Z" transform="translate(-33.207 -7.005)" fill="#4d4e59"/>
      <path id="Trazado_105652-2" data-name="Trazado 105652" d="M118.586,53.171v5.915a1,1,0,1,1-2,0V53.171a8.328,8.328,0,0,0-8.333-8.332,6.148,6.148,0,0,1-5.289-2.97,1,1,0,1,1,1.71-1.042,4.16,4.16,0,0,0,3.579,2.009,10.329,10.329,0,0,1,10.335,10.335ZM101.113,43.134a1,1,0,0,1-.765,1.192A9.584,9.584,0,0,1,92.9,42.868a6.072,6.072,0,0,1-4.53,1.971,8.328,8.328,0,0,0-8.333,8.332v5.915a1,1,0,1,1-2,0V53.171A10.329,10.329,0,0,1,88.368,42.836a4.175,4.175,0,0,0,4.184-4.173V38.4a13.414,13.414,0,0,1-7.625-11.6,4.086,4.086,0,0,1-3.139-3.958V17.655c-.055-2.541.323-8.9,4.963-13.377,5.729-5.523,14.918-5.172,21.674-1.92a1,1,0,0,1,.212,1.668,13.515,13.515,0,0,1,8.27,5.95,1.106,1.106,0,0,1,.23.787,1.013,1.013,0,0,1-.287.635,6.538,6.538,0,0,0-1.892,4.618v6.83a1,1,0,1,1-2,0v-6.83a8.523,8.523,0,0,1,1.945-5.443A11.567,11.567,0,0,0,106.6,5.7l-1.76-.188a1,1,0,0,1-.275-1.922l.8-.33C94.938-.375,83.79,3.663,83.79,17.644v5.2a2.067,2.067,0,0,0,1.126,1.832V18.186a7.017,7.017,0,0,1,7.009-7.009h12.767a7.017,7.017,0,0,1,7.009,7.009v8.2A13.411,13.411,0,0,1,94.533,39.158a6.122,6.122,0,0,1-.524,2.045,7.583,7.583,0,0,0,5.912,1.166,1,1,0,0,1,1.192.765ZM98.31,37.7a11.4,11.4,0,0,0,11.39-11.39V18.186a5.012,5.012,0,0,0-5.007-5.006H91.926a5.012,5.012,0,0,0-5.007,5.007v8.122A11.4,11.4,0,0,0,98.31,37.7Zm10.138,17.257h-3a1,1,0,0,0,0,2h3a1,1,0,1,0,0-2Z" transform="translate(0 0)"/>
    </g>
    <g id="mujer" transform="translate(1034.236 2671)">
      <path id="Trazado_105653" data-name="Trazado 105653" d="M119,58.6v4.766a.971.971,0,0,1-.971.971H82.576a.971.971,0,0,1-.971-.971V58.6a9.057,9.057,0,0,1,5.313-8.247,14.2,14.2,0,0,1-4.645-5.326,12.837,12.837,0,0,1,.879-12.7,12.487,12.487,0,0,0,2.1-6.925V20.141A12.141,12.141,0,0,1,97.387,8h5.828a12.141,12.141,0,0,1,12.141,12.141c0,5.571-.136,6.662.535,8.877.948,3.132,2.2,3.52,3.164,6.708a12.845,12.845,0,0,1-4.294,13.766l-1.076.856A9.057,9.057,0,0,1,119,58.6Z" transform="translate(-7.037 -7.029)" fill="#ffdfba"/>
      <path id="Trazado_105654" data-name="Trazado 105654" d="M123.395,355.964v4.766a.971.971,0,0,1-.971.971H86.972A.971.971,0,0,1,86,360.73v-4.766a9.054,9.054,0,0,1,9.053-9.053,5.024,5.024,0,0,0,2.086-.45l.03.066,6.933,5.367a.971.971,0,0,0,1.189,0l6.933-5.367.03-.066a5.024,5.024,0,0,0,2.086.45A9.054,9.054,0,0,1,123.395,355.964Z" transform="translate(-11.434 -304.397)" fill="#dbfbff"/>
      <path id="Trazado_105655" data-name="Trazado 105655" d="M164.121,123.369a.972.972,0,0,1,.919.97v5.814a12.019,12.019,0,1,1-24.039,0v-5.729a.97.97,0,0,1,1.055-.968,25.129,25.129,0,0,0,16.381-4.188.968.968,0,0,1,1.475.542A4.531,4.531,0,0,0,164.121,123.369Z" transform="translate(-59.756 -104.64)" fill="#ffebd2"/>
      <path id="Trazado_105656" data-name="Trazado 105656" d="M114.769,49.492l-1.076.856a9.031,9.031,0,0,0-3.741-.806,5.023,5.023,0,0,1-5.03-5.019v-.829l-.018-.045a12.021,12.021,0,0,0,7.424-11.109V26.726a.972.972,0,0,0-.919-.97A4.529,4.529,0,0,1,107.2,22.2a.968.968,0,0,0-1.475-.542,25.13,25.13,0,0,1-16.381,4.188.97.97,0,0,0-1.055.968V32.54a12.021,12.021,0,0,0,7.424,11.109l-.018.045v.829a5.023,5.023,0,0,1-5.03,5.019,9.031,9.031,0,0,0-3.741.806l-1.076-.856a12.845,12.845,0,0,1-2.69-17.166,12.487,12.487,0,0,0,2.1-6.925V20.141A12.141,12.141,0,0,1,97.4,8h5.828a12.141,12.141,0,0,1,12.141,12.141V25.4a12.494,12.494,0,0,0,2.1,6.925A12.845,12.845,0,0,1,114.769,49.492Z" transform="translate(-7.045 -7.029)" fill="#42434d"/>
      <path id="Trazado_105657" data-name="Trazado 105657" d="M210.373,303.668a12.052,12.052,0,0,1-9.5,0,7.523,7.523,0,0,0,.137-1.994l.018-.045a12.044,12.044,0,0,0,9.191,0l.018.045A7.517,7.517,0,0,0,210.373,303.668Z" transform="translate(-112.359 -265.01)" fill="#ffd6a6"/>
      <path id="Trazado_105658" data-name="Trazado 105658" d="M108.7,9.307a1.266,1.266,0,0,1-.683,2.39q-.572-.054-1.159-.055h-5.828A12.141,12.141,0,0,0,88.892,23.783V25.26c0,.872-.607.844-.607,1.551,0,6.413.026,6.007-.068,6.284-.952,2.8-2.1,3.207-3.024,6.274a12.834,12.834,0,0,0-.48,5.059,1.267,1.267,0,0,1-2.438.6,12.839,12.839,0,0,1,.879-12.7,12.487,12.487,0,0,0,2.1-6.925V20.141A12.141,12.141,0,0,1,97.391,8h5.828A12.089,12.089,0,0,1,108.7,9.307Z" transform="translate(-7.041 -7.029)" fill="#4d4e59"/>
      <path id="Trazado_105659" data-name="Trazado 105659" d="M150.717,169.689a1.854,1.854,0,0,1-1.628,3.3A11.943,11.943,0,0,1,141,161.637v-5.729a.97.97,0,0,1,1.055-.968c.465.042.976.076,1.527.092a1.85,1.85,0,0,1,1.788,1.853v2.809a11.977,11.977,0,0,0,5.345,9.994Z" transform="translate(-59.757 -136.126)" fill="#fff3e4"/>
      <path id="Trazado_105660" data-name="Trazado 105660" d="M99.174,348.076a.772.772,0,0,1-.457,1.384,9.052,9.052,0,0,0-9.073,9.053V361.7H86.973A.971.971,0,0,1,86,360.73v-4.767a9.054,9.054,0,0,1,9.053-9.053,5.024,5.024,0,0,0,2.086-.45l.03.066Z" transform="translate(-11.435 -304.397)" fill="#4dd0e1"/>
      <path id="Trazado_105661" data-name="Trazado 105661" d="M283.328,348.076a.772.772,0,0,0,.457,1.384,9.052,9.052,0,0,1,9.073,9.053V361.7h2.671a.971.971,0,0,0,.971-.971v-4.767a9.054,9.054,0,0,0-9.053-9.053,5.024,5.024,0,0,1-2.086-.45l-.03.066Z" transform="translate(-184.54 -304.397)" fill="#4dd0e1"/>
      <path id="Trazado_105662" data-name="Trazado 105662" d="M112.932,51.567V57.3a.971.971,0,1,1-1.943,0V51.567a8.078,8.078,0,0,0-8.082-8.082,5.963,5.963,0,0,1-5.13-2.881.971.971,0,0,1,1.659-1.011,4.035,4.035,0,0,0,3.472,1.949A10.019,10.019,0,0,1,112.932,51.567Zm-16.2-7.521-3.464,2.682-5.889-4.559A5.95,5.95,0,0,0,89.6,37.975a12.992,12.992,0,0,0,16.654-12.464c0-.076,0-6.8,0-6.876a.971.971,0,0,0-.968-.91,4,4,0,0,1-2.535-.468,4.42,4.42,0,0,1-1.836-3.532.972.972,0,0,0-1.532-.8,31.3,31.3,0,0,1-13.772,5.465.971.971,0,0,0,.134,1.933,31.957,31.957,0,0,0,6.882-1.686,33.3,33.3,0,0,0,6.589-3.258,5.485,5.485,0,0,0,5.1,4.316v5.815a11.048,11.048,0,1,1-22.1,0V18.7a.971.971,0,1,0-1.943,0v6.814a13.007,13.007,0,0,0,7.406,11.727v.256a4.049,4.049,0,0,1-4.058,4.048,10.02,10.02,0,0,0-3.585.66l-.627-.5a11.863,11.863,0,0,1-2.487-15.868,13.418,13.418,0,0,0,2.258-7.462V13.113A11.182,11.182,0,0,1,90.35,1.943h5.828a11.182,11.182,0,0,1,11.17,11.17v5.261a13.35,13.35,0,0,0,2.247,7.447,11.865,11.865,0,0,1-.095,13.333.971.971,0,1,0,1.6,1.1,13.806,13.806,0,0,0,.11-15.515,11.413,11.413,0,0,1-1.92-6.367V13.112A13.127,13.127,0,0,0,96.178,0H90.35A13.127,13.127,0,0,0,77.238,13.113v5.26a11.481,11.481,0,0,1-1.932,6.386,13.8,13.8,0,0,0,2.832,18.414A10,10,0,0,0,73.6,51.567V57.3a.971.971,0,1,0,1.943,0V51.567a8.078,8.078,0,0,1,8.082-8.082,6.022,6.022,0,0,0,1.889-.3l7.159,5.542a.971.971,0,0,0,1.189,0l4.058-3.142a.971.971,0,0,0-1.189-1.536Z"/>
    </g>
    <g id="felicidad" transform="translate(1085.776 2674.5)">
      <g id="Grupo_60946" data-name="Grupo 60946" transform="translate(88.871 0.802)">
        <path id="Trazado_105663" data-name="Trazado 105663" d="M127.1,55.862H98.362a2.793,2.793,0,0,1-2.793-2.793V22.948A15.448,15.448,0,0,1,111.017,7.5h3.431A15.448,15.448,0,0,1,129.9,22.948v30.12A2.793,2.793,0,0,1,127.1,55.862Z" transform="translate(-95.569 -7.5)" fill="#365e7d"/>
        <path id="Trazado_105664" data-name="Trazado 105664" d="M244.986,7.5h-3.24a15.448,15.448,0,0,1,15.448,15.448v30.12a2.793,2.793,0,0,1-2.793,2.793h3.24a2.793,2.793,0,0,0,2.793-2.793V22.948A15.448,15.448,0,0,0,244.986,7.5Z" transform="translate(-226.108 -7.5)" fill="#2b4d66"/>
      </g>
      <path id="Trazado_105665" data-name="Trazado 105665" d="M159.529,345.031h-9.793a7.247,7.247,0,0,0-7.247,7.247v8.89a.923.923,0,0,0,.923.923h22.442a.923.923,0,0,0,.923-.923v-8.89A7.247,7.247,0,0,0,159.529,345.031Z" transform="translate(-48.597 -308.119)" fill="#ffe07d"/>
      <path id="Trazado_105666" data-name="Trazado 105666" d="M272.294,345.031h-3.531a7.247,7.247,0,0,1,7.247,7.247v8.89a.923.923,0,0,1-.923.923h3.531a.923.923,0,0,0,.923-.923v-8.89A7.247,7.247,0,0,0,272.294,345.031Z" transform="translate(-161.363 -308.119)" fill="#ffd064"/>
      <g id="Grupo_60947" data-name="Grupo 60947" transform="translate(103.147 31.341)">
        <path id="Trazado_105667" data-name="Trazado 105667" d="M233.914,293.177l-3.875-.228c-.989,0-1.033,4.635-1.033,4.635v2.838a2.885,2.885,0,1,0,5.771,0v-2.838S234.9,293.177,233.914,293.177Z" transform="translate(-229.006 -292.949)" fill="#eaac9d"/>
      </g>
      <path id="Trazado_105668" data-name="Trazado 105668" d="M139.779,119.784a13.923,13.923,0,0,1-13.923-13.923V97.439a.367.367,0,0,1,.367-.366c6.444-.012,12.139-.935,17.219-4.218a.345.345,0,0,1,.463.078c2.294,3.046,5.423,3.888,9.432,4.12a.386.386,0,0,1,.365.385v8.422A13.923,13.923,0,0,1,139.779,119.784Z" transform="translate(-33.744 -82.871)" fill="#ffcbbe"/>
      <path id="Trazado_105669" data-name="Trazado 105669" d="M254.216,129.19a22.694,22.694,0,0,1-3.311-.4V138a13.925,13.925,0,0,1-12.085,13.8A13.93,13.93,0,0,0,254.581,138v-8.422A.386.386,0,0,0,254.216,129.19Z" transform="translate(-134.623 -115.007)" fill="#eaac9d"/>
      <g id="Grupo_60948" data-name="Grupo 60948" transform="translate(96.401 24.596)">
        <circle id="Elipse_1674" data-name="Elipse 1674" cx="1.781" cy="1.781" r="1.781" transform="translate(0)" fill="#efa5c3"/>
        <circle id="Elipse_1675" data-name="Elipse 1675" cx="1.781" cy="1.781" r="1.781" transform="translate(15.706)" fill="#efa5c3"/>
      </g>
      <g id="Grupo_60949" data-name="Grupo 60949" transform="translate(88.069 0)">
        <path id="Trazado_105670" data-name="Trazado 105670" d="M121.478,7.552a.8.8,0,1,0-1.355.86,14.6,14.6,0,0,1,2.273,7.838v30.12a1.993,1.993,0,0,1-1.991,1.991h-1.424v-4.2a8.062,8.062,0,0,0-6.551-7.908,14.744,14.744,0,0,0,8.33-13.263V14.567a1.19,1.19,0,0,0-1.121-1.186c-3.749-.217-6.687-.947-8.838-3.8a1.151,1.151,0,0,0-1.54-.269c-4.356,2.815-9.533,4.076-16.785,4.089a1.171,1.171,0,0,0-1.168,1.168v4.454a.8.8,0,1,0,1.6,0V15c7.165-.062,12.4-1.341,16.869-4.122,2.551,3.133,5.986,3.848,9.373,4.078v8.03a13.121,13.121,0,0,1-26.242,0V22.23a.8.8,0,1,0-1.6,0v.759a14.744,14.744,0,0,0,8.33,13.263,8.062,8.062,0,0,0-6.551,7.908v4.2H91.664a1.993,1.993,0,0,1-1.991-1.991V16.251A14.663,14.663,0,0,1,104.32,1.6h3.43a14.535,14.535,0,0,1,10.471,4.407.8.8,0,1,0,1.147-1.122A16.127,16.127,0,0,0,107.75,0h-3.43A16.269,16.269,0,0,0,88.069,16.251v30.12a3.6,3.6,0,0,0,3.6,3.6h1.424V53.05a1.727,1.727,0,0,0,1.725,1.725h14.94a.8.8,0,1,0,0-1.6H94.814a.121.121,0,0,1-.121-.121V44.16a6.452,6.452,0,0,1,6.445-6.445h1.206v1.1a3.688,3.688,0,1,0,7.375,0v-1.1h1.212a6.452,6.452,0,0,1,6.445,6.445v8.89a.121.121,0,0,1-.121.121h-4.294a.8.8,0,1,0,0,1.6h4.294a1.727,1.727,0,0,0,1.725-1.725V49.966h1.424a3.6,3.6,0,0,0,3.6-3.6V16.251a16.2,16.2,0,0,0-2.522-8.7ZM106.032,40.9a2.085,2.085,0,0,1-2.083-2.083V37.566a14.73,14.73,0,0,0,4.166,0v1.246a2.085,2.085,0,0,1-2.083,2.083Z" transform="translate(-88.069 0)"/>
        <path id="Trazado_105673" data-name="Trazado 105673" d="M204.146,256.733a.8.8,0,0,0-1.477.627,6.137,6.137,0,0,0,11.3,0,.8.8,0,0,0-1.477-.627,4.532,4.532,0,0,1-8.343,0Z" transform="translate(-190.351 -228.831)"/>
      </g>
    </g>
  </g>
</svg>
