<svg xmlns="http://www.w3.org/2000/svg" width="188" height="188" viewBox="0 0 188 188">
  <g id="Grupo_60954" data-name="Grupo 60954" transform="translate(-1067 -3628)">
    <g id="Right" transform="translate(1066.972 3627.967)">
      <rect id="BG" width="188" height="188" rx="5" transform="translate(0.028 0.033)" fill="#ffca28" opacity="0.949"/>
    </g>
    <g id="engranaje" transform="translate(1104 3667.224)">
      <g id="Grupo_60952" data-name="Grupo 60952" transform="translate(12.874 12.874)">
        <circle id="Elipse_1676" data-name="Elipse 1676" cx="5.323" cy="5.323" r="5.323" transform="translate(77.158)" fill="#4dbaf6"/>
        <circle id="Elipse_1677" data-name="Elipse 1677" cx="5.323" cy="5.323" r="5.323" transform="translate(0 77.158)" fill="#4dbaf6"/>
      </g>
      <g id="Grupo_60953" data-name="Grupo 60953" transform="translate(12.874 12.874)">
        <circle id="Elipse_1678" data-name="Elipse 1678" cx="5.323" cy="5.323" r="5.323" transform="translate(77.158 77.158)" fill="#ff5d5d"/>
        <circle id="Elipse_1679" data-name="Elipse 1679" cx="5.323" cy="5.323" r="5.323" fill="#ff5d5d"/>
      </g>
      <path id="Trazado_105674" data-name="Trazado 105674" d="M149.533,108.658a34.188,34.188,0,0,0-4.716-11.38l4.447-4.447L139,82.574l-4.443,4.443a34.183,34.183,0,0,0-11.38-4.716V76.018H108.665V82.3a34.183,34.183,0,0,0-11.38,4.716l-4.443-4.443L82.578,92.831l4.447,4.447a34.179,34.179,0,0,0-4.716,11.38h-6.3L76,123.169h6.308a34.183,34.183,0,0,0,4.716,11.381l-4.464,4.464,10.257,10.265,4.467-4.467a34.184,34.184,0,0,0,11.381,4.716v6.325h14.511v-6.325a34.18,34.18,0,0,0,11.381-4.716l4.467,4.467,10.257-10.265-4.464-4.464a34.188,34.188,0,0,0,4.716-11.381h6.308V108.658ZM115.921,132.79a16.855,16.855,0,1,1,16.855-16.855A16.855,16.855,0,0,1,115.921,132.79Z" transform="translate(-59.145 -59.159)" fill="#fff"/>
      <path id="Trazado_105675" data-name="Trazado 105675" d="M135.3,464.324l-.077-.041a2.218,2.218,0,0,0-2.056,3.931l.077.041a2.218,2.218,0,1,0,2.056-3.931Z" transform="translate(-102.706 -361.116)"/>
      <path id="Trazado_105676" data-name="Trazado 105676" d="M352.254,27.688l.059.028a2.218,2.218,0,0,0,1.916-4l-.081-.039a2.218,2.218,0,1,0-1.894,4.011Z" transform="translate(-273.141 -18.26)"/>
      <path id="Trazado_105677" data-name="Trazado 105677" d="M409.919,59.562a7.53,7.53,0,1,0-3.344,2.927,52.442,52.442,0,0,1,10.689,31.695,51.876,51.876,0,0,1-4.958,22.266,2.218,2.218,0,1,0,4.013,1.889A56.278,56.278,0,0,0,421.7,94.184,56.886,56.886,0,0,0,409.919,59.562ZM401.306,57.8a3.1,3.1,0,1,1,4.391,0l-.03.027,0,0c-.025.021-.048.044-.072.066A3.106,3.106,0,0,1,401.306,57.8Z" transform="translate(-308.146 -37.407)"/>
      <path id="Trazado_105678" data-name="Trazado 105678" d="M15.124,203.807a52.4,52.4,0,0,1-6.39-52.5,2.218,2.218,0,0,0-4.069-1.765,56.832,56.832,0,0,0,7.115,57.193,7.541,7.541,0,1,0,3.344-2.927Zm5.269,9.08A3.1,3.1,0,1,1,16,208.5l.029-.026,0,0c.025-.021.048-.044.072-.066a3.1,3.1,0,0,1,4.286,4.486Z" transform="translate(0 -115.336)"/>
      <path id="Trazado_105679" data-name="Trazado 105679" d="M217.339,398.169a7.552,7.552,0,0,0-1.552,8.406,52.423,52.423,0,0,1-49.226,7.681,2.218,2.218,0,1,0-1.486,4.179,56.854,56.854,0,0,0,53.639-8.516,7.54,7.54,0,1,0-1.375-11.75Zm7.528,7.528a3.108,3.108,0,0,1-4.391,0c-.01-.01-.017-.02-.027-.029l0,0c-.021-.025-.044-.048-.066-.072a3.1,3.1,0,1,1,4.486.1Z" transform="translate(-127.316 -308.146)"/>
      <path id="Trazado_105680" data-name="Trazado 105680" d="M55.605,25.735a7.534,7.534,0,0,0,6.884-10.611,52.437,52.437,0,0,1,47.117-8.38,2.218,2.218,0,1,0,1.305-4.239,56.868,56.868,0,0,0-51.35,9.275,7.539,7.539,0,1,0-3.957,13.955ZM53.409,16A3.108,3.108,0,0,1,57.8,16c.01.01.017.02.027.029l0,0c.008.01.017.018.026.028A3.1,3.1,0,1,1,53.409,16Z" transform="translate(-37.407 0)"/>
      <path id="Trazado_105681" data-name="Trazado 105681" d="M98.7,143.506v4.571a2.218,2.218,0,0,0,2.218,2.218h0l14.511-.005a2.218,2.218,0,0,0,2.217-2.218v-4.566a36.235,36.235,0,0,0,8.831-3.656l3.225,3.225a2.219,2.219,0,0,0,3.137,0L143.1,132.814a2.218,2.218,0,0,0,0-3.137l-3.226-3.225a36.228,36.228,0,0,0,3.656-8.831h4.542A2.218,2.218,0,0,0,150.3,115.4l-.005-14.511a2.218,2.218,0,0,0-2.218-2.217h-4.537a36.234,36.234,0,0,0-3.656-8.831l3.208-3.208a2.218,2.218,0,0,0,0-3.137L132.826,73.239a2.219,2.219,0,0,0-3.137,0l-3.208,3.208a36.225,36.225,0,0,0-8.831-3.656V68.254a2.218,2.218,0,0,0-2.217-2.218l-14.511-.005h0A2.218,2.218,0,0,0,98.7,68.249v4.542a36.227,36.227,0,0,0-8.831,3.656l-3.22-3.22a2.218,2.218,0,0,0-3.136,0L73.251,83.481a2.218,2.218,0,0,0,0,3.137l3.225,3.225a36.233,36.233,0,0,0-3.656,8.831H68.254a2.218,2.218,0,0,0-2.218,2.217L66.031,115.4a2.218,2.218,0,0,0,2.218,2.219H72.82a36.234,36.234,0,0,0,3.656,8.831l-3.237,3.237a2.218,2.218,0,0,0,0,3.137L83.5,143.087a2.219,2.219,0,0,0,3.137,0l3.237-3.237A36.222,36.222,0,0,0,98.7,143.506Zm-10.733-8.028-2.9,2.9-7.124-7.124,2.9-2.9a2.218,2.218,0,0,0,.295-2.772,31.867,31.867,0,0,1-4.407-10.644,2.218,2.218,0,0,0-2.168-1.752h-4.1l0-10.075h4.1a2.218,2.218,0,0,0,2.168-1.752,31.877,31.877,0,0,1,4.407-10.644,2.218,2.218,0,0,0-.294-2.772l-2.892-2.891,7.128-7.12,2.888,2.888a2.218,2.218,0,0,0,2.772.295,31.88,31.88,0,0,1,10.644-4.407,2.218,2.218,0,0,0,1.752-2.168v-4.07l10.075,0v4.066a2.218,2.218,0,0,0,1.752,2.168,31.871,31.871,0,0,1,10.644,4.407,2.218,2.218,0,0,0,2.772-.294l2.875-2.875,7.124,7.124-2.875,2.875a2.218,2.218,0,0,0-.294,2.772,31.873,31.873,0,0,1,4.407,10.644,2.218,2.218,0,0,0,2.168,1.752h4.066l0,10.075h-4.07a2.218,2.218,0,0,0-2.168,1.752,31.876,31.876,0,0,1-4.407,10.644,2.218,2.218,0,0,0,.295,2.772l2.892,2.892-7.124,7.124-2.892-2.892a2.218,2.218,0,0,0-2.772-.294,31.877,31.877,0,0,1-10.644,4.407,2.218,2.218,0,0,0-1.752,2.168v4.1l-10.075,0v-4.1a2.218,2.218,0,0,0-1.752-2.168,31.872,31.872,0,0,1-10.644-4.407,2.218,2.218,0,0,0-2.772.294Z" transform="translate(-51.386 -51.386)"/>
      <path id="Trazado_105682" data-name="Trazado 105682" d="M189.105,208.129a19.065,19.065,0,0,0,18.161-24.9,2.218,2.218,0,1,0-4.224,1.355,14.638,14.638,0,1,1-9.746-9.543,2.218,2.218,0,1,0,1.265-4.251,19.072,19.072,0,1,0-5.456,37.344Z" transform="translate(-132.329 -132.288)"/>
      <path id="Trazado_105683" data-name="Trazado 105683" d="M300.548,196.207a2.218,2.218,0,1,0,3.184-3.089q-.1-.1-.2-.207a2.218,2.218,0,0,0-3.139,3.134Z" transform="translate(-233.263 -149.62)"/>
    </g>
  </g>
</svg>
