<svg xmlns="http://www.w3.org/2000/svg" width="200" height="188" viewBox="0 0 200 188">
  <g id="Grupo_92526" data-name="Grupo 92526" transform="translate(-265.999 -444)">
    <g id="Right" transform="translate(265.972 443.967)">
      <rect id="BG" width="200" height="188" rx="5" transform="translate(0.028 0.033)" fill="#fff" opacity="0.949"/>
    </g>
    <g id="flujo-de-trabajo" transform="translate(318.146 476.01)">
      <g id="Grupo_60892" data-name="Grupo 60892" transform="translate(71.847 66.79)">
        <path id="Trazado_105456" data-name="Trazado 105456" d="M373.531,276.514l7.009,7.009a1.9,1.9,0,0,0,2.687,0l7.009-7.009a1.9,1.9,0,0,0-1.343-3.243H374.874A1.9,1.9,0,0,0,373.531,276.514Z" transform="translate(-372.971 -273.271)" fill="#59636f"/>
      </g>
      <g id="Grupo_60893" data-name="Grupo 60893" transform="translate(49.778 18.979)">
        <path id="Trazado_105457" data-name="Trazado 105457" d="M281.108,84.5l7.009-7.009a1.9,1.9,0,0,0,0-2.687L281.108,67.8a1.9,1.9,0,0,0-3.243,1.343V83.162A1.9,1.9,0,0,0,281.108,84.5Z" transform="translate(-277.865 -67.241)" fill="#59636f"/>
      </g>
      <g id="Grupo_60894" data-name="Grupo 60894" transform="translate(0.475 45.908)">
        <path id="Trazado_105458" data-name="Trazado 105458" d="M82.671,190.848l-7.009-7.009a1.9,1.9,0,0,0-2.687,0l-7.009,7.009a1.9,1.9,0,0,0,1.343,3.243H81.328a1.9,1.9,0,0,0,1.343-3.243Z" transform="translate(-65.407 -183.283)" fill="#59636f"/>
      </g>
      <circle id="Elipse_1661" data-name="Elipse 1661" cx="20.17" cy="20.17" r="20.17" transform="translate(-19.146 99.256) rotate(-45)" fill="#ffca28"/>
      <path id="Trazado_105459" data-name="Trazado 105459" d="M54.736,371.909c-28.492,13.4-36.495-13.7-30.672-25.15a20.171,20.171,0,1,0,30.672,25.15Z" transform="translate(-27.677 -262.915)" fill="#f2d98d"/>
      <circle id="Elipse_1662" data-name="Elipse 1662" cx="10.372" cy="10.372" r="10.372" transform="translate(-5.292 99.256) rotate(-45)" fill="#ffa726"/>
      <path id="Trazado_105460" data-name="Trazado 105460" d="M359.04,18.711H330.19a5.749,5.749,0,0,0-5.749,5.749V53.31a5.749,5.749,0,0,0,5.749,5.749H359.04a5.749,5.749,0,0,0,5.749-5.749V24.46A5.749,5.749,0,0,0,359.04,18.711Z" transform="translate(-263.855 -10.993)" fill="#26a69a"/>
      <path id="Trazado_105461" data-name="Trazado 105461" d="M334.715,18.711h-4.525a5.749,5.749,0,0,0-5.749,5.749V53.31a5.749,5.749,0,0,0,5.749,5.749h27C333.781,54.113,333.073,28.795,334.715,18.711Z" transform="translate(-263.855 -10.993)" fill="#79c9c2"/>
      <path id="Trazado_105462" data-name="Trazado 105462" d="M385.85,63.244H371.778a2.8,2.8,0,0,0-2.8,2.8V80.12a2.8,2.8,0,0,0,2.8,2.8H385.85a2.8,2.8,0,0,0,2.8-2.8V66.048a2.8,2.8,0,0,0-2.8-2.8Z" transform="translate(-298.054 -45.192)" fill="#f6ee86"/>
      <path id="Trazado_105463" data-name="Trazado 105463" d="M371.778,98.221h3.081a34.773,34.773,0,0,1-5.885-15.057V95.417A2.8,2.8,0,0,0,371.778,98.221Z" transform="translate(-298.054 -60.49)" fill="#f2d98d"/>
      <path id="Trazado_105464" data-name="Trazado 105464" d="M26.387,13.906,8.056,45.655a4.011,4.011,0,0,0,3.473,6.016H48.191a4.011,4.011,0,0,0,3.473-6.016L33.333,13.906a4.011,4.011,0,0,0-6.947,0Z" transform="translate(-20.472 -5.763)" fill="#4dd0e1"/>
      <path id="Trazado_105465" data-name="Trazado 105465" d="M20.9,61.514,8.056,83.756a4.011,4.011,0,0,0,3.473,6.016H33.391C17.954,85.6,17.692,71.428,20.9,61.514Z" transform="translate(-20.472 -43.864)" fill="#7acefa"/>
      <path id="Trazado_105466" data-name="Trazado 105466" d="M76.513,82.849,70.05,94.044a1.414,1.414,0,0,0,1.225,2.121H84.2a1.414,1.414,0,0,0,1.225-2.121L78.963,82.849A1.414,1.414,0,0,0,76.513,82.849Z" transform="translate(-68.35 -59.705)" fill="#dbfbff"/>
      <path id="Trazado_105467" data-name="Trazado 105467" d="M335.492,321.264,321.3,331.575a7.42,7.42,0,0,0-2.7,8.3l5.421,16.685a7.419,7.419,0,0,0,7.056,5.127h17.543a7.419,7.419,0,0,0,7.056-5.127l5.421-16.685a7.42,7.42,0,0,0-2.7-8.3l-14.193-10.312a7.419,7.419,0,0,0-8.722,0Z" transform="translate(-259.093 -242.248)" fill="#e7889d"/>
      <path id="Trazado_105468" data-name="Trazado 105468" d="M348.625,370.343a7.417,7.417,0,0,0,5.908-2.936c-24.339-5.814-25.035-29.469-20.692-36.282L321.3,340.237a7.42,7.42,0,0,0-2.7,8.3l5.421,16.685a7.42,7.42,0,0,0,7.056,5.127h17.543Z" transform="translate(-259.093 -250.909)" fill="#e16e7e"/>
      <path id="Trazado_105469" data-name="Trazado 105469" d="M374.812,370.42l-6.839,4.969a3.575,3.575,0,0,0-1.3,4l2.612,8.039a3.575,3.575,0,0,0,3.4,2.47h8.453a3.575,3.575,0,0,0,3.4-2.47l2.612-8.039a3.575,3.575,0,0,0-1.3-4l-6.839-4.969A3.575,3.575,0,0,0,374.812,370.42Z" transform="translate(-296.154 -280.561)" fill="#f6ee86"/>
      <path id="Trazado_105470" data-name="Trazado 105470" d="M369.239,390.127l-1.266.92a3.575,3.575,0,0,0-1.3,4l2.612,8.039a3.575,3.575,0,0,0,3.4,2.47h4.8A26.834,26.834,0,0,1,369.239,390.127Z" transform="translate(-296.154 -296.22)" fill="#f2d98d"/>
      <path id="Trazado_105471" data-name="Trazado 105471" d="M21.358,22.274,14.9,33.468A3.154,3.154,0,0,0,17.627,38.2H30.553a3.154,3.154,0,0,0,2.732-4.732L26.822,22.274A3.122,3.122,0,0,0,24.09,20.7a3.177,3.177,0,0,0-2.732,1.577Zm8.63,12.445h-11.8L24.09,24.5Zm-5.615-10.7h0Zm81.053,69.4L98.586,88.45a5.3,5.3,0,0,0-6.249,0L85.5,93.419a5.3,5.3,0,0,0-1.931,5.943L86.18,107.4a5.3,5.3,0,0,0,5.055,3.673h8.453a5.3,5.3,0,0,0,5.055-3.673l2.612-8.04a5.3,5.3,0,0,0-1.931-5.943Zm-1.379,4.867-2.612,8.039a1.83,1.83,0,0,1-1.745,1.268H91.236a1.83,1.83,0,0,1-1.745-1.268l-2.612-8.039a1.831,1.831,0,0,1,.666-2.051l6.839-4.969h0a1.831,1.831,0,0,1,2.157,0l6.839,4.969A1.83,1.83,0,0,1,104.046,98.286Zm10.993-10.367C100.067,77.1,100.766,77.422,99.509,76.8l5.536-5.536a3.642,3.642,0,0,0-2.574-6.214H97.2V49.806h12.685a7.5,7.5,0,0,0,7.489-7.489V23.444a1.74,1.74,0,1,0-3.481,0V42.317a4.013,4.013,0,0,1-4.008,4.008H81.037a4.013,4.013,0,0,1-4.008-4.008V13.466a4.013,4.013,0,0,1,4.008-4.008h28.85a4.013,4.013,0,0,1,4.008,4.008v1.672a1.74,1.74,0,1,0,3.481,0V13.466a7.5,7.5,0,0,0-7.489-7.489H81.037a7.5,7.5,0,0,0-7.489,7.489V22.9l-4.594-4.594a3.642,3.642,0,0,0-6.214,2.574v5.268H39.97L29.071,7.272a5.75,5.75,0,0,0-9.961,0L.779,39.022a5.75,5.75,0,0,0,4.981,8.627H19.1l-4.594,4.594a3.642,3.642,0,0,0,2.574,6.214H22.35V77.422a21.916,21.916,0,0,0-17.239,32.8,1.74,1.74,0,1,0,3.013-1.743,18.437,18.437,0,1,1,5.1,5.675,1.74,1.74,0,0,0-2.055,2.81A21.911,21.911,0,1,0,25.83,77.422V58.457H31.1a3.642,3.642,0,0,0,2.574-6.214l-4.594-4.594H42.421a5.75,5.75,0,0,0,4.98-8.627l-5.421-9.39H62.74V34.9a3.642,3.642,0,0,0,6.214,2.574l4.594-4.594v9.436a7.5,7.5,0,0,0,7.489,7.489H93.721V65.05H88.453a3.642,3.642,0,0,0-2.574,6.214L91.415,76.8c-1.255.62-.543.287-15.53,11.119A9.137,9.137,0,0,0,72.557,98.16l5.421,16.685a9.137,9.137,0,0,0,8.712,6.329h17.544a9.137,9.137,0,0,0,8.712-6.329l5.421-16.685A9.136,9.136,0,0,0,115.039,87.919ZM31.211,54.7a.159.159,0,0,1-.113.272H17.082a.159.159,0,0,1-.113-.272c7.467-7.44,6.994-7.055,7.121-7.055s-.344-.383,7.121,7.055ZM44.387,40.762a2.27,2.27,0,0,1-1.966,3.405H5.759a2.27,2.27,0,0,1-1.966-3.405L22.124,9.013a2.27,2.27,0,0,1,3.932,0Zm29.161-12.87c0,.127.383-.344-7.055,7.121a.159.159,0,0,1-.272-.113V20.883a.136.136,0,0,1,.1-.147c.164-.068-.327-.44,7.182,7.043a.158.158,0,0,1,.047.113ZM88.341,68.8a.159.159,0,0,1,.113-.272h14.017a.159.159,0,0,1,.113.272c-7.5,7.477-6.99,7.034-7.1,7.05-.2,0,.367.408-7.145-7.05Zm26.715,28.282-5.421,16.685a5.665,5.665,0,0,1-5.4,3.924H86.69a5.665,5.665,0,0,1-5.4-3.924L75.868,97.085a5.665,5.665,0,0,1,2.063-6.35L92.124,80.424a5.676,5.676,0,0,1,6.677,0l14.193,10.312a5.665,5.665,0,0,1,2.063,6.349ZM88.426,16.311a4.55,4.55,0,0,0-4.544,4.544V34.928a4.55,4.55,0,0,0,4.544,4.544H102.5a4.549,4.549,0,0,0,4.544-4.544V20.856a4.549,4.549,0,0,0-4.544-4.544Zm15.135,4.544V34.928a1.065,1.065,0,0,1-1.063,1.064H88.426a1.065,1.065,0,0,1-1.064-1.064V20.856a1.065,1.065,0,0,1,1.064-1.064H102.5a1.065,1.065,0,0,1,1.063,1.064ZM24.09,111.377A12.113,12.113,0,1,0,11.977,99.264,12.127,12.127,0,0,0,24.09,111.377Zm0-20.745a8.632,8.632,0,1,1-8.632,8.632A8.642,8.642,0,0,1,24.09,90.632Z" transform="translate(-14.703)"/>
    </g>
  </g>
</svg>
