<svg xmlns="http://www.w3.org/2000/svg" width="117.414" height="107.024" viewBox="0 0 117.414 107.024">
  <g id="Grupo_92526" data-name="Grupo 92526" transform="translate(-266.258 -6085)">
    <g id="Grupo_60909" data-name="Grupo 60909" transform="translate(17)">
      <path id="Trazado_105500" data-name="Trazado 105500" d="M58.749,104.621H13a5.5,5.5,0,0,1-5.5-5.5V13a5.5,5.5,0,0,1,5.5-5.5H58.749a5.5,5.5,0,0,1,5.5,5.5v86.12A5.5,5.5,0,0,1,58.749,104.621Zm0,0" transform="translate(300.959 6085.936)" fill="#f9efef"/>
      <path id="Trazado_105503" data-name="Trazado 105503" d="M64.246,19.531H7.508V13a5.5,5.5,0,0,1,5.5-5.5H58.749a5.5,5.5,0,0,1,5.5,5.5Zm0,0" transform="translate(300.959 6085.936)" fill="#ffca28"/>
      <path id="Trazado_105505" data-name="Trazado 105505" d="M250.42,13.005v6.525h-6.027V13.005a5.5,5.5,0,0,0-5.5-5.5h6.026A5.5,5.5,0,0,1,250.42,13.005Zm0,0" transform="translate(114.783 6085.936)" fill="#ffa726"/>
      <path id="Trazado_105508" data-name="Trazado 105508" d="M105.522,32.848a1.467,1.467,0,1,0,0,2.933h4.018a1.467,1.467,0,1,0,0-2.933Zm0,0" transform="translate(223.278 6065.547)"/>
      <path id="Trazado_105509" data-name="Trazado 105509" d="M157.228,32.848H149.81a1.467,1.467,0,0,0,0,2.933h7.418a1.467,1.467,0,1,0,0-2.933Zm0,0" transform="translate(187.644 6065.547)"/>
      <path id="Trazado_105510" data-name="Trazado 105510" d="M52.708,0H6.964A6.974,6.974,0,0,0,.036,6.252,7.069,7.069,0,0,0,0,6.964V54.457a1.467,1.467,0,0,0,2.934,0v-39.5h33.1a1.467,1.467,0,1,0,0-2.933H2.934V6.964A4.034,4.034,0,0,1,6.964,2.934H52.708a4.034,4.034,0,0,1,4.029,4.029v5.06H42.745a1.467,1.467,0,1,0,0,2.933H56.738V85.54H2.934V61.173a1.467,1.467,0,0,0-2.934,0V93.084a7.069,7.069,0,0,0,.036.711,6.974,6.974,0,0,0,6.928,6.252H52.708a6.971,6.971,0,0,0,6.964-6.964V6.964A6.972,6.972,0,0,0,52.708,0Zm4.029,93.084a4.035,4.035,0,0,1-4.029,4.03H6.964a4.034,4.034,0,0,1-4.029-4.03v-4.61h53.8Zm0,0" transform="translate(307 6091.977)"/>
      <path id="Trazado_105511" data-name="Trazado 105511" d="M124.58,466.07H133.2a1.467,1.467,0,1,0,0-2.933H124.58a1.467,1.467,0,1,0,0,2.933Zm0,0" transform="translate(207.943 5719.339)"/>
    </g>
    <g id="arrow" transform="translate(266.258 6085)">
      <g id="Grupo_60910" data-name="Grupo 60910" transform="translate(0 0)">
        <path id="Trazado_105524" data-name="Trazado 105524" d="M2.239,45.2a2.663,2.663,0,0,1,.461-.034H28.985l-.573-.267a5.331,5.331,0,0,1-1.506-1.066l-7.371-7.371a2.759,2.759,0,0,1-.387-3.532,2.666,2.666,0,0,1,4-.347L36.476,45.915a2.666,2.666,0,0,1,0,3.77l0,0L23.147,63.016a2.666,2.666,0,0,1-4-.267,2.759,2.759,0,0,1,.387-3.532l7.358-7.384a5.332,5.332,0,0,1,1.333-.973l.8-.36H2.847A2.759,2.759,0,0,1,.035,48.261,2.666,2.666,0,0,1,2.239,45.2Z" transform="translate(0 -31.842)" fill="#12263f"/>
      </g>
    </g>
  </g>
</svg>
