<svg xmlns="http://www.w3.org/2000/svg" width="217.496" height="130.355" viewBox="0 0 217.496 130.355">
  <g id="Grupo_92518" data-name="Grupo 92518" transform="translate(-405.912 -1303)">
    <path id="app" d="M135.565,89.07h-25.46a6.259,6.259,0,0,0-6.252,6.252v6.454a6.259,6.259,0,0,0,6.252,6.252h25.46a6.259,6.259,0,0,0,6.252-6.252V95.322A6.259,6.259,0,0,0,135.565,89.07Zm2.559,12.706a2.561,2.561,0,0,1-2.559,2.559h-25.46a2.561,2.561,0,0,1-2.559-2.559V95.322a2.561,2.561,0,0,1,2.559-2.559h25.46a2.561,2.561,0,0,1,2.559,2.559ZM128.729,96.7H116.941a1.847,1.847,0,0,0,0,3.694h11.788a1.847,1.847,0,0,0,0-3.694Zm33.95-67.987a1.847,1.847,0,0,0-1.847,1.847V108.13a14.271,14.271,0,0,1-14.255,14.255H99.093A14.336,14.336,0,0,1,85.765,113.2a1.847,1.847,0,0,0-3.452,1.314,18.05,18.05,0,0,0,16.779,11.565h47.485a17.969,17.969,0,0,0,17.948-17.948V30.563A1.847,1.847,0,0,0,162.679,28.716ZM106.091,72.739V69.6a1.847,1.847,0,1,0-3.694,0v3.138a1.847,1.847,0,1,0,3.694,0ZM139.579,69.6v3.138a1.847,1.847,0,1,0,3.694,0V69.6a1.847,1.847,0,1,0-3.694,0Zm7-69.6H99.093A17.968,17.968,0,0,0,81.146,17.866h-.629a4.764,4.764,0,0,0-4.759,4.759V31.28a4.764,4.764,0,0,0,4.759,4.759h.627v2.727h-.627a4.764,4.764,0,0,0-4.759,4.759v8.655a4.764,4.764,0,0,0,4.759,4.759h.627v47.975a1.847,1.847,0,0,0,3.694,0V17.948A14.271,14.271,0,0,1,99.093,3.694h47.485a14.271,14.271,0,0,1,14.255,14.255V21.9a1.847,1.847,0,0,0,3.694,0V17.948A17.969,17.969,0,0,0,146.578,0ZM81.144,53.246h-.627a1.066,1.066,0,0,1-1.065-1.065V43.526a1.066,1.066,0,0,1,1.065-1.065h.627Zm0-20.9h-.627a1.066,1.066,0,0,1-1.065-1.065V22.625a1.066,1.066,0,0,1,1.065-1.065h.627Zm43.474-22.78a1.783,1.783,0,1,0-1.783,1.783A1.783,1.783,0,0,0,124.619,9.566Zm-10.506,2.493L112.9,10.2a5.484,5.484,0,0,0-4.6-2.485h-7.8A11.646,11.646,0,0,0,88.864,19.352v87.375A11.646,11.646,0,0,0,100.5,118.36h44.678a11.646,11.646,0,0,0,11.632-11.633V19.352A11.646,11.646,0,0,0,145.174,7.719h-7.8a5.485,5.485,0,0,0-4.6,2.485l-1.217,1.856a3.279,3.279,0,0,1-2.75,1.486H116.863a3.28,3.28,0,0,1-2.751-1.486Zm20.534,2.025,1.217-1.856a1.8,1.8,0,0,1,1.511-.816h7.8a7.948,7.948,0,0,1,7.939,7.939v87.375a7.948,7.948,0,0,1-7.939,7.939H100.5a7.948,7.948,0,0,1-7.939-7.939V19.352a7.948,7.948,0,0,1,7.939-7.939h7.8a1.8,1.8,0,0,1,1.511.816l1.217,1.856a6.962,6.962,0,0,0,5.839,3.154h11.944a6.961,6.961,0,0,0,5.84-3.154Zm-4.07,61.055c0-2.99-1.489-4.372-2.738-5.006a10.977,10.977,0,0,0-5-.826,10.977,10.977,0,0,0-5,.826c-1.249.633-2.738,2.016-2.738,5.006,0,4.655,3.473,8.442,7.741,8.442S130.576,79.8,130.576,75.14Zm-11.788,0c0-1.483.164-2.138,4.047-2.138s4.047.656,4.047,2.138c0,2.618-1.816,4.749-4.047,4.749S118.788,77.758,118.788,75.14ZM105.251,33.792v17.8a8.7,8.7,0,0,0,8.686,8.686h17.8a8.7,8.7,0,0,0,8.686-8.686v-17.8a8.7,8.7,0,0,0-8.686-8.686h-17.8a8.7,8.7,0,0,0-8.686,8.686Zm9.315,22.789h-.628a5,5,0,0,1-4.9-4.073c4.4-2.9,8.624-5.946,12.577-9.073a1.847,1.847,0,0,0,.16-2.754L120.5,39.414a.765.765,0,0,1,.45-1.3l7.465-.888a.765.765,0,0,1,.85.85l-.888,7.465a.765.765,0,0,1-1.3.451l-1.268-1.268a1.847,1.847,0,0,0-2.754.16c-2.909,3.677-5.761,7.61-8.491,11.7Zm22.161-22.789v17.8a5,5,0,0,1-4.992,4.993h-12.71c1.843-2.682,3.735-5.285,5.657-7.778a4.459,4.459,0,0,0,7.365-2.827l.888-7.465a4.458,4.458,0,0,0-4.954-4.954l-7.465.888a4.459,4.459,0,0,0-2.827,7.365c-2.8,2.157-5.725,4.271-8.744,6.317V33.792a5,5,0,0,1,4.993-4.993h17.8a5,5,0,0,1,4.992,4.993Z" transform="translate(330.154 1303)" fill="#12263f"/>
    <g id="flujo-de-trabajo" transform="translate(552.084 1346.997)">
      <g id="Grupo_60892" data-name="Grupo 60892" transform="translate(41.301 45.845)">
        <path id="Trazado_105456" data-name="Trazado 105456" d="M373.343,275.425,378,280.081a1.262,1.262,0,0,0,1.785,0l4.656-4.656a1.262,1.262,0,0,0-.892-2.154h-9.312A1.262,1.262,0,0,0,373.343,275.425Z" transform="translate(-372.971 -273.271)" fill="#59636f"/>
      </g>
      <g id="Grupo_60893" data-name="Grupo 60893" transform="translate(26.64 14.084)">
        <path id="Trazado_105457" data-name="Trazado 105457" d="M280.019,78.709l4.656-4.656a1.262,1.262,0,0,0,0-1.785l-4.656-4.656a1.262,1.262,0,0,0-2.154.892v9.312A1.262,1.262,0,0,0,280.019,78.709Z" transform="translate(-277.865 -67.241)" fill="#59636f"/>
      </g>
      <g id="Grupo_60894" data-name="Grupo 60894" transform="translate(-6.112 31.972)">
        <path id="Trazado_105458" data-name="Trazado 105458" d="M76.875,188.309l-4.656-4.656a1.262,1.262,0,0,0-1.785,0l-4.656,4.656a1.262,1.262,0,0,0,.892,2.154h9.312a1.262,1.262,0,0,0,.892-2.154Z" transform="translate(-65.407 -183.283)" fill="#59636f"/>
      </g>
      <circle id="Elipse_1661" data-name="Elipse 1661" cx="13.399" cy="13.399" r="13.399" transform="translate(-19.146 67.412) rotate(-45)" fill="#ffca28"/>
      <path id="Trazado_105459" data-name="Trazado 105459" d="M42.032,363.466c-18.927,8.9-24.244-9.1-20.375-16.707a13.4,13.4,0,1,0,20.375,16.707Z" transform="translate(-30.484 -289.586)" fill="#f2d98d"/>
      <circle id="Elipse_1662" data-name="Elipse 1662" cx="6.89" cy="6.89" r="6.89" transform="translate(-9.942 67.412) rotate(-45)" fill="#ffa726"/>
      <path id="Trazado_105460" data-name="Trazado 105460" d="M347.425,18.711H328.26a3.819,3.819,0,0,0-3.819,3.819V41.7a3.819,3.819,0,0,0,3.819,3.819h19.166a3.819,3.819,0,0,0,3.819-3.819V22.53A3.819,3.819,0,0,0,347.425,18.711Z" transform="translate(-290.621 -12.108)" fill="#26a69a"/>
      <path id="Trazado_105461" data-name="Trazado 105461" d="M331.266,18.711H328.26a3.819,3.819,0,0,0-3.819,3.819V41.7a3.819,3.819,0,0,0,3.819,3.819H346.2C330.646,42.228,330.176,25.41,331.266,18.711Z" transform="translate(-290.621 -12.108)" fill="#79c9c2"/>
      <path id="Trazado_105462" data-name="Trazado 105462" d="M380.185,63.244h-9.348a1.863,1.863,0,0,0-1.863,1.863v9.348a1.863,1.863,0,0,0,1.863,1.863h9.348a1.863,1.863,0,0,0,1.863-1.863V65.107A1.862,1.862,0,0,0,380.185,63.244Z" transform="translate(-328.289 -49.776)" fill="#f6ee86"/>
      <path id="Trazado_105463" data-name="Trazado 105463" d="M370.836,93.166h2.047a23.1,23.1,0,0,1-3.909-10V91.3A1.862,1.862,0,0,0,370.836,93.166Z" transform="translate(-328.289 -66.626)" fill="#f2d98d"/>
      <path id="Trazado_105464" data-name="Trazado 105464" d="M20.051,13.233,7.874,34.324a2.664,2.664,0,0,0,2.307,4H34.535a2.664,2.664,0,0,0,2.307-4L24.665,13.233a2.664,2.664,0,0,0-4.615,0Z" transform="translate(-22.549 -6.348)" fill="#4dd0e1"/>
      <path id="Trazado_105465" data-name="Trazado 105465" d="M16.4,61.514,7.874,76.289a2.664,2.664,0,0,0,2.307,4H24.7C14.449,77.516,14.275,68.1,16.4,61.514Z" transform="translate(-22.549 -48.313)" fill="#7acefa"/>
      <path id="Trazado_105466" data-name="Trazado 105466" d="M74.279,82.612l-4.293,7.436a.939.939,0,0,0,.813,1.409h8.587a.939.939,0,0,0,.813-1.409l-4.293-7.436A.939.939,0,0,0,74.279,82.612Z" transform="translate(-75.284 -65.762)" fill="#dbfbff"/>
      <path id="Trazado_105467" data-name="Trazado 105467" d="M329.7,320.788l-9.428,6.85a4.929,4.929,0,0,0-1.791,5.511l3.6,11.084a4.929,4.929,0,0,0,4.688,3.406h11.654a4.929,4.929,0,0,0,4.688-3.406l3.6-11.084a4.929,4.929,0,0,0-1.791-5.511l-9.428-6.85A4.929,4.929,0,0,0,329.7,320.788Z" transform="translate(-285.376 -266.822)" fill="#e7889d"/>
      <path id="Trazado_105468" data-name="Trazado 105468" d="M338.425,357.178a4.927,4.927,0,0,0,3.924-1.951c-16.168-3.862-16.631-19.576-13.746-24.1l-8.331,6.053a4.929,4.929,0,0,0-1.791,5.511l3.6,11.084a4.929,4.929,0,0,0,4.688,3.406h11.654Z" transform="translate(-285.376 -276.362)" fill="#e16e7e"/>
      <path id="Trazado_105469" data-name="Trazado 105469" d="M372.022,370.19l-4.543,3.3a2.375,2.375,0,0,0-.863,2.655l1.735,5.341a2.375,2.375,0,0,0,2.259,1.641h5.615a2.375,2.375,0,0,0,2.259-1.641l1.735-5.341a2.375,2.375,0,0,0-.863-2.655l-4.543-3.3A2.375,2.375,0,0,0,372.022,370.19Z" transform="translate(-326.196 -309.021)" fill="#f6ee86"/>
      <path id="Trazado_105470" data-name="Trazado 105470" d="M368.32,390.127l-.841.611a2.375,2.375,0,0,0-.863,2.655l1.735,5.341a2.375,2.375,0,0,0,2.259,1.641H373.8A17.826,17.826,0,0,1,368.32,390.127Z" transform="translate(-326.196 -326.268)" fill="#f2d98d"/>
      <path id="Trazado_105471" data-name="Trazado 105471" d="M14.188,16.272,9.895,23.709a2.1,2.1,0,0,0,1.815,3.143H20.3a2.1,2.1,0,0,0,1.815-3.143l-4.293-7.436A2.074,2.074,0,0,0,16,15.225a2.11,2.11,0,0,0-1.815,1.048Zm5.733,8.267H12.085L16,17.754Zm-3.73-7.111h0ZM70.034,63.534l-4.543-3.3a3.522,3.522,0,0,0-4.151,0l-4.543,3.3a3.522,3.522,0,0,0-1.283,3.948l1.735,5.34a3.522,3.522,0,0,0,3.358,2.44h5.615a3.522,3.522,0,0,0,3.358-2.44l1.735-5.341A3.522,3.522,0,0,0,70.034,63.534Zm-.916,3.233-1.735,5.341a1.215,1.215,0,0,1-1.159.842H60.608a1.216,1.216,0,0,1-1.159-.842l-1.735-5.341a1.216,1.216,0,0,1,.443-1.363L62.7,62.1h0a1.216,1.216,0,0,1,1.433,0l4.543,3.3A1.216,1.216,0,0,1,69.118,66.767Zm7.3-6.887c-9.946-7.188-9.482-6.974-10.317-7.386l3.678-3.678a2.42,2.42,0,0,0-1.71-4.128h-3.5V34.562H73a4.981,4.981,0,0,0,4.975-4.975V17.05a1.156,1.156,0,1,0-2.312,0V29.587A2.666,2.666,0,0,1,73,32.25H53.833a2.666,2.666,0,0,1-2.663-2.663V10.421a2.666,2.666,0,0,1,2.663-2.663H73a2.666,2.666,0,0,1,2.663,2.663v1.11a1.156,1.156,0,1,0,2.312,0v-1.11A4.981,4.981,0,0,0,73,5.447H53.833a4.981,4.981,0,0,0-4.975,4.975V16.69l-3.052-3.052a2.42,2.42,0,0,0-4.128,1.71v3.5H26.552L19.312,6.307a3.82,3.82,0,0,0-6.617,0L.517,27.4a3.82,3.82,0,0,0,3.309,5.731h8.863L9.637,36.18a2.42,2.42,0,0,0,1.71,4.128h3.5v12.6A14.559,14.559,0,0,0,3.395,74.694a1.156,1.156,0,1,0,2-1.158,12.247,12.247,0,1,1,3.388,3.77A1.156,1.156,0,0,0,7.42,79.173a14.556,14.556,0,1,0,9.739-26.266v-12.6h3.5a2.42,2.42,0,0,0,1.71-4.128l-3.052-3.052H28.18A3.82,3.82,0,0,0,31.488,27.4l-3.6-6.238H41.678v3.5a2.419,2.419,0,0,0,4.128,1.71l3.052-3.052v6.269a4.981,4.981,0,0,0,4.975,4.975h8.426V44.688h-3.5a2.42,2.42,0,0,0-1.71,4.128l3.678,3.678c-.834.412-.36.19-10.317,7.386a6.07,6.07,0,0,0-2.211,6.8l3.6,11.084a6.07,6.07,0,0,0,5.787,4.2H69.243a6.07,6.07,0,0,0,5.787-4.2l3.6-11.084A6.069,6.069,0,0,0,76.421,59.881ZM20.734,37.815a.106.106,0,0,1-.075.181H11.347a.106.106,0,0,1-.075-.181c4.96-4.943,4.646-4.687,4.731-4.687S15.775,32.874,20.734,37.815Zm8.752-9.261a1.508,1.508,0,0,1-1.306,2.262H3.826A1.508,1.508,0,0,1,2.52,28.554L14.7,7.463a1.508,1.508,0,0,1,2.612,0ZM48.858,20c0,.084.255-.228-4.687,4.73a.106.106,0,0,1-.181-.075V15.348a.09.09,0,0,1,.065-.1c.109-.045-.217-.292,4.771,4.679a.105.105,0,0,1,.031.075Zm9.827,27.177A.106.106,0,0,1,58.76,47h9.312a.106.106,0,0,1,.075.181c-4.98,4.967-4.644,4.672-4.714,4.684-.136,0,.244.271-4.747-4.684ZM76.432,65.969l-3.6,11.084a3.763,3.763,0,0,1-3.588,2.607H57.589A3.763,3.763,0,0,1,54,77.053L50.4,65.97a3.763,3.763,0,0,1,1.371-4.218L61.2,54.9a3.77,3.77,0,0,1,4.435,0l9.428,6.85a3.763,3.763,0,0,1,1.37,4.218ZM58.742,12.311a3.022,3.022,0,0,0-3.019,3.019v9.348A3.022,3.022,0,0,0,58.742,27.7H68.09a3.022,3.022,0,0,0,3.019-3.019V15.33a3.022,3.022,0,0,0-3.019-3.019ZM68.8,15.33v9.348a.707.707,0,0,1-.706.707H58.742a.707.707,0,0,1-.706-.707V15.33a.707.707,0,0,1,.706-.706H68.09a.707.707,0,0,1,.706.706ZM16,75.464a8.047,8.047,0,1,0-8.046-8.047A8.056,8.056,0,0,0,16,75.464Zm0-13.781a5.734,5.734,0,1,1-5.734,5.734A5.741,5.741,0,0,1,16,61.683Z" transform="translate(-16.194)"/>
    </g>
    <path id="Trazado_105472" data-name="Trazado 105472" d="M-8816.865-10316.445l41.152-41.152" transform="translate(9397 11702.912)" fill="none" stroke="red" stroke-width="6"/>
  </g>
</svg>
