<svg xmlns="http://www.w3.org/2000/svg" width="172" height="162" viewBox="0 0 172 162">
  <g id="Grupo_92526" data-name="Grupo 92526" transform="translate(-280 -2152)">
    <g id="Right" transform="translate(279.972 2152.152)">
      <rect id="BG" width="172" height="162" rx="5" transform="translate(0.029 -0.152)" fill="#fff" opacity="0.949"/>
    </g>
    <g id="bandera" transform="translate(294.887 2179.701)">
      <rect id="Rectángulo_7765" data-name="Rectángulo 7765" width="61.266" height="43.025" transform="translate(28.494 20.126)" fill="#ffca28"/>
      <g id="Grupo_60899" data-name="Grupo 60899" transform="translate(24.902 2.707)">
        <path id="Trazado_105480" data-name="Trazado 105480" d="M45.683,16.591A3.591,3.591,0,1,1,42.091,13,3.59,3.59,0,0,1,45.683,16.591Z" transform="translate(-38.5 -13)" fill="#ffce54"/>
      </g>
      <path id="Trazado_105482" data-name="Trazado 105482" d="M334.807,157.727S306.7,157,307.116,157l-.312,31.855L296.5,202.282h36.227l-10.931-23.318Z" transform="translate(-217.88 -124.311)" fill="#ffa726"/>
      <path id="Trazado_105483" data-name="Trazado 105483" d="M118.671,76.494,106.087,55.518l12.638-21.064a2.218,2.218,0,0,0-1.9-3.36H92.392V19.987a2.217,2.217,0,0,0-2.219-2.219H30.212V12.941a6.663,6.663,0,1,0-4.444,0V104.38a2.222,2.222,0,0,0,4.444,0V66.624h54.6l-9.535,9.531a2.222,2.222,0,0,0,1.571,3.793h39.978a2.219,2.219,0,0,0,2.219-2.219A2.2,2.2,0,0,0,118.671,76.494ZM27.99,4.444a2.218,2.218,0,1,1-2.222,2.218A2.222,2.222,0,0,1,27.99,4.444Zm2.222,17.762h57.74V62.18H30.212Zm52,53.3,9.531-9.531h0c.049-.052.094-.1.14-.153.01-.016.023-.032.032-.049.032-.039.062-.078.091-.117.013-.02.026-.046.039-.065.023-.036.046-.072.068-.111l.039-.078a.994.994,0,0,0,.049-.1c.013-.026.026-.059.039-.091s.023-.065.036-.1l.029-.1a.962.962,0,0,0,.026-.1c.006-.032.016-.062.02-.094s.013-.081.02-.12.006-.055.01-.085a1.6,1.6,0,0,0,.01-.176v-28.9H112.9L101.592,54.379a2.228,2.228,0,0,0,0,2.284L112.9,75.5H82.21Z"/>
    </g>
  </g>
</svg>
