<svg xmlns="http://www.w3.org/2000/svg" width="141.558" height="54.486" viewBox="0 0 141.558 54.486">
  <g id="Grupo_92526" data-name="Grupo 92526" transform="translate(-267.221 -3190.758)">
    <g id="right-arrow" transform="translate(354.892 3190.758)">
      <path id="Trazado_105484" data-name="Trazado 105484" d="M124.366,100.553l-22.878,22.88a1.9,1.9,0,0,1-1.34.556h-24.5a1.894,1.894,0,0,1-1.34-3.234c7-7,22.933-22.946,22.933-22.946S81.3,81.871,74.3,74.867a1.894,1.894,0,0,1,1.34-3.234h24.5a1.9,1.9,0,0,1,1.34.555l10.383,10.383,12.495,12.493A3.884,3.884,0,0,1,124.366,100.553Z" transform="translate(-72.676 -70.569)" fill="#ffce00"/>
      <path id="Trazado_105485" data-name="Trazado 105485" d="M110.037,100.553l-22.878,22.88a1.9,1.9,0,0,1-1.34.556H75.645a1.894,1.894,0,0,1-1.34-3.234c7-7,22.933-22.946,22.933-22.946S81.3,81.871,74.3,74.867a1.894,1.894,0,0,1,1.34-3.234H85.818a1.9,1.9,0,0,1,1.34.555l22.878,22.876A3.884,3.884,0,0,1,110.037,100.553Z" transform="translate(-72.676 -70.569)" fill="#ffa81e"/>
      <path id="Trazado_105486" data-name="Trazado 105486" d="M146.972,100.554l-22.878,22.88a1.9,1.9,0,0,1-1.34.556h-5.961a1.9,1.9,0,0,0,1.34-.556l23.539-23.541c1.514-1.517,1.514-2.65,0-4.166L118.133,72.189a1.9,1.9,0,0,0-1.34-.555h5.961a1.9,1.9,0,0,1,1.34.555l22.878,22.876A3.884,3.884,0,0,1,146.972,100.554Z" transform="translate(-109.612 -70.569)" fill="#f90"/>
      <path id="Trazado_105493" data-name="Trazado 105493" d="M118.661,87.877,106.166,75.384,95.783,65a2.981,2.981,0,0,0-2.093-.868h-24.5a2.959,2.959,0,0,0-2.094,5.051C73.14,75.24,86.028,88.129,89.274,91.375c-3.238,3.239-16.093,16.1-22.179,22.192a2.959,2.959,0,0,0,2.093,5.053h24.5a2.981,2.981,0,0,0,2.093-.867l22.878-22.88h0A4.956,4.956,0,0,0,118.661,87.877Zm-1.507,5.49h0l-22.878,22.88a.837.837,0,0,1-.587.244H82.767c6.91-6.665,13.882-13.729,21.812-22.1a4.708,4.708,0,0,0,.032-6.277l-.043-.045c-4.309-4.309-8.379-8.379-12.5-12.458a1.065,1.065,0,1,0-1.5,1.514c4.112,4.066,8.173,8.127,12.471,12.425a2.634,2.634,0,0,1,.025,3.346l-.02.021C94.623,101.8,87.29,109.21,79.964,116.23a1.066,1.066,0,0,0-.2.26H69.187a.829.829,0,0,1-.587-1.416c7-7,22.933-22.946,22.933-22.946a1.065,1.065,0,0,0,0-1.506C91.373,90.462,75.515,74.6,68.6,67.679a.829.829,0,0,1,.588-1.415H79.766a1.058,1.058,0,0,0,.213.274c1.124,1.034,2.217,2.179,3.274,3.287,1.157,1.212,2.353,2.464,3.6,3.588a1.065,1.065,0,1,0,1.424-1.584c-1.189-1.069-2.3-2.237-3.485-3.474-.661-.692-1.335-1.4-2.028-2.09H93.69a.836.836,0,0,1,.587.244L104.66,76.89l12.494,12.492A2.824,2.824,0,0,1,117.154,93.367Z" transform="translate(-66.219 -64.134)"/>
    </g>
    <g id="right-arrow-2" data-name="right-arrow" transform="translate(267.221 3190.758)">
      <path id="Trazado_105484-2" data-name="Trazado 105484" d="M74.881,100.553l22.878,22.88a1.9,1.9,0,0,0,1.34.556h24.5a1.894,1.894,0,0,0,1.34-3.234c-7-7-22.933-22.946-22.933-22.946s15.938-15.938,22.933-22.942a1.894,1.894,0,0,0-1.34-3.234H99.1a1.9,1.9,0,0,0-1.34.555L87.376,82.572,74.881,95.064A3.884,3.884,0,0,0,74.881,100.553Z" transform="translate(-72.683 -70.568)" fill="#ffce00"/>
      <path id="Trazado_105485-2" data-name="Trazado 105485" d="M74.881,100.553l22.878,22.88a1.9,1.9,0,0,0,1.34.556h10.174a1.894,1.894,0,0,0,1.34-3.234c-7-7-22.933-22.946-22.933-22.946s15.938-15.938,22.933-22.942a1.894,1.894,0,0,0-1.34-3.234H99.1a1.9,1.9,0,0,0-1.34.555L74.881,95.064A3.884,3.884,0,0,0,74.881,100.553Z" transform="translate(-58.354 -70.568)" fill="#ffa81e"/>
      <path id="Trazado_105486-2" data-name="Trazado 105486" d="M117.929,100.554l22.878,22.88a1.9,1.9,0,0,0,1.34.556h5.961a1.9,1.9,0,0,1-1.34-.556L123.228,99.893c-1.514-1.517-1.514-2.65,0-4.166l23.539-23.537a1.9,1.9,0,0,1,1.34-.555h-5.961a1.9,1.9,0,0,0-1.34.555L117.929,95.065A3.884,3.884,0,0,0,117.929,100.554Z" transform="translate(-101.402 -70.569)" fill="#f90"/>
      <path id="Trazado_105493-2" data-name="Trazado 105493" d="M67.663,87.877,80.158,75.384,90.541,65a2.981,2.981,0,0,1,2.093-.868h24.5a2.959,2.959,0,0,1,2.094,5.051C113.184,75.24,100.3,88.129,97.05,91.375c3.238,3.239,16.093,16.1,22.179,22.192a2.959,2.959,0,0,1-2.093,5.053h-24.5a2.981,2.981,0,0,1-2.093-.867L67.663,94.872h0A4.956,4.956,0,0,1,67.663,87.877Zm1.507,5.49h0l22.878,22.88a.836.836,0,0,0,.587.244h10.922c-6.91-6.665-13.882-13.729-21.812-22.1a4.708,4.708,0,0,1-.032-6.277l.043-.045c4.309-4.309,8.379-8.379,12.5-12.458a1.065,1.065,0,1,1,1.5,1.514c-4.112,4.066-8.173,8.127-12.471,12.425a2.634,2.634,0,0,0-.025,3.346l.02.021C91.7,101.8,99.034,109.21,106.36,116.23a1.066,1.066,0,0,1,.2.26h10.579a.829.829,0,0,0,.587-1.416c-7-7-22.933-22.946-22.933-22.946a1.065,1.065,0,0,1,0-1.506c.159-.159,16.018-16.018,22.934-22.943a.829.829,0,0,0-.588-1.415H106.558a1.058,1.058,0,0,1-.213.274c-1.124,1.034-2.217,2.179-3.274,3.287-1.157,1.212-2.353,2.464-3.6,3.588a1.065,1.065,0,1,1-1.424-1.584c1.189-1.069,2.3-2.237,3.485-3.474.661-.692,1.335-1.4,2.028-2.09H92.634a.836.836,0,0,0-.587.244L81.664,76.89,69.17,89.382A2.824,2.824,0,0,0,69.17,93.367Z" transform="translate(-66.219 -64.134)"/>
    </g>
  </g>
</svg>
