<svg xmlns="http://www.w3.org/2000/svg" width="100.128" height="64.281" viewBox="0 0 100.128 64.281">
  <g id="flecha-correcta" transform="translate(100.128 155.932) rotate(180)">
    <g id="Grupo_60903" data-name="Grupo 60903" transform="translate(1.467 93.118)">
      <path id="Trazado_105494" data-name="Trazado 105494" d="M68.3,160.5a8.472,8.472,0,0,1-8.472-8.472v-2.335h-43.5A8.831,8.831,0,0,1,7.5,140.86V118.789a8.831,8.831,0,0,1,8.831-8.831h43.5v-2.338a8.466,8.466,0,0,1,13.738-6.629L101.5,123.2a8.468,8.468,0,0,1,0,13.257l-27.929,22.2A8.5,8.5,0,0,1,68.3,160.5Z" transform="translate(-7.5 -99.151)" fill="#f5f5f5"/>
    </g>
    <g id="Grupo_60904" data-name="Grupo 60904" transform="translate(8.964 100.615)">
      <path id="Trazado_105495" data-name="Trazado 105495" d="M127.672,159.9,99.743,137.7a.971.971,0,0,0-1.575.76v8.864a.971.971,0,0,1-.971.971H48.535a2.7,2.7,0,0,0-2.7,2.7v19.346a2.7,2.7,0,0,0,2.7,2.7H97.2a.971.971,0,0,1,.971.971v8.864a.971.971,0,0,0,1.575.76l27.929-22.2a.971.971,0,0,0,0-1.52Z" transform="translate(-45.839 -137.488)" fill="#fddf7c"/>
    </g>
    <g id="Grupo_60905" data-name="Grupo 60905" transform="translate(59.324 93.118)">
      <path id="Trazado_105496" data-name="Trazado 105496" d="M339.491,123.2l-27.929-22.2a8.455,8.455,0,0,0-8.207-1.314,8.485,8.485,0,0,1,2.34,1.314l27.929,22.2a8.468,8.468,0,0,1,0,13.257l-27.929,22.2a8.487,8.487,0,0,1-2.343,1.315,8.456,8.456,0,0,0,2.944.526h0a8.495,8.495,0,0,0,5.265-1.841l27.929-22.2a8.468,8.468,0,0,0,0-13.257Z" transform="translate(-303.352 -99.151)" fill="#ebe5ed"/>
    </g>
    <g id="Grupo_60906" data-name="Grupo 60906" transform="translate(61.293 100.615)">
      <path id="Trazado_105497" data-name="Trazado 105497" d="M342.925,159.9,315,137.7a.971.971,0,0,0-1.575.76v2.652L337.058,159.9a.971.971,0,0,1,0,1.52l-23.637,18.792v2.652a.971.971,0,0,0,1.575.76l27.929-22.2a.971.971,0,0,0,0-1.52Z" transform="translate(-313.421 -137.488)" fill="#fcce63"/>
    </g>
    <g id="Grupo_60907" data-name="Grupo 60907" transform="translate(0 91.651)">
      <path id="Trazado_105498" data-name="Trazado 105498" d="M62.269,155.932a9.951,9.951,0,0,1-9.939-9.939v-.868H40.687a1.467,1.467,0,1,1,0-2.933H53.8a1.467,1.467,0,0,1,1.467,1.467v2.335a7,7,0,0,0,11.359,5.483l27.929-22.2a7,7,0,0,0,0-10.961l-27.929-22.2a7,7,0,0,0-11.359,5.48v2.338a1.467,1.467,0,0,1-1.467,1.467H10.3a7.373,7.373,0,0,0-7.364,7.364v22.071a7.372,7.372,0,0,0,7.364,7.364H34.82a1.467,1.467,0,1,1,0,2.933H10.3A10.309,10.309,0,0,1,0,134.827V112.756a10.309,10.309,0,0,1,10.3-10.3H52.329v-.871a9.933,9.933,0,0,1,16.118-7.777l27.928,22.2a9.935,9.935,0,0,1,0,15.553l-27.929,22.2A9.968,9.968,0,0,1,62.269,155.932Z" transform="translate(0 -91.651)"/>
    </g>
    <g id="Grupo_60908" data-name="Grupo 60908" transform="translate(7.497 99.147)">
      <path id="Trazado_105499" data-name="Trazado 105499" d="M93.109,179.271a2.446,2.446,0,0,1-1.063-.245,2.42,2.42,0,0,1-1.379-2.2v-8.368H42.5a4.167,4.167,0,0,1-4.162-4.162V144.953a4.167,4.167,0,0,1,4.162-4.162H52.606a1.467,1.467,0,1,1,0,2.933H42.5a1.23,1.23,0,0,0-1.229,1.229V164.3a1.23,1.23,0,0,0,1.229,1.229H91.163a2.44,2.44,0,0,1,2.437,2.437V175.8l26.636-21.176L93.6,133.45v7.836a2.44,2.44,0,0,1-2.437,2.438H58.473a1.467,1.467,0,1,1,0-2.933H90.667v-8.368a2.437,2.437,0,0,1,3.954-1.908l27.929,22.2a2.438,2.438,0,0,1,0,3.816l-27.929,22.2A2.426,2.426,0,0,1,93.109,179.271Z" transform="translate(-38.338 -129.982)"/>
    </g>
  </g>
</svg>
