<svg xmlns="http://www.w3.org/2000/svg" width="469" height="263" viewBox="0 0 469 263">
  <g id="Grupo_92522" data-name="Grupo 92522" transform="translate(-566 -4092)">
    <path id="Trazado_106201" data-name="Trazado 106201" d="M5,0H464a5,5,0,0,1,5,5V258a5,5,0,0,1-5,5H5a5,5,0,0,1-5-5V5A5,5,0,0,1,5,0Z" transform="translate(566 4092)" fill="#f6f6f6"/>
    <path id="Trazado_106202" data-name="Trazado 106202" d="M10.029-5.664H4.5V0H1.074V-14.219h9.512v2.646H4.5V-8.3h5.527Zm1.211.283A6.236,6.236,0,0,1,11.855-8.2a4.4,4.4,0,0,1,1.768-1.9,5.323,5.323,0,0,1,2.705-.664,4.858,4.858,0,0,1,3.74,1.47,5.64,5.64,0,0,1,1.367,4v.117a5.472,5.472,0,0,1-1.372,3.921A4.871,4.871,0,0,1,16.348.2a4.927,4.927,0,0,1-3.623-1.353A5.29,5.29,0,0,1,11.25-4.824Zm3.291.205a3.932,3.932,0,0,0,.459,2.148,1.529,1.529,0,0,0,1.357.684q1.758,0,1.8-2.705v-.332q0-2.842-1.816-2.842-1.65,0-1.787,2.451ZM29.277-7.588l-1.084-.078a1.947,1.947,0,0,0-1.992.977V0H22.91V-10.566H26L26.1-9.209a2.548,2.548,0,0,1,2.314-1.553,3.209,3.209,0,0,1,.918.117Zm4.3-2.979.107,1.24A3.633,3.633,0,0,1,36.7-10.762,2.675,2.675,0,0,1,39.4-9.17a3.516,3.516,0,0,1,3.105-1.592q3.213,0,3.3,3.887V0h-3.3V-6.67a2.014,2.014,0,0,0-.273-1.182,1.164,1.164,0,0,0-1-.371,1.559,1.559,0,0,0-1.455.869l.01.137V0h-3.3V-6.65a2.117,2.117,0,0,0-.264-1.2,1.161,1.161,0,0,0-1.006-.371,1.578,1.578,0,0,0-1.445.869V0H30.488V-10.566ZM53.643,0a3.716,3.716,0,0,1-.312-.947A3.06,3.06,0,0,1,50.791.2a3.749,3.749,0,0,1-2.539-.9,2.875,2.875,0,0,1-1.045-2.271,2.955,2.955,0,0,1,1.27-2.6,6.468,6.468,0,0,1,3.691-.879h1.016v-.557q0-1.455-1.26-1.455a1.027,1.027,0,0,0-1.172,1.152H47.461a2.955,2.955,0,0,1,1.3-2.49,5.474,5.474,0,0,1,3.325-.957,4.8,4.8,0,0,1,3.193.986,3.429,3.429,0,0,1,1.2,2.705v4.678a4.79,4.79,0,0,0,.449,2.227V0ZM51.582-2.148A1.836,1.836,0,0,0,52.6-2.412a1.653,1.653,0,0,0,.581-.6V-4.7h-.957q-1.719,0-1.719,1.543a.942.942,0,0,0,.3.728A1.1,1.1,0,0,0,51.582-2.148ZM62.139-13.193v2.627h1.738v2.285H62.139v4.834a1.234,1.234,0,0,0,.215.83,1.152,1.152,0,0,0,.85.234,4.828,4.828,0,0,0,.82-.059V-.088A6.074,6.074,0,0,1,62.168.2a3.448,3.448,0,0,1-2.51-.8,3.282,3.282,0,0,1-.811-2.432V-8.281H57.5v-2.285h1.348v-2.627Zm2.324,7.813A6.236,6.236,0,0,1,65.078-8.2a4.4,4.4,0,0,1,1.768-1.9,5.323,5.323,0,0,1,2.705-.664,4.858,4.858,0,0,1,3.74,1.47,5.64,5.64,0,0,1,1.367,4v.117a5.472,5.472,0,0,1-1.372,3.921A4.871,4.871,0,0,1,69.57.2a4.927,4.927,0,0,1-3.623-1.353,5.29,5.29,0,0,1-1.475-3.667Zm3.291.205a3.932,3.932,0,0,0,.459,2.148,1.529,1.529,0,0,0,1.357.684q1.758,0,1.8-2.705v-.332q0-2.842-1.816-2.842-1.65,0-1.787,2.451ZM81.641-2.969a.76.76,0,0,0-.439-.674,6.685,6.685,0,0,0-1.67-.527A7.615,7.615,0,0,1,77.5-4.888a3.4,3.4,0,0,1-1.221-1.079,2.577,2.577,0,0,1-.42-1.455,2.92,2.92,0,0,1,1.2-2.4,4.948,4.948,0,0,1,3.145-.942,5.482,5.482,0,0,1,3.359.947,2.962,2.962,0,0,1,1.27,2.49h-3.3q0-1.27-1.338-1.27a1.326,1.326,0,0,0-.869.288.892.892,0,0,0-.352.718.819.819,0,0,0,.43.713,4.06,4.06,0,0,0,1.372.449,11.857,11.857,0,0,1,1.655.42,3.007,3.007,0,0,1,2.383,2.939A2.767,2.767,0,0,1,83.53-.713,5.631,5.631,0,0,1,80.205.2a5.747,5.747,0,0,1-2.422-.488,4.05,4.05,0,0,1-1.66-1.328,3.007,3.007,0,0,1-.6-1.768H78.6a1.272,1.272,0,0,0,.488,1.069,2.009,2.009,0,0,0,1.2.337A1.58,1.58,0,0,0,81.3-2.256.875.875,0,0,0,81.641-2.969Z" transform="translate(663.5 4226)" fill="#12263f"/>
    <path id="Trazado_105834" data-name="Trazado 105834" d="M-4045.134-7909.112l-1.732-1c4.66-8.071,8.9-16.277,12.607-24.391,3.544-7.759,6.691-15.639,9.356-23.422a224.9,224.9,0,0,0,10.311-43.609,199.559,199.559,0,0,0-3.551-71.972,196.106,196.106,0,0,0-8.494-27.03,186.043,186.043,0,0,0-9.4-20.155,125.54,125.54,0,0,0-10.746-16.946l1.559-1.252a124.676,124.676,0,0,1,10.9,17.165,187.916,187.916,0,0,1,9.5,20.357,198.065,198.065,0,0,1,8.6,27.3,201.536,201.536,0,0,1,3.619,72.721,226.85,226.85,0,0,1-10.4,44.027c-2.686,7.851-5.86,15.8-9.432,23.623C-4036.165-7925.513-4040.439-7917.244-4045.134-7909.112Z" transform="translate(4827.5 12247.563)" fill="#4dd0e1"/>
    <path id="Trazado_106203" data-name="Trazado 106203" d="M19,0A19,19,0,1,1,0,19,19,19,0,0,1,19,0Z" transform="translate(777.5 4125)" fill="#ffca28"/>
    <path id="Trazado_106204" data-name="Trazado 106204" d="M19,0A19,19,0,1,1,0,19,19,19,0,0,1,19,0Z" transform="translate(792.5 4200)" fill="#ffca28"/>
    <path id="Trazado_106205" data-name="Trazado 106205" d="M19,0A19,19,0,1,1,0,19,19,19,0,0,1,19,0Z" transform="translate(781.5 4275)" fill="#ffca28"/>
    <path id="Trazado_106206" data-name="Trazado 106206" d="M5.488,3.516A4.333,4.333,0,0,1,1.973-1.025V-2.959q0-1.973-1.582-1.973V-7.148q1.582,0,1.582-1.982v-2.051a4.48,4.48,0,0,1,.913-2.842,5.006,5.006,0,0,1,2.6-1.572L6.1-13.877q-1.23.469-1.279,2.627v2.119A3.167,3.167,0,0,1,3.018-6.045a3.175,3.175,0,0,1,1.807,3.1V-.84Q4.873,1.318,6.1,1.787Zm6.387-1.729q1.23-.469,1.279-2.627V-2.959a3.153,3.153,0,0,1,1.816-3.086,3.153,3.153,0,0,1-1.816-3.086V-11.25q-.049-2.158-1.279-2.627L12.49-15.6A4.916,4.916,0,0,1,15.117-14a4.58,4.58,0,0,1,.889,2.905v1.963q0,1.982,1.582,1.982v2.217q-1.582,0-1.582,1.963v2.08a4.319,4.319,0,0,1-3.516,4.4Z" transform="translate(787.5 4149)" fill="#12263f"/>
    <path id="Trazado_106207" data-name="Trazado 106207" d="M3.74-5.947l5.342,1.8v3L.449-4.668v-2.6l8.633-3.516v2.988Zm17.832-.029L16.26-7.783v-2.988l8.584,3.516v2.6L16.26-1.143V-4.131Z" transform="translate(799.5 4224)" fill="#12263f"/>
    <path id="Trazado_106208" data-name="Trazado 106208" d="M9.15-2.656h-4.7L3.633,0H-.029L5.186-14.219H8.408L13.662,0H9.98ZM5.273-5.3H8.33L6.8-10.234ZM20.5,0a3.716,3.716,0,0,1-.312-.947A3.06,3.06,0,0,1,17.646.2a3.749,3.749,0,0,1-2.539-.9,2.875,2.875,0,0,1-1.045-2.271,2.955,2.955,0,0,1,1.27-2.6,6.468,6.468,0,0,1,3.691-.879h1.016v-.557q0-1.455-1.26-1.455a1.027,1.027,0,0,0-1.172,1.152H14.316a2.955,2.955,0,0,1,1.3-2.49,5.474,5.474,0,0,1,3.325-.957,4.8,4.8,0,0,1,3.193.986,3.429,3.429,0,0,1,1.2,2.705v4.678a4.79,4.79,0,0,0,.449,2.227V0ZM18.438-2.148a1.836,1.836,0,0,0,1.021-.264,1.653,1.653,0,0,0,.581-.6V-4.7h-.957q-1.719,0-1.719,1.543a.942.942,0,0,0,.3.728A1.1,1.1,0,0,0,18.438-2.148Z" transform="translate(788.5 4301)" fill="#12263f"/>
    <path id="Trazado_106209" data-name="Trazado 106209" d="M6.064-12.8H9.141v8.78a4.2,4.2,0,0,1-.567,2.18A3.87,3.87,0,0,1,6.992-.352,4.835,4.835,0,0,1,4.729.176,4.661,4.661,0,0,1,1.477-.879,3.833,3.833,0,0,1,.316-3.867H3.41a2.113,2.113,0,0,0,.3,1.274,1.2,1.2,0,0,0,1.015.4,1.148,1.148,0,0,0,.989-.479,2.251,2.251,0,0,0,.347-1.34ZM15.926-2.672a.684.684,0,0,0-.4-.606,6.016,6.016,0,0,0-1.5-.475A6.853,6.853,0,0,1,12.2-4.4a3.062,3.062,0,0,1-1.1-.971,2.319,2.319,0,0,1-.378-1.31A2.628,2.628,0,0,1,11.8-8.837a4.453,4.453,0,0,1,2.83-.848,4.934,4.934,0,0,1,3.023.853A2.666,2.666,0,0,1,18.8-6.592H15.829q0-1.143-1.2-1.143a1.194,1.194,0,0,0-.782.259.8.8,0,0,0-.316.646.737.737,0,0,0,.387.642,3.654,3.654,0,0,0,1.235.4,10.671,10.671,0,0,1,1.49.378A2.706,2.706,0,0,1,18.782-2.76,2.491,2.491,0,0,1,17.626-.642a5.068,5.068,0,0,1-2.993.817,5.172,5.172,0,0,1-2.18-.439,3.645,3.645,0,0,1-1.494-1.2,2.707,2.707,0,0,1-.536-1.591h2.769a1.145,1.145,0,0,0,.439.962,1.808,1.808,0,0,0,1.081.3,1.422,1.422,0,0,0,.91-.246A.787.787,0,0,0,15.926-2.672Zm3.867-2.171a5.613,5.613,0,0,1,.554-2.536,3.96,3.96,0,0,1,1.591-1.709,4.791,4.791,0,0,1,2.435-.6,4.373,4.373,0,0,1,3.366,1.323,5.076,5.076,0,0,1,1.23,3.6v.105a4.925,4.925,0,0,1-1.235,3.529A4.384,4.384,0,0,1,24.39.176a4.434,4.434,0,0,1-3.261-1.217,4.761,4.761,0,0,1-1.327-3.3Zm2.962.185a3.538,3.538,0,0,0,.413,1.934,1.376,1.376,0,0,0,1.222.615q1.582,0,1.617-2.435v-.3q0-2.558-1.635-2.558-1.485,0-1.608,2.206ZM32.994-9.51l.1,1.116a3.225,3.225,0,0,1,2.716-1.292,2.713,2.713,0,0,1,2.219.888,4.226,4.226,0,0,1,.76,2.672V0H35.815V-6a1.6,1.6,0,0,0-.29-1.059A1.342,1.342,0,0,0,34.471-7.4a1.413,1.413,0,0,0-1.292.686V0H30.217V-9.51Z" transform="translate(834.5 4146)" fill="#12263f"/>
    <path id="Trazado_106210" data-name="Trazado 106210" d="M5.739-8.543,7.831-12.8h3.524L7.778-6.451,11.452,0H7.893L5.739-4.333,3.586,0H.035L3.7-6.451.132-12.8H3.647ZM16.506-12.8l2.856,8.9,2.848-8.9h4.061V0H23.177V-2.988l.3-6.117L20.382,0H18.343l-3.1-9.114.3,6.126V0H12.454V-12.8ZM31.315-2.373h5.37V0H28.23V-12.8h3.085Z" transform="translate(840.5 4224)" fill="#12263f"/>
    <path id="Trazado_106211" data-name="Trazado 106211" d="M11.013-10.415H7.172V0H4.087V-10.415H.316V-12.8h10.7ZM16,.176a4.889,4.889,0,0,1-3.542-1.305,4.507,4.507,0,0,1-1.354-3.4v-.246a5.84,5.84,0,0,1,.541-2.575,3.955,3.955,0,0,1,1.578-1.727,4.763,4.763,0,0,1,2.461-.611,4.117,4.117,0,0,1,3.164,1.244A4.887,4.887,0,0,1,20-4.975v1.151H14.115a2.135,2.135,0,0,0,.694,1.257,2.066,2.066,0,0,0,1.389.457,2.662,2.662,0,0,0,2.2-.984l1.354,1.6A3.784,3.784,0,0,1,18.18-.277,5.3,5.3,0,0,1,16,.176ZM15.662-7.4q-1.3,0-1.547,1.723H17.1v-.229a1.467,1.467,0,0,0-.36-1.1A1.434,1.434,0,0,0,15.662-7.4Zm9.387.51,1.38-2.619H29.5L27-4.878,29.628,0H26.534L25.04-2.812,23.572,0H20.461L23.1-4.878,20.6-9.51h3.111Zm8.859-4.983V-9.51h1.564v2.057H33.908V-3.1a1.111,1.111,0,0,0,.193.747,1.037,1.037,0,0,0,.765.211A4.345,4.345,0,0,0,35.6-2.2V-.079a5.466,5.466,0,0,1-1.67.255,3.1,3.1,0,0,1-2.259-.721,2.954,2.954,0,0,1-.729-2.188v-4.72H29.733V-9.51h1.213v-2.364ZM36-4.843a5.613,5.613,0,0,1,.554-2.536,3.96,3.96,0,0,1,1.591-1.709,4.791,4.791,0,0,1,2.435-.6,4.373,4.373,0,0,1,3.366,1.323,5.076,5.076,0,0,1,1.23,3.6v.105a4.925,4.925,0,0,1-1.235,3.529A4.384,4.384,0,0,1,40.6.176a4.434,4.434,0,0,1-3.261-1.217,4.761,4.761,0,0,1-1.327-3.3Zm2.962.185a3.538,3.538,0,0,0,.413,1.934,1.376,1.376,0,0,0,1.222.615q1.582,0,1.617-2.435v-.3q0-2.558-1.635-2.558-1.485,0-1.608,2.206Zm15.223.316V0H51.1V-12.8h5.106a5.948,5.948,0,0,1,2.6.541,4.074,4.074,0,0,1,1.749,1.538,4.2,4.2,0,0,1,.62,2.263,3.7,3.7,0,0,1-1.34,2.993,5.561,5.561,0,0,1-3.678,1.121Zm0-2.382h2.021a1.906,1.906,0,0,0,1.367-.448,1.665,1.665,0,0,0,.47-1.266A2.059,2.059,0,0,0,57.56-9.87a1.712,1.712,0,0,0-1.318-.545H54.185ZM65.8,0H62.833V-13.5H65.8Zm7.181,0A3.344,3.344,0,0,1,72.7-.853,2.754,2.754,0,0,1,70.418.176a3.374,3.374,0,0,1-2.285-.813,2.588,2.588,0,0,1-.94-2.043,2.66,2.66,0,0,1,1.143-2.338,5.821,5.821,0,0,1,3.322-.791h.914v-.5q0-1.31-1.134-1.31a.925.925,0,0,0-1.055,1.037H67.421a2.659,2.659,0,0,1,1.173-2.241,4.927,4.927,0,0,1,2.993-.861,4.323,4.323,0,0,1,2.874.888,3.086,3.086,0,0,1,1.081,2.435v4.21a4.311,4.311,0,0,0,.4,2V0ZM71.13-1.934a1.652,1.652,0,0,0,.918-.237,1.487,1.487,0,0,0,.523-.536V-4.228H71.71q-1.547,0-1.547,1.389a.848.848,0,0,0,.272.655A.986.986,0,0,0,71.13-1.934ZM79.9-9.51,80-8.394a3.225,3.225,0,0,1,2.716-1.292,2.713,2.713,0,0,1,2.219.888,4.226,4.226,0,0,1,.76,2.672V0H82.723V-6a1.6,1.6,0,0,0-.29-1.059A1.342,1.342,0,0,0,81.378-7.4a1.413,1.413,0,0,0-1.292.686V0H77.124V-9.51Zm7.058,4.667a5.613,5.613,0,0,1,.554-2.536A3.96,3.96,0,0,1,89.1-9.088a4.791,4.791,0,0,1,2.435-.6A4.373,4.373,0,0,1,94.9-8.363a5.076,5.076,0,0,1,1.23,3.6v.105A4.925,4.925,0,0,1,94.9-1.129,4.384,4.384,0,0,1,91.556.176a4.434,4.434,0,0,1-3.261-1.217,4.761,4.761,0,0,1-1.327-3.3Zm2.962.185a3.538,3.538,0,0,0,.413,1.934,1.376,1.376,0,0,0,1.222.615q1.582,0,1.617-2.435v-.3q0-2.558-1.635-2.558-1.485,0-1.608,2.206Z" transform="translate(840.5 4304)" fill="#12263f"/>
  </g>
</svg>
