<svg xmlns="http://www.w3.org/2000/svg" width="910" height="713" viewBox="0 0 910 713">
  <g id="Grupo_92524" data-name="Grupo 92524" transform="translate(-345 -7278)">
    <path id="Trazado_106212" data-name="Trazado 106212" d="M12,0H287a12,12,0,0,1,12,12V63a12,12,0,0,1-12,12H12A12,12,0,0,1,0,63V12A12,12,0,0,1,12,0Z" transform="translate(552 7278)" fill="#ffca28"/>
    <path id="Trazado_106213" data-name="Trazado 106213" d="M12.236-11.572H7.969V0H4.541V-11.572H.352v-2.646H12.236ZM17,0H13.7V-10.566H17Zm-3.5-13.291a1.469,1.469,0,0,1,.508-1.152,1.916,1.916,0,0,1,1.318-.449,1.916,1.916,0,0,1,1.318.449,1.469,1.469,0,0,1,.508,1.152,1.469,1.469,0,0,1-.508,1.152,1.916,1.916,0,0,1-1.318.449,1.916,1.916,0,0,1-1.318-.449A1.469,1.469,0,0,1,13.506-13.291ZM28.838-5.205a6.372,6.372,0,0,1-1.108,3.931A3.554,3.554,0,0,1,24.736.2,3.046,3.046,0,0,1,22.344-.869V4.063H19.053V-10.566h3.076l.1.977a3.046,3.046,0,0,1,2.49-1.172,3.582,3.582,0,0,1,3.037,1.44,6.45,6.45,0,0,1,1.084,3.96ZM25.547-5.41q0-2.812-1.641-2.812a1.549,1.549,0,0,0-1.562.84v4.16a1.6,1.6,0,0,0,1.582.879q1.572,0,1.621-2.715Zm4.326.029A6.236,6.236,0,0,1,30.488-8.2a4.4,4.4,0,0,1,1.768-1.9,5.323,5.323,0,0,1,2.705-.664,4.858,4.858,0,0,1,3.74,1.47,5.64,5.64,0,0,1,1.367,4v.117A5.472,5.472,0,0,1,38.7-1.255,4.871,4.871,0,0,1,34.98.2a4.927,4.927,0,0,1-3.623-1.353,5.29,5.29,0,0,1-1.475-3.667Zm3.291.205a3.932,3.932,0,0,0,.459,2.148,1.529,1.529,0,0,0,1.357.684q1.758,0,1.8-2.705v-.332q0-2.842-1.816-2.842-1.65,0-1.787,2.451ZM47.051-2.969a.76.76,0,0,0-.439-.674,6.685,6.685,0,0,0-1.67-.527,7.615,7.615,0,0,1-2.031-.718,3.4,3.4,0,0,1-1.221-1.079,2.577,2.577,0,0,1-.42-1.455,2.92,2.92,0,0,1,1.2-2.4,4.948,4.948,0,0,1,3.145-.942,5.482,5.482,0,0,1,3.359.947,2.962,2.962,0,0,1,1.27,2.49h-3.3q0-1.27-1.338-1.27a1.326,1.326,0,0,0-.869.288.892.892,0,0,0-.352.718.819.819,0,0,0,.43.713,4.06,4.06,0,0,0,1.372.449,11.857,11.857,0,0,1,1.655.42,3.007,3.007,0,0,1,2.383,2.939A2.767,2.767,0,0,1,48.94-.713,5.632,5.632,0,0,1,45.615.2a5.747,5.747,0,0,1-2.422-.488,4.05,4.05,0,0,1-1.66-1.328,3.007,3.007,0,0,1-.6-1.768h3.076A1.272,1.272,0,0,0,44.5-2.319a2.009,2.009,0,0,0,1.2.337,1.58,1.58,0,0,0,1.011-.273A.875.875,0,0,0,47.051-2.969Zm9.277-2.393a6.455,6.455,0,0,1,1.084-3.955,3.568,3.568,0,0,1,3.027-1.445,3.035,3.035,0,0,1,2.383,1.113V-15h3.3V0H63.164L63-1.133A3.116,3.116,0,0,1,60.42.2,3.562,3.562,0,0,1,57.432-1.25,6.659,6.659,0,0,1,56.328-5.361Zm3.291.205q0,2.813,1.641,2.813a1.62,1.62,0,0,0,1.563-.918V-7.285a1.576,1.576,0,0,0-1.543-.937q-1.523,0-1.65,2.461ZM73.105.2a5.432,5.432,0,0,1-3.936-1.45,5.008,5.008,0,0,1-1.5-3.774V-5.3a6.489,6.489,0,0,1,.6-2.861,4.395,4.395,0,0,1,1.753-1.919,5.292,5.292,0,0,1,2.734-.679A4.574,4.574,0,0,1,76.27-9.38a5.43,5.43,0,0,1,1.289,3.853v1.279H71.016a2.372,2.372,0,0,0,.771,1.4,2.3,2.3,0,0,0,1.543.508,2.958,2.958,0,0,0,2.441-1.094l1.5,1.777A4.2,4.2,0,0,1,75.532-.308,5.891,5.891,0,0,1,73.105.2Zm-.371-8.418q-1.445,0-1.719,1.914h3.32v-.254a1.63,1.63,0,0,0-.4-1.226A1.593,1.593,0,0,0,72.734-8.223ZM92.09-2.656h-4.7L86.572,0H82.91l5.215-14.219h3.223L96.6,0H92.92ZM88.213-5.3H91.27l-1.533-4.932Zm12.852.479V0H97.637V-14.219h5.674a6.608,6.608,0,0,1,2.886.6,4.526,4.526,0,0,1,1.943,1.709,4.667,4.667,0,0,1,.688,2.515,4.114,4.114,0,0,1-1.489,3.325,6.179,6.179,0,0,1-4.087,1.245Zm0-2.646h2.246a2.118,2.118,0,0,0,1.519-.5,1.85,1.85,0,0,0,.522-1.406,2.287,2.287,0,0,0-.537-1.592,1.9,1.9,0,0,0-1.465-.605h-2.285ZM114.307,0h-3.418V-14.219h3.418Z" transform="translate(644 7321)" fill="#12263f"/>
    <path id="Trazado_106214" data-name="Trazado 106214" d="M12,0H287a12,12,0,0,1,12,12V63a12,12,0,0,1-12,12H12A12,12,0,0,1,0,63V12A12,12,0,0,1,12,0Z" transform="translate(345 7440)" fill="#039be5"/>
    <path id="Trazado_106215" data-name="Trazado 106215" d="M4.5-2.637h5.967V0H1.074V-14.219H4.5Zm6.846-2.744A6.236,6.236,0,0,1,11.963-8.2a4.4,4.4,0,0,1,1.768-1.9,5.323,5.323,0,0,1,2.705-.664,4.858,4.858,0,0,1,3.74,1.47,5.64,5.64,0,0,1,1.367,4v.117a5.472,5.472,0,0,1-1.372,3.921A4.871,4.871,0,0,1,16.455.2a4.927,4.927,0,0,1-3.623-1.353,5.29,5.29,0,0,1-1.475-3.667Zm3.291.205A3.932,3.932,0,0,0,15.1-3.027a1.529,1.529,0,0,0,1.357.684q1.758,0,1.8-2.705v-.332q0-2.842-1.816-2.842-1.65,0-1.787,2.451ZM27.461-2.344a1.464,1.464,0,0,0,1.074-.376,1.379,1.379,0,0,0,.371-1.05h3.086A3.653,3.653,0,0,1,30.747-.918,4.631,4.631,0,0,1,27.539.2,4.689,4.689,0,0,1,23.906-1.25a5.7,5.7,0,0,1-1.328-4v-.137a6.436,6.436,0,0,1,.591-2.827,4.3,4.3,0,0,1,1.7-1.885,5.081,5.081,0,0,1,2.637-.659,4.573,4.573,0,0,1,3.271,1.143,4.053,4.053,0,0,1,1.211,3.1H28.906a1.807,1.807,0,0,0-.4-1.26,1.382,1.382,0,0,0-1.074-.439q-1.279,0-1.494,1.631a11.508,11.508,0,0,0-.068,1.426,4.52,4.52,0,0,0,.381,2.207A1.319,1.319,0,0,0,27.461-2.344ZM39.336,0a3.716,3.716,0,0,1-.312-.947A3.06,3.06,0,0,1,36.484.2a3.749,3.749,0,0,1-2.539-.9A2.875,2.875,0,0,1,32.9-2.979a2.955,2.955,0,0,1,1.27-2.6,6.468,6.468,0,0,1,3.691-.879h1.016v-.557q0-1.455-1.26-1.455a1.027,1.027,0,0,0-1.172,1.152H33.154a2.955,2.955,0,0,1,1.3-2.49,5.474,5.474,0,0,1,3.325-.957,4.8,4.8,0,0,1,3.193.986,3.429,3.429,0,0,1,1.2,2.705v4.678a4.79,4.79,0,0,0,.449,2.227V0ZM37.275-2.148A1.836,1.836,0,0,0,38.3-2.412a1.653,1.653,0,0,0,.581-.6V-4.7H37.92Q36.2-4.7,36.2-3.154a.942.942,0,0,0,.3.728A1.1,1.1,0,0,0,37.275-2.148ZM47.471,0h-3.3V-15h3.3Zm7.139.2a5.432,5.432,0,0,1-3.936-1.45,5.008,5.008,0,0,1-1.5-3.774V-5.3a6.489,6.489,0,0,1,.6-2.861,4.395,4.395,0,0,1,1.753-1.919,5.292,5.292,0,0,1,2.734-.679A4.574,4.574,0,0,1,57.773-9.38a5.43,5.43,0,0,1,1.289,3.853v1.279H52.52a2.372,2.372,0,0,0,.771,1.4,2.3,2.3,0,0,0,1.543.508,2.958,2.958,0,0,0,2.441-1.094l1.5,1.777A4.2,4.2,0,0,1,57.036-.308,5.891,5.891,0,0,1,54.609.2Zm-.371-8.418q-1.445,0-1.719,1.914h3.32v-.254a1.63,1.63,0,0,0-.4-1.226A1.593,1.593,0,0,0,54.238-8.223Zm11.68,5.254a.76.76,0,0,0-.439-.674,6.685,6.685,0,0,0-1.67-.527,7.615,7.615,0,0,1-2.031-.718,3.4,3.4,0,0,1-1.221-1.079,2.577,2.577,0,0,1-.42-1.455,2.92,2.92,0,0,1,1.2-2.4,4.948,4.948,0,0,1,3.145-.942,5.482,5.482,0,0,1,3.359.947,2.962,2.962,0,0,1,1.27,2.49h-3.3q0-1.27-1.338-1.27a1.326,1.326,0,0,0-.869.288.892.892,0,0,0-.352.718.819.819,0,0,0,.43.713,4.06,4.06,0,0,0,1.372.449,11.857,11.857,0,0,1,1.655.42,3.007,3.007,0,0,1,2.383,2.939A2.767,2.767,0,0,1,67.808-.713,5.631,5.631,0,0,1,64.482.2a5.747,5.747,0,0,1-2.422-.488A4.05,4.05,0,0,1,60.4-1.621a3.007,3.007,0,0,1-.6-1.768h3.076a1.272,1.272,0,0,0,.488,1.069,2.009,2.009,0,0,0,1.2.337,1.58,1.58,0,0,0,1.011-.273A.875.875,0,0,0,65.918-2.969Z" transform="translate(460 7485)" fill="#fff"/>
    <path id="Trazado_106216" data-name="Trazado 106216" d="M12,0H287a12,12,0,0,1,12,12V136a12,12,0,0,1-12,12H12A12,12,0,0,1,0,136V12A12,12,0,0,1,12,0Z" transform="translate(587 7727)" fill="#9df4ff"/>
    <path id="Trazado_106217" data-name="Trazado 106217" d="M8.408-3.779a1.408,1.408,0,0,0-.532-1.172,6.615,6.615,0,0,0-1.87-.869,17.942,17.942,0,0,1-2.187-.869Q1.055-8.047,1.055-10.42A3.345,3.345,0,0,1,1.743-12.5a4.453,4.453,0,0,1,1.948-1.406,7.582,7.582,0,0,1,2.832-.5,6.632,6.632,0,0,1,2.749.547,4.352,4.352,0,0,1,1.89,1.558A4.068,4.068,0,0,1,11.836-10H8.418a1.719,1.719,0,0,0-.532-1.348,2.075,2.075,0,0,0-1.44-.479A2.339,2.339,0,0,0,5-11.421a1.243,1.243,0,0,0-.532,1.03,1.252,1.252,0,0,0,.586.991,7.389,7.389,0,0,0,2.061.918A12.623,12.623,0,0,1,9.531-7.461a4.07,4.07,0,0,1,2.3,3.662A3.472,3.472,0,0,1,10.43-.869,6.255,6.255,0,0,1,6.572.2a7.653,7.653,0,0,1-3.13-.62,4.719,4.719,0,0,1-2.109-1.7A4.428,4.428,0,0,1,.625-4.609H4.063a2.181,2.181,0,0,0,.591,1.685,2.793,2.793,0,0,0,1.919.542,2.206,2.206,0,0,0,1.343-.366A1.209,1.209,0,0,0,8.408-3.779ZM25.635-6.816a8.385,8.385,0,0,1-.771,3.682A5.7,5.7,0,0,1,22.671-.669,6.1,6.1,0,0,1,19.434.2,6.191,6.191,0,0,1,16.211-.64a5.692,5.692,0,0,1-2.192-2.388,8.144,8.144,0,0,1-.825-3.564v-.8a8.422,8.422,0,0,1,.767-3.687,5.688,5.688,0,0,1,2.2-2.466,6.147,6.147,0,0,1,3.257-.869,6.087,6.087,0,0,1,3.223.859,5.79,5.79,0,0,1,2.2,2.446,8.18,8.18,0,0,1,.8,3.638Zm-3.486-.6a5.979,5.979,0,0,0-.708-3.218,2.271,2.271,0,0,0-2.026-1.1q-2.578,0-2.725,3.867l-.01,1.045A6.149,6.149,0,0,0,17.373-3.6,2.268,2.268,0,0,0,19.434-2.48a2.24,2.24,0,0,0,2-1.1,5.982,5.982,0,0,0,.713-3.174ZM35.273-2.656h-4.7L29.756,0H26.094l5.215-14.219h3.223L39.785,0H36.1ZM31.4-5.3h3.057L32.92-10.234Zm12.852.479V0H40.82V-14.219h5.674a6.608,6.608,0,0,1,2.886.6,4.526,4.526,0,0,1,1.943,1.709,4.667,4.667,0,0,1,.688,2.515,4.114,4.114,0,0,1-1.489,3.325,6.179,6.179,0,0,1-4.087,1.245Zm0-2.646h2.246a2.118,2.118,0,0,0,1.519-.5,1.85,1.85,0,0,0,.522-1.406A2.287,2.287,0,0,0,48-10.967a1.9,1.9,0,0,0-1.465-.605H44.248Z" transform="translate(710 7772)" fill="#12263f"/>
    <path id="Trazado_106218" data-name="Trazado 106218" d="M-103.472-5.781a14.924,14.924,0,0,1,.635-4.434,10.7,10.7,0,0,1,1.753-3.477A6.225,6.225,0,0,1-98.6-15.684l.625,1.621a6.367,6.367,0,0,0-2.114,3.14,15.313,15.313,0,0,0-.757,5v.43a15.612,15.612,0,0,0,.747,5.1,6.34,6.34,0,0,0,2.124,3.164L-98.6,4.395a6.163,6.163,0,0,1-2.485-2,10.538,10.538,0,0,1-1.753-3.462,15,15,0,0,1-.635-4.277Zm19.277,2a1.408,1.408,0,0,0-.532-1.172A6.615,6.615,0,0,0-86.6-5.82a17.941,17.941,0,0,1-2.187-.869q-2.764-1.357-2.764-3.73a3.345,3.345,0,0,1,.688-2.085,4.453,4.453,0,0,1,1.948-1.406,7.582,7.582,0,0,1,2.832-.5,6.632,6.632,0,0,1,2.749.547,4.352,4.352,0,0,1,1.89,1.558A4.068,4.068,0,0,1-80.767-10h-3.418a1.719,1.719,0,0,0-.532-1.348,2.075,2.075,0,0,0-1.44-.479,2.339,2.339,0,0,0-1.45.405,1.243,1.243,0,0,0-.532,1.03,1.252,1.252,0,0,0,.586.991,7.389,7.389,0,0,0,2.061.918,12.623,12.623,0,0,1,2.422,1.021,4.07,4.07,0,0,1,2.3,3.662,3.472,3.472,0,0,1-1.406,2.93A6.255,6.255,0,0,1-86.03.2a7.653,7.653,0,0,1-3.13-.62,4.719,4.719,0,0,1-2.109-1.7,4.427,4.427,0,0,1-.708-2.485h3.438a2.181,2.181,0,0,0,.591,1.685,2.793,2.793,0,0,0,1.919.542,2.206,2.206,0,0,0,1.343-.366A1.209,1.209,0,0,0-84.194-3.779ZM-75.688,0h-3.3V-10.566h3.3Zm-3.5-13.291a1.469,1.469,0,0,1,.508-1.152,1.916,1.916,0,0,1,1.318-.449,1.916,1.916,0,0,1,1.318.449,1.469,1.469,0,0,1,.508,1.152,1.469,1.469,0,0,1-.508,1.152,1.916,1.916,0,0,1-1.318.449,1.916,1.916,0,0,1-1.318-.449A1.469,1.469,0,0,1-79.185-13.291Zm8.633,2.725.107,1.24a3.633,3.633,0,0,1,3.018-1.436A2.675,2.675,0,0,1-64.722-9.17a3.517,3.517,0,0,1,3.105-1.592q3.213,0,3.3,3.887V0h-3.3V-6.67a2.014,2.014,0,0,0-.273-1.182,1.164,1.164,0,0,0-1-.371,1.559,1.559,0,0,0-1.455.869l.01.137V0h-3.3V-6.65a2.117,2.117,0,0,0-.264-1.2A1.161,1.161,0,0,0-68.9-8.223a1.578,1.578,0,0,0-1.445.869V0h-3.291V-10.566Zm23.926,5.361a6.372,6.372,0,0,1-1.108,3.931A3.554,3.554,0,0,1-50.728.2,3.046,3.046,0,0,1-53.12-.869V4.063h-3.291V-10.566h3.076l.1.977a3.046,3.046,0,0,1,2.49-1.172,3.582,3.582,0,0,1,3.037,1.44,6.45,6.45,0,0,1,1.084,3.96Zm-3.291-.205q0-2.812-1.641-2.812a1.549,1.549,0,0,0-1.562.84v4.16a1.6,1.6,0,0,0,1.582.879q1.572,0,1.621-2.715ZM-41.7,0H-45V-15h3.3Zm7.139.2A5.432,5.432,0,0,1-38.5-1.255,5.008,5.008,0,0,1-40-5.029V-5.3a6.489,6.489,0,0,1,.6-2.861,4.395,4.395,0,0,1,1.753-1.919,5.292,5.292,0,0,1,2.734-.679A4.574,4.574,0,0,1-31.4-9.38a5.43,5.43,0,0,1,1.289,3.853v1.279h-6.543a2.372,2.372,0,0,0,.771,1.4,2.3,2.3,0,0,0,1.543.508A2.958,2.958,0,0,0-31.9-3.437l1.5,1.777A4.2,4.2,0,0,1-32.139-.308,5.891,5.891,0,0,1-34.565.2Zm-.371-8.418q-1.445,0-1.719,1.914h3.32v-.254a1.63,1.63,0,0,0-.4-1.226A1.593,1.593,0,0,0-34.937-8.223Zm23.32,1.406a8.385,8.385,0,0,1-.771,3.682A5.7,5.7,0,0,1-14.58-.669,6.1,6.1,0,0,1-17.817.2,6.191,6.191,0,0,1-21.04-.64a5.692,5.692,0,0,1-2.192-2.388,8.144,8.144,0,0,1-.825-3.564v-.8a8.422,8.422,0,0,1,.767-3.687,5.688,5.688,0,0,1,2.2-2.466,6.147,6.147,0,0,1,3.257-.869,6.087,6.087,0,0,1,3.223.859,5.79,5.79,0,0,1,2.2,2.446,8.18,8.18,0,0,1,.8,3.638Zm-3.486-.6a5.979,5.979,0,0,0-.708-3.218,2.271,2.271,0,0,0-2.026-1.1q-2.578,0-2.725,3.867l-.01,1.045A6.149,6.149,0,0,0-19.878-3.6,2.268,2.268,0,0,0-17.817-2.48a2.24,2.24,0,0,0,2-1.1A5.982,5.982,0,0,0-15.1-6.758ZM-.19-5.2A6.44,6.44,0,0,1-1.265-1.2,3.6,3.6,0,0,1-4.292.2a3.122,3.122,0,0,1-2.6-1.279L-7.026,0H-9.976V-15h3.291v5.283a3.013,3.013,0,0,1,2.373-1.045A3.6,3.6,0,0,1-1.265-9.346,6.473,6.473,0,0,1-.19-5.361Zm-3.3-.205A4.309,4.309,0,0,0-3.9-7.573a1.365,1.365,0,0,0-1.245-.649,1.575,1.575,0,0,0-1.543.85v4.2a1.584,1.584,0,0,0,1.563.84A1.4,1.4,0,0,0-3.647-3.467,8.148,8.148,0,0,0-3.491-5.4ZM4.8-10.566V.361A3.836,3.836,0,0,1,3.726,3.252,4.127,4.127,0,0,1,.757,4.268,7.009,7.009,0,0,1-.8,4.1V1.611A6.3,6.3,0,0,0,.132,1.7,1.2,1.2,0,0,0,1.5.342V-10.566ZM1.255-13.291a1.469,1.469,0,0,1,.508-1.152,1.916,1.916,0,0,1,1.318-.449,1.916,1.916,0,0,1,1.318.449,1.469,1.469,0,0,1,.508,1.152A1.469,1.469,0,0,1,4.4-12.139a1.916,1.916,0,0,1-1.318.449,1.916,1.916,0,0,1-1.318-.449A1.469,1.469,0,0,1,1.255-13.291ZM11.772.2a5.432,5.432,0,0,1-3.936-1.45,5.008,5.008,0,0,1-1.5-3.774V-5.3a6.489,6.489,0,0,1,.6-2.861,4.395,4.395,0,0,1,1.753-1.919,5.292,5.292,0,0,1,2.734-.679A4.574,4.574,0,0,1,14.937-9.38a5.43,5.43,0,0,1,1.289,3.853v1.279H9.683a2.372,2.372,0,0,0,.771,1.4A2.3,2.3,0,0,0,12-2.344a2.958,2.958,0,0,0,2.441-1.094l1.5,1.777A4.2,4.2,0,0,1,14.2-.308,5.891,5.891,0,0,1,11.772.2ZM11.4-8.223q-1.445,0-1.719,1.914H13v-.254a1.63,1.63,0,0,0-.4-1.226A1.593,1.593,0,0,0,11.4-8.223ZM22.017-2.344a1.464,1.464,0,0,0,1.074-.376,1.379,1.379,0,0,0,.371-1.05h3.086A3.653,3.653,0,0,1,25.3-.918,4.631,4.631,0,0,1,22.095.2,4.689,4.689,0,0,1,18.462-1.25a5.7,5.7,0,0,1-1.328-4v-.137a6.436,6.436,0,0,1,.591-2.827,4.3,4.3,0,0,1,1.7-1.885,5.081,5.081,0,0,1,2.637-.659,4.573,4.573,0,0,1,3.271,1.143,4.053,4.053,0,0,1,1.211,3.1H23.462a1.807,1.807,0,0,0-.4-1.26,1.382,1.382,0,0,0-1.074-.439q-1.279,0-1.494,1.631a11.508,11.508,0,0,0-.068,1.426,4.52,4.52,0,0,0,.381,2.207A1.319,1.319,0,0,0,22.017-2.344Zm9.756-10.85v2.627h1.738v2.285H31.772v4.834a1.234,1.234,0,0,0,.215.83,1.152,1.152,0,0,0,.85.234,4.828,4.828,0,0,0,.82-.059V-.088A6.074,6.074,0,0,1,31.8.2a3.448,3.448,0,0,1-2.51-.8,3.282,3.282,0,0,1-.811-2.432V-8.281H27.134v-2.285h1.348v-2.627ZM48.013-2.656h-4.7L42.5,0H38.833l5.215-14.219h3.223L52.524,0H48.843ZM44.136-5.3h3.057l-1.533-4.932Zm13.74,2.959A1.464,1.464,0,0,0,58.95-2.72a1.379,1.379,0,0,0,.371-1.05h3.086A3.653,3.653,0,0,1,61.162-.918,4.631,4.631,0,0,1,57.954.2,4.689,4.689,0,0,1,54.321-1.25a5.7,5.7,0,0,1-1.328-4v-.137a6.436,6.436,0,0,1,.591-2.827,4.3,4.3,0,0,1,1.7-1.885,5.081,5.081,0,0,1,2.637-.659A4.573,4.573,0,0,1,61.2-9.619a4.053,4.053,0,0,1,1.211,3.1H59.321a1.807,1.807,0,0,0-.4-1.26,1.382,1.382,0,0,0-1.074-.439q-1.279,0-1.494,1.631a11.507,11.507,0,0,0-.068,1.426,4.52,4.52,0,0,0,.381,2.207A1.319,1.319,0,0,0,57.876-2.344Zm10.391,0a1.464,1.464,0,0,0,1.074-.376,1.379,1.379,0,0,0,.371-1.05H72.8A3.653,3.653,0,0,1,71.553-.918,4.631,4.631,0,0,1,68.345.2,4.689,4.689,0,0,1,64.712-1.25a5.7,5.7,0,0,1-1.328-4v-.137a6.436,6.436,0,0,1,.591-2.827,4.3,4.3,0,0,1,1.7-1.885,5.081,5.081,0,0,1,2.637-.659,4.573,4.573,0,0,1,3.271,1.143,4.053,4.053,0,0,1,1.211,3.1H69.712a1.806,1.806,0,0,0-.4-1.26,1.382,1.382,0,0,0-1.074-.439q-1.279,0-1.494,1.631a11.508,11.508,0,0,0-.068,1.426,4.52,4.52,0,0,0,.381,2.207A1.319,1.319,0,0,0,68.267-2.344ZM79.3.2a5.432,5.432,0,0,1-3.936-1.45,5.008,5.008,0,0,1-1.5-3.774V-5.3a6.489,6.489,0,0,1,.6-2.861,4.395,4.395,0,0,1,1.753-1.919,5.292,5.292,0,0,1,2.734-.679A4.574,4.574,0,0,1,82.466-9.38a5.43,5.43,0,0,1,1.289,3.853v1.279H77.212a2.372,2.372,0,0,0,.771,1.4,2.3,2.3,0,0,0,1.543.508,2.958,2.958,0,0,0,2.441-1.094l1.5,1.777A4.2,4.2,0,0,1,81.729-.308,5.891,5.891,0,0,1,79.3.2Zm-.371-8.418q-1.445,0-1.719,1.914h3.32v-.254a1.63,1.63,0,0,0-.4-1.226A1.593,1.593,0,0,0,78.931-8.223ZM90.61-2.969a.76.76,0,0,0-.439-.674A6.685,6.685,0,0,0,88.5-4.17a7.615,7.615,0,0,1-2.031-.718,3.4,3.4,0,0,1-1.221-1.079,2.577,2.577,0,0,1-.42-1.455,2.92,2.92,0,0,1,1.2-2.4,4.948,4.948,0,0,1,3.145-.942,5.482,5.482,0,0,1,3.359.947,2.962,2.962,0,0,1,1.27,2.49H90.5q0-1.27-1.338-1.27a1.326,1.326,0,0,0-.869.288.892.892,0,0,0-.352.718.819.819,0,0,0,.43.713,4.06,4.06,0,0,0,1.372.449,11.857,11.857,0,0,1,1.655.42,3.007,3.007,0,0,1,2.383,2.939A2.767,2.767,0,0,1,92.5-.713,5.631,5.631,0,0,1,89.175.2a5.747,5.747,0,0,1-2.422-.488,4.05,4.05,0,0,1-1.66-1.328,3.007,3.007,0,0,1-.6-1.768h3.076a1.272,1.272,0,0,0,.488,1.069,2.009,2.009,0,0,0,1.2.337,1.58,1.58,0,0,0,1.011-.273A.875.875,0,0,0,90.61-2.969Zm10.244,0a.76.76,0,0,0-.439-.674,6.685,6.685,0,0,0-1.67-.527,7.615,7.615,0,0,1-2.031-.718,3.4,3.4,0,0,1-1.221-1.079,2.577,2.577,0,0,1-.42-1.455,2.92,2.92,0,0,1,1.2-2.4,4.948,4.948,0,0,1,3.145-.942,5.482,5.482,0,0,1,3.359.947,2.962,2.962,0,0,1,1.27,2.49h-3.3q0-1.27-1.338-1.27a1.326,1.326,0,0,0-.869.288.892.892,0,0,0-.352.718.819.819,0,0,0,.43.713,4.06,4.06,0,0,0,1.372.449,11.857,11.857,0,0,1,1.655.42,3.007,3.007,0,0,1,2.383,2.939,2.767,2.767,0,0,1-1.284,2.354A5.631,5.631,0,0,1,99.419.2,5.747,5.747,0,0,1,97-.293a4.05,4.05,0,0,1-1.66-1.328,3.007,3.007,0,0,1-.6-1.768h3.076a1.272,1.272,0,0,0,.488,1.069,2.009,2.009,0,0,0,1.2.337,1.58,1.58,0,0,0,1.011-.273A.875.875,0,0,0,100.854-2.969ZM-39.707,25.176V30h-3.428V15.781h5.674a6.608,6.608,0,0,1,2.886.6,4.526,4.526,0,0,1,1.943,1.709,4.667,4.667,0,0,1,.688,2.515,4.114,4.114,0,0,1-1.489,3.325,6.179,6.179,0,0,1-4.087,1.245Zm0-2.646h2.246a2.118,2.118,0,0,0,1.519-.5,1.85,1.85,0,0,0,.522-1.406,2.287,2.287,0,0,0-.537-1.592,1.9,1.9,0,0,0-1.465-.605h-2.285Zm15.83-.117-1.084-.078a1.947,1.947,0,0,0-1.992.977V30h-3.291V19.434h3.086l.107,1.357a2.548,2.548,0,0,1,2.314-1.553,3.209,3.209,0,0,1,.918.117Zm.42,2.207a6.236,6.236,0,0,1,.615-2.817,4.4,4.4,0,0,1,1.768-1.9,5.323,5.323,0,0,1,2.705-.664,4.858,4.858,0,0,1,3.74,1.47,5.64,5.64,0,0,1,1.367,4v.117a5.472,5.472,0,0,1-1.372,3.921A4.871,4.871,0,0,1-18.35,30.2a4.927,4.927,0,0,1-3.623-1.353,5.29,5.29,0,0,1-1.475-3.667Zm3.291.205a3.932,3.932,0,0,0,.459,2.148,1.529,1.529,0,0,0,1.357.684q1.758,0,1.8-2.705v-.332q0-2.842-1.816-2.842-1.65,0-1.787,2.451Zm12.188-8.018v2.627H-6.24v2.285H-7.979v4.834a1.234,1.234,0,0,0,.215.83,1.152,1.152,0,0,0,.85.234,4.828,4.828,0,0,0,.82-.059v2.354a6.074,6.074,0,0,1-1.855.283,3.448,3.448,0,0,1-2.51-.8,3.282,3.282,0,0,1-.811-2.432V21.719h-1.348V19.434h1.348V16.807Zm2.324,7.813A6.236,6.236,0,0,1-5.039,21.8a4.4,4.4,0,0,1,1.768-1.9,5.323,5.323,0,0,1,2.705-.664,4.858,4.858,0,0,1,3.74,1.47,5.64,5.64,0,0,1,1.367,4v.117a5.472,5.472,0,0,1-1.372,3.921A4.871,4.871,0,0,1-.547,30.2,4.927,4.927,0,0,1-4.17,28.843a5.29,5.29,0,0,1-1.475-3.667Zm3.291.205A3.932,3.932,0,0,0-1.9,26.973a1.529,1.529,0,0,0,1.357.684q1.758,0,1.8-2.705v-.332q0-2.842-1.816-2.842-1.65,0-1.787,2.451Zm12.822,2.832a1.464,1.464,0,0,0,1.074-.376,1.379,1.379,0,0,0,.371-1.05H14.99a3.653,3.653,0,0,1-1.245,2.852A4.631,4.631,0,0,1,10.537,30.2,4.689,4.689,0,0,1,6.9,28.75a5.7,5.7,0,0,1-1.328-4v-.137a6.436,6.436,0,0,1,.591-2.827,4.3,4.3,0,0,1,1.7-1.885,5.081,5.081,0,0,1,2.637-.659,4.573,4.573,0,0,1,3.271,1.143,4.053,4.053,0,0,1,1.211,3.1H11.9a1.807,1.807,0,0,0-.4-1.26,1.382,1.382,0,0,0-1.074-.439q-1.279,0-1.494,1.631a11.508,11.508,0,0,0-.068,1.426,4.52,4.52,0,0,0,.381,2.207A1.319,1.319,0,0,0,10.459,27.656Zm5.508-3.037a6.236,6.236,0,0,1,.615-2.817,4.4,4.4,0,0,1,1.768-1.9,5.323,5.323,0,0,1,2.705-.664,4.858,4.858,0,0,1,3.74,1.47,5.64,5.64,0,0,1,1.367,4v.117a5.472,5.472,0,0,1-1.372,3.921,4.871,4.871,0,0,1-3.716,1.45,4.927,4.927,0,0,1-3.623-1.353,5.29,5.29,0,0,1-1.475-3.667Zm3.291.205a3.932,3.932,0,0,0,.459,2.148,1.529,1.529,0,0,0,1.357.684q1.758,0,1.8-2.705v-.332q0-2.842-1.816-2.842-1.65,0-1.787,2.451ZM31.084,30h-3.3V15h3.3Zm12.2-5.508a13.925,13.925,0,0,1-.674,4.355,11.12,11.12,0,0,1-1.86,3.54,6.193,6.193,0,0,1-2.563,2.007l-.625-1.621a6.43,6.43,0,0,0,2.1-3.125,15.085,15.085,0,0,0,.771-4.854v-.6a15.612,15.612,0,0,0-.747-5.1,6.34,6.34,0,0,0-2.124-3.164l.625-1.621A6.307,6.307,0,0,1,40.728,16.3a10.984,10.984,0,0,1,1.855,3.486,13.807,13.807,0,0,1,.7,4.272Z" transform="translate(737 7809)" fill="#12263f"/>
    <path id="Trazado_105841" data-name="Trazado 105841" d="M-3816.5-4260v-28.287h432.74v283.495" transform="translate(4311 11700)" fill="none" stroke="#000" stroke-width="2"/>
    <path id="Trazado_106219" data-name="Trazado 106219" d="M12,0H287a12,12,0,0,1,12,12V63a12,12,0,0,1-12,12H12A12,12,0,0,1,0,63V12A12,12,0,0,1,12,0Z" transform="translate(778 7440)" fill="#039be5"/>
    <path id="Trazado_106220" data-name="Trazado 106220" d="M6.357-5.02H4.5V0H1.074V-14.219h5.6A6.241,6.241,0,0,1,10.625-13.1a3.807,3.807,0,0,1,1.426,3.174,4.625,4.625,0,0,1-.6,2.461A4.264,4.264,0,0,1,9.57-5.879L12.539-.146V0H8.867ZM4.5-7.666H6.67a1.949,1.949,0,0,0,1.47-.513,1.979,1.979,0,0,0,.493-1.431,2,2,0,0,0-.5-1.44,1.931,1.931,0,0,0-1.465-.522H4.5ZM19.082.2a5.432,5.432,0,0,1-3.936-1.45,5.008,5.008,0,0,1-1.5-3.774V-5.3a6.489,6.489,0,0,1,.6-2.861A4.395,4.395,0,0,1,16-10.083a5.292,5.292,0,0,1,2.734-.679A4.574,4.574,0,0,1,22.246-9.38a5.43,5.43,0,0,1,1.289,3.853v1.279H16.992a2.372,2.372,0,0,0,.771,1.4,2.3,2.3,0,0,0,1.543.508,2.958,2.958,0,0,0,2.441-1.094l1.5,1.777A4.2,4.2,0,0,1,21.509-.308,5.891,5.891,0,0,1,19.082.2Zm-.371-8.418q-1.445,0-1.719,1.914h3.32v-.254a1.63,1.63,0,0,0-.4-1.226A1.593,1.593,0,0,0,18.711-8.223Zm9.258-2.344.107,1.24a3.633,3.633,0,0,1,3.018-1.436A2.675,2.675,0,0,1,33.8-9.17,3.516,3.516,0,0,1,36.9-10.762q3.213,0,3.3,3.887V0H36.9V-6.67a2.014,2.014,0,0,0-.273-1.182,1.164,1.164,0,0,0-1-.371,1.559,1.559,0,0,0-1.455.869l.01.137V0h-3.3V-6.65a2.117,2.117,0,0,0-.264-1.2,1.161,1.161,0,0,0-1.006-.371,1.578,1.578,0,0,0-1.445.869V0H24.883V-10.566Zm13.7,5.186A6.236,6.236,0,0,1,42.285-8.2a4.4,4.4,0,0,1,1.768-1.9,5.323,5.323,0,0,1,2.705-.664,4.858,4.858,0,0,1,3.74,1.47,5.64,5.64,0,0,1,1.367,4v.117a5.472,5.472,0,0,1-1.372,3.921A4.871,4.871,0,0,1,46.777.2a4.927,4.927,0,0,1-3.623-1.353A5.29,5.29,0,0,1,41.68-4.824Zm3.291.205a3.932,3.932,0,0,0,.459,2.148,1.529,1.529,0,0,0,1.357.684q1.758,0,1.8-2.705v-.332q0-2.842-1.816-2.842-1.65,0-1.787,2.451Zm12.188-8.018v2.627h1.738v2.285H57.148v4.834a1.234,1.234,0,0,0,.215.83,1.152,1.152,0,0,0,.85.234,4.828,4.828,0,0,0,.82-.059V-.088A6.074,6.074,0,0,1,57.178.2a3.448,3.448,0,0,1-2.51-.8,3.282,3.282,0,0,1-.811-2.432V-8.281H52.51v-2.285h1.348v-2.627ZM66.133,0a3.716,3.716,0,0,1-.312-.947A3.06,3.06,0,0,1,63.281.2a3.749,3.749,0,0,1-2.539-.9A2.875,2.875,0,0,1,59.7-2.979a2.955,2.955,0,0,1,1.27-2.6,6.468,6.468,0,0,1,3.691-.879h1.016v-.557q0-1.455-1.26-1.455a1.027,1.027,0,0,0-1.172,1.152H59.951a2.955,2.955,0,0,1,1.3-2.49,5.474,5.474,0,0,1,3.325-.957,4.8,4.8,0,0,1,3.193.986,3.429,3.429,0,0,1,1.2,2.705v4.678a4.79,4.79,0,0,0,.449,2.227V0ZM64.072-2.148a1.836,1.836,0,0,0,1.021-.264,1.653,1.653,0,0,0,.581-.6V-4.7h-.957Q63-4.7,63-3.154a.942.942,0,0,0,.3.728A1.1,1.1,0,0,0,64.072-2.148Zm12.256-.82a.76.76,0,0,0-.439-.674,6.685,6.685,0,0,0-1.67-.527,7.615,7.615,0,0,1-2.031-.718,3.4,3.4,0,0,1-1.221-1.079,2.577,2.577,0,0,1-.42-1.455,2.92,2.92,0,0,1,1.2-2.4,4.948,4.948,0,0,1,3.145-.942,5.482,5.482,0,0,1,3.359.947,2.962,2.962,0,0,1,1.27,2.49h-3.3q0-1.27-1.338-1.27a1.326,1.326,0,0,0-.869.288.892.892,0,0,0-.352.718.819.819,0,0,0,.43.713,4.06,4.06,0,0,0,1.372.449,11.857,11.857,0,0,1,1.655.42A3.007,3.007,0,0,1,79.5-3.066,2.767,2.767,0,0,1,78.218-.713,5.631,5.631,0,0,1,74.893.2a5.747,5.747,0,0,1-2.422-.488,4.05,4.05,0,0,1-1.66-1.328,3.007,3.007,0,0,1-.6-1.768h3.076a1.272,1.272,0,0,0,.488,1.069,2.009,2.009,0,0,0,1.2.337,1.58,1.58,0,0,0,1.011-.273A.875.875,0,0,0,76.328-2.969Z" transform="translate(893 7485)" fill="#fff"/>
    <path id="Trazado_105842" data-name="Trazado 105842" d="M-3613.5-4347v57.755" transform="translate(4311 11700)" fill="none" stroke="#000" stroke-width="2"/>
    <path id="Trazado_105843" data-name="Trazado 105843" d="M-3816.5-4252.028v-36.258h378.161v250" transform="translate(4553 11984.287)" fill="none" stroke="#000" stroke-width="2"/>
    <path id="Trazado_106221" data-name="Trazado 106221" d="M12,0H287a12,12,0,0,1,12,12V136a12,12,0,0,1-12,12H12A12,12,0,0,1,0,136V12A12,12,0,0,1,12,0Z" transform="translate(955 7727)" fill="#9df4ff"/>
    <path id="Trazado_106222" data-name="Trazado 106222" d="M6.357-5.02H4.5V0H1.074V-14.219h5.6A6.241,6.241,0,0,1,10.625-13.1a3.807,3.807,0,0,1,1.426,3.174,4.625,4.625,0,0,1-.6,2.461A4.264,4.264,0,0,1,9.57-5.879L12.539-.146V0H8.867ZM4.5-7.666H6.67a1.949,1.949,0,0,0,1.47-.513,1.979,1.979,0,0,0,.493-1.431,2,2,0,0,0-.5-1.44,1.931,1.931,0,0,0-1.465-.522H4.5ZM22.939-6.025H17.549v3.389h6.367V0H14.121V-14.219h9.814v2.646H17.549v3h5.391Zm9.707,2.246a1.408,1.408,0,0,0-.532-1.172,6.615,6.615,0,0,0-1.87-.869,17.942,17.942,0,0,1-2.187-.869q-2.764-1.357-2.764-3.73a3.345,3.345,0,0,1,.688-2.085,4.453,4.453,0,0,1,1.948-1.406,7.582,7.582,0,0,1,2.832-.5,6.632,6.632,0,0,1,2.749.547A4.352,4.352,0,0,1,35.4-12.31,4.068,4.068,0,0,1,36.074-10H32.656a1.719,1.719,0,0,0-.532-1.348,2.075,2.075,0,0,0-1.44-.479,2.339,2.339,0,0,0-1.45.405,1.243,1.243,0,0,0-.532,1.03,1.252,1.252,0,0,0,.586.991,7.389,7.389,0,0,0,2.061.918A12.623,12.623,0,0,1,33.77-7.461a4.07,4.07,0,0,1,2.3,3.662,3.472,3.472,0,0,1-1.406,2.93A6.255,6.255,0,0,1,30.811.2a7.653,7.653,0,0,1-3.13-.62,4.719,4.719,0,0,1-2.109-1.7,4.427,4.427,0,0,1-.708-2.485H28.3a2.181,2.181,0,0,0,.591,1.685,2.793,2.793,0,0,0,1.919.542,2.206,2.206,0,0,0,1.343-.366A1.209,1.209,0,0,0,32.646-3.779Zm16.348-7.793H44.727V0H41.3V-11.572H37.109v-2.646H48.994Z" transform="translate(1078 7772)" fill="#12263f"/>
    <path id="Trazado_106223" data-name="Trazado 106223" d="M-109.746-5.781a14.924,14.924,0,0,1,.635-4.434,10.7,10.7,0,0,1,1.753-3.477,6.225,6.225,0,0,1,2.485-1.992l.625,1.621a6.367,6.367,0,0,0-2.114,3.14,15.313,15.313,0,0,0-.757,5v.43a15.612,15.612,0,0,0,.747,5.1,6.34,6.34,0,0,0,2.124,3.164l-.625,1.621a6.163,6.163,0,0,1-2.485-2,10.538,10.538,0,0,1-1.753-3.462,15,15,0,0,1-.635-4.277Zm17.227.762h-1.855V0H-97.8V-14.219h5.6A6.241,6.241,0,0,1-88.252-13.1a3.807,3.807,0,0,1,1.426,3.174,4.625,4.625,0,0,1-.6,2.461,4.264,4.264,0,0,1-1.88,1.582l2.969,5.732V0H-90.01Zm-1.855-2.646h2.168a1.949,1.949,0,0,0,1.47-.513,1.979,1.979,0,0,0,.493-1.431,2,2,0,0,0-.5-1.44,1.931,1.931,0,0,0-1.465-.522h-2.168ZM-79.795.2a5.432,5.432,0,0,1-3.936-1.45,5.008,5.008,0,0,1-1.5-3.774V-5.3a6.489,6.489,0,0,1,.6-2.861,4.395,4.395,0,0,1,1.753-1.919,5.292,5.292,0,0,1,2.734-.679A4.574,4.574,0,0,1-76.631-9.38a5.43,5.43,0,0,1,1.289,3.853v1.279h-6.543a2.372,2.372,0,0,0,.771,1.4,2.3,2.3,0,0,0,1.543.508,2.958,2.958,0,0,0,2.441-1.094l1.5,1.777A4.2,4.2,0,0,1-77.368-.308,5.891,5.891,0,0,1-79.795.2Zm-.371-8.418q-1.445,0-1.719,1.914h3.32v-.254a1.63,1.63,0,0,0-.4-1.226A1.593,1.593,0,0,0-80.166-8.223Zm15.957,3.018a6.372,6.372,0,0,1-1.108,3.931A3.554,3.554,0,0,1-68.311.2,3.046,3.046,0,0,1-70.7-.869V4.063h-3.291V-10.566h3.076l.1.977a3.046,3.046,0,0,1,2.49-1.172,3.582,3.582,0,0,1,3.037,1.44,6.45,6.45,0,0,1,1.084,3.96ZM-67.5-5.41q0-2.812-1.641-2.812a1.549,1.549,0,0,0-1.562.84v4.16a1.6,1.6,0,0,0,1.582.879q1.572,0,1.621-2.715Zm11.133-2.178-1.084-.078a1.947,1.947,0,0,0-1.992.977V0h-3.291V-10.566h3.086l.107,1.357a2.548,2.548,0,0,1,2.314-1.553,3.209,3.209,0,0,1,.918.117ZM-50.254.2a5.432,5.432,0,0,1-3.936-1.45,5.008,5.008,0,0,1-1.5-3.774V-5.3a6.489,6.489,0,0,1,.6-2.861,4.395,4.395,0,0,1,1.753-1.919,5.292,5.292,0,0,1,2.734-.679A4.574,4.574,0,0,1-47.09-9.38,5.43,5.43,0,0,1-45.8-5.527v1.279h-6.543a2.372,2.372,0,0,0,.771,1.4,2.3,2.3,0,0,0,1.543.508,2.958,2.958,0,0,0,2.441-1.094l1.5,1.777A4.2,4.2,0,0,1-47.827-.308,5.891,5.891,0,0,1-50.254.2Zm-.371-8.418q-1.445,0-1.719,1.914h3.32v-.254a1.63,1.63,0,0,0-.4-1.226A1.593,1.593,0,0,0-50.625-8.223Zm11.68,5.254a.76.76,0,0,0-.439-.674,6.685,6.685,0,0,0-1.67-.527,7.615,7.615,0,0,1-2.031-.718,3.4,3.4,0,0,1-1.221-1.079,2.577,2.577,0,0,1-.42-1.455,2.92,2.92,0,0,1,1.2-2.4,4.948,4.948,0,0,1,3.145-.942,5.482,5.482,0,0,1,3.359.947,2.962,2.962,0,0,1,1.27,2.49h-3.3q0-1.27-1.338-1.27a1.326,1.326,0,0,0-.869.288.892.892,0,0,0-.352.718.819.819,0,0,0,.43.713,4.06,4.06,0,0,0,1.372.449,11.857,11.857,0,0,1,1.655.42,3.007,3.007,0,0,1,2.383,2.939A2.767,2.767,0,0,1-37.056-.713,5.632,5.632,0,0,1-40.381.2,5.747,5.747,0,0,1-42.8-.293a4.05,4.05,0,0,1-1.66-1.328,3.007,3.007,0,0,1-.6-1.768h3.076a1.272,1.272,0,0,0,.488,1.069,2.009,2.009,0,0,0,1.2.337,1.58,1.58,0,0,0,1.011-.273A.875.875,0,0,0-38.945-2.969ZM-29.121.2a5.432,5.432,0,0,1-3.936-1.45,5.008,5.008,0,0,1-1.5-3.774V-5.3a6.489,6.489,0,0,1,.6-2.861,4.395,4.395,0,0,1,1.753-1.919,5.292,5.292,0,0,1,2.734-.679A4.574,4.574,0,0,1-25.957-9.38a5.43,5.43,0,0,1,1.289,3.853v1.279h-6.543a2.372,2.372,0,0,0,.771,1.4,2.3,2.3,0,0,0,1.543.508,2.958,2.958,0,0,0,2.441-1.094l1.5,1.777A4.2,4.2,0,0,1-26.694-.308,5.891,5.891,0,0,1-29.121.2Zm-.371-8.418q-1.445,0-1.719,1.914h3.32v-.254a1.63,1.63,0,0,0-.4-1.226A1.593,1.593,0,0,0-29.492-8.223Zm9.17-2.344.107,1.24A3.583,3.583,0,0,1-17.2-10.762a3.015,3.015,0,0,1,2.466.986,4.7,4.7,0,0,1,.845,2.969V0h-3.3V-6.67a1.783,1.783,0,0,0-.322-1.177,1.491,1.491,0,0,0-1.172-.376,1.569,1.569,0,0,0-1.436.762V0h-3.291V-10.566Zm12.09-2.627v2.627h1.738v2.285H-8.232v4.834a1.234,1.234,0,0,0,.215.83,1.152,1.152,0,0,0,.85.234,4.828,4.828,0,0,0,.82-.059V-.088A6.074,6.074,0,0,1-8.2.2a3.448,3.448,0,0,1-2.51-.8,3.282,3.282,0,0,1-.811-2.432V-8.281h-1.348v-2.285h1.348v-2.627ZM.752,0A3.716,3.716,0,0,1,.439-.947,3.06,3.06,0,0,1-2.1.2a3.749,3.749,0,0,1-2.539-.9A2.875,2.875,0,0,1-5.684-2.979a2.955,2.955,0,0,1,1.27-2.6A6.468,6.468,0,0,1-.723-6.455H.293v-.557q0-1.455-1.26-1.455A1.027,1.027,0,0,0-2.139-7.314H-5.43a2.955,2.955,0,0,1,1.3-2.49A5.474,5.474,0,0,1-.8-10.762a4.8,4.8,0,0,1,3.193.986,3.429,3.429,0,0,1,1.2,2.705v4.678A4.79,4.79,0,0,0,4.043-.166V0ZM-1.309-2.148A1.836,1.836,0,0,0-.288-2.412a1.653,1.653,0,0,0,.581-.6V-4.7H-.664q-1.719,0-1.719,1.543a.942.942,0,0,0,.3.728A1.1,1.1,0,0,0-1.309-2.148ZM9.248-13.193v2.627h1.738v2.285H9.248v4.834a1.234,1.234,0,0,0,.215.83,1.152,1.152,0,0,0,.85.234,4.828,4.828,0,0,0,.82-.059V-.088A6.074,6.074,0,0,1,9.277.2a3.448,3.448,0,0,1-2.51-.8,3.282,3.282,0,0,1-.811-2.432V-8.281H4.609v-2.285H5.957v-2.627ZM15.752,0h-3.3V-10.566h3.3Zm-3.5-13.291a1.469,1.469,0,0,1,.508-1.152,1.916,1.916,0,0,1,1.318-.449,1.916,1.916,0,0,1,1.318.449,1.469,1.469,0,0,1,.508,1.152,1.469,1.469,0,0,1-.508,1.152,1.916,1.916,0,0,1-1.318.449,1.916,1.916,0,0,1-1.318-.449A1.469,1.469,0,0,1,12.256-13.291Zm5.107,7.91A6.236,6.236,0,0,1,17.979-8.2a4.4,4.4,0,0,1,1.768-1.9,5.323,5.323,0,0,1,2.705-.664,4.858,4.858,0,0,1,3.74,1.47,5.64,5.64,0,0,1,1.367,4v.117a5.472,5.472,0,0,1-1.372,3.921A4.871,4.871,0,0,1,22.471.2a4.927,4.927,0,0,1-3.623-1.353,5.29,5.29,0,0,1-1.475-3.667Zm3.291.205a3.932,3.932,0,0,0,.459,2.148,1.529,1.529,0,0,0,1.357.684q1.758,0,1.8-2.705v-.332q0-2.842-1.816-2.842-1.65,0-1.787,2.451Zm11.377-5.391.107,1.24a3.583,3.583,0,0,1,3.018-1.436,3.015,3.015,0,0,1,2.466.986,4.7,4.7,0,0,1,.845,2.969V0h-3.3V-6.67a1.783,1.783,0,0,0-.322-1.177,1.491,1.491,0,0,0-1.172-.376,1.569,1.569,0,0,0-1.436.762V0H28.945V-10.566ZM46.24,0a3.716,3.716,0,0,1-.312-.947A3.06,3.06,0,0,1,43.389.2a3.749,3.749,0,0,1-2.539-.9A2.875,2.875,0,0,1,39.8-2.979a2.955,2.955,0,0,1,1.27-2.6,6.468,6.468,0,0,1,3.691-.879h1.016v-.557q0-1.455-1.26-1.455A1.027,1.027,0,0,0,43.35-7.314H40.059a2.955,2.955,0,0,1,1.3-2.49,5.474,5.474,0,0,1,3.325-.957,4.8,4.8,0,0,1,3.193.986,3.429,3.429,0,0,1,1.2,2.705v4.678a4.79,4.79,0,0,0,.449,2.227V0ZM44.18-2.148A1.836,1.836,0,0,0,45.2-2.412a1.653,1.653,0,0,0,.581-.6V-4.7h-.957q-1.719,0-1.719,1.543a.942.942,0,0,0,.3.728A1.1,1.1,0,0,0,44.18-2.148ZM54.375,0h-3.3V-15h3.3ZM66.914-2.969a.76.76,0,0,0-.439-.674A6.685,6.685,0,0,0,64.8-4.17a7.615,7.615,0,0,1-2.031-.718,3.4,3.4,0,0,1-1.221-1.079,2.577,2.577,0,0,1-.42-1.455,2.92,2.92,0,0,1,1.2-2.4,4.948,4.948,0,0,1,3.145-.942,5.482,5.482,0,0,1,3.359.947,2.962,2.962,0,0,1,1.27,2.49h-3.3q0-1.27-1.338-1.27a1.326,1.326,0,0,0-.869.288.892.892,0,0,0-.352.718.819.819,0,0,0,.43.713,4.06,4.06,0,0,0,1.372.449,11.857,11.857,0,0,1,1.655.42,3.007,3.007,0,0,1,2.383,2.939A2.767,2.767,0,0,1,68.8-.713,5.631,5.631,0,0,1,65.479.2a5.747,5.747,0,0,1-2.422-.488A4.05,4.05,0,0,1,61.4-1.621a3.007,3.007,0,0,1-.6-1.768h3.076a1.272,1.272,0,0,0,.488,1.069,2.009,2.009,0,0,0,1.2.337,1.58,1.58,0,0,0,1.011-.273A.875.875,0,0,0,66.914-2.969Zm8.545-10.225v2.627H77.2v2.285H75.459v4.834a1.234,1.234,0,0,0,.215.83,1.152,1.152,0,0,0,.85.234,4.828,4.828,0,0,0,.82-.059V-.088A6.074,6.074,0,0,1,75.488.2a3.448,3.448,0,0,1-2.51-.8,3.282,3.282,0,0,1-.811-2.432V-8.281H70.82v-2.285h1.348v-2.627ZM84.443,0a3.716,3.716,0,0,1-.312-.947A3.06,3.06,0,0,1,81.592.2a3.749,3.749,0,0,1-2.539-.9,2.875,2.875,0,0,1-1.045-2.271,2.955,2.955,0,0,1,1.27-2.6,6.468,6.468,0,0,1,3.691-.879h1.016v-.557q0-1.455-1.26-1.455a1.027,1.027,0,0,0-1.172,1.152H78.262a2.955,2.955,0,0,1,1.3-2.49,5.474,5.474,0,0,1,3.325-.957,4.8,4.8,0,0,1,3.193.986,3.429,3.429,0,0,1,1.2,2.705v4.678a4.79,4.79,0,0,0,.449,2.227V0ZM82.383-2.148A1.836,1.836,0,0,0,83.4-2.412a1.653,1.653,0,0,0,.581-.6V-4.7h-.957q-1.719,0-1.719,1.543a.942.942,0,0,0,.3.728A1.1,1.1,0,0,0,82.383-2.148ZM92.939-13.193v2.627h1.738v2.285H92.939v4.834a1.234,1.234,0,0,0,.215.83,1.152,1.152,0,0,0,.85.234,4.828,4.828,0,0,0,.82-.059V-.088A6.074,6.074,0,0,1,92.969.2a3.448,3.448,0,0,1-2.51-.8,3.282,3.282,0,0,1-.811-2.432V-8.281H88.3v-2.285h1.348v-2.627ZM101.084.2a5.432,5.432,0,0,1-3.936-1.45,5.008,5.008,0,0,1-1.5-3.774V-5.3a6.489,6.489,0,0,1,.6-2.861A4.395,4.395,0,0,1,98-10.083a5.292,5.292,0,0,1,2.734-.679,4.574,4.574,0,0,1,3.516,1.382,5.43,5.43,0,0,1,1.289,3.853v1.279H98.994a2.372,2.372,0,0,0,.771,1.4,2.3,2.3,0,0,0,1.543.508,2.958,2.958,0,0,0,2.441-1.094l1.5,1.777a4.2,4.2,0,0,1-1.743,1.353A5.891,5.891,0,0,1,101.084.2Zm-.371-8.418q-1.445,0-1.719,1.914h3.32v-.254a1.63,1.63,0,0,0-.4-1.226A1.593,1.593,0,0,0,100.713-8.223ZM-34.648,16.807v2.627h1.738v2.285h-1.738v4.834a1.234,1.234,0,0,0,.215.83,1.152,1.152,0,0,0,.85.234,4.828,4.828,0,0,0,.82-.059v2.354a6.074,6.074,0,0,1-1.855.283,3.448,3.448,0,0,1-2.51-.8,3.282,3.282,0,0,1-.811-2.432V21.719h-1.348V19.434h1.348V16.807Zm9.424,5.605-1.084-.078a1.947,1.947,0,0,0-1.992.977V30h-3.291V19.434h3.086l.107,1.357a2.548,2.548,0,0,1,2.314-1.553,3.209,3.209,0,0,1,.918.117ZM-18.379,30a3.716,3.716,0,0,1-.312-.947A3.06,3.06,0,0,1-21.23,30.2a3.749,3.749,0,0,1-2.539-.9,2.875,2.875,0,0,1-1.045-2.271,2.955,2.955,0,0,1,1.27-2.6,6.468,6.468,0,0,1,3.691-.879h1.016v-.557q0-1.455-1.26-1.455a1.027,1.027,0,0,0-1.172,1.152h-3.291a2.955,2.955,0,0,1,1.3-2.49,5.474,5.474,0,0,1,3.325-.957,4.8,4.8,0,0,1,3.193.986,3.429,3.429,0,0,1,1.2,2.705v4.678a4.79,4.79,0,0,0,.449,2.227V30Zm-2.061-2.148a1.836,1.836,0,0,0,1.021-.264,1.653,1.653,0,0,0,.581-.6V25.3h-.957q-1.719,0-1.719,1.543a.942.942,0,0,0,.3.728A1.1,1.1,0,0,0-20.439,27.852Zm9.746-8.418.107,1.24a3.583,3.583,0,0,1,3.018-1.436,3.015,3.015,0,0,1,2.466.986,4.7,4.7,0,0,1,.845,2.969V30h-3.3V23.33a1.783,1.783,0,0,0-.322-1.177,1.491,1.491,0,0,0-1.172-.376,1.569,1.569,0,0,0-1.436.762V30h-3.291V19.434ZM3.1,27.031a.76.76,0,0,0-.439-.674,6.684,6.684,0,0,0-1.67-.527,7.615,7.615,0,0,1-2.031-.718,3.4,3.4,0,0,1-1.221-1.079,2.577,2.577,0,0,1-.42-1.455,2.92,2.92,0,0,1,1.2-2.4,4.948,4.948,0,0,1,3.145-.942,5.482,5.482,0,0,1,3.359.947,2.962,2.962,0,0,1,1.27,2.49h-3.3q0-1.27-1.338-1.27a1.326,1.326,0,0,0-.869.288.892.892,0,0,0-.352.718.819.819,0,0,0,.43.713,4.06,4.06,0,0,0,1.372.449,11.857,11.857,0,0,1,1.655.42A3.007,3.007,0,0,1,6.27,26.934a2.767,2.767,0,0,1-1.284,2.354A5.631,5.631,0,0,1,1.66,30.2a5.747,5.747,0,0,1-2.422-.488,4.05,4.05,0,0,1-1.66-1.328,3.007,3.007,0,0,1-.6-1.768H.059a1.272,1.272,0,0,0,.488,1.069,2.009,2.009,0,0,0,1.2.337,1.58,1.58,0,0,0,1.011-.273A.875.875,0,0,0,3.1,27.031ZM8.535,30V21.719H7V19.434H8.535v-.84a3.651,3.651,0,0,1,1.064-2.8,4.206,4.206,0,0,1,2.988-1A6.544,6.544,0,0,1,14.131,15l.01,2.422a3.007,3.007,0,0,0-.811-.088q-1.494,0-1.494,1.289v.811H13.9v2.285H11.836V30Zm11.4.2A5.432,5.432,0,0,1,16,28.745a5.008,5.008,0,0,1-1.5-3.774V24.7a6.489,6.489,0,0,1,.6-2.861,4.395,4.395,0,0,1,1.753-1.919,5.292,5.292,0,0,1,2.734-.679A4.574,4.574,0,0,1,23.1,20.62a5.43,5.43,0,0,1,1.289,3.853v1.279H17.842a2.372,2.372,0,0,0,.771,1.4,2.3,2.3,0,0,0,1.543.508A2.958,2.958,0,0,0,22.6,26.563l1.5,1.777a4.2,4.2,0,0,1-1.743,1.353A5.891,5.891,0,0,1,19.932,30.2Zm-.371-8.418q-1.445,0-1.719,1.914h3.32v-.254a1.63,1.63,0,0,0-.4-1.226A1.593,1.593,0,0,0,19.561,21.777Zm12.539.635-1.084-.078a1.947,1.947,0,0,0-1.992.977V30H25.732V19.434h3.086l.107,1.357a2.548,2.548,0,0,1,2.314-1.553,3.209,3.209,0,0,1,.918.117Zm6.377,2.08a13.925,13.925,0,0,1-.674,4.355,11.12,11.12,0,0,1-1.86,3.54,6.193,6.193,0,0,1-2.563,2.007l-.625-1.621a6.43,6.43,0,0,0,2.1-3.125,15.085,15.085,0,0,0,.771-4.854v-.6a15.612,15.612,0,0,0-.747-5.1,6.34,6.34,0,0,0-2.124-3.164l.625-1.621A6.307,6.307,0,0,1,35.923,16.3a10.984,10.984,0,0,1,1.855,3.486,13.807,13.807,0,0,1,.7,4.272Z" transform="translate(1105 7809)" fill="#12263f"/>
    <path id="Trazado_106224" data-name="Trazado 106224" d="M12,0H287a12,12,0,0,1,12,12V63a12,12,0,0,1-12,12H12A12,12,0,0,1,0,63V12A12,12,0,0,1,12,0Z" transform="translate(956 7916)" fill="#9df4ff"/>
    <path id="Trazado_106225" data-name="Trazado 106225" d="M6.357-5.02H4.5V0H1.074V-14.219h5.6A6.241,6.241,0,0,1,10.625-13.1a3.807,3.807,0,0,1,1.426,3.174,4.625,4.625,0,0,1-.6,2.461A4.264,4.264,0,0,1,9.57-5.879L12.539-.146V0H8.867ZM4.5-7.666H6.67a1.949,1.949,0,0,0,1.47-.513,1.979,1.979,0,0,0,.493-1.431,2,2,0,0,0-.5-1.44,1.931,1.931,0,0,0-1.465-.522H4.5ZM19.082.2a5.432,5.432,0,0,1-3.936-1.45,5.008,5.008,0,0,1-1.5-3.774V-5.3a6.489,6.489,0,0,1,.6-2.861A4.395,4.395,0,0,1,16-10.083a5.292,5.292,0,0,1,2.734-.679A4.574,4.574,0,0,1,22.246-9.38a5.43,5.43,0,0,1,1.289,3.853v1.279H16.992a2.372,2.372,0,0,0,.771,1.4,2.3,2.3,0,0,0,1.543.508,2.958,2.958,0,0,0,2.441-1.094l1.5,1.777A4.2,4.2,0,0,1,21.509-.308,5.891,5.891,0,0,1,19.082.2Zm-.371-8.418q-1.445,0-1.719,1.914h3.32v-.254a1.63,1.63,0,0,0-.4-1.226A1.593,1.593,0,0,0,18.711-8.223Zm11.68,5.254a.76.76,0,0,0-.439-.674,6.685,6.685,0,0,0-1.67-.527,7.615,7.615,0,0,1-2.031-.718,3.4,3.4,0,0,1-1.221-1.079,2.577,2.577,0,0,1-.42-1.455,2.92,2.92,0,0,1,1.2-2.4,4.948,4.948,0,0,1,3.145-.942,5.482,5.482,0,0,1,3.359.947,2.962,2.962,0,0,1,1.27,2.49h-3.3q0-1.27-1.338-1.27a1.326,1.326,0,0,0-.869.288.892.892,0,0,0-.352.718.819.819,0,0,0,.43.713,4.06,4.06,0,0,0,1.372.449,11.857,11.857,0,0,1,1.655.42,3.007,3.007,0,0,1,2.383,2.939A2.767,2.767,0,0,1,32.28-.713,5.631,5.631,0,0,1,28.955.2a5.747,5.747,0,0,1-2.422-.488,4.05,4.05,0,0,1-1.66-1.328,3.007,3.007,0,0,1-.6-1.768h3.076a1.272,1.272,0,0,0,.488,1.069,2.009,2.009,0,0,0,1.2.337,1.58,1.58,0,0,0,1.011-.273A.875.875,0,0,0,30.391-2.969ZM35.83,0V-8.281H34.3v-2.285H35.83v-.84a3.651,3.651,0,0,1,1.064-2.8,4.206,4.206,0,0,1,2.988-1A6.544,6.544,0,0,1,41.426-15l.01,2.422a3.007,3.007,0,0,0-.811-.088q-1.494,0-1.494,1.289v.811h2.061v2.285H39.131V0ZM48.643-1.143A3.393,3.393,0,0,1,45.82.2,3.328,3.328,0,0,1,43.188-.815a4.251,4.251,0,0,1-.894-2.905v-6.846h3.291V-3.7A1.183,1.183,0,0,0,46.9-2.344a1.72,1.72,0,0,0,1.611-.811v-7.412h3.311V0H48.74ZM57.1,0H53.8V-15h3.3Z" transform="translate(1077 7961)" fill="#12263f"/>
    <path id="Trazado_106226" data-name="Trazado 106226" d="M12,0H287a12,12,0,0,1,12,12V63a12,12,0,0,1-12,12H12A12,12,0,0,1,0,63V12A12,12,0,0,1,12,0Z" transform="translate(778 7568)" fill="#4dd0e1"/>
    <path id="Trazado_106227" data-name="Trazado 106227" d="M8.408-3.779a1.408,1.408,0,0,0-.532-1.172,6.615,6.615,0,0,0-1.87-.869,17.942,17.942,0,0,1-2.187-.869Q1.055-8.047,1.055-10.42A3.345,3.345,0,0,1,1.743-12.5a4.453,4.453,0,0,1,1.948-1.406,7.582,7.582,0,0,1,2.832-.5,6.632,6.632,0,0,1,2.749.547,4.352,4.352,0,0,1,1.89,1.558A4.068,4.068,0,0,1,11.836-10H8.418a1.719,1.719,0,0,0-.532-1.348,2.075,2.075,0,0,0-1.44-.479A2.339,2.339,0,0,0,5-11.421a1.243,1.243,0,0,0-.532,1.03,1.252,1.252,0,0,0,.586.991,7.389,7.389,0,0,0,2.061.918A12.623,12.623,0,0,1,9.531-7.461a4.07,4.07,0,0,1,2.3,3.662A3.472,3.472,0,0,1,10.43-.869,6.255,6.255,0,0,1,6.572.2a7.653,7.653,0,0,1-3.13-.62,4.719,4.719,0,0,1-2.109-1.7A4.428,4.428,0,0,1,.625-4.609H4.063a2.181,2.181,0,0,0,.591,1.685,2.793,2.793,0,0,0,1.919.542,2.206,2.206,0,0,0,1.343-.366A1.209,1.209,0,0,0,8.408-3.779ZM18.555.2a5.432,5.432,0,0,1-3.936-1.45,5.008,5.008,0,0,1-1.5-3.774V-5.3a6.489,6.489,0,0,1,.6-2.861,4.395,4.395,0,0,1,1.753-1.919,5.292,5.292,0,0,1,2.734-.679A4.574,4.574,0,0,1,21.719-9.38a5.43,5.43,0,0,1,1.289,3.853v1.279H16.465a2.372,2.372,0,0,0,.771,1.4,2.3,2.3,0,0,0,1.543.508,2.958,2.958,0,0,0,2.441-1.094l1.5,1.777A4.2,4.2,0,0,1,20.981-.308,5.891,5.891,0,0,1,18.555.2Zm-.371-8.418q-1.445,0-1.719,1.914h3.32v-.254a1.63,1.63,0,0,0-.4-1.226A1.593,1.593,0,0,0,18.184-8.223Zm12.539.635-1.084-.078a1.947,1.947,0,0,0-1.992.977V0H24.355V-10.566h3.086l.107,1.357a2.548,2.548,0,0,1,2.314-1.553,3.209,3.209,0,0,1,.918.117ZM36.3-3.916l1.67-6.65h3.467L37.988,0H34.629L31.182-10.566h3.477ZM45.889,0h-3.3V-10.566h3.3Zm-3.5-13.291a1.469,1.469,0,0,1,.508-1.152,1.916,1.916,0,0,1,1.318-.449,1.916,1.916,0,0,1,1.318.449,1.469,1.469,0,0,1,.508,1.152,1.469,1.469,0,0,1-.508,1.152,1.916,1.916,0,0,1-1.318.449,1.916,1.916,0,0,1-1.318-.449A1.469,1.469,0,0,1,42.393-13.291Zm9.99,10.947a1.464,1.464,0,0,0,1.074-.376,1.379,1.379,0,0,0,.371-1.05h3.086A3.653,3.653,0,0,1,55.669-.918,4.631,4.631,0,0,1,52.461.2,4.689,4.689,0,0,1,48.828-1.25a5.7,5.7,0,0,1-1.328-4v-.137a6.436,6.436,0,0,1,.591-2.827,4.3,4.3,0,0,1,1.7-1.885,5.081,5.081,0,0,1,2.637-.659A4.573,4.573,0,0,1,55.7-9.619a4.053,4.053,0,0,1,1.211,3.1H53.828a1.807,1.807,0,0,0-.4-1.26,1.382,1.382,0,0,0-1.074-.439q-1.279,0-1.494,1.631a11.507,11.507,0,0,0-.068,1.426,4.52,4.52,0,0,0,.381,2.207A1.319,1.319,0,0,0,52.383-2.344ZM61.777,0h-3.3V-10.566h3.3Zm-3.5-13.291a1.469,1.469,0,0,1,.508-1.152,1.916,1.916,0,0,1,1.318-.449,1.916,1.916,0,0,1,1.318.449,1.469,1.469,0,0,1,.508,1.152,1.469,1.469,0,0,1-.508,1.152,1.916,1.916,0,0,1-1.318.449,1.916,1.916,0,0,1-1.318-.449A1.469,1.469,0,0,1,58.281-13.291Zm5.107,7.91A6.236,6.236,0,0,1,64-8.2a4.4,4.4,0,0,1,1.768-1.9,5.323,5.323,0,0,1,2.705-.664,4.858,4.858,0,0,1,3.74,1.47,5.64,5.64,0,0,1,1.367,4v.117a5.472,5.472,0,0,1-1.372,3.921A4.871,4.871,0,0,1,68.5.2a4.927,4.927,0,0,1-3.623-1.353A5.29,5.29,0,0,1,63.4-4.824Zm3.291.205a3.932,3.932,0,0,0,.459,2.148,1.529,1.529,0,0,0,1.357.684q1.758,0,1.8-2.705v-.332q0-2.842-1.816-2.842-1.65,0-1.787,2.451ZM80.566-2.969a.76.76,0,0,0-.439-.674,6.685,6.685,0,0,0-1.67-.527,7.615,7.615,0,0,1-2.031-.718,3.4,3.4,0,0,1-1.221-1.079,2.577,2.577,0,0,1-.42-1.455,2.92,2.92,0,0,1,1.2-2.4,4.948,4.948,0,0,1,3.145-.942,5.482,5.482,0,0,1,3.359.947,2.962,2.962,0,0,1,1.27,2.49h-3.3q0-1.27-1.338-1.27a1.326,1.326,0,0,0-.869.288.892.892,0,0,0-.352.718.819.819,0,0,0,.43.713,4.06,4.06,0,0,0,1.372.449,11.857,11.857,0,0,1,1.655.42A3.007,3.007,0,0,1,83.74-3.066,2.767,2.767,0,0,1,82.456-.713,5.631,5.631,0,0,1,79.131.2a5.747,5.747,0,0,1-2.422-.488,4.05,4.05,0,0,1-1.66-1.328,3.007,3.007,0,0,1-.6-1.768h3.076a1.272,1.272,0,0,0,.488,1.069,2.009,2.009,0,0,0,1.2.337,1.58,1.58,0,0,0,1.011-.273A.875.875,0,0,0,80.566-2.969ZM101.426-5.3l1.631-8.916h3.4L103.438,0H99.883l-1.9-8.105L96.113,0H92.568L89.541-14.219h3.408L94.58-5.3l1.953-8.916h2.91ZM112.451.2a5.432,5.432,0,0,1-3.936-1.45,5.008,5.008,0,0,1-1.5-3.774V-5.3a6.489,6.489,0,0,1,.6-2.861,4.395,4.395,0,0,1,1.753-1.919,5.292,5.292,0,0,1,2.734-.679,4.574,4.574,0,0,1,3.516,1.382A5.43,5.43,0,0,1,116.9-5.527v1.279h-6.543a2.372,2.372,0,0,0,.771,1.4,2.3,2.3,0,0,0,1.543.508,2.958,2.958,0,0,0,2.441-1.094l1.5,1.777a4.2,4.2,0,0,1-1.743,1.353A5.891,5.891,0,0,1,112.451.2Zm-.371-8.418q-1.445,0-1.719,1.914h3.32v-.254a1.63,1.63,0,0,0-.4-1.226A1.593,1.593,0,0,0,112.08-8.223ZM128.037-5.2A6.44,6.44,0,0,1,126.963-1.2,3.6,3.6,0,0,1,123.936.2a3.122,3.122,0,0,1-2.6-1.279L121.2,0h-2.949V-15h3.291v5.283a3.013,3.013,0,0,1,2.373-1.045,3.6,3.6,0,0,1,3.047,1.416,6.473,6.473,0,0,1,1.074,3.984Zm-3.3-.205a4.309,4.309,0,0,0-.405-2.173,1.365,1.365,0,0,0-1.245-.649,1.575,1.575,0,0,0-1.543.85v4.2a1.584,1.584,0,0,0,1.563.84,1.4,1.4,0,0,0,1.475-1.133A8.148,8.148,0,0,0,124.736-5.4Z" transform="translate(863 7613)" fill="#12263f"/>
  </g>
</svg>
