<svg xmlns="http://www.w3.org/2000/svg" xmlns:xlink="http://www.w3.org/1999/xlink" width="396" height="282.98" viewBox="0 0 396 282.98">
  <defs>
    <linearGradient id="linear-gradient" x1="1" y1="0.5" x2="0" y2="0.5" gradientUnits="objectBoundingBox">
      <stop offset="0" stop-color="#ffae70"/>
      <stop offset="1" stop-color="#ffd970"/>
    </linearGradient>
  </defs>
  <g id="Grupo_92476" data-name="Grupo 92476" transform="translate(0 0)">
    <path id="Trazado_105815" data-name="Trazado 105815" d="M1596.443,47.7l23.119,13.992-19.415,18.8-1.136-10.058a39.287,39.287,0,1,0,43.448,34.629l12.673-1.431a52.04,52.04,0,1,1-57.552-45.871Z" transform="translate(-1507.624 -47.699)" fill="#ffca28"/>
    <g id="Grupo_92401" data-name="Grupo 92401" transform="translate(108.551 16.903)">
      <path id="Trazado_105816" data-name="Trazado 105816" d="M360.128,403.193a124.562,124.562,0,1,0-48.625-9.822A124.137,124.137,0,0,0,360.128,403.193Zm0-223.282a98.371,98.371,0,1,1-98.371,98.371A98.482,98.482,0,0,1,360.128,179.911Z" transform="translate(-235.217 -153.37)" fill="#ffca28"/>
    </g>
    <g id="Grupo_92402" data-name="Grupo 92402" transform="translate(34.955 240.186)">
      <path id="Trazado_105817" data-name="Trazado 105817" d="M1830.662,1549.215v26.539h68.208a225.035,225.035,0,0,1-11.077-26.539Z" transform="translate(-1830.662 -1549.215)" fill="#4dd0e1"/>
      <path id="Trazado_105818" data-name="Trazado 105818" d="M602.03,1549.215a225.076,225.076,0,0,0,11.077,26.539H809.642v-26.539Z" transform="translate(-544.899 -1549.215)" fill="#4dd0e1"/>
    </g>
    <path id="Trazado_105819" data-name="Trazado 105819" d="M2235.081,1475.609l38.471-29.656v59.312Z" transform="translate(-2235.081 -1222.285)" fill="#4dd0e1"/>
    <g id="Grupo_92403" data-name="Grupo 92403" transform="translate(233.464 240.184)">
      <rect id="Rectángulo_31933" data-name="Rectángulo 31933" width="162.536" height="26.542" fill="#4dd0e1"/>
    </g>
    <g id="Grupo_92404" data-name="Grupo 92404" transform="translate(272.244 98.365)">
      <rect id="Rectángulo_31934" data-name="Rectángulo 31934" width="30.596" height="3.133" transform="translate(0)" fill="#e0e0e0"/>
    </g>
    <g id="Grupo_92405" data-name="Grupo 92405" transform="translate(241.591 121.954)">
      <rect id="Rectángulo_31935" data-name="Rectángulo 31935" width="22.09" height="3.133" transform="translate(0)" fill="#e0e0e0"/>
    </g>
    <g id="Grupo_92406" data-name="Grupo 92406" transform="translate(223.491 121.954)">
      <rect id="Rectángulo_31936" data-name="Rectángulo 31936" width="14.659" height="3.133" fill="#1487e3"/>
    </g>
    <g id="Grupo_92407" data-name="Grupo 92407" transform="translate(193.541 216.659)">
      <rect id="Rectángulo_31937" data-name="Rectángulo 31937" width="14.659" height="3.133" fill="#1487e3"/>
    </g>
    <g id="Grupo_92408" data-name="Grupo 92408" transform="translate(287.833 181.275)">
      <rect id="Rectángulo_31938" data-name="Rectángulo 31938" width="14.659" height="3.133" transform="translate(0)" fill="#1487e3"/>
    </g>
    <g id="Grupo_92409" data-name="Grupo 92409" transform="translate(185.202 121.954)">
      <rect id="Rectángulo_31939" data-name="Rectángulo 31939" width="35.393" height="3.133" transform="translate(0)" fill="#e0e0e0"/>
    </g>
    <g id="Grupo_92410" data-name="Grupo 92410" transform="translate(279.75 169.394)">
      <rect id="Rectángulo_31940" data-name="Rectángulo 31940" width="22.743" height="3.133" transform="translate(0)" fill="#e0e0e0"/>
    </g>
    <g id="Grupo_92411" data-name="Grupo 92411" transform="translate(218.641 193.07)">
      <rect id="Rectángulo_31941" data-name="Rectángulo 31941" width="22.743" height="3.133" transform="translate(0)" fill="#e0e0e0"/>
    </g>
    <g id="Grupo_92412" data-name="Grupo 92412" transform="translate(256.907 193.07)">
      <rect id="Rectángulo_31942" data-name="Rectángulo 31942" width="13.884" height="3.133" transform="translate(0)" fill="#e0e0e0"/>
    </g>
    <g id="Grupo_92413" data-name="Grupo 92413" transform="translate(274.985 193.07)">
      <rect id="Rectángulo_31943" data-name="Rectángulo 31943" width="27.507" height="3.133" transform="translate(0)" fill="#1487e3"/>
    </g>
    <g id="Grupo_92414" data-name="Grupo 92414" transform="translate(287.32 204.865)">
      <rect id="Rectángulo_31944" data-name="Rectángulo 31944" width="15.172" height="3.133" transform="translate(0)" fill="#e0e0e0"/>
    </g>
    <g id="Grupo_92415" data-name="Grupo 92415" transform="translate(244.572 98.365)">
      <rect id="Rectángulo_31945" data-name="Rectángulo 31945" width="21.72" height="3.133" transform="translate(0)" fill="#78c2ff"/>
    </g>
    <g id="Grupo_92416" data-name="Grupo 92416" transform="translate(244.572 133.749)">
      <rect id="Rectángulo_31946" data-name="Rectángulo 31946" width="21.72" height="3.133" transform="translate(0 0)" fill="#1487e3"/>
    </g>
    <g id="Grupo_92417" data-name="Grupo 92417" transform="translate(267.871 145.543)">
      <rect id="Rectángulo_31947" data-name="Rectángulo 31947" width="9.28" height="3.133" transform="translate(0)" fill="#e0e0e0"/>
    </g>
    <g id="Grupo_92418" data-name="Grupo 92418" transform="translate(265.587 157.512)">
      <rect id="Rectángulo_31948" data-name="Rectángulo 31948" width="20.845" height="3.133" transform="translate(0)" fill="#78c2ff"/>
    </g>
    <g id="Grupo_92419" data-name="Grupo 92419" transform="translate(233.66 157.512)">
      <rect id="Rectángulo_31949" data-name="Rectángulo 31949" width="28.776" height="3.133" transform="translate(0)" fill="#1487e3"/>
    </g>
    <g id="Grupo_92420" data-name="Grupo 92420" transform="translate(280.772 145.631)">
      <rect id="Rectángulo_31950" data-name="Rectángulo 31950" width="21.72" height="3.133" transform="translate(0 0)" fill="#1487e3"/>
    </g>
    <g id="Grupo_92421" data-name="Grupo 92421" transform="translate(289.605 157.512)">
      <rect id="Rectángulo_31951" data-name="Rectángulo 31951" width="12.888" height="3.133" transform="translate(0)" fill="#1487e3"/>
    </g>
    <g id="Grupo_92422" data-name="Grupo 92422" transform="translate(251.337 145.631)">
      <rect id="Rectángulo_31952" data-name="Rectángulo 31952" width="12.159" height="3.133" transform="translate(0 0)" fill="#ff8761"/>
    </g>
    <g id="Grupo_92423" data-name="Grupo 92423" transform="translate(289.969 216.659)">
      <rect id="Rectángulo_31953" data-name="Rectángulo 31953" width="12.159" height="3.133" transform="translate(0)" fill="#ff8761"/>
    </g>
    <g id="Grupo_92424" data-name="Grupo 92424" transform="translate(280.859 121.954)">
      <rect id="Rectángulo_31954" data-name="Rectángulo 31954" width="21.72" height="3.133" transform="translate(0)" fill="#78c2ff"/>
    </g>
    <g id="Grupo_92425" data-name="Grupo 92425" transform="translate(261.652 181.275)">
      <rect id="Rectángulo_31955" data-name="Rectángulo 31955" width="21.72" height="3.133" fill="#78c2ff"/>
    </g>
    <g id="Grupo_92426" data-name="Grupo 92426" transform="translate(261.384 204.865)">
      <rect id="Rectángulo_31956" data-name="Rectángulo 31956" width="21.72" height="3.133" transform="translate(0)" fill="#78c2ff"/>
    </g>
    <g id="Grupo_92427" data-name="Grupo 92427" transform="translate(222.8 204.865)">
      <rect id="Rectángulo_31957" data-name="Rectángulo 31957" width="21.72" height="3.133" transform="translate(0)" fill="#78c2ff"/>
    </g>
    <g id="Grupo_92428" data-name="Grupo 92428" transform="translate(271.617 133.749)">
      <rect id="Rectángulo_31958" data-name="Rectángulo 31958" width="30.962" height="3.133" transform="translate(0 0)" fill="#78c2ff"/>
    </g>
    <g id="Grupo_92429" data-name="Grupo 92429" transform="translate(213.146 216.659)">
      <rect id="Rectángulo_31959" data-name="Rectángulo 31959" width="21.72" height="3.133" transform="translate(0)" fill="#78c2ff"/>
    </g>
    <g id="Grupo_92430" data-name="Grupo 92430" transform="translate(211.052 98.365)">
      <rect id="Rectángulo_31960" data-name="Rectángulo 31960" width="27.672" height="3.133" fill="#1487e3"/>
    </g>
    <g id="Grupo_92431" data-name="Grupo 92431" transform="translate(257.707 216.659)">
      <rect id="Rectángulo_31961" data-name="Rectángulo 31961" width="27.672" height="3.133" transform="translate(0)" fill="#1487e3"/>
    </g>
    <g id="Grupo_92432" data-name="Grupo 92432" transform="translate(161.217 216.659)">
      <rect id="Rectángulo_31962" data-name="Rectángulo 31962" width="27.672" height="3.133" fill="#1487e3"/>
    </g>
    <g id="Grupo_92433" data-name="Grupo 92433" transform="translate(165.476 193.07)">
      <rect id="Rectángulo_31963" data-name="Rectángulo 31963" width="27.672" height="3.133" fill="#1487e3"/>
    </g>
    <g id="Grupo_92434" data-name="Grupo 92434" transform="translate(173.199 133.749)">
      <rect id="Rectángulo_31964" data-name="Rectángulo 31964" width="27.672" height="3.133" transform="translate(0 0)" fill="#1487e3"/>
    </g>
    <g id="Grupo_92435" data-name="Grupo 92435" transform="translate(246.595 193.07)">
      <rect id="Rectángulo_31965" data-name="Rectángulo 31965" width="5.965" height="3.133" transform="translate(0)" fill="#ff8761"/>
    </g>
    <g id="Grupo_92436" data-name="Grupo 92436" transform="translate(162.913 98.365)">
      <rect id="Rectángulo_31966" data-name="Rectángulo 31966" width="27.672" height="3.133" fill="#ff8761"/>
    </g>
    <g id="Grupo_92437" data-name="Grupo 92437" transform="translate(205.935 133.749)">
      <rect id="Rectángulo_31967" data-name="Rectángulo 31967" width="16.225" height="3.133" transform="translate(0 0)" fill="#ff8761"/>
    </g>
    <g id="Grupo_92438" data-name="Grupo 92438" transform="translate(218.641 181.449)">
      <rect id="Rectángulo_31968" data-name="Rectángulo 31968" width="16.225" height="3.133" transform="translate(0 0)" fill="#ff8761"/>
    </g>
    <g id="Grupo_92439" data-name="Grupo 92439" transform="translate(195.807 98.365)">
      <rect id="Rectángulo_31969" data-name="Rectángulo 31969" width="10.129" height="3.133" transform="translate(0)" fill="#e0e0e0"/>
    </g>
    <g id="Grupo_92440" data-name="Grupo 92440" transform="translate(228.595 133.749)">
      <rect id="Rectángulo_31970" data-name="Rectángulo 31970" width="10.129" height="3.133" transform="translate(0 0)" fill="#e0e0e0"/>
    </g>
    <g id="Grupo_92441" data-name="Grupo 92441" transform="translate(286.993 110.16)">
      <rect id="Rectángulo_31971" data-name="Rectángulo 31971" width="15.846" height="3.133" transform="translate(0 0)" fill="#1487e3"/>
    </g>
    <g id="Grupo_92442" data-name="Grupo 92442" transform="translate(248.048 169.481)">
      <rect id="Rectángulo_31972" data-name="Rectángulo 31972" width="12.511" height="3.133" transform="translate(0 0)" fill="#1487e3"/>
    </g>
    <g id="Grupo_92443" data-name="Grupo 92443" transform="translate(277.987 110.16)">
      <rect id="Rectángulo_31973" data-name="Rectángulo 31973" width="5.117" height="3.133" transform="translate(0 0)" fill="#1487e3"/>
    </g>
    <g id="Grupo_92444" data-name="Grupo 92444" transform="translate(176.349 204.865)">
      <rect id="Rectángulo_31974" data-name="Rectángulo 31974" width="42.291" height="3.133" fill="#e0e0e0"/>
    </g>
    <g id="Grupo_92445" data-name="Grupo 92445" transform="translate(269.007 110.16)">
      <rect id="Rectángulo_31975" data-name="Rectángulo 31975" width="5.221" height="3.133" transform="translate(0 0)" fill="#ff8761"/>
    </g>
    <g id="Grupo_92446" data-name="Grupo 92446" transform="translate(181.971 110.16)">
      <rect id="Rectángulo_31976" data-name="Rectángulo 31976" width="13.836" height="3.133" transform="translate(0 0)" fill="#1487e3"/>
    </g>
    <g id="Grupo_92447" data-name="Grupo 92447" transform="translate(168.135 121.954)">
      <rect id="Rectángulo_31977" data-name="Rectángulo 31977" width="13.836" height="3.133" transform="translate(0)" fill="#ff8761"/>
    </g>
    <g id="Grupo_92448" data-name="Grupo 92448" transform="translate(199.017 193.07)">
      <rect id="Rectángulo_31978" data-name="Rectángulo 31978" width="13.836" height="3.133" fill="#ff8761"/>
    </g>
    <g id="Grupo_92449" data-name="Grupo 92449" transform="translate(239.281 216.659)">
      <rect id="Rectángulo_31979" data-name="Rectángulo 31979" width="13.836" height="3.133" fill="#ff8761"/>
    </g>
    <g id="Grupo_92450" data-name="Grupo 92450" transform="translate(199.469 110.16)">
      <rect id="Rectángulo_31980" data-name="Rectángulo 31980" width="29.439" height="3.133" transform="translate(0 0)" fill="#1487e3"/>
    </g>
    <g id="Grupo_92451" data-name="Grupo 92451" transform="translate(239.111 181.449)">
      <rect id="Rectángulo_31981" data-name="Rectángulo 31981" width="17.2" height="3.133" transform="translate(0 0)" fill="#1487e3"/>
    </g>
    <g id="Grupo_92452" data-name="Grupo 92452" transform="translate(248.817 204.865)">
      <rect id="Rectángulo_31982" data-name="Rectángulo 31982" width="8.6" height="3.133" transform="translate(0)" fill="#1487e3"/>
    </g>
    <g id="Grupo_92453" data-name="Grupo 92453" transform="translate(233.085 110.16)">
      <rect id="Rectángulo_31983" data-name="Rectángulo 31983" width="10.129" height="3.133" transform="translate(0 0)" fill="#78c2ff"/>
    </g>
    <g id="Grupo_92454" data-name="Grupo 92454" transform="translate(267.179 121.954)">
      <rect id="Rectángulo_31984" data-name="Rectángulo 31984" width="10.129" height="3.133" fill="#ff8761"/>
    </g>
    <g id="Grupo_92455" data-name="Grupo 92455" transform="translate(265.16 169.481)">
      <rect id="Rectángulo_31985" data-name="Rectángulo 31985" width="10.129" height="3.133" transform="translate(0 0)" fill="#ff8761"/>
    </g>
    <g id="Grupo_92456" data-name="Grupo 92456" transform="translate(247.078 110.16)">
      <rect id="Rectángulo_31986" data-name="Rectángulo 31986" width="17.647" height="3.133" transform="translate(0 0)" fill="#1487e3"/>
    </g>
    <g id="Grupo_92459" data-name="Grupo 92459" transform="translate(306.683 228.879)">
      <g id="Grupo_92458" data-name="Grupo 92458" transform="translate(0)">
        <g id="Grupo_92457" data-name="Grupo 92457">
          <path id="Trazado_105820" data-name="Trazado 105820" d="M558.1,1478.531a.021.021,0,0,1,.013,0C558.059,1478.554,558.051,1478.557,558.1,1478.531Z" transform="translate(-558.068 -1478.529)" fill="#323657"/>
        </g>
      </g>
    </g>
    <path id="Trazado_105821" data-name="Trazado 105821" d="M1338.207,486.444h-5.028l1.539-3.192h5.028Z" transform="translate(-1157.004 -413.58)" fill="url(#linear-gradient)"/>
    <path id="Trazado_105822" data-name="Trazado 105822" d="M1319.669,486.444h-1.2l1.539-3.192h1.2Z" transform="translate(-1136.114 -413.58)" fill="url(#linear-gradient)"/>
    <path id="Trazado_105823" data-name="Trazado 105823" d="M1235.628,471.061h-20.36l.676-1.6h20.36Z" transform="translate(-1034.701 -401.999)" fill="url(#linear-gradient)"/>
    <rect id="Rectángulo_31987" data-name="Rectángulo 31987" width="16.013" height="1.123" transform="translate(84.14 151.75)" fill="#ffd770"/>
    <rect id="Rectángulo_31988" data-name="Rectángulo 31988" width="16.013" height="4.719" transform="translate(84.14 153.866)" fill="#ffd770"/>
    <rect id="Rectángulo_31989" data-name="Rectángulo 31989" width="9.447" height="0.705" transform="translate(98.228 160.172)" fill="#ffd770"/>
    <rect id="Rectángulo_31990" data-name="Rectángulo 31990" width="9.447" height="1.91" transform="translate(98.228 161.185)" fill="#ffd770"/>
    <rect id="Rectángulo_31991" data-name="Rectángulo 31991" width="0.705" height="13.222" transform="translate(102.181 144.543)" fill="#ffd770"/>
    <rect id="Rectángulo_31992" data-name="Rectángulo 31992" width="12.613" height="2.285" transform="translate(292.535 54.448)" fill="#fff"/>
    <rect id="Rectángulo_31993" data-name="Rectángulo 31993" width="12.613" height="0.43" transform="translate(292.535 53.381)" fill="#fff"/>
    <g id="Grupo_92460" data-name="Grupo 92460" transform="translate(96.396 82.252)">
      <path id="Trazado_105824" data-name="Trazado 105824" d="M1429.829,579.114l-16.381-16.381h-67.3V561.9h67.645l16.625,16.625Z" transform="translate(-1346.15 -561.898)" fill="#ff8761"/>
    </g>
    <rect id="Rectángulo_31994" data-name="Rectángulo 31994" width="188.321" height="37.258" transform="translate(138.689 231.951)" fill="#4dd0e1"/>
    <g id="Grupo_92461" data-name="Grupo 92461" transform="translate(283.592 105.013)">
      <path id="Trazado_105825" data-name="Trazado 105825" d="M137.245,736.081l-.591-.591,31.3-31.3H227.2v.836H168.3Z" transform="translate(-136.654 -704.187)" fill="#78c2ff"/>
    </g>
    <g id="Grupo_92462" data-name="Grupo 92462" transform="translate(221.217 72.241)">
      <path id="Trazado_105826" data-name="Trazado 105826" d="M695.786,526.324l-.591-.591,26.42-26.42h37.158v.835H721.961Z" transform="translate(-695.195 -499.314)" fill="#1487e3"/>
    </g>
    <path id="Trazado_105827" data-name="Trazado 105827" d="M949.845,1535v-37.258h68.535l36.837,36.837Z" transform="translate(-811.155 -1265.786)" fill="#4dd0e1"/>
    <g id="Grupo_92466" data-name="Grupo 92466" transform="translate(104.285 33.154)">
      <g id="Grupo_92463" data-name="Grupo 92463" transform="translate(22.681 27.498)">
        <rect id="Rectángulo_31995" data-name="Rectángulo 31995" width="5.941" height="18.045" transform="translate(0)" fill="#609ae8"/>
      </g>
      <g id="Grupo_92464" data-name="Grupo 92464" transform="translate(0 0)">
        <rect id="Rectángulo_31996" data-name="Rectángulo 31996" width="51.302" height="36.191" fill="#9cc7ff"/>
      </g>
      <g id="Grupo_92465" data-name="Grupo 92465" transform="translate(2.009 2.065)">
        <rect id="Rectángulo_31997" data-name="Rectángulo 31997" width="47.284" height="28.455" fill="#fff"/>
      </g>
      <rect id="Rectángulo_31998" data-name="Rectángulo 31998" width="26.729" height="1.362" transform="translate(12.287 44.863)" fill="#9cc7ff"/>
      <rect id="Rectángulo_31999" data-name="Rectángulo 31999" width="15.197" height="17.568" transform="translate(4.518 10.701)" fill="#d7d7e6"/>
      <rect id="Rectángulo_32000" data-name="Rectángulo 32000" width="15.658" height="2.19" transform="translate(22.064 10.701)" fill="#d7d7e6"/>
      <rect id="Rectángulo_32001" data-name="Rectángulo 32001" width="15.658" height="2.19" transform="translate(22.064 15.197)" fill="#d7d7e6"/>
      <rect id="Rectángulo_32002" data-name="Rectángulo 32002" width="15.658" height="9.034" transform="translate(22.064 19.235)" fill="#d7d7e6"/>
      <rect id="Rectángulo_32003" data-name="Rectángulo 32003" width="6.644" height="18.068" transform="translate(39.935 10.201)" fill="#d7d7e6"/>
      <rect id="Rectángulo_32004" data-name="Rectángulo 32004" width="42.06" height="4.512" transform="translate(4.364 4.256)" fill="#d7d7e6"/>
    </g>
    <g id="Grupo_92467" data-name="Grupo 92467" transform="translate(253.43 31.495)">
      <rect id="Rectángulo_32005" data-name="Rectángulo 32005" width="26.047" height="36.822" transform="translate(0)" fill="#9cc7ff"/>
      <rect id="Rectángulo_32006" data-name="Rectángulo 32006" width="23.168" height="30.219" transform="translate(1.44 1.702)" fill="#fff"/>
      <rect id="Rectángulo_32007" data-name="Rectángulo 32007" width="20.163" height="4.023" transform="translate(2.887 3.875)" fill="#d7d7e6"/>
      <rect id="Rectángulo_32008" data-name="Rectángulo 32008" width="8.299" height="19.718" transform="translate(2.887 9.458)" fill="#d7d7e6"/>
      <rect id="Rectángulo_32009" data-name="Rectángulo 32009" width="10.322" height="2.284" transform="translate(12.728 9.458)" fill="#d7d7e6"/>
      <rect id="Rectángulo_32010" data-name="Rectángulo 32010" width="10.322" height="2.284" transform="translate(12.728 13.405)" fill="#d7d7e6"/>
      <rect id="Rectángulo_32011" data-name="Rectángulo 32011" width="10.322" height="2.284" transform="translate(12.728 17.353)" fill="#d7d7e6"/>
      <rect id="Rectángulo_32012" data-name="Rectángulo 32012" width="10.322" height="7.875" transform="translate(12.728 21.301)" fill="#d7d7e6"/>
    </g>
    <g id="Grupo_92468" data-name="Grupo 92468" transform="translate(322.196 72.405)">
      <rect id="Rectángulo_32013" data-name="Rectángulo 32013" width="40.603" height="27.57" transform="translate(1.958 0)" fill="#609ae8"/>
      <rect id="Rectángulo_32014" data-name="Rectángulo 32014" width="38.337" height="24.635" transform="translate(3.091 1.467)" fill="#fff"/>
      <path id="Rectángulo_32015" data-name="Rectángulo 32015" d="M0,0H44.52a0,0,0,0,1,0,0V0a2.026,2.026,0,0,1-2.026,2.026H2.025A2.025,2.025,0,0,1,0,0V0A0,0,0,0,1,0,0Z" transform="translate(0 27.57)" fill="#9cc7ff"/>
      <rect id="Rectángulo_32016" data-name="Rectángulo 32016" width="35.091" height="3.426" transform="translate(4.734 3.258)" fill="#d7d7e6"/>
      <rect id="Rectángulo_32017" data-name="Rectángulo 32017" width="12.031" height="15.694" transform="translate(4.734 8.618)" fill="#d7d7e6"/>
      <rect id="Rectángulo_32018" data-name="Rectángulo 32018" width="12.031" height="15.694" transform="translate(18.307 8.618)" fill="#d7d7e6"/>
      <rect id="Rectángulo_32019" data-name="Rectángulo 32019" width="7.337" height="2.242" transform="translate(32.489 8.618)" fill="#d7d7e6"/>
      <rect id="Rectángulo_32020" data-name="Rectángulo 32020" width="7.337" height="2.242" transform="translate(32.489 12.085)" fill="#d7d7e6"/>
      <rect id="Rectángulo_32021" data-name="Rectángulo 32021" width="7.337" height="8.761" transform="translate(32.489 15.552)" fill="#d7d7e6"/>
    </g>
    <g id="Grupo_92469" data-name="Grupo 92469" transform="translate(349.379 122.81)">
      <path id="Trazado_105828" data-name="Trazado 105828" d="M150.979,892.2l9.036-5.217v3.44h13.434v3.554H160.015v3.44Z" transform="translate(-150.979 -875.54)" fill="#fff"/>
      <path id="Trazado_105829" data-name="Trazado 105829" d="M173.449,820.663l-9.036,5.217v-3.44H150.979v-3.554h13.434v-3.44Z" transform="translate(-150.979 -815.446)" fill="#fff"/>
    </g>
    <g id="Grupo_92470" data-name="Grupo 92470" transform="translate(217.341 52.638)">
      <path id="Trazado_105830" data-name="Trazado 105830" d="M1011.608,434.294l6.772-3.91v2.578h10.068v2.664H1018.38V438.2Z" transform="translate(-1011.608 -421.808)" fill="#fff"/>
      <path id="Trazado_105831" data-name="Trazado 105831" d="M1028.448,380.679l-6.772,3.91v-2.578h-10.068v-2.664h10.068V376.77Z" transform="translate(-1011.608 -376.77)" fill="#fff"/>
    </g>
    <g id="Grupo_92475" data-name="Grupo 92475" transform="translate(117.065 104.325)">
      <g id="Grupo_92471" data-name="Grupo 92471" transform="translate(0)">
        <path id="Trazado_105832" data-name="Trazado 105832" d="M1649.132,722.744a4.114,4.114,0,0,0,2.379-.957,3.083,3.083,0,0,0,1.131-2.356,18.71,18.71,0,0,1,1.121-4.807,8.272,8.272,0,1,0-9.913.292,17.8,17.8,0,0,1,1.1,4.567,3.616,3.616,0,0,0,3.868,3.274Q1648.976,722.756,1649.132,722.744Zm-1.1-22.162a7.594,7.594,0,0,1,5.234,13.569l-.077.059-.033.091a19.5,19.5,0,0,0-1.194,5.1v.026a2.417,2.417,0,0,1-.9,1.852,3.482,3.482,0,0,1-2.256.806,2.943,2.943,0,0,1-3.186-2.616v-.026a18.6,18.6,0,0,0-1.179-4.858l-.037-.1-.088-.061a7.593,7.593,0,0,1,3.714-13.838Z" transform="translate(-1640.339 -699.883)" fill="#fff"/>
      </g>
      <g id="Grupo_92472" data-name="Grupo 92472" transform="translate(5.602 11.014)">
        <path id="Trazado_105833" data-name="Trazado 105833" d="M1677.151,777.762l1.083-9.014-1.879,1.555-1.165-1.293-1.007,1.213-1.756-1.488,1.068,9.028.672-.079-.866-7.321.966.819.944-1.137,1.076,1.194,1.074-.888-.881,7.331Z" transform="translate(-1672.426 -768.735)" fill="#fff"/>
      </g>
      <g id="Grupo_92473" data-name="Grupo 92473" transform="translate(5.547 22.029)">
        <rect id="Rectángulo_32022" data-name="Rectángulo 32022" width="5.866" height="2.364" transform="translate(5.882 2.364) rotate(179.616)" fill="#fff"/>
      </g>
      <g id="Grupo_92474" data-name="Grupo 92474" transform="translate(4.587 19.608)">
        <rect id="Rectángulo_32023" data-name="Rectángulo 32023" width="7.753" height="3.805" transform="matrix(-1, 0.007, -0.007, -1, 7.779, 3.805)" fill="#fff"/>
      </g>
    </g>
  </g>
</svg>
