<svg xmlns="http://www.w3.org/2000/svg" width="223.817" height="188" viewBox="0 0 223.817 188">
  <g id="Grupo_60924" data-name="Grupo 60924" transform="translate(-266 -444)">
    <g id="Right" transform="translate(265.972 443.967)">
      <rect id="BG" width="200" height="188" rx="5" transform="translate(0.028 0.033)" fill="#fff" opacity="0.949"/>
    </g>
    <g id="app_3_" data-name="app (3)" transform="translate(309.981 466.214)">
      <g id="Grupo_60916" data-name="Grupo 60916" transform="translate(2.114 2.114)">
        <g id="Grupo_60912" data-name="Grupo 60912" transform="translate(0 0.001)">
          <path id="Trazado_105535" data-name="Trazado 105535" d="M188.44,147.666H126.664a7.692,7.692,0,0,1-7.822-7.654V15.456A7.7,7.7,0,0,1,126.36,7.5h61.776a8.041,8.041,0,0,1,8.092,7.788V139.844A7.805,7.805,0,0,1,188.44,147.666Z" transform="translate(-118.842 -7.5)" fill="#ffca28"/>
        </g>
        <g id="Grupo_60913" data-name="Grupo 60913" transform="translate(63.999)">
          <path id="Trazado_105536" data-name="Trazado 105536" d="M359.243,15.286V139.843a7.807,7.807,0,0,1-7.788,7.822h-5.312a7.807,7.807,0,0,0,7.788-7.822V15.286A8.044,8.044,0,0,0,345.855,7.5h5.295a8.043,8.043,0,0,1,8.093,7.788Z" transform="translate(-345.855 -7.498)" fill="#685e68"/>
        </g>
        <g id="Grupo_60914" data-name="Grupo 60914" transform="translate(0 15.602)">
          <path id="Trazado_105537" data-name="Trazado 105537" d="M196.229,171.769l-77.386.168V63.009l77.386-.168Z" transform="translate(-118.843 -62.841)" fill="#f3f0f3"/>
        </g>
        <g id="Grupo_60915" data-name="Grupo 60915" transform="translate(72.071 15.605)">
          <path id="Trazado_105538" data-name="Trazado 105538" d="M379.8,171.778l-5.316.012V62.861l5.316-.011Z" transform="translate(-374.486 -62.85)" fill="#e2dee2"/>
        </g>
      </g>
      <g id="Grupo_60923" data-name="Grupo 60923" transform="translate(0 0)">
        <path id="Trazado_105539" data-name="Trazado 105539" d="M236.583,472.246h7.694a2.114,2.114,0,1,0,0-4.229h-7.694a2.114,2.114,0,1,0,0,4.229Z" transform="translate(-199.758 -336.074)"/>
        <ellipse id="Elipse_1663" data-name="Elipse 1663" cx="2.619" cy="2.619" rx="2.619" ry="2.619" transform="translate(38.054 7.78)"/>
        <path id="Trazado_105540" data-name="Trazado 105540" d="M190.844,103.255a2.114,2.114,0,0,0,2.114-2.114V9.9A10.191,10.191,0,0,0,182.774,0h-61.8a9.375,9.375,0,0,0-6.926,3.042,10.262,10.262,0,0,0-2.7,7.028v124.56a9.747,9.747,0,0,0,9.913,9.764h61.8a9.919,9.919,0,0,0,9.9-9.936V110.891a2.114,2.114,0,0,0-4.229,0v13.644l-73.158.158V19.993l73.158-.158v81.306A2.114,2.114,0,0,0,190.844,103.255Zm-2.114,25.508v5.7a5.69,5.69,0,0,1-5.674,5.7H121.261a5.564,5.564,0,0,1-5.69-5.54v-5.7Zm-73.158-113v-5.7a6.05,6.05,0,0,1,1.576-4.15,5.184,5.184,0,0,1,3.828-1.687H182.77A5.908,5.908,0,0,1,188.73,9.9v5.7Z" transform="translate(-111.343)"/>
        <g id="Grupo_60922" data-name="Grupo 60922" transform="translate(12.596 27.354)">
          <g id="Grupo_60917" data-name="Grupo 60917" transform="translate(12.026 14.241)">
            <path id="Trazado_105541" data-name="Trazado 105541" d="M214.9,147.54l-16.219,12.8v15.339a3.106,3.106,0,0,0,3.106,3.106h26.227a3.106,3.106,0,0,0,3.106-3.106V160.346Z" transform="translate(-198.683 -147.54)" fill="#c4e2ff"/>
          </g>
          <g id="Grupo_60918" data-name="Grupo 60918" transform="translate(35.66 22.548)">
            <path id="Trazado_105542" data-name="Trazado 105542" d="M291.321,181.505v15.336a3.1,3.1,0,0,1-3.106,3.106h-5.7a3.1,3.1,0,0,0,3.106-3.106V177.007Z" transform="translate(-282.516 -177.007)" fill="#95d2fc"/>
          </g>
          <g id="Grupo_60919" data-name="Grupo 60919" transform="translate(2.103 2.119)">
            <path id="Trazado_105543" data-name="Trazado 105543" d="M213.747,122.845l-22.362-17.69a2.835,2.835,0,0,0-3.517,0L165.4,122.929a5.048,5.048,0,0,0,6.259,7.92l17.967-14.184,17.967,14.184a5.048,5.048,0,0,0,7.435-1.33A5.319,5.319,0,0,0,213.747,122.845Z" transform="translate(-163.484 -104.544)" fill="#4dd0e1"/>
          </g>
          <g id="Grupo_60920" data-name="Grupo 60920" transform="translate(24.12 2.119)">
            <path id="Trazado_105544" data-name="Trazado 105544" d="M271.107,129.518a5.018,5.018,0,0,1-3.6,2.366,5.547,5.547,0,0,0-1.689-6.1L242.827,107.6a2.954,2.954,0,0,0-1.248-.573l2.366-1.872a2.834,2.834,0,0,1,3.518,0l22.361,17.691A5.315,5.315,0,0,1,271.107,129.518Z" transform="translate(-241.579 -104.543)" fill="#26a6fe"/>
          </g>
          <g id="Grupo_60921" data-name="Grupo 60921">
            <path id="Trazado_105545" data-name="Trazado 105545" d="M240.645,352.287h-.01a2.115,2.115,0,0,0-2.1,2.125l.031,6.435a4.922,4.922,0,0,1-4.9,4.932h-.015a4.947,4.947,0,0,1-4.709-3.494,2.115,2.115,0,0,0-4.049,1.221,9.2,9.2,0,0,0,8.757,6.5h.027a9.157,9.157,0,0,0,9.118-9.177l-.031-6.439A2.114,2.114,0,0,0,240.645,352.287Z" transform="translate(-205.408 -280.324)"/>
            <path id="Trazado_105546" data-name="Trazado 105546" d="M225.685,323.59h.006a2.115,2.115,0,0,0,2.108-2.121l-.008-2.761a4.916,4.916,0,0,1,4.9-4.932h.016a4.854,4.854,0,0,1,3.126,1.122,2.114,2.114,0,0,0,2.693-3.261,9.157,9.157,0,0,0-5.82-2.09h-.028a9.146,9.146,0,0,0-9.118,9.173l.008,2.761A2.115,2.115,0,0,0,225.685,323.59Z" transform="translate(-204.522 -249.634)"/>
            <path id="Trazado_105547" data-name="Trazado 105547" d="M248.593,346.473v5.913a2.114,2.114,0,1,0,4.229,0v-5.913a2.114,2.114,0,1,0-4.229,0Z" transform="translate(-222.496 -274.632)"/>
            <path id="Trazado_105548" data-name="Trazado 105548" d="M209.7,115.789,187.34,98.1a4.931,4.931,0,0,0-6.141,0l-22.468,17.774a7.158,7.158,0,0,0,7.2,12.221V139.41a5.226,5.226,0,0,0,5.22,5.22h3a2.114,2.114,0,0,0,0-4.229h-3a.993.993,0,0,1-.992-.992V125.1l14.1-11.135,14.1,11.137V139.41a.993.993,0,0,1-.992.992H184.006a2.114,2.114,0,0,0,0,4.229h13.377a5.226,5.226,0,0,0,5.221-5.22V128.1a7.159,7.159,0,0,0,8.873-2.874A7.433,7.433,0,0,0,209.7,115.789Zm-1.835,7.231a2.933,2.933,0,0,1-4.32.772L185.58,109.608a2.115,2.115,0,0,0-2.62,0l-17.967,14.184a2.933,2.933,0,0,1-4.36-.84,2.951,2.951,0,0,1,.723-3.763l22.468-17.774a.718.718,0,0,1,.894,0l22.361,17.69h0A3.221,3.221,0,0,1,207.867,123.02Z" transform="translate(-156.024 -97.027)"/>
          </g>
        </g>
      </g>
    </g>
    <g id="app_2_" data-name="app (2)" transform="translate(405.713 506.331)">
      <path id="Trazado_105525" data-name="Trazado 105525" d="M94.926,94.992h64.958v51.955H94.926Zm0,0" transform="translate(-77.462 -77.529)" fill="#a9ebf4"/>
      <path id="Trazado_105526" data-name="Trazado 105526" d="M152.425,141.17H87.468a1.682,1.682,0,0,1-1.682-1.682V87.534a1.682,1.682,0,0,1,1.682-1.682h64.957a1.682,1.682,0,0,1,1.682,1.682v51.953A1.682,1.682,0,0,1,152.425,141.17Zm-63.276-3.364h61.593V89.216H89.149Zm0,0" transform="translate(-70.003 -70.07)" fill="#2a3d4f"/>
      <path id="Trazado_105527" data-name="Trazado 105527" d="M116.993,52.1v7.891H59.926v44.064H52.035V52.1Zm0,0" transform="translate(-42.462 -42.529)" fill="#ffca28"/>
      <path id="Trazado_105528" data-name="Trazado 105528" d="M52.468,98.279H44.576A1.681,1.681,0,0,1,42.895,96.6V44.643a1.681,1.681,0,0,1,1.682-1.682h64.957a1.682,1.682,0,0,1,1.682,1.682v7.892a1.682,1.682,0,0,1-1.682,1.682H54.15V96.6A1.682,1.682,0,0,1,52.468,98.279Zm-6.209-3.364h4.527V52.534a1.682,1.682,0,0,1,1.682-1.682h55.384V46.325H46.259Zm0,0" transform="translate(-35.003 -35.07)" fill="#12263f"/>
      <path id="Trazado_105529" data-name="Trazado 105529" d="M74.1,9.211V17.1H17.035V61.166H9.145V9.211Zm0,0" transform="translate(-7.462 -7.53)" fill="#ffa726"/>
      <g id="Grupo_60911" data-name="Grupo 60911" transform="translate(0 0)">
        <path id="Trazado_105530" data-name="Trazado 105530" d="M9.573,55.388H1.682A1.682,1.682,0,0,1,0,53.706V1.753A1.682,1.682,0,0,1,1.682.07H66.64a1.681,1.681,0,0,1,1.682,1.682v7.89a1.681,1.681,0,0,1-1.682,1.682H11.256V53.706A1.682,1.682,0,0,1,9.573,55.388ZM3.364,52.024H7.892V9.643A1.681,1.681,0,0,1,9.573,7.961H64.957V3.434H3.364Zm0,0" transform="translate(0 -0.07)" fill="#12263f"/>
        <path id="Trazado_105531" data-name="Trazado 105531" d="M143.208,206.037l-1.544,4.676H139.68l5.05-14.866h2.316l5.073,14.866h-2.05l-1.59-4.676Zm4.874-1.5-1.455-4.277c-.332-.972-.551-1.853-.772-2.714h-.045c-.221.882-.464,1.787-.749,2.69l-1.456,4.3Zm0,0" transform="translate(-113.982 -159.829)" fill="#12263f"/>
        <path id="Trazado_105532" data-name="Trazado 105532" d="M219.191,195.541a22.25,22.25,0,0,1,3.684-.287,6.111,6.111,0,0,1,4.17,1.235,4,4,0,0,1,1.3,3.108,4.373,4.373,0,0,1-1.148,3.177,6.153,6.153,0,0,1-4.541,1.632,6.61,6.61,0,0,1-1.544-.133v5.955h-1.92Zm1.92,7.167a6.441,6.441,0,0,0,1.588.155c2.316,0,3.728-1.124,3.728-3.175,0-1.963-1.39-2.913-3.507-2.913a8.069,8.069,0,0,0-1.808.154Zm0,0" transform="translate(-178.865 -159.344)" fill="#12263f"/>
        <path id="Trazado_105533" data-name="Trazado 105533" d="M283,195.541a22.247,22.247,0,0,1,3.683-.287,6.1,6.1,0,0,1,4.168,1.235,3.993,3.993,0,0,1,1.3,3.108,4.376,4.376,0,0,1-1.148,3.177,6.154,6.154,0,0,1-4.542,1.632,6.618,6.618,0,0,1-1.544-.133v5.955H283Zm1.92,7.167a6.449,6.449,0,0,0,1.588.155c2.317,0,3.728-1.124,3.728-3.175,0-1.963-1.39-2.913-3.507-2.913a8.082,8.082,0,0,0-1.809.154Zm0,0" transform="translate(-230.934 -159.344)" fill="#12263f"/>
        <path id="Trazado_105534" data-name="Trazado 105534" d="M343.231,207.3a6.8,6.8,0,0,0,3.441.972c1.963,0,3.11-1.038,3.11-2.538,0-1.388-.8-2.184-2.8-2.954-2.426-.86-3.926-2.117-3.926-4.213,0-2.316,1.918-4.037,4.808-4.037a6.748,6.748,0,0,1,3.286.729l-.53,1.566a5.9,5.9,0,0,0-2.823-.706c-2.03,0-2.8,1.212-2.8,2.227,0,1.39.9,2.072,2.954,2.867,2.514.97,3.795,2.182,3.795,4.366,0,2.293-1.7,4.28-5.206,4.28a7.694,7.694,0,0,1-3.793-.949Zm0,0" transform="translate(-279.688 -158.755)" fill="#12263f"/>
      </g>
    </g>
  </g>
</svg>
