<svg xmlns="http://www.w3.org/2000/svg" width="386.986" height="400.066" viewBox="0 0 386.986 400.066">
  <g id="Grupo_61034" data-name="Grupo 61034" transform="translate(-31.048 -28.207)">
    <g id="Floor" transform="translate(31.048 204.847)">
      <ellipse id="Elipse_1680" data-name="Elipse 1680" cx="193.493" cy="111.713" rx="193.493" ry="111.713" fill="#f5f5f5"/>
    </g>
    <g id="Shadows" transform="translate(56.206 255.388)">
      <ellipse id="Elipse_1681" data-name="Elipse 1681" cx="46.705" cy="26.965" rx="46.705" ry="26.965" transform="translate(244.788 65.57)" fill="#e0e0e0"/>
      <path id="Trazado_105684" data-name="Trazado 105684" d="M305.563,362.757l-112.036,64.7c-3.152,1.82-8.658,1.592-12.3-.51L62.527,358.3c-3.639-2.1-4.035-5.28-.883-7.1l112.036-64.7c3.152-1.82,8.658-1.592,12.3.51l118.7,68.64C308.32,357.759,308.715,360.937,305.563,362.757Z" transform="translate(-59.516 -285.279)" fill="#e0e0e0"/>
    </g>
    <g id="Device" transform="translate(78.739 28.207)">
      <g id="Grupo_60969" data-name="Grupo 60969">
        <path id="Trazado_105685" data-name="Trazado 105685" d="M211.935,36.582l0,0a9.184,9.184,0,0,0-4.238-5.828l-.367-.218a16.563,16.563,0,0,0-8.476-2.333v0a5.244,5.244,0,0,0-2.717.717L93.115,88.406a16.2,16.2,0,0,0-7.073,8.376c-.019.054-.042.108-.061.163a16.084,16.084,0,0,0-.489,1.617c-.019.079-.037.156-.055.234a16.037,16.037,0,0,0-.3,1.661c-.009.071-.013.142-.021.213a16.085,16.085,0,0,0-.105,1.767v222.8h0v1.86a5.1,5.1,0,0,0,2.492,4.385l4.108,2.446a9.2,9.2,0,0,0,4.7,1.3h2.028v0a5.263,5.263,0,0,0,2.717-.717l103.024-59.482a16.2,16.2,0,0,0,8.1-14.031V38.658h0v-.464A5.316,5.316,0,0,0,211.935,36.582Zm-1.137-1.96c-.024-.026-.046-.052-.071-.078C210.752,34.57,210.774,34.6,210.8,34.622Zm-.4-.4c-.041-.035-.081-.071-.123-.105C210.313,34.156,210.353,34.192,210.394,34.227Zm-.464-.366c-.052-.037-.107-.072-.161-.107C209.823,33.789,209.878,33.824,209.93,33.861Zm-.51-.32c-.064-.034-.129-.064-.194-.1C209.291,33.478,209.357,33.507,209.42,33.541Zm-.55-.263c-.076-.031-.156-.054-.232-.082C208.715,33.224,208.795,33.247,208.871,33.278Zm-.806-.25c-.118-.027-.237-.057-.357-.077C207.828,32.97,207.946,33,208.065,33.028Zm-.628-.108c-.122-.013-.244-.026-.368-.03C207.192,32.894,207.314,32.907,207.436,32.92Zm-.64-.03c-.126,0-.252.007-.379.018C206.545,32.9,206.671,32.891,206.8,32.89Zm-1.936.4a5.391,5.391,0,0,0-.63.309A5.391,5.391,0,0,1,204.86,33.29Zm1.29-.352c-.132.019-.264.044-.4.073C205.886,32.983,206.018,32.957,206.15,32.938Zm-.648.133c-.144.04-.287.089-.431.142C205.215,33.16,205.359,33.111,205.5,33.071ZM97.429,335.119c-.065-.013-.129-.027-.194-.042Zm-1.856-.738q-.087-.056-.172-.114Q95.485,334.325,95.573,334.381ZM93.206,330.9c.015.08.031.157.049.234C93.237,331.056,93.221,330.978,93.206,330.9Zm.332,1.13,0,.007Zm.448.8c.041.061.083.121.125.181C94.069,332.954,94.027,332.894,93.986,332.833Zm.711.869,0,0Z" transform="translate(-85.014 -28.207)" fill="#37474f"/>
        <g id="Grupo_60968" data-name="Grupo 60968">
          <g id="Grupo_60963" data-name="Grupo 60963">
            <path id="Trazado_105686" data-name="Trazado 105686" d="M228.921,40.033Z" transform="translate(-101.747 -29.582)" fill="#37484f"/>
            <path id="Trazado_105687" data-name="Trazado 105687" d="M93.105,107.111a16.2,16.2,0,0,1,8.1-14.031L204.23,33.6a5.306,5.306,0,0,1,7.707,2.987,9.184,9.184,0,0,0-4.238-5.828l-.367-.218a16.563,16.563,0,0,0-8.476-2.333v0a5.244,5.244,0,0,0-2.717.717L93.115,88.406a16.2,16.2,0,0,0-8.1,14.031v222.8a5.306,5.306,0,0,0,7.958,4.595l.133-.077Z" transform="translate(-85.014 -28.207)" fill="#37484f"/>
          </g>
          <path id="Trazado_105688" data-name="Trazado 105688" d="M205.152,275.638,102.128,335.12a5.306,5.306,0,0,1-7.958-4.6v-222.8a16.2,16.2,0,0,1,8.1-14.031L205.295,34.214a5.3,5.3,0,0,1,7.958,4.594v222.8A16.2,16.2,0,0,1,205.152,275.638Z" transform="translate(-86.079 -28.822)" fill="#455a64"/>
          <path id="Trazado_105689" data-name="Trazado 105689" d="M93.105,338.72v-222.8a16.178,16.178,0,0,1,1.6-7.012l-7.966-4.933a16.186,16.186,0,0,0-1.728,7.271V335.907a5.1,5.1,0,0,0,2.492,4.385l4.108,2.446a9.2,9.2,0,0,0,4.7,1.3h2.028v0A5.311,5.311,0,0,1,93.105,338.72Z" transform="translate(-85.014 -37.017)" fill="#253239"/>
          <g id="Grupo_60966" data-name="Grupo 60966" transform="translate(14.762 26.808)">
            <path id="Trazado_105690" data-name="Trazado 105690" d="M202.534,58.542V245.807a14.306,14.306,0,0,1-7.153,12.39l-90.976,52.525a4.641,4.641,0,0,1-2.257.627,4.692,4.692,0,0,0,6.647,2.191l90.976-52.524a14.308,14.308,0,0,0,7.154-12.391V63.214A4.681,4.681,0,0,0,202.534,58.542Z" transform="translate(-101.768 -58.542)" fill="#37484f"/>
            <g id="Grupo_60964" data-name="Grupo 60964">
              <path id="Trazado_105691" data-name="Trazado 105691" d="M102.1,311.348a4.641,4.641,0,0,0,2.257-.627L195.331,258.2a14.306,14.306,0,0,0,7.153-12.39V58.542a6.161,6.161,0,0,0-2.636.615l-90.976,52.525a14.308,14.308,0,0,0-7.154,12.391V309.482a4.678,4.678,0,0,0,.393,1.891Z" transform="translate(-101.718 -58.542)" fill="#ba68c8"/>
            </g>
            <g id="Grupo_60965" data-name="Grupo 60965">
              <path id="Trazado_105692" data-name="Trazado 105692" d="M102.1,311.348a4.641,4.641,0,0,0,2.257-.627L195.331,258.2a14.306,14.306,0,0,0,7.153-12.39V58.542a6.161,6.161,0,0,0-2.636.615l-90.976,52.525a14.308,14.308,0,0,0-7.154,12.391V309.482a4.678,4.678,0,0,0,.393,1.891Z" transform="translate(-101.718 -58.542)" fill="#a9ebf4"/>
            </g>
          </g>
          <g id="Grupo_60967" data-name="Grupo 60967" transform="translate(49.938 32.719)">
            <path id="Trazado_105693" data-name="Trazado 105693" d="M144.8,87.463a3.623,3.623,0,0,1-1.638,2.838c-.9.522-1.638.1-1.638-.946a3.618,3.618,0,0,1,1.638-2.837C144.066,85.994,144.8,86.418,144.8,87.463Z" transform="translate(-141.523 -67.68)" fill="#253239"/>
            <path id="Trazado_105694" data-name="Trazado 105694" d="M151.7,83.481a3.621,3.621,0,0,1-1.638,2.838c-.9.522-1.638.1-1.638-.946a3.62,3.62,0,0,1,1.638-2.838C150.962,82.013,151.7,82.437,151.7,83.481Z" transform="translate(-142.325 -67.217)" fill="#253239"/>
            <path id="Trazado_105695" data-name="Trazado 105695" d="M177.169,69.184,157.354,80.625c-.784.452-1.419-.027-1.419-1.073h0a3.4,3.4,0,0,1,1.419-2.71L177.169,65.4c.784-.452,1.418.028,1.418,1.073h0A3.4,3.4,0,0,1,177.169,69.184Z" transform="translate(-143.199 -65.231)" fill="#253239"/>
          </g>
          <path id="Trazado_105696" data-name="Trazado 105696" d="M174.082,315.346h0c1.183,0,1.948,1.255,1.948,3.2,0,3.053-1.91,6.735-4.169,8.039l-9.478,5.472a2.869,2.869,0,0,1-1.411.441c-1.183,0-1.949-1.256-1.949-3.2,0-3.052,1.91-6.734,4.169-8.039l9.478-5.472a2.877,2.877,0,0,1,1.412-.44m0-.809a3.671,3.671,0,0,0-1.816.549l-9.478,5.472c-2.526,1.458-4.574,5.371-4.574,8.74,0,2.509,1.136,4.008,2.758,4.008a3.664,3.664,0,0,0,1.816-.55l9.478-5.472c2.527-1.458,4.574-5.371,4.574-8.74,0-2.508-1.135-4.007-2.758-4.007Z" transform="translate(-93.525 -61.5)" fill="#253239"/>
        </g>
      </g>
    </g>
    <g id="Screens" transform="translate(104.626 56.809)">
      <g id="Grupo_60986" data-name="Grupo 60986">
        <g id="Grupo_60973" data-name="Grupo 60973">
          <g id="Grupo_60970" data-name="Grupo 60970">
            <path id="Trazado_105697" data-name="Trazado 105697" d="M229.918,64.747l-4.8-2.833a4.969,4.969,0,0,0-5.3-.151L185.5,81.882v1.61c0,4.966-4.026,11.314-8.991,14.184l-10.829,6.245c-3.7,2.139-6.878,1.735-8.258-.665l3.522-2.063-4.255-2.422-35.005,20.512a13.9,13.9,0,0,0-6.875,12.005V344.653a4.97,4.97,0,0,0,2.472,4.322l0,0,.03.017.1.055,4.672,2.629v-2.553c.11-.055.22-.1.328-.167,25.539-15.381,77.123-46.175,96.952-58a16.435,16.435,0,0,0,8.022-14.122V67.287Z" transform="translate(-114.365 -60.63)" fill="#ebebeb"/>
            <path id="Trazado_105698" data-name="Trazado 105698" d="M121.8,352l-4.788-2.74L117,349.3a5.408,5.408,0,0,1-2.688-4.7V131.229a14.4,14.4,0,0,1,7.093-12.386L156.4,98.331l.442,0,4.255,2.422.005.765-3.123,1.829a3.462,3.462,0,0,0,1.95,1.319,7.482,7.482,0,0,0,5.464-1.183l10.829-6.245c4.836-2.8,8.77-8.986,8.77-13.8v-1.61l.218-.381,34.324-20.12a5.423,5.423,0,0,1,5.766.163l4.777,2.822.088.693-2.41,2.411v209.36a16.953,16.953,0,0,1-8.237,14.5c-11.349,6.77-69.362,41.387-96.952,58-.037.022-.075.043-.113.063v2.278Zm-4.358-3.466,4.132,2.325v-1.8l.244-.394.106-.052c.064-.031.128-.061.191-.1,27.592-16.618,85.606-51.235,96.955-58.006a16.064,16.064,0,0,0,7.806-13.743V67.229l.129-.312,2.137-2.138-4.305-2.542a4.557,4.557,0,0,0-4.852-.151L185.882,82.077v1.357c0,5.1-4.132,11.63-9.212,14.566l-10.829,6.245a8.325,8.325,0,0,1-6.135,1.272,4.4,4.4,0,0,1-2.726-2.1l.159-.6L160,101.139l-3.368-1.917-34.785,20.383a13.516,13.516,0,0,0-6.656,11.624V344.595a4.538,4.538,0,0,0,2.253,3.941Z" transform="translate(-114.307 -60.572)" fill="#ebebeb"/>
          </g>
          <g id="Grupo_60972" data-name="Grupo 60972" transform="translate(4.25 2.468)">
            <g id="Grupo_60971" data-name="Grupo 60971">
              <path id="Trazado_105699" data-name="Trazado 105699" d="M232.192,68.828V279.571a16.434,16.434,0,0,1-8.021,14.122c-19.83,11.829-71.414,42.624-96.952,58a5.015,5.015,0,0,1-7.6-4.3V134.028a13.9,13.9,0,0,1,6.875-12.005L161.5,101.51v1.353c0,4.965,4.026,6.669,8.991,3.8l10.829-6.245c4.965-2.869,8.991-9.218,8.991-14.184v-1.61L224.637,64.5A5.019,5.019,0,0,1,232.192,68.828Z" transform="translate(-119.175 -63.416)" fill="#fafafa"/>
              <path id="Trazado_105700" data-name="Trazado 105700" d="M231.692,68.777v202.26c0,3.556.369,7.4-.186,10.936-.81,5.163-3.988,9.123-8.389,11.748l-7.719,4.606q-10.361,6.184-20.721,12.372-24.043,14.361-48.07,28.753-5.267,3.158-10.53,6.318c-3.12,1.873-6.2,4.062-9.466,5.676A4.625,4.625,0,0,1,120,347.261c-.011-.341,0-.684,0-1.025V138.864c0-1.468,0-2.935,0-4.4a13.852,13.852,0,0,1,6.768-12.175c8.822-5.279,17.744-10.4,26.614-15.6l8.279-4.851-.665-.382c0,1.67-.041,3.389.881,4.86a4.773,4.773,0,0,0,4.454,2.114c2.9-.172,5.586-2.171,8.038-3.585,2.368-1.366,4.757-2.7,7.108-4.1a19.6,19.6,0,0,0,8.891-11.936,12.739,12.739,0,0,0,.323-2.687,5.634,5.634,0,0,0,0-1.138c-.1-.457.153-.339-.189-.053a8.369,8.369,0,0,1,1.136-.666l6.269-3.675,18.5-10.843,7.271-4.262c.371-.218.737-.452,1.117-.655a4.625,4.625,0,0,1,6.892,3.943c.021.566.9.569.884,0a5.522,5.522,0,0,0-8.223-4.706c-1.151.626-2.266,1.328-3.4,1.99l-17.452,10.23-8.478,4.969c-1.55.908-3.256,1.721-4.719,2.766-.491.351-.5.546-.5,1.216a14.872,14.872,0,0,1-1.637,6.953,20.855,20.855,0,0,1-8.56,8.608c-3.021,1.744-6.038,3.5-9.065,5.229-1.849,1.059-4.264,2.141-6.381,1.176-2.27-1.034-2.284-3.613-2.284-5.75a.446.446,0,0,0-.665-.381L135.585,116.1c-3.12,1.828-6.264,3.62-9.361,5.485a14.7,14.7,0,0,0-7.1,12.818c-.01,4.24,0,8.48,0,12.72V346.633c0,.234-.007.469,0,.7a5.53,5.53,0,0,0,6.151,5.428c1.8-.229,3.374-1.5,4.89-2.408q2.317-1.394,4.635-2.786,5.317-3.195,10.638-6.384,12.01-7.2,24.028-14.386,22.8-13.636,45.611-27.25c6.212-3.706,13.678-6.844,16.416-14.072a20.652,20.652,0,0,0,1.087-7.483V68.777A.442.442,0,0,0,231.692,68.777Z" transform="translate(-119.116 -63.365)" fill="#ebebeb"/>
            </g>
          </g>
        </g>
        <g id="Grupo_60975" data-name="Grupo 60975" transform="translate(18.328 53.329)">
          <path id="Trazado_105701" data-name="Trazado 105701" d="M147.439,146.808a13.7,13.7,0,0,1-6.2,10.733c-3.423,1.976-6.2.374-6.2-3.577a13.7,13.7,0,0,1,6.2-10.734C144.664,141.254,147.439,142.856,147.439,146.808Z" transform="translate(-135.046 -123.414)" fill="#4dd0e1"/>
          <g id="Grupo_60974" data-name="Grupo 60974" transform="translate(17.42)">
            <path id="Trazado_105702" data-name="Trazado 105702" d="M155.644,139.16a.884.884,0,0,1-.443-1.649l28.533-16.473a.884.884,0,0,1,.884,1.531l-28.533,16.473A.876.876,0,0,1,155.644,139.16Z" transform="translate(-154.758 -120.918)" fill="#4dd0e1"/>
            <path id="Trazado_105703" data-name="Trazado 105703" d="M155.644,146.108a.884.884,0,0,1-.443-1.649l17.5-10.1a.884.884,0,1,1,.884,1.531l-17.5,10.1A.876.876,0,0,1,155.644,146.108Z" transform="translate(-154.758 -122.467)" fill="#4dd0e1"/>
          </g>
        </g>
        <g id="Grupo_60979" data-name="Grupo 60979" transform="translate(18.328 48.679)">
          <g id="Grupo_60977" data-name="Grupo 60977">
            <g id="Grupo_60976" data-name="Grupo 60976">
              <path id="Trazado_105704" data-name="Trazado 105704" d="M221.27,185.2l-83.3,48.092c-1.615.933-2.925-.057-2.925-2.212V169.69a7.009,7.009,0,0,1,2.925-5.591l83.3-48.092c1.615-.932,2.926.057,2.926,2.212v61.395A7.009,7.009,0,0,1,221.27,185.2Z" transform="translate(-135.046 -115.656)" fill="#e0e0e0"/>
            </g>
          </g>
          <g id="Grupo_60978" data-name="Grupo 60978" transform="translate(7.694 12.235)">
            <path id="Trazado_105705" data-name="Trazado 105705" d="M144.638,172.833a.884.884,0,0,1-.443-1.65l71.993-41.564a.884.884,0,1,1,.884,1.531l-71.993,41.565A.876.876,0,0,1,144.638,172.833Z" transform="translate(-143.752 -129.501)" fill="#fff"/>
            <path id="Trazado_105706" data-name="Trazado 105706" d="M144.638,182.3a.884.884,0,0,1-.443-1.649l71.993-41.565a.884.884,0,0,1,.884,1.531L145.079,182.18A.877.877,0,0,1,144.638,182.3Z" transform="translate(-143.752 -130.602)" fill="#fff"/>
            <path id="Trazado_105707" data-name="Trazado 105707" d="M144.638,191.764a.884.884,0,0,1-.443-1.649l71.993-41.566a.884.884,0,0,1,.884,1.532l-71.993,41.565A.877.877,0,0,1,144.638,191.764Z" transform="translate(-143.752 -131.702)" fill="#fff"/>
            <path id="Trazado_105708" data-name="Trazado 105708" d="M144.638,201.23a.884.884,0,0,1-.443-1.649l71.993-41.565a.884.884,0,0,1,.884,1.531l-71.993,41.564A.877.877,0,0,1,144.638,201.23Z" transform="translate(-143.752 -132.803)" fill="#fff"/>
            <path id="Trazado_105709" data-name="Trazado 105709" d="M144.638,210.695a.884.884,0,0,1-.443-1.649l71.993-41.564a.884.884,0,1,1,.884,1.531l-71.993,41.565A.876.876,0,0,1,144.638,210.695Z" transform="translate(-143.752 -133.903)" fill="#fff"/>
            <path id="Trazado_105710" data-name="Trazado 105710" d="M144.638,220.16a.884.884,0,0,1-.443-1.649l71.993-41.565a.884.884,0,1,1,.884,1.531l-71.993,41.566A.885.885,0,0,1,144.638,220.16Z" transform="translate(-143.752 -135.004)" fill="#fff"/>
            <path id="Trazado_105711" data-name="Trazado 105711" d="M144.638,229.626a.884.884,0,0,1-.443-1.65l71.993-41.565a.884.884,0,0,1,.884,1.532l-71.993,41.565A.876.876,0,0,1,144.638,229.626Z" transform="translate(-143.752 -136.104)" fill="#fff"/>
          </g>
        </g>
        <g id="Grupo_60981" data-name="Grupo 60981" transform="translate(15.76 72.298)">
          <ellipse id="Elipse_1682" data-name="Elipse 1682" cx="8.764" cy="5.06" rx="8.764" ry="5.06" transform="translate(0 114.31) rotate(-60)" fill="#ba68c8"/>
          <path id="Trazado_105712" data-name="Trazado 105712" d="M147.439,146.808a13.7,13.7,0,0,1-6.2,10.733c-3.423,1.976-6.2.374-6.2-3.577a13.7,13.7,0,0,1,6.2-10.734C144.664,141.254,147.439,142.856,147.439,146.808Z" transform="translate(-132.479 -142.383)" fill="#4dd0e1"/>
          <ellipse id="Elipse_1683" data-name="Elipse 1683" cx="8.764" cy="5.06" rx="8.764" ry="5.06" transform="translate(0 114.31) rotate(-60)" fill="#4dd0e1"/>
          <g id="Grupo_60980" data-name="Grupo 60980" transform="translate(19.987 82.279)">
            <path id="Trazado_105713" data-name="Trazado 105713" d="M155.644,253.73a.884.884,0,0,1-.443-1.649l28.533-16.474a.884.884,0,0,1,.884,1.531l-28.533,16.474A.877.877,0,0,1,155.644,253.73Z" transform="translate(-154.758 -235.489)" fill="#ba68c8"/>
            <path id="Trazado_105714" data-name="Trazado 105714" d="M155.644,260.678a.884.884,0,0,1-.443-1.649l17.5-10.1a.884.884,0,1,1,.884,1.531l-17.5,10.1A.876.876,0,0,1,155.644,260.678Z" transform="translate(-154.758 -237.037)" fill="#ba68c8"/>
          </g>
        </g>
        <g id="Grupo_60985" data-name="Grupo 60985" transform="translate(18.328 149.927)">
          <g id="Grupo_60983" data-name="Grupo 60983">
            <g id="Grupo_60982" data-name="Grupo 60982">
              <path id="Trazado_105715" data-name="Trazado 105715" d="M221.27,299.774l-83.3,48.092c-1.615.933-2.925-.057-2.925-2.212V284.26a7.01,7.01,0,0,1,2.925-5.591l83.3-48.092c1.615-.932,2.926.057,2.926,2.213v61.394A7.009,7.009,0,0,1,221.27,299.774Z" transform="translate(-135.046 -230.226)" fill="#e0e0e0"/>
            </g>
          </g>
          <g id="Grupo_60984" data-name="Grupo 60984" transform="translate(7.694 12.235)">
            <path id="Trazado_105716" data-name="Trazado 105716" d="M144.638,287.4a.884.884,0,0,1-.443-1.649l71.993-41.564a.884.884,0,0,1,.884,1.531l-71.993,41.565A.885.885,0,0,1,144.638,287.4Z" transform="translate(-143.752 -244.071)" fill="#fff"/>
            <path id="Trazado_105717" data-name="Trazado 105717" d="M144.638,296.868a.884.884,0,0,1-.443-1.649l71.993-41.565a.884.884,0,1,1,.884,1.531L145.079,296.75A.877.877,0,0,1,144.638,296.868Z" transform="translate(-143.752 -245.171)" fill="#fff"/>
            <path id="Trazado_105718" data-name="Trazado 105718" d="M144.638,306.334a.884.884,0,0,1-.443-1.649l71.993-41.565a.884.884,0,0,1,.884,1.531l-71.993,41.565A.877.877,0,0,1,144.638,306.334Z" transform="translate(-143.752 -246.272)" fill="#fff"/>
            <path id="Trazado_105719" data-name="Trazado 105719" d="M144.638,315.8a.884.884,0,0,1-.443-1.649l71.993-41.564a.884.884,0,0,1,.884,1.531l-71.993,41.564A.877.877,0,0,1,144.638,315.8Z" transform="translate(-143.752 -247.373)" fill="#fff"/>
            <path id="Trazado_105720" data-name="Trazado 105720" d="M144.638,325.265a.884.884,0,0,1-.443-1.649l71.993-41.566a.884.884,0,0,1,.884,1.531l-71.993,41.565A.877.877,0,0,1,144.638,325.265Z" transform="translate(-143.752 -248.473)" fill="#fff"/>
            <path id="Trazado_105721" data-name="Trazado 105721" d="M144.638,334.731a.884.884,0,0,1-.443-1.65l71.993-41.565a.884.884,0,0,1,.884,1.532l-71.993,41.565A.876.876,0,0,1,144.638,334.731Z" transform="translate(-143.752 -249.574)" fill="#fff"/>
            <path id="Trazado_105722" data-name="Trazado 105722" d="M144.638,344.2a.884.884,0,0,1-.443-1.649l71.993-41.565a.884.884,0,0,1,.884,1.531l-71.993,41.566A.885.885,0,0,1,144.638,344.2Z" transform="translate(-143.752 -250.674)" fill="#fff"/>
          </g>
        </g>
      </g>
      <g id="Grupo_60998" data-name="Grupo 60998" transform="translate(35.269 20.161)">
        <g id="Grupo_60990" data-name="Grupo 60990">
          <g id="Grupo_60987" data-name="Grupo 60987">
            <path id="Trazado_105723" data-name="Trazado 105723" d="M269.579,87.352l-4.41-2.53a5.128,5.128,0,0,0-.831-.476h0a4.952,4.952,0,0,0-4.607.234L225.408,104.7v1.61c0,4.966-4.026,11.314-8.991,14.184l-10.829,6.245c-3.7,2.14-6.879,1.735-8.258-.665l3.522-2.063-4.256-2.422-35,20.512a13.9,13.9,0,0,0-6.875,12.005V367.47a4.971,4.971,0,0,0,2.471,4.322h0l.031.018c.033.019.065.037.1.055l4.672,2.629v-2.553c.11-.055.22-.1.327-.167,25.54-15.381,77.123-46.175,96.953-58a16.436,16.436,0,0,0,8.021-14.122v-210Z" transform="translate(-154.274 -83.444)" fill="#ebebeb"/>
            <path id="Trazado_105724" data-name="Trazado 105724" d="M161.711,374.821l-4.775-2.686-.01-.057-.021.036a5.414,5.414,0,0,1-2.689-4.7V154.047a14.407,14.407,0,0,1,7.094-12.386l35.005-20.512.442,0,4.255,2.422.005.764-3.122,1.83a3.455,3.455,0,0,0,1.949,1.318,7.489,7.489,0,0,0,5.465-1.183l10.828-6.245c4.837-2.794,8.771-8.986,8.771-13.8v-1.61l.218-.381,34.324-20.12a5.383,5.383,0,0,1,5.013-.255,5.525,5.525,0,0,1,.9.518l4.375,2.507.093.7-2.162,2.162V299.59a16.953,16.953,0,0,1-8.237,14.5c-6.906,4.12-68.309,40.755-96.952,58q-.056.033-.114.064v2.277Zm-4.356-3.465,4.131,2.325v-1.8l.241-.394.118-.057c.061-.029.123-.058.183-.095,28.645-17.251,90.048-53.886,96.956-58.007a16.063,16.063,0,0,0,7.805-13.742v-210l.129-.313L268.8,87.39l-3.91-2.243a4.915,4.915,0,0,0-.794-.458,4.509,4.509,0,0,0-4.2.213l-34.106,19.992v1.357c0,5.1-4.133,11.631-9.213,14.566l-10.828,6.245a8.338,8.338,0,0,1-6.137,1.272,4.4,4.4,0,0,1-2.725-2.1l.16-.6,2.861-1.677-3.369-1.917-34.784,20.382a13.521,13.521,0,0,0-6.657,11.624V367.411a4.538,4.538,0,0,0,2.254,3.942Z" transform="translate(-154.216 -83.386)" fill="#ebebeb"/>
          </g>
          <g id="Grupo_60989" data-name="Grupo 60989" transform="translate(4.251 2.471)">
            <g id="Grupo_60988" data-name="Grupo 60988">
              <path id="Trazado_105725" data-name="Trazado 105725" d="M272.1,91.646V302.389a16.436,16.436,0,0,1-8.021,14.122c-19.831,11.83-71.414,42.623-96.953,58a5.014,5.014,0,0,1-7.6-4.3V156.846a13.9,13.9,0,0,1,6.875-12.005l35.005-20.512v1.352c0,4.966,4.026,6.669,8.991,3.8l10.829-6.245c4.965-2.869,8.991-9.218,8.991-14.184v-1.61l34.324-20.12A5.019,5.019,0,0,1,272.1,91.646Z" transform="translate(-159.085 -86.234)" fill="#fafafa"/>
              <path id="Trazado_105726" data-name="Trazado 105726" d="M271.6,91.595v202.26c0,3.556.369,7.4-.186,10.936-.81,5.163-3.988,9.123-8.389,11.748l-7.719,4.606q-10.362,6.184-20.721,12.371-24.045,14.363-48.07,28.754-5.267,3.158-10.531,6.318c-3.12,1.874-6.2,4.063-9.465,5.675a4.624,4.624,0,0,1-6.607-4.184c-.012-.341,0-.685,0-1.026V161.682c0-1.467,0-2.935,0-4.4a13.852,13.852,0,0,1,6.768-12.175c8.821-5.279,17.744-10.4,26.614-15.6l8.279-4.851-.665-.382c0,1.67-.041,3.388.881,4.86a4.773,4.773,0,0,0,4.454,2.114c2.9-.172,5.586-2.171,8.038-3.585,2.368-1.366,4.756-2.7,7.108-4.1a19.6,19.6,0,0,0,8.891-11.936,12.734,12.734,0,0,0,.323-2.687,5.63,5.63,0,0,0,0-1.138c-.1-.457.153-.339-.19-.053a8.438,8.438,0,0,1,1.137-.666l6.268-3.675,18.5-10.843,7.271-4.262c.372-.217.738-.452,1.118-.655a4.625,4.625,0,0,1,6.892,3.943c.021.566.9.569.884,0a5.522,5.522,0,0,0-8.223-4.706c-1.151.626-2.266,1.328-3.4,1.99L243.415,99.108l-8.478,4.97c-1.549.908-3.256,1.721-4.718,2.766-.491.351-.5.546-.5,1.216a14.872,14.872,0,0,1-1.637,6.953,20.855,20.855,0,0,1-8.56,8.608c-3.021,1.744-6.038,3.5-9.065,5.229-1.849,1.059-4.264,2.141-6.382,1.176-2.269-1.034-2.284-3.613-2.284-5.75a.446.446,0,0,0-.665-.381L175.5,138.917c-3.12,1.828-6.264,3.62-9.361,5.485a14.7,14.7,0,0,0-7.1,12.818c-.01,4.24,0,8.48,0,12.72V369.451c0,.234-.007.469,0,.7a5.53,5.53,0,0,0,6.151,5.428c1.8-.229,3.373-1.5,4.89-2.409l4.634-2.785q5.318-3.195,10.638-6.384,12.01-7.2,24.028-14.386,22.8-13.636,45.612-27.25c6.212-3.707,13.678-6.844,16.416-14.072a20.652,20.652,0,0,0,1.087-7.483V91.595A.442.442,0,0,0,271.6,91.595Z" transform="translate(-159.026 -86.183)" fill="#ebebeb"/>
            </g>
          </g>
        </g>
        <g id="Grupo_60997" data-name="Grupo 60997" transform="translate(16.408 29.627)">
          <path id="Trazado_105727" data-name="Trazado 105727" d="M209.114,364.906l-32.1,18.533c-2.337,1.349-4.231-.083-4.231-3.2h0c0-3.116,1.895-6.737,4.231-8.086l32.1-18.532c2.337-1.349,4.231.083,4.231,3.2h0C213.345,359.937,211.451,363.557,209.114,364.906Z" transform="translate(-172.783 -144.376)" fill="#ba68c8"/>
          <path id="Trazado_105728" data-name="Trazado 105728" d="M264.094,331.53,232,350.063c-2.337,1.349-4.232-.083-4.232-3.2h0c0-3.117,1.895-6.737,4.232-8.086l32.1-18.533c2.337-1.349,4.232.083,4.232,3.2h0C268.326,326.561,266.431,330.181,264.094,331.53Z" transform="translate(-179.176 -140.495)" fill="#ba68c8"/>
          <path id="Trazado_105729" data-name="Trazado 105729" d="M209.114,364.906l-32.1,18.533c-2.337,1.349-4.231-.083-4.231-3.2h0c0-3.116,1.895-6.737,4.231-8.086l32.1-18.532c2.337-1.349,4.231.083,4.231,3.2h0C213.345,359.937,211.451,363.557,209.114,364.906Z" transform="translate(-172.783 -144.376)" fill="#4dd0e1"/>
          <path id="Trazado_105730" data-name="Trazado 105730" d="M264.094,331.53,232,350.063c-2.337,1.349-4.232-.083-4.232-3.2h0c0-3.117,1.895-6.737,4.232-8.086l32.1-18.533c2.337-1.349,4.232.083,4.232,3.2h0C268.326,326.561,266.431,330.181,264.094,331.53Z" transform="translate(-179.176 -140.495)" fill="#fff" opacity="0.6"/>
          <g id="Grupo_60993" data-name="Grupo 60993">
            <g id="Grupo_60992" data-name="Grupo 60992">
              <g id="Grupo_60991" data-name="Grupo 60991">
                <path id="Trazado_105731" data-name="Trazado 105731" d="M259.007,195.688l-83.3,48.092c-1.616.933-2.925-.057-2.925-2.212V170.945a7.008,7.008,0,0,1,2.925-5.59l83.3-48.092c1.615-.933,2.926.057,2.926,2.212V190.1A7.009,7.009,0,0,1,259.007,195.688Z" transform="translate(-172.783 -116.912)" fill="#ba68c8"/>
                <path id="Trazado_105732" data-name="Trazado 105732" d="M259.007,195.688l-83.3,48.092c-1.616.933-2.925-.057-2.925-2.212V170.945a7.008,7.008,0,0,1,2.925-5.59l83.3-48.092c1.615-.933,2.926.057,2.926,2.212V190.1A7.009,7.009,0,0,1,259.007,195.688Z" transform="translate(-172.783 -116.912)" fill="#4dd0e1"/>
              </g>
            </g>
          </g>
          <g id="Grupo_60996" data-name="Grupo 60996" transform="translate(0 91.168)">
            <g id="Grupo_60995" data-name="Grupo 60995">
              <g id="Grupo_60994" data-name="Grupo 60994">
                <path id="Trazado_105733" data-name="Trazado 105733" d="M259.007,298.851l-83.3,48.092c-1.616.933-2.925-.057-2.925-2.212V274.108a7.008,7.008,0,0,1,2.925-5.59l83.3-48.092c1.615-.933,2.926.057,2.926,2.212v70.623A7.009,7.009,0,0,1,259.007,298.851Z" transform="translate(-172.783 -220.075)" fill="#ba68c8"/>
                <path id="Trazado_105734" data-name="Trazado 105734" d="M259.007,298.851l-83.3,48.092c-1.616.933-2.925-.057-2.925-2.212V274.108a7.008,7.008,0,0,1,2.925-5.59l83.3-48.092c1.615-.933,2.926.057,2.926,2.212v70.623A7.009,7.009,0,0,1,259.007,298.851Z" transform="translate(-172.783 -220.075)" fill="#4dd0e1"/>
              </g>
            </g>
          </g>
        </g>
      </g>
      <g id="Grupo_61019" data-name="Grupo 61019" transform="translate(70.353 40.496)">
        <g id="Grupo_61002" data-name="Grupo 61002">
          <g id="Grupo_60999" data-name="Grupo 60999">
            <path id="Trazado_105735" data-name="Trazado 105735" d="M309.488,110.534l-4.846-2.858a4.968,4.968,0,0,0-5.21-.092L265.109,127.7v1.611c0,4.965-4.026,11.313-8.991,14.184l-10.829,6.245c-3.7,2.14-6.878,1.735-8.258-.666l3.522-2.063-4.255-2.422L201.292,165.1a13.9,13.9,0,0,0-6.875,12.006V390.474a4.969,4.969,0,0,0,2.471,4.322v0l.03.018.1.055,4.672,2.628v-2.552c.11-.056.22-.1.328-.168,25.539-15.381,77.123-46.175,96.952-58a16.434,16.434,0,0,0,8.021-14.122V113.034Z" transform="translate(-193.975 -106.455)" fill="#ebebeb"/>
            <path id="Trazado_105736" data-name="Trazado 105736" d="M201.413,397.826l-4.776-2.686-.01-.058-.021.037a5.411,5.411,0,0,1-2.689-4.7V177.052a14.408,14.408,0,0,1,7.094-12.387l35.005-20.511.442,0,4.255,2.422.005.766-3.122,1.828a3.464,3.464,0,0,0,1.949,1.319,7.475,7.475,0,0,0,5.465-1.183l10.828-6.245c4.837-2.8,8.771-8.987,8.771-13.8v-1.611l.218-.381,34.324-20.119a5.439,5.439,0,0,1,5.668.1l4.836,2.852.087.693-2.369,2.37V322.595a16.953,16.953,0,0,1-8.237,14.5c-11.3,6.739-69.068,41.211-96.952,58-.037.022-.074.043-.112.063v2.278Zm-4.358-3.466,4.133,2.325v-1.8l.241-.4.113-.055a1.869,1.869,0,0,0,.186-.1c27.885-16.793,85.658-51.266,96.956-58.006a16.064,16.064,0,0,0,7.805-13.742V112.976l.129-.313,2.1-2.1L304.359,108a4.509,4.509,0,0,0-4.761-.092L265.492,127.9v1.357c0,5.1-4.133,11.631-9.213,14.566l-10.828,6.245a8.333,8.333,0,0,1-6.137,1.271,4.4,4.4,0,0,1-2.725-2.1l.16-.6,2.861-1.676-3.369-1.918-34.784,20.383a13.521,13.521,0,0,0-6.657,11.625V390.416a4.533,4.533,0,0,0,2.254,3.941Z" transform="translate(-193.917 -106.397)" fill="#ebebeb"/>
          </g>
          <g id="Grupo_61001" data-name="Grupo 61001" transform="translate(4.251 2.465)">
            <g id="Grupo_61000" data-name="Grupo 61000">
              <path id="Trazado_105737" data-name="Trazado 105737" d="M311.8,114.649V325.393a16.431,16.431,0,0,1-8.021,14.121c-19.83,11.83-71.414,42.624-96.952,58a5.015,5.015,0,0,1-7.6-4.3V179.85a13.9,13.9,0,0,1,6.875-12.006l35.005-20.511v1.352c0,4.966,4.026,6.669,8.991,3.8l10.829-6.245c4.965-2.87,8.991-9.219,8.991-14.184v-1.611l34.324-20.119A5.018,5.018,0,0,1,311.8,114.649Z" transform="translate(-198.786 -109.238)" fill="#fafafa"/>
              <path id="Trazado_105738" data-name="Trazado 105738" d="M311.3,114.6V316.858c0,3.556.369,7.4-.186,10.936-.81,5.163-3.988,9.123-8.389,11.748l-7.719,4.606q-10.361,6.184-20.721,12.371-24.043,14.363-48.07,28.754-5.267,3.156-10.531,6.317c-3.12,1.874-6.2,4.062-9.465,5.676a4.625,4.625,0,0,1-6.607-4.184c-.011-.34,0-.684,0-1.025V184.686c0-1.468,0-2.935,0-4.4a13.854,13.854,0,0,1,6.768-12.175c8.821-5.279,17.744-10.4,26.614-15.6l8.279-4.851-.665-.382c0,1.669-.041,3.388.882,4.861a4.771,4.771,0,0,0,4.453,2.114c2.9-.172,5.586-2.171,8.038-3.586,2.368-1.365,4.757-2.7,7.108-4.1a19.6,19.6,0,0,0,8.891-11.936,12.72,12.72,0,0,0,.323-2.686,5.56,5.56,0,0,0,0-1.137c-.1-.457.153-.339-.189-.053a8.274,8.274,0,0,1,1.136-.666l6.269-3.675,18.5-10.843,7.271-4.262c.371-.218.737-.452,1.117-.656A4.626,4.626,0,0,1,311.3,114.6c.021.567.9.57.884,0a5.522,5.522,0,0,0-8.223-4.7c-1.151.626-2.266,1.328-3.4,1.99l-17.452,10.229-8.478,4.97c-1.55.908-3.256,1.72-4.719,2.765-.491.352-.5.547-.5,1.216a14.869,14.869,0,0,1-1.637,6.953,20.852,20.852,0,0,1-8.56,8.609c-3.021,1.743-6.038,3.5-9.065,5.228-1.849,1.059-4.264,2.142-6.381,1.177-2.27-1.034-2.284-3.613-2.284-5.75a.446.446,0,0,0-.665-.382L215.2,161.921c-3.12,1.828-6.264,3.619-9.361,5.484a14.707,14.707,0,0,0-7.1,12.818c-.01,4.24,0,8.48,0,12.72V392.455c0,.234-.007.469,0,.7a5.531,5.531,0,0,0,6.151,5.428c1.8-.23,3.374-1.5,4.89-2.409l4.635-2.786q5.317-3.195,10.638-6.383,12.01-7.2,24.028-14.386,22.8-13.638,45.611-27.25c6.212-3.707,13.678-6.845,16.416-14.073a20.65,20.65,0,0,0,1.087-7.483V114.6A.442.442,0,0,0,311.3,114.6Z" transform="translate(-198.727 -109.187)" fill="#ebebeb"/>
            </g>
          </g>
        </g>
        <g id="Grupo_61018" data-name="Grupo 61018" transform="translate(13.841 30.761)">
          <g id="Grupo_61006" data-name="Grupo 61006" transform="translate(2.567)">
            <g id="Grupo_61003" data-name="Grupo 61003">
              <path id="Trazado_105739" data-name="Trazado 105739" d="M298.708,158.044l-83.3,48.092c-1.616.933-2.926-.057-2.926-2.212v-8.685a7.007,7.007,0,0,1,2.926-5.59l83.3-48.092c1.616-.933,2.926.057,2.926,2.212v8.685A7.007,7.007,0,0,1,298.708,158.044Z" transform="translate(-212.484 -141.206)" fill="#ba68c8"/>
              <path id="Trazado_105740" data-name="Trazado 105740" d="M298.708,158.044l-83.3,48.092c-1.616.933-2.926-.057-2.926-2.212v-8.685a7.007,7.007,0,0,1,2.926-5.59l83.3-48.092c1.616-.933,2.926.057,2.926,2.212v8.685A7.007,7.007,0,0,1,298.708,158.044Z" transform="translate(-212.484 -141.206)" fill="#4dd0e1"/>
            </g>
            <g id="Grupo_61005" data-name="Grupo 61005" transform="translate(76.514 6.678)">
              <path id="Trazado_105741" data-name="Trazado 105741" d="M302.082,150.368a1.208,1.208,0,0,1,1.982,1.145,4.384,4.384,0,0,1-1.982,3.434,1.393,1.393,0,0,1-1.4.139c-.772-.446-.772-1.9,0-3.238a4.037,4.037,0,0,1,1.4-1.48m0-1.193a6.143,6.143,0,0,0-2.133,2.251c-1.178,2.04-1.178,4.246,0,4.927a2.135,2.135,0,0,0,2.133-.211,6.152,6.152,0,0,0,2.133-2.252c1.178-2.04,1.178-4.246,0-4.927a2.135,2.135,0,0,0-2.133.212Z" transform="translate(-299.065 -148.762)" fill="#fff"/>
              <g id="Grupo_61004" data-name="Grupo 61004" transform="translate(3.922 5.11)">
                <path id="Trazado_105742" data-name="Trazado 105742" d="M306.889,158.446a.514.514,0,0,1-.365-.151l-2.87-2.869a.516.516,0,0,1,.73-.73l2.87,2.869a.516.516,0,0,1-.365.881Z" transform="translate(-303.503 -154.544)" fill="#fff"/>
              </g>
            </g>
          </g>
          <g id="Grupo_61008" data-name="Grupo 61008" transform="translate(0 50.059)">
            <ellipse id="Elipse_1684" data-name="Elipse 1684" cx="8.764" cy="5.06" rx="8.764" ry="5.06" transform="translate(0 32.031) rotate(-59.999)" fill="#4dd0e1"/>
            <g id="Grupo_61007" data-name="Grupo 61007" transform="translate(19.988)">
              <path id="Trazado_105743" data-name="Trazado 105743" d="M233.082,216.093a.884.884,0,0,1-.443-1.649l28.533-16.474a.884.884,0,1,1,.884,1.531l-28.533,16.473A.877.877,0,0,1,233.082,216.093Z" transform="translate(-232.197 -197.851)" fill="#4dd0e1"/>
              <path id="Trazado_105744" data-name="Trazado 105744" d="M233.082,223.04a.884.884,0,0,1-.443-1.649l17.5-10.1a.884.884,0,1,1,.884,1.531l-17.5,10.1A.876.876,0,0,1,233.082,223.04Z" transform="translate(-232.197 -199.4)" fill="#4dd0e1"/>
            </g>
          </g>
          <g id="Grupo_61010" data-name="Grupo 61010" transform="translate(2.567 73.683)">
            <path id="Trazado_105745" data-name="Trazado 105745" d="M248.815,271.929l-32.1,18.532c-2.337,1.349-4.232-.083-4.232-3.2V251.71c0-3.116,1.895-6.737,4.232-8.086l32.1-18.533c2.337-1.349,4.232.083,4.232,3.2v35.552C253.047,266.959,251.152,270.58,248.815,271.929Z" transform="translate(-212.484 -224.584)" fill="#ba68c8"/>
            <path id="Trazado_105746" data-name="Trazado 105746" d="M248.815,271.929l-32.1,18.532c-2.337,1.349-4.232-.083-4.232-3.2V251.71c0-3.116,1.895-6.737,4.232-8.086l32.1-18.533c2.337-1.349,4.232.083,4.232,3.2v35.552C253.047,266.959,251.152,270.58,248.815,271.929Z" transform="translate(-212.484 -224.584)" fill="#ffca28"/>
            <g id="Grupo_61009" data-name="Grupo 61009" transform="translate(2.953 17.716)">
              <path id="Trazado_105747" data-name="Trazado 105747" d="M250.711,265l-34.885,20.141,10.306-26.815,8.16,7.485,6.274-9.4Z" transform="translate(-215.826 -246)" fill="#fff"/>
              <path id="Trazado_105748" data-name="Trazado 105748" d="M240.771,246.9a7.034,7.034,0,0,1-3.182,5.512c-1.758,1.015-3.182.192-3.182-1.837a7.032,7.032,0,0,1,3.182-5.512C239.346,244.05,240.771,244.873,240.771,246.9Z" transform="translate(-217.986 -244.63)" fill="#fff"/>
            </g>
          </g>
          <g id="Grupo_61012" data-name="Grupo 61012" transform="translate(51.154 45.815)">
            <path id="Trazado_105749" data-name="Trazado 105749" d="M303.795,240.394l-32.1,18.532c-2.337,1.349-4.232-.082-4.232-3.2V220.175c0-3.116,1.895-6.737,4.232-8.086l32.1-18.533c2.337-1.349,4.232.083,4.232,3.2v35.552C308.027,235.424,306.132,239.045,303.795,240.394Z" transform="translate(-267.464 -193.049)" fill="#ba68c8"/>
            <path id="Trazado_105750" data-name="Trazado 105750" d="M303.795,240.394l-32.1,18.532c-2.337,1.349-4.232-.082-4.232-3.2V220.175c0-3.116,1.895-6.737,4.232-8.086l32.1-18.533c2.337-1.349,4.232.083,4.232,3.2v35.552C308.027,235.424,306.132,239.045,303.795,240.394Z" transform="translate(-267.464 -193.049)" fill="#ffca28"/>
            <g id="Grupo_61011" data-name="Grupo 61011" transform="translate(2.839 16.897)">
              <path id="Trazado_105751" data-name="Trazado 105751" d="M305.562,232.539,270.676,252.68l10.307-26.816,8.16,7.485,6.274-9.4Z" transform="translate(-270.676 -213.539)" fill="#fff"/>
              <path id="Trazado_105752" data-name="Trazado 105752" d="M295.621,214.441a7.033,7.033,0,0,1-3.181,5.511c-1.758,1.015-3.182.193-3.182-1.836a7.032,7.032,0,0,1,3.182-5.512C294.2,211.589,295.621,212.411,295.621,214.441Z" transform="translate(-272.837 -212.169)" fill="#fff"/>
            </g>
          </g>
          <g id="Grupo_61013" data-name="Grupo 61013" transform="translate(2.567 179.626)">
            <path id="Trazado_105753" data-name="Trazado 105753" d="M248.815,388.466,216.716,407c-2.337,1.349-4.232-.083-4.232-3.2h0c0-3.117,1.895-6.737,4.232-8.086l32.1-18.533c2.337-1.349,4.232.083,4.232,3.2h0C253.047,383.5,251.152,387.117,248.815,388.466Z" transform="translate(-212.484 -348.21)" fill="#4dd0e1"/>
            <path id="Trazado_105754" data-name="Trazado 105754" d="M303.795,356.259l-32.1,18.532c-2.337,1.349-4.232-.083-4.232-3.2h0c0-3.116,1.895-6.737,4.232-8.086l32.1-18.533c2.337-1.349,4.232.083,4.232,3.2h0C308.027,351.289,306.132,354.91,303.795,356.259Z" transform="translate(-218.877 -344.465)" fill="#4dd0e1"/>
          </g>
          <g id="Grupo_61017" data-name="Grupo 61017" transform="translate(2.567 100.667)">
            <g id="Grupo_61015" data-name="Grupo 61015">
              <g id="Grupo_61014" data-name="Grupo 61014">
                <path id="Trazado_105755" data-name="Trazado 105755" d="M298.708,324.666l-83.3,48.092c-1.616.933-2.926-.057-2.926-2.212V309.152a7.005,7.005,0,0,1,2.926-5.59l83.3-48.093c1.616-.932,2.926.057,2.926,2.213v61.394A7.007,7.007,0,0,1,298.708,324.666Z" transform="translate(-212.484 -255.118)" fill="#e0e0e0"/>
              </g>
            </g>
            <g id="Grupo_61016" data-name="Grupo 61016" transform="translate(7.695 12.235)">
              <path id="Trazado_105756" data-name="Trazado 105756" d="M222.076,312.3a.884.884,0,0,1-.443-1.649l71.993-41.565a.884.884,0,0,1,.884,1.531l-71.993,41.565A.876.876,0,0,1,222.076,312.3Z" transform="translate(-221.191 -268.963)" fill="#fff"/>
              <path id="Trazado_105757" data-name="Trazado 105757" d="M222.076,321.761a.884.884,0,0,1-.443-1.649l71.993-41.564a.884.884,0,0,1,.884,1.531l-71.993,41.564A.876.876,0,0,1,222.076,321.761Z" transform="translate(-221.191 -270.063)" fill="#fff"/>
              <path id="Trazado_105758" data-name="Trazado 105758" d="M222.076,331.226a.884.884,0,0,1-.443-1.65l71.993-41.565a.884.884,0,0,1,.884,1.531l-71.993,41.565A.877.877,0,0,1,222.076,331.226Z" transform="translate(-221.191 -271.164)" fill="#fff"/>
              <path id="Trazado_105759" data-name="Trazado 105759" d="M222.076,340.692a.884.884,0,0,1-.443-1.65l71.993-41.565a.884.884,0,0,1,.884,1.531l-71.993,41.565A.877.877,0,0,1,222.076,340.692Z" transform="translate(-221.191 -272.264)" fill="#fff"/>
              <path id="Trazado_105760" data-name="Trazado 105760" d="M222.076,350.157a.884.884,0,0,1-.443-1.649l71.993-41.564a.884.884,0,1,1,.884,1.531l-71.993,41.565A.885.885,0,0,1,222.076,350.157Z" transform="translate(-221.191 -273.365)" fill="#fff"/>
              <path id="Trazado_105761" data-name="Trazado 105761" d="M222.076,359.622a.884.884,0,0,1-.443-1.649l71.993-41.565a.884.884,0,1,1,.884,1.531L222.517,359.5A.877.877,0,0,1,222.076,359.622Z" transform="translate(-221.191 -274.466)" fill="#fff"/>
              <path id="Trazado_105762" data-name="Trazado 105762" d="M222.076,369.088a.884.884,0,0,1-.443-1.649l71.993-41.565a.884.884,0,1,1,.884,1.531L222.517,368.97A.876.876,0,0,1,222.076,369.088Z" transform="translate(-221.191 -275.566)" fill="#fff"/>
            </g>
          </g>
        </g>
      </g>
    </g>
    <g id="Character" transform="translate(305.374 122.353)">
      <g id="Grupo_61033" data-name="Grupo 61033">
        <g id="Grupo_61029" data-name="Grupo 61029" transform="translate(0 45.664)">
          <path id="Trazado_105763" data-name="Trazado 105763" d="M356.215,245.523l-4.751,5.675,11.122,17.925-3.987,4.643L342.954,255.3a6.265,6.265,0,0,1-.317-7.693l6.133-8.582Z" transform="translate(-341.468 -192.531)" fill="#945959"/>
          <path id="Trazado_105764" data-name="Trazado 105764" d="M370.352,222.892l-4.367-.4a10.074,10.074,0,0,0-8.886,3.861l-9.607,12.361s1.266,4.7,9.132,7.233l11.364-16Z" transform="translate(-342.169 -190.603)" fill="#ba68c8"/>
          <path id="Trazado_105765" data-name="Trazado 105765" d="M370.352,222.892l-4.367-.4a10.074,10.074,0,0,0-8.886,3.861l-9.607,12.361s1.266,4.7,9.132,7.233l11.364-16Z" transform="translate(-342.169 -190.603)" fill="#a9ebf4"/>
          <g id="Grupo_61024" data-name="Grupo 61024" transform="translate(1.518 75.869)">
            <g id="Grupo_61021" data-name="Grupo 61021" transform="translate(0 0.806)">
              <g id="Grupo_61020" data-name="Grupo 61020" transform="translate(0 89.548)">
                <path id="Trazado_105766" data-name="Trazado 105766" d="M367.329,376.77a14,14,0,0,1,.813,6.171c-.067.95-3.187,1.763-4.069,1.967a26.532,26.532,0,0,0-5.018,2.848,14.965,14.965,0,0,1-9.02,3.12c-4.679,0-6.85-1.628-6.85-3.256s3.052-3.458,5.358-3.8c1.49-.219,8.951-4.612,10.308-8Z" transform="translate(-343.186 -374.659)" fill="#263238"/>
                <path id="Trazado_105767" data-name="Trazado 105767" d="M367.329,375.456a14,14,0,0,1,.813,6.171c-.067.949-3.187,1.763-4.069,1.967a26.531,26.531,0,0,0-5.018,2.848,14.964,14.964,0,0,1-9.02,3.12c-4.679,0-6.85-1.628-6.85-3.256s3.052-3.459,5.358-3.8c1.49-.219,8.951-4.612,10.308-8Z" transform="translate(-343.186 -374.506)" fill="#455a64"/>
                <path id="Trazado_105768" data-name="Trazado 105768" d="M353.834,387.766c.065.85,0,2.226,0,2.323a14.083,14.083,0,0,1-3.8.524c-4.679,0-6.85-1.627-6.85-3.255s3.052-3.459,5.358-3.8C348.544,383.562,353.488,383.284,353.834,387.766Z" transform="translate(-343.186 -375.559)" fill="#fafafa"/>
                <path id="Trazado_105769" data-name="Trazado 105769" d="M357.583,383.194a.472.472,0,0,0,.235-.062.481.481,0,0,0,.185-.656,4.916,4.916,0,0,0-3.629-2.136.482.482,0,0,0-.083.96,4.017,4.017,0,0,1,2.872,1.647A.48.48,0,0,0,357.583,383.194Z" transform="translate(-344.426 -375.184)" fill="#fafafa"/>
                <path id="Trazado_105770" data-name="Trazado 105770" d="M360.11,381.43a.468.468,0,0,0,.234-.062.481.481,0,0,0,.186-.655,4.921,4.921,0,0,0-3.629-2.137.482.482,0,0,0-.082.96,4.017,4.017,0,0,1,2.871,1.647A.48.48,0,0,0,360.11,381.43Z" transform="translate(-344.72 -374.979)" fill="#fafafa"/>
                <path id="Trazado_105771" data-name="Trazado 105771" d="M362.412,379.289a.473.473,0,0,0,.235-.062.48.48,0,0,0,.185-.655,4.919,4.919,0,0,0-3.628-2.137.482.482,0,0,0-.083.96,4.016,4.016,0,0,1,2.871,1.647A.481.481,0,0,0,362.412,379.289Z" transform="translate(-344.988 -374.73)" fill="#fafafa"/>
              </g>
              <path id="Trazado_105772" data-name="Trazado 105772" d="M377.151,273.176l-4.21,47.57s.578,5.7-.6,18.989-2.532,24.685-2.532,24.685-6.42,2.442-10.219-1.085c0,0-1.075-32.451-1.084-43.273-.011-11.61,1.084-46.426,1.084-46.426Z" transform="translate(-344.968 -273.176)" fill="#37474f"/>
              <path id="Trazado_105773" data-name="Trazado 105773" d="M374.784,306.88,372.7,290.6s-7-.956-8.22-4.392c-1.52-4.278-.679-9.766-.679-9.766l13.725-.509Z" transform="translate(-345.556 -273.497)" fill="#263238"/>
            </g>
            <g id="Grupo_61023" data-name="Grupo 61023" transform="translate(16.344)">
              <g id="Grupo_61022" data-name="Grupo 61022" transform="translate(22.067 97.475)">
                <path id="Trazado_105774" data-name="Trazado 105774" d="M396.144,383.562a108.993,108.993,0,0,1,1.457,11.107c0,2.846-1.736,6.525-6.525,6.525s-4.581-5.553-4.3-7.844,1.458-9.788,1.458-9.788Z" transform="translate(-386.651 -382.68)" fill="#263238"/>
                <path id="Trazado_105775" data-name="Trazado 105775" d="M396.068,382.564a106.5,106.5,0,0,1,1.424,10.851,6.081,6.081,0,0,1-6.374,6.374c-4.679,0-4.476-5.425-4.2-7.664s1.425-9.562,1.425-9.562Z" transform="translate(-386.668 -382.564)" fill="#455a64"/>
                <path id="Trazado_105776" data-name="Trazado 105776" d="M391.691,393.768h.663a5.326,5.326,0,0,1,4.483,2.451l.358.559a5.9,5.9,0,0,1-6.066,4.313c-2.952,0-3.959-2.158-4.233-4.313h0A5.324,5.324,0,0,1,391.691,393.768Z" transform="translate(-386.68 -383.867)" fill="#fafafa"/>
              </g>
              <path id="Trazado_105777" data-name="Trazado 105777" d="M391.52,272.264,393.69,319.1a115.007,115.007,0,0,1,1.808,28.212c-1.085,14.286-1.265,24.052-1.265,24.052s-6.24,3.255-9.4-.543l-6.419-53.077-4.431-29.026s-8.59-.452-10.308-4.974a37.114,37.114,0,0,1-1.989-9.765Z" transform="translate(-361.681 -272.264)" fill="#37474f"/>
              <path id="Trazado_105778" data-name="Trazado 105778" d="M394.408,390.94a.482.482,0,0,0,.231-.9,5.026,5.026,0,0,0-4.785.019.481.481,0,0,0,.521.81,4.094,4.094,0,0,1,3.8.018A.479.479,0,0,0,394.408,390.94Z" transform="translate(-364.931 -285.885)" fill="#fafafa"/>
              <path id="Trazado_105779" data-name="Trazado 105779" d="M394.408,388.58a.482.482,0,0,0,.231-.906,5.026,5.026,0,0,0-4.785.019.482.482,0,0,0,.521.81,4.091,4.091,0,0,1,3.8.019A.479.479,0,0,0,394.408,388.58Z" transform="translate(-364.931 -285.611)" fill="#fafafa"/>
              <path id="Trazado_105780" data-name="Trazado 105780" d="M394.408,386.219a.482.482,0,0,0,.231-.9,5.023,5.023,0,0,0-4.785.019.482.482,0,0,0,.521.81,4.092,4.092,0,0,1,3.8.018A.48.48,0,0,0,394.408,386.219Z" transform="translate(-364.931 -285.337)" fill="#fafafa"/>
            </g>
          </g>
          <path id="Trazado_105781" data-name="Trazado 105781" d="M360.175,233l-1.257,37.862s12.809,9.3,33.215,2.253l.028-42.514a6.172,6.172,0,0,0-5.551-6.145l-14.93-1.513A10.458,10.458,0,0,0,360.175,233Z" transform="translate(-343.497 -190.654)" fill="#ba68c8"/>
          <path id="Trazado_105782" data-name="Trazado 105782" d="M360.175,233l-1.257,37.862s12.809,9.3,33.215,2.253l.028-42.514a6.172,6.172,0,0,0-5.551-6.145l-14.93-1.513A10.458,10.458,0,0,0,360.175,233Z" transform="translate(-343.497 -190.654)" fill="#4dd0e1"/>
          <path id="Trazado_105783" data-name="Trazado 105783" d="M406.559,244.587l3.8,10.579,25.04,5.154V267.1l-28.727-1.7a5.767,5.767,0,0,1-4.937-3.4l-5.2-11.585Z" transform="translate(-347.871 -193.177)" fill="#945959"/>
          <path id="Trazado_105784" data-name="Trazado 105784" d="M390.254,224.662v4.984a31.033,31.033,0,0,0,2.285,11.689l4.327,10.644s9.665-2.068,11.371-6.77l-6.2-14.456a9.855,9.855,0,0,0-8.653-5.962Z" transform="translate(-347.141 -190.86)" fill="#ba68c8"/>
          <path id="Trazado_105785" data-name="Trazado 105785" d="M390.254,224.662v4.984a31.033,31.033,0,0,0,2.285,11.689l4.327,10.644s9.665-2.068,11.371-6.77l-6.2-14.456a9.855,9.855,0,0,0-8.653-5.962Z" transform="translate(-347.141 -190.86)" fill="#a9ebf4"/>
          <g id="Grupo_61028" data-name="Grupo 61028" transform="translate(16.715)">
            <path id="Trazado_105786" data-name="Trazado 105786" d="M363.449,191.729s-5.514,4.838-.722,15.623l5.6-14.58Z" transform="translate(-360.427 -187.031)" fill="#263238"/>
            <g id="Grupo_61026" data-name="Grupo 61026" transform="translate(11.901 18.105)">
              <g id="Grupo_61025" data-name="Grupo 61025">
                <path id="Trazado_105787" data-name="Trazado 105787" d="M383.152,222.075l-9.3,6.949V206.9h9.3Z" transform="translate(-373.849 -206.9)" fill="#945959"/>
              </g>
            </g>
            <path id="Trazado_105788" data-name="Trazado 105788" d="M373.849,219.594c3.431-1.325,7.79-3.525,7.79-5.625l1.129-7.069h-8.919Z" transform="translate(-361.948 -188.795)" fill="#703838"/>
            <path id="Trazado_105789" data-name="Trazado 105789" d="M374.5,188.347c-3.383,0-10.575,1.886-11.4,10.735s.464,16.376,4.539,16.376c8,0,15.68-1.015,15.744-14.106C383.43,189.808,377.8,188.347,374.5,188.347Z" transform="translate(-360.669 -186.638)" fill="#945959"/>
            <path id="Trazado_105790" data-name="Trazado 105790" d="M381.586,208.882l-1.3-4a.671.671,0,0,1-1.1-.513V197.24s-3.325-.942-2.973-3.739c0,0-1.7,1.521-8.227,1.521s-8.113-5.531-7.46-8.608c0,0,1.212,1.248,4.663,1.248s17.811-4.335,18.184,4.343c0,0,1.212-1.776,3.17,0l-2.518,1.5s2.984-.095,2.518,4.289c-.367,3.453-1.807,10-2.4,12.631a2.915,2.915,0,0,1-1.218,1.775l-1.328.893Z" transform="translate(-360.382 -186.413)" fill="#263238"/>
            <path id="Trazado_105791" data-name="Trazado 105791" d="M369.873,203.5v5.219l-3.056-.938Z" transform="translate(-361.13 -188.4)" fill="#703838"/>
            <g id="Grupo_61027" data-name="Grupo 61027" transform="translate(3.795 11.323)">
              <path id="Trazado_105792" data-name="Trazado 105792" d="M376.136,204.383a1.063,1.063,0,1,1-1.063-1.063A1.063,1.063,0,0,1,376.136,204.383Z" transform="translate(-365.761 -199.702)" fill="#263238"/>
              <path id="Trazado_105793" data-name="Trazado 105793" d="M367.132,203.544a1.064,1.064,0,1,1-1.064-1.063A1.064,1.064,0,0,1,367.132,203.544Z" transform="translate(-364.714 -199.604)" fill="#263238"/>
              <path id="Trazado_105794" data-name="Trazado 105794" d="M364.734,200.951l2.079-1.235s-.8-.83-1.592-.331A1.453,1.453,0,0,0,364.734,200.951Z" transform="translate(-364.676 -199.226)" fill="#263238"/>
              <path id="Trazado_105795" data-name="Trazado 105795" d="M377.385,201.82l-2.079-1.235s.8-.83,1.592-.331A1.452,1.452,0,0,1,377.385,201.82Z" transform="translate(-365.912 -199.327)" fill="#263238"/>
            </g>
            <path id="Trazado_105796" data-name="Trazado 105796" d="M368.648,211.7a4.537,4.537,0,0,0,2.864-.766s.2,1.508-1.068,1.8A1.638,1.638,0,0,1,368.648,211.7Z" transform="translate(-361.343 -189.264)" fill="#703838"/>
            <path id="Trazado_105797" data-name="Trazado 105797" d="M383.391,205.3c-1.2,2.086-.9,4.623.786,5.491,1.081.559,4.269-.645,5.474-2.732s.528-3.878-1.111-4.824S384.6,203.218,383.391,205.3Z" transform="translate(-362.973 -188.326)" fill="#945959"/>
            <path id="Trazado_105798" data-name="Trazado 105798" d="M382.8,206.65l3.68-3.991-2.644-1.588Z" transform="translate(-362.989 -188.117)" fill="#253239"/>
          </g>
        </g>
        <g id="Grupo_61032" data-name="Grupo 61032" transform="translate(62.626)">
          <path id="Trazado_105799" data-name="Trazado 105799" d="M424.784,346.574H412.335V349.9a28.485,28.485,0,0,0,1.029,7.589l10,36.218a1.47,1.47,0,0,0,2.834,0l10-36.218a28.528,28.528,0,0,0,1.029-7.589v-3.323Z" transform="translate(-412.335 -159.372)" fill="#ffa8a7"/>
          <g id="Grupo_61030" data-name="Grupo 61030" transform="translate(8.503 225.175)">
            <path id="Trazado_105800" data-name="Trazado 105800" d="M429.166,390.061a7.213,7.213,0,0,1-6.527,0,3.5,3.5,0,0,1-.682-.519l2.529,9.157a1.47,1.47,0,0,0,2.834,0l2.529-9.157A3.44,3.44,0,0,1,429.166,390.061Z" transform="translate(-421.957 -389.543)" fill="#37474f"/>
          </g>
          <path id="Trazado_105801" data-name="Trazado 105801" d="M412.335,160.436V329.173h0c0,1.84,1.215,3.679,3.646,5.083,4.861,2.807,12.744,2.807,17.606,0,2.43-1.4,3.646-3.243,3.646-5.083h0V160.436Z" transform="translate(-412.335 -137.728)" fill="#ffca28"/>
          <g id="Grupo_61031" data-name="Grupo 61031">
            <path id="Trazado_105802" data-name="Trazado 105802" d="M433.588,192.019c4.861,2.808,4.861,7.358,0,10.165s-12.745,2.807-17.606,0-4.861-7.358,0-10.165S428.725,189.212,433.588,192.019Z" transform="translate(-412.335 -141.156)" fill="#e6e6e6"/>
            <rect id="Rectángulo_7837" data-name="Rectángulo 7837" width="24.899" height="27.631" transform="translate(0 28.315)" fill="#e6e6e6"/>
            <path id="Trazado_105803" data-name="Trazado 105803" d="M433.588,191.883c-4.862,2.807-12.745,2.807-17.606,0-2.431-1.4-3.646-3.243-3.646-5.082h0v3.435h0c0,1.839,1.215,3.679,3.646,5.082,4.861,2.807,12.744,2.807,17.606,0,2.43-1.4,3.646-3.243,3.646-5.082V186.8C437.234,188.64,436.018,190.48,433.588,191.883Z" transform="translate(-412.335 -140.794)" fill="#4dd0e1"/>
            <path id="Trazado_105804" data-name="Trazado 105804" d="M433.588,180c-4.862,2.808-12.745,2.808-17.606,0-2.431-1.4-3.646-3.242-3.646-5.082h0v3.435h0c0,1.839,1.215,3.679,3.646,5.082,4.861,2.808,12.744,2.808,17.606,0,2.43-1.4,3.646-3.243,3.646-5.082v-3.435C437.234,176.754,436.018,178.593,433.588,180Z" transform="translate(-412.335 -139.411)" fill="#4dd0e1"/>
            <path id="Trazado_105805" data-name="Trazado 105805" d="M433.588,160.752c4.861,2.808,4.861,7.359,0,10.165s-12.745,2.807-17.606,0-4.861-7.358,0-10.165S428.725,157.945,433.588,160.752Z" transform="translate(-412.335 -137.52)" fill="#f28f8f"/>
            <rect id="Rectángulo_7838" data-name="Rectángulo 7838" width="24.899" height="21.127" transform="translate(0 7.188)" fill="#f28f8f"/>
            <path id="Trazado_105806" data-name="Trazado 105806" d="M433.588,136.846c4.861,2.807,4.861,7.358,0,10.165s-12.745,2.807-17.606,0-4.861-7.358,0-10.165S428.725,134.038,433.588,136.846Z" transform="translate(-412.335 -134.74)" fill="#ffa8a7"/>
          </g>
        </g>
        <path id="Trazado_105807" data-name="Trazado 105807" d="M439.661,257.922a4.66,4.66,0,0,1-4.562,0c-3.844-1.815-1.874,10.785,4.562,9.077s4.408-11.426,0-11.426Z" transform="translate(-352.128 -148.79)" fill="#945959"/>
      </g>
    </g>
  </g>
</svg>
