<svg xmlns="http://www.w3.org/2000/svg" width="117.313" height="106.853" viewBox="0 0 117.313 106.853">
  <g id="Grupo_92527" data-name="Grupo 92527" transform="translate(-266.258 -6362.976)">
    <g id="app_1_" data-name="app (1)" transform="translate(324 6362.977)">
      <path id="Trazado_105512" data-name="Trazado 105512" d="M58.662,104.456H12.995a5.487,5.487,0,0,1-5.487-5.487V12.995a5.487,5.487,0,0,1,5.487-5.487H58.662a5.487,5.487,0,0,1,5.487,5.487V98.969A5.487,5.487,0,0,1,58.662,104.456Zm0,0" transform="translate(-6.043 -6.043)" fill="#f9efef"/>
      <path id="Trazado_105514" data-name="Trazado 105514" d="M58.662,456.819H12.995a5.487,5.487,0,0,1-5.487-5.487v-6.066H64.149v6.066A5.487,5.487,0,0,1,58.662,456.819Zm0,0" transform="translate(-6.043 -358.406)" fill="#ffca28"/>
      <path id="Trazado_105516" data-name="Trazado 105516" d="M250.4,445.262v6.066a5.487,5.487,0,0,1-5.486,5.488H238.9a5.487,5.487,0,0,0,5.486-5.488v-6.066Zm0,0" transform="translate(-192.296 -358.403)" fill="#ffa726"/>
      <path id="Trazado_105520" data-name="Trazado 105520" d="M105.519,32.848a1.464,1.464,0,1,0,0,2.928h4.011a1.464,1.464,0,1,0,0-2.928Zm0,0" transform="translate(-83.756 -26.44)"/>
      <path id="Trazado_105521" data-name="Trazado 105521" d="M157.213,32.848h-7.405a1.464,1.464,0,0,0,0,2.928h7.405a1.464,1.464,0,1,0,0-2.928Zm0,0" transform="translate(-119.406 -26.44)"/>
      <path id="Trazado_105522" data-name="Trazado 105522" d="M52.619,0H6.952A6.962,6.962,0,0,0,.036,6.242,7.057,7.057,0,0,0,0,6.952V54.364a1.465,1.465,0,0,0,2.929,0V14.931H35.968a1.464,1.464,0,1,0,0-2.928H2.929V6.952A4.027,4.027,0,0,1,6.952,2.929H52.619a4.027,4.027,0,0,1,4.023,4.023V12H42.672a1.464,1.464,0,1,0,0,2.928H56.641V85.395H2.929V61.068a1.465,1.465,0,1,0-2.929,0V92.925a7.057,7.057,0,0,0,.036.71,6.962,6.962,0,0,0,6.916,6.242H52.619a6.96,6.96,0,0,0,6.952-6.952V6.952A6.96,6.96,0,0,0,52.619,0Zm4.023,92.925a4.028,4.028,0,0,1-4.023,4.023H6.952a4.027,4.027,0,0,1-4.023-4.023v-4.6H56.641Zm0,0"/>
      <path id="Trazado_105523" data-name="Trazado 105523" d="M124.578,466.065h8.609a1.464,1.464,0,1,0,0-2.928h-8.609a1.464,1.464,0,1,0,0,2.928Zm0,0" transform="translate(-99.097 -372.791)"/>
    </g>
    <g id="arrow" transform="translate(266.258 6437.877)">
      <g id="Grupo_60910" data-name="Grupo 60910" transform="translate(0 0)">
        <path id="Trazado_105524" data-name="Trazado 105524" d="M2.239,45.2a2.663,2.663,0,0,1,.461-.034H28.985l-.573-.267a5.331,5.331,0,0,1-1.506-1.066l-7.371-7.371a2.759,2.759,0,0,1-.387-3.532,2.666,2.666,0,0,1,4-.347L36.476,45.915a2.666,2.666,0,0,1,0,3.77l0,0L23.147,63.016a2.666,2.666,0,0,1-4-.267,2.759,2.759,0,0,1,.387-3.532l7.358-7.384a5.332,5.332,0,0,1,1.333-.973l.8-.36H2.847A2.759,2.759,0,0,1,.035,48.261,2.666,2.666,0,0,1,2.239,45.2Z" transform="translate(0 -31.842)" fill="#12263f"/>
      </g>
    </g>
  </g>
</svg>
