<svg xmlns="http://www.w3.org/2000/svg" width="188" height="188" viewBox="0 0 188 188">
  <g id="Grupo_60957" data-name="Grupo 60957" transform="translate(-1067 -1560)">
    <g id="Right" transform="translate(1066.972 1559.967)">
      <rect id="BG" width="188" height="188" rx="5" transform="translate(0.028 0.033)" fill="#ffca28" opacity="0.949"/>
    </g>
    <g id="seguridad" transform="translate(1046.146 1584.731)">
      <g id="Grupo_60941" data-name="Grupo 60941" transform="translate(76.42 2.039)">
        <path id="Trazado_105624" data-name="Trazado 105624" d="M155.215,141.959H90.04a8.157,8.157,0,0,1-8.157-8.157V15.657A8.157,8.157,0,0,1,90.04,7.5h8.754l26,6.084L146.46,7.5h8.755a8.157,8.157,0,0,1,8.157,8.157V133.8A8.157,8.157,0,0,1,155.215,141.959Z" transform="translate(-81.882 -7.5)" fill="#4dd0e1"/>
        <path id="Trazado_105625" data-name="Trazado 105625" d="M191.743,7.5v5.794a6.371,6.371,0,0,1-6.371,6.374H150.451a6.374,6.374,0,0,1-6.374-6.374V7.5Z" transform="translate(-127.165 -7.5)" fill="#685e68"/>
        <path id="Trazado_105626" data-name="Trazado 105626" d="M253.189,105.252a1.647,1.647,0,0,1,1.732,1.646v52.64a19.55,19.55,0,0,1-11.285,17.72l-18.994,8.856a4.657,4.657,0,0,1-3.936,0l-18.994-8.856a19.55,19.55,0,0,1-11.285-17.72V106.9a1.647,1.647,0,0,1,1.732-1.646Z" transform="translate(-160.912 -78.671)" fill="#ffe177"/>
        <path id="Trazado_105627" data-name="Trazado 105627" d="M231.215,194.122a10.068,10.068,0,0,1-5.789-9.1V140.984a.726.726,0,0,1,.726-.726h44.01a.726.726,0,0,1,.726.726v44.044a10.068,10.068,0,0,1-5.79,9.1l-16.941,7.9Z" transform="translate(-186.395 -104.16)" fill="#ffca28"/>
        <path id="Trazado_105628" data-name="Trazado 105628" d="M98.2,141.959H90.038a8.157,8.157,0,0,1-8.157-8.157V15.657A8.157,8.157,0,0,1,90.038,7.5H98.2a8.157,8.157,0,0,0-8.157,8.157V133.8A8.157,8.157,0,0,0,98.2,141.959Z" transform="translate(-81.881 -7.5)" fill="#a9ebf4"/>
        <path id="Trazado_105629" data-name="Trazado 105629" d="M158.612,19.668h-8.157a6.374,6.374,0,0,1-6.374-6.374V7.5h8.157v5.794A6.374,6.374,0,0,0,158.612,19.668Z" transform="translate(-127.168 -7.5)" fill="#554e56"/>
        <path id="Trazado_105630" data-name="Trazado 105630" d="M252.231,200.121l-4.079,1.9-16.94-7.9a10.066,10.066,0,0,1-5.792-9.093V140.986a.726.726,0,0,1,.726-.726H234.3a.726.726,0,0,0-.726.726V185.03a10.066,10.066,0,0,0,5.792,9.093Z" transform="translate(-186.391 -104.161)" fill="#ffa726"/>
        <path id="Trazado_105631" data-name="Trazado 105631" d="M226.748,185.133l-2.11.984a4.678,4.678,0,0,1-3.937,0l-18.993-8.856a19.552,19.552,0,0,1-11.287-17.72V106.9a1.648,1.648,0,0,1,1.735-1.645h8.013a1.646,1.646,0,0,0-1.591,1.645v52.642a19.552,19.552,0,0,0,11.287,17.72Z" transform="translate(-160.908 -78.672)" fill="#ffd15b"/>
      </g>
      <g id="Grupo_60942" data-name="Grupo 60942" transform="translate(74.38 0)">
        <path id="Trazado_105632" data-name="Trazado 105632" d="M183.843,454.829a2.039,2.039,0,1,0,0-4.079H133.268a2.039,2.039,0,1,0,0,4.079Z" transform="translate(-115.771 -328.187)"/>
        <path id="Trazado_105633" data-name="Trazado 105633" d="M170.429,43.166a2.039,2.039,0,0,0,2.039-2.039V30.266a3.687,3.687,0,0,0-3.813-3.684H159.95V10.2A10.208,10.208,0,0,0,149.753,0H84.577a10.208,10.208,0,0,0-10.2,10.2v95.644a2.039,2.039,0,1,0,4.079,0V10.2a6.125,6.125,0,0,1,6.118-6.118h6.715V7.834A8.422,8.422,0,0,0,99.7,16.247h34.921a8.421,8.421,0,0,0,8.41-8.413V4.079h6.717a6.125,6.125,0,0,1,6.118,6.118V26.582H107.709a3.688,3.688,0,0,0-3.816,3.684V82.908a21.669,21.669,0,0,0,12.465,19.568l19,8.858a6.706,6.706,0,0,0,5.658,0l14.86-6.929v23.938a6.125,6.125,0,0,1-6.118,6.118H84.577a6.125,6.125,0,0,1-6.118-6.118V115.357a2.039,2.039,0,1,0-4.079,0v12.984a10.208,10.208,0,0,0,10.2,10.2h65.177a10.208,10.208,0,0,0,10.2-10.2V102.5l.054-.025a21.669,21.669,0,0,0,12.464-19.568V50.643a2.039,2.039,0,0,0-4.079,0V82.908a17.576,17.576,0,0,1-10.11,15.872l-18.989,8.854a2.631,2.631,0,0,1-2.217,0L118.082,98.78a17.576,17.576,0,0,1-10.11-15.872V30.66H168.39V41.126a2.039,2.039,0,0,0,2.039,2.039ZM138.957,7.834a4.338,4.338,0,0,1-4.331,4.334H99.7A4.339,4.339,0,0,1,95.37,7.834V4.079h43.587Z" transform="translate(-74.38 0)"/>
        <path id="Trazado_105634" data-name="Trazado 105634" d="M220.69,132.758a2.768,2.768,0,0,0-2.765,2.765v44.044a12.115,12.115,0,0,0,6.967,10.943h0l16.941,7.9a2.04,2.04,0,0,0,1.723,0l16.941-7.9a12.115,12.115,0,0,0,6.967-10.944V135.523a2.768,2.768,0,0,0-2.765-2.765Zm42.7,46.809a8.021,8.021,0,0,1-4.612,7.247l-16.079,7.5-16.079-7.5h0A8.022,8.022,0,0,1,222,179.567v-42.73h41.383Z" transform="translate(-178.894 -96.66)"/>
      </g>
    </g>
  </g>
</svg>
