<svg xmlns="http://www.w3.org/2000/svg" width="188" height="188" viewBox="0 0 188 188">
  <g id="Grupo_92489" data-name="Grupo 92489" transform="translate(-1029 -6156)">
    <g id="Right" transform="translate(1028.972 6155.967)">
      <rect id="BG" width="188" height="188" rx="5" transform="translate(0.028 0.033)" fill="#ffca28" opacity="0.949"/>
    </g>
    <g id="continuo" transform="translate(1073 6199.594)">
      <circle id="Elipse_1688" data-name="Elipse 1688" cx="11.171" cy="11.171" r="11.171" transform="translate(4.128 4.128)" fill="#4dd0e1"/>
      <circle id="Elipse_1689" data-name="Elipse 1689" cx="11.171" cy="11.171" r="11.171" transform="translate(36.044 4.128)" fill="#4dd0e1"/>
      <circle id="Elipse_1690" data-name="Elipse 1690" cx="11.171" cy="11.171" r="11.171" transform="translate(67.96 4.128)" fill="#4dd0e1"/>
      <circle id="Elipse_1691" data-name="Elipse 1691" cx="11.171" cy="11.171" r="11.171" transform="translate(10.511 74.343)" fill="#fff"/>
      <circle id="Elipse_1692" data-name="Elipse 1692" cx="11.171" cy="11.171" r="11.171" transform="translate(42.427 74.343)" fill="#fff"/>
      <circle id="Elipse_1693" data-name="Elipse 1693" cx="11.171" cy="11.171" r="11.171" transform="translate(74.343 74.343)" fill="#fff"/>
      <g id="Grupo_92488" data-name="Grupo 92488" transform="translate(2 2)">
        <path id="Trazado_105834" data-name="Trazado 105834" d="M10.661,13.22,8.575,11.134,6.293,13.415,9.52,16.642a1.613,1.613,0,0,0,2.282,0l8.068-8.068L17.588,6.293Z" transform="translate(0.634 0.634)" fill="#153049"/>
        <path id="Trazado_105835" data-name="Trazado 105835" d="M30.661,13.22l-2.086-2.086-2.282,2.282,3.227,3.227a1.613,1.613,0,0,0,2.282,0l8.068-8.068L37.588,6.293Z" transform="translate(12.905 0.634)" fill="#153049"/>
        <path id="Trazado_105836" data-name="Trazado 105836" d="M50.661,13.22l-2.086-2.086-2.282,2.282,3.227,3.227a1.613,1.613,0,0,0,2.282,0l8.068-8.068L57.588,6.293Z" transform="translate(25.175 0.634)" fill="#153049"/>
        <path id="Trazado_105837" data-name="Trazado 105837" d="M14.661,61.115a1.609,1.609,0,0,0,1.141-.473l8.068-8.068-2.282-2.282L14.661,57.22l-2.086-2.086-2.282,2.282,3.227,3.227a1.609,1.609,0,0,0,1.141.473Z" transform="translate(3.088 27.629)" fill="#153049"/>
        <path id="Trazado_105838" data-name="Trazado 105838" d="M34.661,61.115a1.609,1.609,0,0,0,1.141-.473l8.068-8.068-2.282-2.282L34.661,57.22l-2.086-2.086-2.282,2.282,3.227,3.227A1.609,1.609,0,0,0,34.661,61.115Z" transform="translate(15.359 27.629)" fill="#153049"/>
        <path id="Trazado_105839" data-name="Trazado 105839" d="M54.661,61.115a1.609,1.609,0,0,0,1.141-.473l8.068-8.068-2.282-2.282L54.661,57.22l-2.086-2.086-2.282,2.282,3.227,3.227A1.609,1.609,0,0,0,54.661,61.115Z" transform="translate(27.629 27.629)" fill="#153049"/>
        <path id="Trazado_105840" data-name="Trazado 105840" d="M98.812,43.952V21.362a8.073,8.073,0,0,0-6.543-7.913,12.9,12.9,0,0,0-25.616-.155H59.974a12.9,12.9,0,0,0-25.592,0H27.7a12.9,12.9,0,1,0,0,3.227h6.678a12.9,12.9,0,0,0,25.594,0h6.678a12.894,12.894,0,0,0,25.555.25,4.833,4.833,0,0,1,3.374,4.591V43.952a4.847,4.847,0,0,1-4.841,4.841H63.982l3.7-3.7L65.4,42.811l-5.981,5.981H51.074l3.7-3.7-2.282-2.282-5.981,5.981H38.166l3.7-3.7-2.282-2.282L33.6,48.792H10.068A8.077,8.077,0,0,0,2,56.86V79.45a8.073,8.073,0,0,0,6.543,7.913,12.9,12.9,0,0,0,25.616.155h6.678a12.9,12.9,0,0,0,25.594,0H73.11a12.908,12.908,0,1,0,0-3.227H66.432a12.9,12.9,0,0,0-25.594,0H34.159A12.894,12.894,0,0,0,8.6,84.04,4.832,4.832,0,0,1,5.227,79.45V56.86a4.847,4.847,0,0,1,4.841-4.841H33.6L39.584,58l2.282-2.282-3.7-3.7h8.345L52.492,58l2.282-2.282-3.7-3.7h8.345L65.4,58l2.282-2.282-3.7-3.7H90.744a8.077,8.077,0,0,0,8.068-8.068Zm-83.9-19.362a9.681,9.681,0,1,1,9.681-9.681A9.691,9.691,0,0,1,14.908,24.589Zm32.271,0a9.681,9.681,0,1,1,9.681-9.681A9.691,9.691,0,0,1,47.179,24.589Zm32.271,0a9.681,9.681,0,1,1,9.681-9.681A9.691,9.691,0,0,1,79.45,24.589ZM85.9,76.223A9.681,9.681,0,1,1,76.223,85.9,9.691,9.691,0,0,1,85.9,76.223Zm-32.271,0A9.681,9.681,0,1,1,43.952,85.9,9.691,9.691,0,0,1,53.633,76.223Zm-32.271,0A9.681,9.681,0,1,1,11.681,85.9,9.691,9.691,0,0,1,21.362,76.223Z" transform="translate(-2 -2)" fill="#153049"/>
      </g>
    </g>
  </g>
</svg>
