<svg xmlns="http://www.w3.org/2000/svg" width="549" height="388" viewBox="0 0 549 388">
  <g id="Grupo_92525" data-name="Grupo 92525" transform="translate(-526 -9603)">
    <path id="Trazado_106228" data-name="Trazado 106228" d="M5,0H544a5,5,0,0,1,5,5V383a5,5,0,0,1-5,5H5a5,5,0,0,1-5-5V5A5,5,0,0,1,5,0Z" transform="translate(526 9603)" fill="#f6f6f6"/>
    <path id="Trazado_106229" data-name="Trazado 106229" d="M5.576-14.219,8.75-4.326l3.164-9.893h4.512V0H12.988V-3.32l.332-6.8L9.883,0H7.617L4.17-10.127,4.5-3.32V0H1.074V-14.219ZM23.564.2a5.432,5.432,0,0,1-3.936-1.45,5.008,5.008,0,0,1-1.5-3.774V-5.3a6.489,6.489,0,0,1,.6-2.861,4.395,4.395,0,0,1,1.753-1.919,5.292,5.292,0,0,1,2.734-.679A4.574,4.574,0,0,1,26.729-9.38a5.43,5.43,0,0,1,1.289,3.853v1.279H21.475a2.372,2.372,0,0,0,.771,1.4,2.3,2.3,0,0,0,1.543.508A2.958,2.958,0,0,0,26.23-3.437l1.5,1.777A4.2,4.2,0,0,1,25.991-.308,5.891,5.891,0,0,1,23.564.2Zm-.371-8.418q-1.445,0-1.719,1.914h3.32v-.254a1.63,1.63,0,0,0-.4-1.226A1.593,1.593,0,0,0,23.193-8.223Zm-.039-6.787h3.477l-2.715,3.066H21.23Zm10.02,1.816v2.627h1.738v2.285H33.174v4.834a1.234,1.234,0,0,0,.215.83,1.152,1.152,0,0,0,.85.234,4.828,4.828,0,0,0,.82-.059V-.088A6.074,6.074,0,0,1,33.2.2a3.448,3.448,0,0,1-2.51-.8,3.282,3.282,0,0,1-.811-2.432V-8.281H28.535v-2.285h1.348v-2.627ZM35.5-5.381A6.236,6.236,0,0,1,36.113-8.2a4.4,4.4,0,0,1,1.768-1.9,5.323,5.323,0,0,1,2.705-.664,4.858,4.858,0,0,1,3.74,1.47,5.64,5.64,0,0,1,1.367,4v.117a5.472,5.472,0,0,1-1.372,3.921A4.871,4.871,0,0,1,40.605.2a4.927,4.927,0,0,1-3.623-1.353,5.29,5.29,0,0,1-1.475-3.667Zm3.291.205a3.932,3.932,0,0,0,.459,2.148,1.529,1.529,0,0,0,1.357.684q1.758,0,1.8-2.705v-.332q0-2.842-1.816-2.842-1.65,0-1.787,2.451Zm7.939-.186a6.455,6.455,0,0,1,1.084-3.955,3.568,3.568,0,0,1,3.027-1.445,3.035,3.035,0,0,1,2.383,1.113V-15h3.3V0H53.564L53.4-1.133A3.116,3.116,0,0,1,50.82.2,3.562,3.562,0,0,1,47.832-1.25,6.659,6.659,0,0,1,46.729-5.361Zm3.291.205q0,2.813,1.641,2.813a1.62,1.62,0,0,0,1.563-.918V-7.285a1.576,1.576,0,0,0-1.543-.937q-1.523,0-1.65,2.461Zm7.959-.225A6.236,6.236,0,0,1,58.594-8.2a4.4,4.4,0,0,1,1.768-1.9,5.323,5.323,0,0,1,2.705-.664,4.858,4.858,0,0,1,3.74,1.47,5.64,5.64,0,0,1,1.367,4v.117A5.472,5.472,0,0,1,66.8-1.255,4.871,4.871,0,0,1,63.086.2a4.927,4.927,0,0,1-3.623-1.353,5.29,5.29,0,0,1-1.475-3.667Zm3.291.205a3.932,3.932,0,0,0,.459,2.148,1.529,1.529,0,0,0,1.357.684q1.758,0,1.8-2.705v-.332q0-2.842-1.816-2.842-1.65,0-1.787,2.451ZM75.156-2.969a.76.76,0,0,0-.439-.674,6.685,6.685,0,0,0-1.67-.527,7.615,7.615,0,0,1-2.031-.718,3.4,3.4,0,0,1-1.221-1.079,2.577,2.577,0,0,1-.42-1.455,2.92,2.92,0,0,1,1.2-2.4,4.948,4.948,0,0,1,3.145-.942,5.482,5.482,0,0,1,3.359.947,2.962,2.962,0,0,1,1.27,2.49h-3.3q0-1.27-1.338-1.27a1.326,1.326,0,0,0-.869.288.892.892,0,0,0-.352.718.819.819,0,0,0,.43.713,4.06,4.06,0,0,0,1.372.449,11.857,11.857,0,0,1,1.655.42A3.007,3.007,0,0,1,78.33-3.066,2.767,2.767,0,0,1,77.046-.713,5.631,5.631,0,0,1,73.721.2,5.747,5.747,0,0,1,71.3-.293a4.05,4.05,0,0,1-1.66-1.328,3.007,3.007,0,0,1-.6-1.768h3.076a1.272,1.272,0,0,0,.488,1.069,2.009,2.009,0,0,0,1.2.337,1.58,1.58,0,0,0,1.011-.273A.875.875,0,0,0,75.156-2.969ZM12.959,30H9.551V24.063H4.5V30H1.074V15.781H4.5v5.645H9.551V15.781h3.408ZM26.006,18.428H21.738V30H18.311V18.428H14.121V15.781H26.006Zm12.764,0H34.5V30H31.074V18.428H26.885V15.781H38.77Zm4.873,6.748V30H40.215V15.781h5.674a6.608,6.608,0,0,1,2.886.6,4.526,4.526,0,0,1,1.943,1.709,4.667,4.667,0,0,1,.688,2.515,4.114,4.114,0,0,1-1.489,3.325,6.179,6.179,0,0,1-4.087,1.245Zm0-2.646h2.246a2.118,2.118,0,0,0,1.519-.5,1.85,1.85,0,0,0,.522-1.406,2.287,2.287,0,0,0-.537-1.592,1.9,1.9,0,0,0-1.465-.605H43.643Z" transform="translate(665.5 9781)" fill="#12263f"/>
    <path id="Trazado_105834" data-name="Trazado 105834" d="M-4044.3-7798.129l-2.569-1.483c6.911-11.969,13.2-24.139,18.7-36.171,5.255-11.507,9.923-23.193,13.875-34.735A333.464,333.464,0,0,0-3999-7935.19a295.946,295.946,0,0,0-5.266-106.734,290.78,290.78,0,0,0-12.6-40.085A275.921,275.921,0,0,0-4030.8-8111.9c-8.751-16.119-15.866-25.043-15.937-25.131l2.312-1.857c.294.366,7.305,9.151,16.167,25.455a278.712,278.712,0,0,1,14.093,30.189,293.847,293.847,0,0,1,12.747,40.493,298.876,298.876,0,0,1,5.367,107.846,336.449,336.449,0,0,1-15.419,65.293c-3.984,11.643-8.69,23.43-13.988,35.033C-4031-7822.452-4037.335-7810.188-4044.3-7798.129Z" transform="translate(4824.167 17757.508)" fill="#4dd0e1"/>
    <g id="Grupo_92497" data-name="Grupo 92497" transform="translate(175)">
      <circle id="Elipse_1685" data-name="Elipse 1685" cx="19" cy="19" r="19" transform="translate(613 9656.5)" fill="#fff"/>
      <path id="Elipse_1685_-_Contorno" data-name="Elipse 1685 - Contorno" d="M19,2A17,17,0,0,0,6.979,31.021,17,17,0,0,0,31.021,6.979,16.889,16.889,0,0,0,19,2m0-2A19,19,0,1,1,0,19,19,19,0,0,1,19,0Z" transform="translate(613 9656.5)" fill="#4dd0e1"/>
      <g id="flecha-hacia-abajo" transform="translate(591.714 9664)">
        <g id="Grupo_92493" data-name="Grupo 92493" transform="translate(32.304)">
          <path id="Trazado_105844" data-name="Trazado 105844" d="M48.239,10.127a.381.381,0,0,0-.352-.235H43.718V.38a.381.381,0,0,0-.38-.38H37.25a.381.381,0,0,0-.38.38V9.892H32.685a.38.38,0,0,0-.269.649l7.59,7.615a.381.381,0,0,0,.539,0l7.612-7.615A.38.38,0,0,0,48.239,10.127Z" transform="translate(-32.304)" fill="#4dd0e1"/>
        </g>
      </g>
      <rect id="Rectángulo_32053" data-name="Rectángulo 32053" width="14" height="2" transform="translate(625 9684)" fill="#fff"/>
      <path id="Rectángulo_32053_-_Contorno" data-name="Rectángulo 32053 - Contorno" d="M0,0H14V2H0Z" transform="translate(625 9684)" fill="#4dd0e1"/>
    </g>
    <g id="Grupo_92494" data-name="Grupo 92494" transform="translate(175 8)">
      <circle id="Elipse_1697" data-name="Elipse 1697" cx="19" cy="19" r="19" transform="translate(632 9726.5)" fill="#fff"/>
      <path id="Elipse_1697_-_Contorno" data-name="Elipse 1697 - Contorno" d="M19,2A17,17,0,0,0,6.979,31.021,17,17,0,0,0,31.021,6.979,16.889,16.889,0,0,0,19,2m0-2A19,19,0,1,1,0,19,19,19,0,0,1,19,0Z" transform="translate(632 9726.5)" fill="#4dd0e1"/>
      <g id="flecha-hacia-abajo-2" data-name="flecha-hacia-abajo" transform="translate(691.286 9756) rotate(180)">
        <g id="Grupo_92493-2" data-name="Grupo 92493" transform="translate(32.304)">
          <path id="Trazado_105844-2" data-name="Trazado 105844" d="M48.239,10.127a.381.381,0,0,0-.352-.235H43.718V.38a.381.381,0,0,0-.38-.38H37.25a.381.381,0,0,0-.38.38V9.892H32.685a.38.38,0,0,0-.269.649l7.59,7.615a.381.381,0,0,0,.539,0l7.612-7.615A.38.38,0,0,0,48.239,10.127Z" transform="translate(-32.304)" fill="#4dd0e1"/>
        </g>
      </g>
      <rect id="Rectángulo_32054" data-name="Rectángulo 32054" width="14" height="2" transform="translate(658 9736) rotate(180)" fill="#fff"/>
      <path id="Rectángulo_32054_-_Contorno" data-name="Rectángulo 32054 - Contorno" d="M0,0H14V2H0Z" transform="translate(658 9736) rotate(180)" fill="#4dd0e1"/>
    </g>
    <g id="Grupo_92495" data-name="Grupo 92495" transform="translate(175)">
      <circle id="Elipse_1697-2" data-name="Elipse 1697" cx="19" cy="19" r="19" transform="translate(632 9810.5)" fill="#fff"/>
      <path id="Elipse_1697_-_Contorno-2" data-name="Elipse 1697 - Contorno" d="M19,2A17,17,0,0,0,6.979,31.021,17,17,0,0,0,31.021,6.979,16.889,16.889,0,0,0,19,2m0-2A19,19,0,1,1,0,19,19,19,0,0,1,19,0Z" transform="translate(632 9810.5)" fill="#4dd0e1"/>
      <g id="reutilizar" transform="translate(630.368 9815.835)">
        <path id="Trazado_105845" data-name="Trazado 105845" d="M124.449,115.538l-1.337.91c6.563,9.749-3.906,21.944-14.495,17.064l1.3-.357-.43-1.559-3.955,1.09,1.09,3.955,1.559-.43-.354-1.284C119.876,140.624,131.967,126.715,124.449,115.538Z" transform="translate(-92.874 -109.309)" fill="#4dd0e1"/>
        <path id="Trazado_105846" data-name="Trazado 105846" d="M25.519,3.128l-1.3.357.43,1.559,3.955-1.09L27.518,0,25.959.43l.354,1.284C14.229-3.985,2.18,9.946,9.688,21.1l1.337-.91C4.461,10.443,14.931-1.752,25.519,3.128Z" transform="translate(0)" fill="#4dd0e1"/>
      </g>
      <path id="Icon_awesome-check" data-name="Icon awesome-check" d="M4.076,13.35l-3.9-3.9a.6.6,0,0,1,0-.849l.849-.849a.6.6,0,0,1,.849,0L4.5,10.38l5.627-5.627a.6.6,0,0,1,.849,0l.849.849a.6.6,0,0,1,0,.849l-6.9,6.9A.6.6,0,0,1,4.076,13.35Z" transform="translate(645 9820.448)" fill="#4dd0e1"/>
    </g>
    <g id="Grupo_92496" data-name="Grupo 92496" transform="translate(175)">
      <circle id="Elipse_1698" data-name="Elipse 1698" cx="19" cy="19" r="19" transform="translate(613 9888.5)" fill="#fff"/>
      <path id="Elipse_1698_-_Contorno" data-name="Elipse 1698 - Contorno" d="M19,2A17,17,0,0,0,6.979,31.021,17,17,0,0,0,31.021,6.979,16.889,16.889,0,0,0,19,2m0-2A19,19,0,1,1,0,19,19,19,0,0,1,19,0Z" transform="translate(613 9888.5)" fill="#4dd0e1"/>
      <path id="Icon_material-delete" data-name="Icon material-delete" d="M8.5,20.5a2.006,2.006,0,0,0,2,2h8a2.006,2.006,0,0,0,2-2V8.5H8.5Zm13-15H18l-1-1H12l-1,1H7.5v2h14Z" transform="translate(617.5 9893.5)" fill="#4dd0e1"/>
    </g>
    <path id="Trazado_106230" data-name="Trazado 106230" d="M10,0h99a10,10,0,0,1,10,10V26a10,10,0,0,1-10,10H10A10,10,0,0,1,0,26V10A10,10,0,0,1,10,0Z" transform="translate(853 9659)" fill="#ffca28"/>
    <path id="Trazado_106231" data-name="Trazado 106231" d="M.483-4.825A6.421,6.421,0,0,1,.958-7.374,3.821,3.821,0,0,1,2.32-9.083a3.591,3.591,0,0,1,2.065-.6,2.855,2.855,0,0,1,2.32,1l.105-.826H9.5V-.36a4.009,4.009,0,0,1-.584,2.184A3.75,3.75,0,0,1,7.225,3.248a6.219,6.219,0,0,1-2.566.5,5.365,5.365,0,0,1-2.026-.4,3.657,3.657,0,0,1-1.5-1.028L2.373.58a2.716,2.716,0,0,0,2.18.976A1.764,1.764,0,0,0,6.521-.466v-.3a2.781,2.781,0,0,1-2.153.94A3.437,3.437,0,0,1,1.556-1.156,5.517,5.517,0,0,1,.483-4.72Zm2.971.185a3.383,3.383,0,0,0,.439,1.85,1.387,1.387,0,0,0,1.23.681,1.573,1.573,0,0,0,1.4-.642v-4a1.534,1.534,0,0,0-1.38-.65A1.4,1.4,0,0,0,3.9-6.693,3.858,3.858,0,0,0,3.454-4.641ZM15.785.176a4.889,4.889,0,0,1-3.542-1.305,4.507,4.507,0,0,1-1.354-3.4v-.246a5.84,5.84,0,0,1,.541-2.575,3.955,3.955,0,0,1,1.578-1.727,4.763,4.763,0,0,1,2.461-.611,4.117,4.117,0,0,1,3.164,1.244,4.887,4.887,0,0,1,1.16,3.467v1.151H13.9A2.135,2.135,0,0,0,14.6-2.566a2.066,2.066,0,0,0,1.389.457,2.662,2.662,0,0,0,2.2-.984l1.354,1.6A3.784,3.784,0,0,1,17.969-.277,5.3,5.3,0,0,1,15.785.176ZM15.451-7.4q-1.3,0-1.547,1.723h2.988v-.229a1.467,1.467,0,0,0-.36-1.1A1.434,1.434,0,0,0,15.451-7.4Zm8.982-4.474V-9.51H26v2.057H24.434V-3.1a1.111,1.111,0,0,0,.193.747,1.037,1.037,0,0,0,.765.211A4.345,4.345,0,0,0,26.13-2.2V-.079a5.466,5.466,0,0,1-1.67.255A3.1,3.1,0,0,1,22.2-.545a2.954,2.954,0,0,1-.729-2.188v-4.72H20.259V-9.51h1.213v-2.364Z" transform="translate(883 9682)" fill="#12263f"/>
    <path id="Trazado_106232" data-name="Trazado 106232" d="M10,0h99a10,10,0,0,1,10,10V26a10,10,0,0,1-10,10H10A10,10,0,0,1,0,26V10A10,10,0,0,1,10,0Z" transform="translate(853 9735)" fill="#ffca28"/>
    <path id="Trazado_106233" data-name="Trazado 106233" d="M9.659-4.685a5.735,5.735,0,0,1-1,3.538A3.2,3.2,0,0,1,5.968.176,2.742,2.742,0,0,1,3.814-.782V3.656H.853V-9.51H3.621l.088.879A2.742,2.742,0,0,1,5.95-9.686a3.224,3.224,0,0,1,2.733,1.3,5.805,5.805,0,0,1,.976,3.564ZM6.7-4.869Q6.7-7.4,5.221-7.4a1.394,1.394,0,0,0-1.406.756V-2.9a1.439,1.439,0,0,0,1.424.791q1.415,0,1.459-2.443Zm3.894.026a5.613,5.613,0,0,1,.554-2.536,3.96,3.96,0,0,1,1.591-1.709,4.791,4.791,0,0,1,2.435-.6,4.373,4.373,0,0,1,3.366,1.323,5.076,5.076,0,0,1,1.23,3.6v.105a4.925,4.925,0,0,1-1.235,3.529A4.384,4.384,0,0,1,15.188.176a4.434,4.434,0,0,1-3.261-1.217,4.761,4.761,0,0,1-1.327-3.3Zm2.962.185a3.538,3.538,0,0,0,.413,1.934,1.376,1.376,0,0,0,1.222.615q1.582,0,1.617-2.435v-.3Q16.8-7.4,15.17-7.4q-1.485,0-1.608,2.206Zm12.5,1.986a.684.684,0,0,0-.4-.606,6.016,6.016,0,0,0-1.5-.475A6.853,6.853,0,0,1,22.324-4.4a3.062,3.062,0,0,1-1.1-.971,2.319,2.319,0,0,1-.378-1.31,2.628,2.628,0,0,1,1.081-2.158,4.453,4.453,0,0,1,2.83-.848,4.934,4.934,0,0,1,3.023.853,2.666,2.666,0,0,1,1.143,2.241H25.954q0-1.143-1.2-1.143a1.194,1.194,0,0,0-.782.259.8.8,0,0,0-.316.646.737.737,0,0,0,.387.642,3.654,3.654,0,0,0,1.235.4,10.671,10.671,0,0,1,1.49.378A2.706,2.706,0,0,1,28.907-2.76,2.491,2.491,0,0,1,27.751-.642a5.068,5.068,0,0,1-2.993.817,5.172,5.172,0,0,1-2.18-.439,3.645,3.645,0,0,1-1.494-1.2,2.707,2.707,0,0,1-.536-1.591h2.769a1.145,1.145,0,0,0,.439.962,1.808,1.808,0,0,0,1.081.3,1.422,1.422,0,0,0,.91-.246A.787.787,0,0,0,26.051-2.672Zm7.69-9.2V-9.51h1.564v2.057H33.741V-3.1a1.111,1.111,0,0,0,.193.747,1.037,1.037,0,0,0,.765.211,4.345,4.345,0,0,0,.738-.053V-.079a5.466,5.466,0,0,1-1.67.255,3.1,3.1,0,0,1-2.259-.721,2.954,2.954,0,0,1-.729-2.188v-4.72H29.566V-9.51h1.213v-2.364Z" transform="translate(883 9758.5)" fill="#12263f"/>
    <path id="Trazado_106234" data-name="Trazado 106234" d="M10,0h99a10,10,0,0,1,10,10V26a10,10,0,0,1-10,10H10A10,10,0,0,1,0,26V10A10,10,0,0,1,10,0Z" transform="translate(853 9811)" fill="#ffca28"/>
    <path id="Trazado_106235" data-name="Trazado 106235" d="M9.659-4.685a5.735,5.735,0,0,1-1,3.538A3.2,3.2,0,0,1,5.968.176,2.742,2.742,0,0,1,3.814-.782V3.656H.853V-9.51H3.621l.088.879A2.742,2.742,0,0,1,5.95-9.686a3.224,3.224,0,0,1,2.733,1.3,5.805,5.805,0,0,1,.976,3.564ZM6.7-4.869Q6.7-7.4,5.221-7.4a1.394,1.394,0,0,0-1.406.756V-2.9a1.439,1.439,0,0,0,1.424.791q1.415,0,1.459-2.443Zm9.932,3.841a3.054,3.054,0,0,1-2.54,1.2,3,3,0,0,1-2.369-.91,3.826,3.826,0,0,1-.8-2.615V-9.51h2.962v6.179a1.065,1.065,0,0,0,1.187,1.222,1.548,1.548,0,0,0,1.45-.729V-9.51h2.979V0H16.717Zm7.937-10.846V-9.51H26.13v2.057H24.565V-3.1a1.111,1.111,0,0,0,.193.747,1.037,1.037,0,0,0,.765.211,4.345,4.345,0,0,0,.738-.053V-.079a5.466,5.466,0,0,1-1.67.255,3.1,3.1,0,0,1-2.259-.721A2.954,2.954,0,0,1,21.6-2.733v-4.72H20.391V-9.51H21.6v-2.364Z" transform="translate(883 9833.5)" fill="#12263f"/>
    <path id="Trazado_106236" data-name="Trazado 106236" d="M10,0h99a10,10,0,0,1,10,10V26a10,10,0,0,1-10,10H10A10,10,0,0,1,0,26V10A10,10,0,0,1,10,0Z" transform="translate(853 9892)" fill="#ffca28"/>
    <path id="Trazado_106237" data-name="Trazado 106237" d="M.457-4.825a5.809,5.809,0,0,1,.976-3.56,3.211,3.211,0,0,1,2.725-1.3,2.731,2.731,0,0,1,2.145,1V-13.5H9.272V0H6.609L6.46-1.02A2.8,2.8,0,0,1,4.14.176a3.205,3.205,0,0,1-2.689-1.3A5.993,5.993,0,0,1,.457-4.825Zm2.962.185q0,2.531,1.477,2.531A1.458,1.458,0,0,0,6.3-2.936V-6.557A1.419,1.419,0,0,0,4.913-7.4q-1.371,0-1.485,2.215ZM15.557.176a4.889,4.889,0,0,1-3.542-1.305,4.507,4.507,0,0,1-1.354-3.4v-.246A5.84,5.84,0,0,1,11.2-7.348a3.955,3.955,0,0,1,1.578-1.727,4.763,4.763,0,0,1,2.461-.611A4.117,4.117,0,0,1,18.4-8.442a4.887,4.887,0,0,1,1.16,3.467v1.151H13.676a2.135,2.135,0,0,0,.694,1.257,2.066,2.066,0,0,0,1.389.457,2.662,2.662,0,0,0,2.2-.984l1.354,1.6A3.784,3.784,0,0,1,17.741-.277,5.3,5.3,0,0,1,15.557.176ZM15.223-7.4q-1.3,0-1.547,1.723h2.988v-.229a1.467,1.467,0,0,0-.36-1.1A1.434,1.434,0,0,0,15.223-7.4ZM23.88,0H20.909V-13.5H23.88ZM30.3.176a4.889,4.889,0,0,1-3.542-1.305,4.507,4.507,0,0,1-1.354-3.4v-.246a5.84,5.84,0,0,1,.541-2.575,3.955,3.955,0,0,1,1.578-1.727,4.763,4.763,0,0,1,2.461-.611,4.117,4.117,0,0,1,3.164,1.244,4.887,4.887,0,0,1,1.16,3.467v1.151H28.424a2.135,2.135,0,0,0,.694,1.257,2.066,2.066,0,0,0,1.389.457,2.662,2.662,0,0,0,2.2-.984l1.354,1.6A3.784,3.784,0,0,1,32.489-.277,5.3,5.3,0,0,1,30.3.176ZM29.971-7.4q-1.3,0-1.547,1.723h2.988v-.229a1.467,1.467,0,0,0-.36-1.1A1.434,1.434,0,0,0,29.971-7.4Zm8.982-4.474V-9.51h1.564v2.057H38.953V-3.1a1.111,1.111,0,0,0,.193.747,1.037,1.037,0,0,0,.765.211,4.345,4.345,0,0,0,.738-.053V-.079a5.466,5.466,0,0,1-1.67.255,3.1,3.1,0,0,1-2.259-.721,2.954,2.954,0,0,1-.729-2.188v-4.72H34.778V-9.51h1.213v-2.364ZM46.283.176a4.889,4.889,0,0,1-3.542-1.305,4.507,4.507,0,0,1-1.354-3.4v-.246a5.84,5.84,0,0,1,.541-2.575,3.955,3.955,0,0,1,1.578-1.727,4.763,4.763,0,0,1,2.461-.611,4.117,4.117,0,0,1,3.164,1.244,4.887,4.887,0,0,1,1.16,3.467v1.151H44.4A2.135,2.135,0,0,0,45.1-2.566a2.066,2.066,0,0,0,1.389.457,2.662,2.662,0,0,0,2.2-.984l1.354,1.6A3.784,3.784,0,0,1,48.467-.277,5.3,5.3,0,0,1,46.283.176ZM45.949-7.4q-1.3,0-1.547,1.723h2.988v-.229a1.467,1.467,0,0,0-.36-1.1A1.434,1.434,0,0,0,45.949-7.4Z" transform="translate(883 9916.5)" fill="#12263f"/>
  </g>
</svg>
